<?xml version="1.0" encoding="utf-8"?>
<!-- Generator: Adobe Illustrator 16.0.4, SVG Export Plug-In . SVG Version: 6.00 Build 0)  -->
<!DOCTYPE svg PUBLIC "-//W3C//DTD SVG 1.1//EN" "http://www.w3.org/Graphics/SVG/1.1/DTD/svg11.dtd">
<svg version="1.1" id="Layer_1" xmlns="http://www.w3.org/2000/svg" xmlns:xlink="http://www.w3.org/1999/xlink" x="0px" y="0px"
	 width="600px" height="369.996px" viewBox="0 0 600 369.996" style="enable-background:new 0 0 600 369.996;" xml:space="preserve"
	>
<style type="text/css">
<![CDATA[
	.st0{fill:#E1E6E9;}
	.st1{fill:#E2B89C;}
	.st2{fill:#4ABA93;}
	.st3{fill:#4D97CB;}
	.st4{opacity:0.65;}
	.st5{fill:#1A405F;}
	.st6{fill:#EBD9C7;}
	.st7{opacity:0.8;fill:#F1F10E;stroke:#2F2E33;stroke-width:3;stroke-miterlimit:10;}
	.st8{opacity:0.15;fill:#FFFFFF;enable-background:new    ;}
	.st9{fill:#F1F10E;}
	.st10{fill:#F4E0CC;}
	.st11{fill:#F8F1E5;}
	.st12{fill:#C1C10B;}
	.st13{fill:#C9A993;}
	.st14{fill:#2F2E33;}
	.st15{opacity:0.2;}
	.st16{opacity:0.4;}
	.st17{fill:#FFF8EF;}
	.st18{fill:#FFFFFF;}
	.st19{fill:#65FFC8;}
	.st20{fill:#CCD0DA;}
	.st21{fill:#0093BB;}
	.st22{fill:#00A3C9;}
	.st23{fill:#0289A8;}
	.st24{fill:#3D3634;}
	.st25{fill:#3E424E;}
	.st26{fill:#404E6B;}
]]>
</style>
<path d="M355.046,35.819l6.398,1.459l0.349,0.077c0.21,1.265,0.448,2.469,0.715,3.614c2.584,11.225,7.681,16.943,13.671,19.34"/>
<path d="M362.166,40.396"/>
<path d="M375.706,61.572c-5.295-1.985-9.396-6.118-12.188-12.289l-0.026-0.058c-1.62-3.749-2.752-7.688-3.372-11.724V37.29
	c-0.003,0.05-0.003,0.1,0,0.15l2.649-0.45c0,0,0,0.054,0,0.111c0.594,3.803,1.67,7.515,3.203,11.045l0.022,0.058
	c2.474,5.465,6.068,9.125,10.672,10.849"/>
<circle class="st6" cx="239.853" cy="96.019" r="16.321"/>
<path class="st6" d="M231.211,95.624c0.001-7.683,5.357-14.325,12.865-15.953c-8.809-1.91-17.499,3.683-19.409,12.493
	c-1.91,8.81,3.683,17.499,12.492,19.409c2.279,0.494,4.637,0.494,6.917,0C236.57,109.945,231.214,103.305,231.211,95.624z"/>
<path class="st25" d="M240.428,113.493c-9.756,0-17.665-7.909-17.665-17.666s7.909-17.665,17.665-17.665
	c9.757,0,17.665,7.909,17.665,17.665l0,0C258.083,105.579,250.18,113.482,240.428,113.493z M240.428,80.85
	c-8.271,0-14.977,6.706-14.977,14.977c0,8.272,6.706,14.977,14.977,14.977s14.978-6.705,14.978-14.977
	C255.406,87.556,248.7,80.85,240.428,80.85L240.428,80.85z"/>
<circle class="st6" cx="381.175" cy="96.019" r="16.321"/>
<path class="st6" d="M389.815,95.624c0-7.683-5.357-14.325-12.864-15.953c8.809-1.91,17.498,3.683,19.408,12.493
	c1.911,8.81-3.683,17.499-12.492,19.409c-2.278,0.494-4.637,0.494-6.916,0C384.457,109.945,389.813,103.305,389.815,95.624z"/>
<path class="st25" d="M380.6,113.493c-9.757,0-17.666-7.909-17.666-17.666s7.909-17.665,17.666-17.665
	c9.756,0,17.665,7.909,17.665,17.665l0,0C398.254,105.579,390.352,113.482,380.6,113.493z M380.6,80.85
	c-8.272,0-14.978,6.706-14.978,14.977c0,8.272,6.705,14.977,14.978,14.977c8.271,0,14.977-6.705,14.977-14.977l0,0
	C395.576,87.556,388.871,80.85,380.6,80.85z"/>
<path d="M252.637,44.01"/>
<path d="M253.328,40.63l2.305,1.371"/>
<path d="M368.954,56.925c-0.119,0.432-0.23,0.866-0.333,1.302l-2.615-0.615"/>
<path class="st6" d="M311.665,1.713L311.665,1.713c37.859,0,68.55,30.691,68.55,68.549v41.506c0,37.859-30.69,68.55-68.55,68.55l0,0
	c-37.858,0-68.548-30.691-68.548-68.55V70.262C243.117,32.404,273.807,1.713,311.665,1.713z"/>
<path class="st13" d="M310.514,1L310.514,1c-37.854,0-71.889,36.625-68.933,76.828l2.496,1.843
	c0-37.859,28.194-65.784,66.053-65.784l0,0c37.858,0,66.821,30.69,66.821,68.549h1.728v-4.608C384.875,39.463,348.367,1,310.514,1z"
	/>
<path class="st1" d="M310.897,166.823L310.897,166.823c-37.435,0-67.781-28.376-67.781-63.365v13.491
	c0,35.004,30.338,63.364,67.781,63.364l0,0c37.436,0,67.781-28.376,67.781-63.364v-13.507
	C378.679,138.447,348.333,166.823,310.897,166.823z"/>
<ellipse transform="matrix(-0.3987 -0.9171 0.9171 -0.3987 235.6117 346.3044)" class="st25" cx="231.335" cy="95.911" rx="6.726" ry="0.493"/>
<path class="st25" d="M231.519,95.513c1.536-3.073,2.811-5.584,3.072-5.48s-0.638,2.792-2.186,5.914
	c-1.547,3.122-3.148,5.457-3.379,5.327C228.796,101.142,229.994,98.604,231.519,95.513z"/>
<path class="st25" d="M386.997,95.704c1.87,2.984,2.903,5.657,2.665,5.761s-1.663-2.304-3.498-5.25
	c-1.836-2.946-3.398-5.277-3.181-5.45C383.203,90.593,385.135,92.716,386.997,95.704z"/>
<path class="st25" d="M385.849,95.478c1.413-2.792,3.072-4.742,3.275-4.589c0.204,0.153-1.021,2.304-2.399,5.034
	c-1.379,2.731-2.393,4.993-2.654,4.904C383.81,100.739,384.424,98.266,385.849,95.478z"/>
<path class="st25" d="M310.514,181.305c-38.538,0-69.893-31.353-69.893-69.894V69.894C240.621,31.352,271.976,0,310.514,0
	c38.537,0,69.894,31.352,69.894,69.894v41.518C380.407,149.949,349.055,181.305,310.514,181.305z M310.514,2.7
	c-37.059,0-67.205,30.146-67.205,67.206v41.506c0,37.06,30.146,67.205,67.205,67.205c37.059,0,67.205-30.146,67.205-67.205V69.894
	c0-37.043-30.146-67.205-67.205-67.205V2.7z"/>
<rect x="308.689" y="69.329" class="st25" width="2.688" height="39.171"/>
<path class="st25" d="M310.034,120.97c-4.982-0.006-9.02-4.043-9.025-9.024h2.688c0,3.499,2.837,6.336,6.337,6.336
	c3.499,0,6.336-2.837,6.336-6.336h2.688C319.052,116.927,315.015,120.963,310.034,120.97z"/>
<g class="st4">
	<path class="st25" d="M324.776,70.277c2.192-4.666,8.345-6.198,13.084-5.541c4.95,0.688,9.094,3.84,11.429,8.188
		c1.053,1.962,4.036,0.219,2.984-1.744c-2.91-5.49-8.333-9.199-14.505-9.919c-5.872-0.661-13.288,1.536-15.98,7.273
		c-0.94,2.001,2.04,3.76,2.984,1.743H324.776z"/>
	<path class="st25" d="M270.325,71.891c1.641-4.77,7.773-6.801,12.362-6.674c4.876,0.198,9.367,2.701,12.101,6.744
		c1.249,1.824,4.244,0.096,2.984-1.744c-3.56-5.196-9.362-8.521-15.745-8.449c-6.072,0.058-12.961,3.141-15.051,9.217
		c-0.726,2.108,2.611,3.015,3.334,0.918L270.325,71.891z"/>
</g>
<path class="st25" d="M299.393,142.222c2.705,3.859,7.408,5.793,12.046,4.954c4.834-0.818,8.752-4.5,10.753-8.833
	c0.926-2.004-2.051-3.763-2.984-1.744c-1.501,3.253-4.07,6.079-7.631,7.032c-3.337,0.895-7.192-0.249-9.193-3.138
	c-1.26-1.816-4.255-0.088-2.984,1.744L299.393,142.222z"/>
<path class="st11" d="M335.048,24.52c3.523,1.805,6.9,3.882,10.1,6.214c1.21,0.86,2.362-1.152,1.152-1.989
	c-3.199-2.332-6.576-4.409-10.1-6.214C334.875,21.874,333.707,23.859,335.048,24.52z"/>
<g class="st15">
	<rect x="59.439" y="214.23" class="st9" width="57.908" height="15.198"/>
	<rect x="59.335" y="225.766" class="st12" width="57.909" height="3.377"/>
	<path class="st14" d="M58.014,212.803h60.762v18.07H58.014V212.803z M115.922,215.657H60.866v12.363h55.056V215.657z"/>
	<rect x="1.426" y="214.23" class="st9" width="57.909" height="15.198"/>
	<rect x="1.322" y="225.766" class="st12" width="57.908" height="3.377"/>
	<path class="st14" d="M0,212.803h60.762v18.07H0V212.803z M57.908,215.657H2.854v12.363h55.055V215.657z"/>
	<rect x="29.738" y="199.033" class="st9" width="57.909" height="15.197"/>
	<rect x="29.644" y="210.579" class="st12" width="57.909" height="3.376"/>
	<path class="st14" d="M28.312,197.616h60.762v18.069H28.312V197.616z M86.221,200.469H31.165v12.363h55.056V200.469z"/>
</g>
<g class="st15">
	<rect x="482.652" y="224.012" class="st9" width="57.908" height="15.198"/>
	<rect x="482.756" y="224.297" class="st12" width="57.909" height="3.377"/>
	<path class="st14" d="M541.986,240.637h-60.762v-18.07h60.762V240.637z M484.078,237.784h55.056V225.42h-55.056V237.784z"/>
	<rect x="540.665" y="224.012" class="st9" width="57.909" height="15.198"/>
	<rect x="540.77" y="224.297" class="st12" width="57.908" height="3.377"/>
	<path class="st14" d="M600,240.637h-60.762v-18.07H600V240.637z M542.092,237.784h55.055V225.42h-55.055V237.784z"/>
	<rect x="512.353" y="239.21" class="st9" width="57.909" height="15.197"/>
	<rect x="512.447" y="239.486" class="st12" width="57.909" height="3.376"/>
	<path class="st14" d="M571.688,255.825h-60.762v-18.069h60.762V255.825z M513.779,252.971h55.056v-12.363h-55.056V252.971z"/>
</g>
<g class="st15">
	<rect x="459.826" y="39.463" class="st9" width="57.908" height="15.198"/>
	<rect x="459.722" y="51" class="st12" width="57.909" height="3.376"/>
	<path class="st14" d="M458.4,38.037h60.762v18.07H458.4V38.037z M516.309,40.89h-55.056v12.363h55.056V40.89z"/>
	<rect x="401.812" y="39.463" class="st9" width="57.909" height="15.198"/>
	<rect x="401.709" y="51" class="st12" width="57.908" height="3.376"/>
	<path class="st14" d="M400.387,38.037h60.762v18.07h-60.762V38.037z M458.295,40.89H403.24v12.363h55.055V40.89z"/>
	<rect x="430.125" y="24.266" class="st9" width="57.909" height="15.197"/>
	<rect x="430.03" y="35.812" class="st12" width="57.909" height="3.376"/>
	<path class="st14" d="M428.699,22.849h60.762v18.069h-60.762V22.849z M486.607,25.702h-55.056v12.363h55.056V25.702z"/>
</g>
<title>Asset 300</title>
<polygon class="st9" points="186.403,298.67 156.921,261.579 307.186,208.321 456.498,268.236 438.903,302.949 202.571,331.955 "/>
<path class="st24" d="M202.685,333.496l-16.548-34.066l-30.633-38.536l152.632-54.095l151.216,60.695l-18.641,36.777l-0.752,0.094
	L202.685,333.496z M160.231,262.254l28.331,35.644l15.788,32.508l234.563-28.789l16.558-32.621l-147.335-59.145L160.231,262.254z"/>
<rect x="82.265" y="317.215" class="st5" width="455.689" height="51.355"/>
<rect x="83.073" y="318.166" class="st14" width="455.689" height="11.412"/>
<path class="st14" d="M539.381,369.996H80.838v-54.209h458.542V369.996z M83.691,367.145h452.836v-48.504H83.691V367.145z"/>
<g class="st15">
	<rect x="25.203" y="30.952" class="st9" width="57.909" height="15.198"/>
	<rect x="25.307" y="31.237" class="st12" width="57.909" height="3.376"/>
	<path class="st14" d="M84.538,47.576H23.776v-18.07h60.762V47.576z M26.629,44.723h55.056V32.36H26.629V44.723z"/>
	<rect x="83.216" y="30.952" class="st9" width="57.909" height="15.198"/>
	<rect x="83.32" y="31.237" class="st12" width="57.909" height="3.376"/>
	<path class="st14" d="M142.551,47.576H81.789v-18.07h60.762V47.576z M84.642,44.723h55.056V32.36H84.642V44.723z"/>
	<rect x="54.903" y="46.15" class="st9" width="57.909" height="15.197"/>
	<rect x="54.999" y="46.425" class="st12" width="57.909" height="3.376"/>
	<path class="st14" d="M114.239,62.764H53.477V44.695h60.762V62.764z M56.33,59.911h55.056V47.548H56.33V59.911z"/>
</g>
<circle class="st18" cx="456.022" cy="240.18" r="4.279"/>
<path class="st24" d="M456.022,245.887c-3.151,0-5.706-2.555-5.706-5.707c0-3.151,2.555-5.706,5.706-5.706s5.706,2.555,5.706,5.706
	C461.729,243.333,459.174,245.887,456.022,245.887z M456.022,237.327c-1.576,0-2.854,1.277-2.854,2.854s1.277,2.854,2.854,2.854
	s2.854-1.277,2.854-2.854S457.599,237.327,456.022,237.327L456.022,237.327z"/>
<rect x="248.696" y="292.488" class="st0" width="127.439" height="10.461"/>
<rect x="247.745" y="292.488" class="st18" width="127.439" height="3.804"/>
<path class="st24" d="M377.086,303.9H246.794v-13.315h130.292V303.9z M249.647,301.047h124.586v-7.608H249.647V301.047z"/>
<path class="st0" d="M164.054,77.553h292.92c6.303,0,11.412,5.109,11.412,11.412v179.746c0,6.303-5.109,11.412-11.412,11.412
	h-292.92c-6.303,0-11.412-5.109-11.412-11.412V88.965C152.642,82.663,157.751,77.553,164.054,77.553z"/>
<path class="st18" d="M456.974,77.553h-292.92c-6.303,0-11.412,5.109-11.412,11.412v11.413c0-6.303,5.109-11.413,11.412-11.413
	h292.92c6.303,0,11.412,5.109,11.412,11.413V88.965C468.386,82.663,463.276,77.553,456.974,77.553z"/>
<path class="st24" d="M456.974,281.55h-292.92c-7.086-0.011-12.828-5.753-12.839-12.839V88.965
	c0.011-7.086,5.752-12.829,12.839-12.839h292.92c7.086,0.01,12.828,5.752,12.839,12.839v179.746
	C469.802,275.797,464.06,281.54,456.974,281.55z M164.054,78.979c-5.513,0.005-9.98,4.473-9.986,9.986v179.746
	c0.005,5.514,4.473,9.98,9.986,9.986h292.92c5.513-0.006,9.98-4.473,9.985-9.986V88.965c-0.005-5.513-4.473-9.98-9.985-9.986
	H164.054z"/>
<circle class="st5" cx="310.514" cy="158.391" r="22.349"/>
<rect x="281.507" y="195.481" class="st24" width="58.014" height="2.854"/>
<polygon class="st0" points="328.107,196.432 310.038,196.432 291.968,196.432 281.507,301.047 310.038,301.047 338.569,301.047 "/>
<rect x="292.919" y="197.383" class="st18" width="36.139" height="8.56"/>
<polygon class="st20" points="339.996,301.047 282.934,301.047 283.885,294.389 339.045,294.389 "/>
<path class="st24" d="M341.099,303.424h-60.219l10.747-107.466h38.717L341.099,303.424z M284.037,300.57h53.905l-10.176-101.76
	h-33.553L284.037,300.57z"/>
<circle class="st18" cx="181.173" cy="263.957" r="2.378"/>
<path class="st24" d="M181.173,267.286c-1.838,0-3.329-1.491-3.329-3.329c0-1.839,1.491-3.329,3.329-3.329
	c1.838,0,3.329,1.49,3.329,3.329C184.501,265.794,183.011,267.286,181.173,267.286z M181.173,262.53
	c-0.788,0-1.427,0.639-1.427,1.427s0.639,1.427,1.427,1.427c0.788,0,1.426-0.639,1.426-1.427S181.96,262.53,181.173,262.53z"/>
<circle class="st18" cx="446.987" cy="264.432" r="5.23"/>
<path class="st24" d="M446.987,270.614c-3.414,0-6.182-2.768-6.182-6.182s2.768-6.182,6.182-6.182s6.182,2.768,6.182,6.182
	C453.164,267.844,450.399,270.608,446.987,270.614z M446.987,260.153c-2.363,0-4.279,1.916-4.279,4.279s1.916,4.279,4.279,4.279
	c2.364,0,4.28-1.916,4.28-4.279S449.352,260.153,446.987,260.153z"/>
<path class="st24" d="M310.752,240.18c-4.99,0-9.035-4.045-9.035-9.035c0-4.989,4.045-9.034,9.035-9.034
	c4.989,0,9.034,4.045,9.034,9.034C319.781,236.133,315.739,240.175,310.752,240.18z M310.752,224.012
	c-3.939,0-7.133,3.193-7.133,7.133s3.193,7.133,7.133,7.133c3.938,0,7.132-3.193,7.132-7.133
	C317.879,227.208,314.688,224.018,310.752,224.012z"/>
<circle class="st18" cx="310.749" cy="231.148" r="3.709"/>
<path class="st24" d="M310.752,235.795c-2.569-0.002-4.649-2.086-4.646-4.654c0.002-2.568,2.086-4.648,4.654-4.646
	c2.568,0.003,4.648,2.087,4.646,4.655c-0.001,1.233-0.492,2.415-1.364,3.286l0,0C313.17,235.309,311.985,235.798,310.752,235.795z
	 M310.752,228.387c-1.523-0.031-2.783,1.178-2.815,2.7s1.177,2.783,2.7,2.815c0.756,0.016,1.484-0.279,2.017-0.817l0,0
	c1.072-1.082,1.063-2.828-0.019-3.9C312.133,228.688,311.458,228.403,310.752,228.387z"/>
<rect x="189.256" y="258.25" class="st18" width="4.28" height="9.672"/>
<path class="st24" d="M194.487,268.874h-6.182v-11.574h6.182V268.874z M190.208,266.971h2.377v-7.77h-2.377V266.971z"/>
<rect x="189.732" y="258.25" class="st24" width="0.951" height="10.461"/>
<rect x="196.865" y="258.25" class="st18" width="4.28" height="9.672"/>
<path class="st24" d="M202.095,268.874h-6.182v-11.574h6.182V268.874z M197.816,266.971h2.377v-7.77h-2.377V266.971z"/>
<rect x="197.34" y="258.25" class="st24" width="0.951" height="10.461"/>
<rect x="204.473" y="258.25" class="st18" width="4.28" height="9.672"/>
<path class="st24" d="M209.704,268.874h-6.182v-11.574h6.182V268.874z M205.424,266.971h2.378v-7.77h-2.378V266.971z"/>
<rect x="204.949" y="258.25" class="st24" width="0.951" height="10.461"/>
<rect x="41.37" y="301.998" class="st5" width="537.336" height="17.119"/>
<rect x="42.321" y="302.949" class="st3" width="537.336" height="3.805"/>
<path class="st10" d="M204.473,302.283c0-10.374,8.409-18.783,18.783-18.783s18.783,8.409,18.783,18.783"/>
<path class="st17" d="M223.256,289.919c8.538,0.004,15.998,5.768,18.155,14.028h0.628c0-10.374-8.41-18.783-18.783-18.783
	s-18.783,8.409-18.783,18.783h0.627C207.259,295.687,214.719,289.923,223.256,289.919z"/>
<path class="st17" d="M404.904,288.968c8.537,0.004,15.997,5.768,18.155,14.028h0.628c0-10.374-8.41-18.783-18.783-18.783
	c-10.374,0-18.783,8.409-18.783,18.783h0.628C388.907,294.736,396.367,288.972,404.904,288.968z"/>
<path class="st10" d="M384.219,303.234c0-10.374,8.41-18.783,18.783-18.783c10.374,0,18.783,8.409,18.783,18.783"/>
<path class="st24" d="M243.466,302.283h-2.854c0-9.585-7.771-17.357-17.356-17.357c-9.585,0-17.356,7.771-17.356,17.357h-2.853
	c0-11.162,9.048-20.209,20.209-20.209C234.417,282.074,243.466,291.122,243.466,302.283z"/>
<path class="st17" d="M403.953,288.018c8.537,0.003,15.997,5.768,18.155,14.027h0.628c0-10.374-8.409-18.783-18.783-18.783
	c-10.373,0-18.783,8.409-18.783,18.783h0.628C387.956,293.786,395.416,288.021,403.953,288.018z"/>
<path class="st24" d="M423.212,301.332h-2.854c0-9.585-7.771-17.356-17.356-17.356s-17.356,7.771-17.356,17.356h-2.853
	c0-11.162,9.048-20.209,20.209-20.209S423.212,290.17,423.212,301.332z"/>
<path class="st14" d="M580.133,320.543H39.943V300.57h540.189V320.543z M42.797,317.689h534.482v-14.266H42.797V317.689z"/>
<rect x="310.038" y="239.229" class="st24" width="0.951" height="62.769"/>
<path class="st24" d="M324.304,350.025c-7.611-0.01-13.779-6.178-13.79-13.791v-17.117h0.951v17.117
	c0,7.092,5.748,12.84,12.839,12.84s12.839-5.748,12.839-12.84v-17.594h0.951v17.594
	C338.083,343.848,331.915,350.016,324.304,350.025z"/>
<path class="st7" d="M126.024,292.428c-1.022-4.179-11.243-27.877-11.802-29.173l-4.123-10.709l-0.091-11.17
	c0.113-0.116,0.241-0.251,0.369-0.395c0.547-0.616,1.03-1.289,0.856-2.029c-0.212-0.899-1.226-1.118-1.713-1.224
	c-0.529-0.115-1.248-0.217-2.139-0.304c-1.686-0.164-3.822-0.257-5.864-0.257c-1.265,0-3.077,0.037-4.528,0.214
	c-0.992,0.122-2.839,0.348-2.98,1.717c-0.032,0.3-0.102,0.972,1.346,2.318v11.473c-1.196,2.921-14.272,34.88-15.271,37.059
	c-0.548,1.199-1.695,4.288-0.473,7.055c0.771,1.747,2.305,2.999,4.56,3.72c0.333,0.105,0.888,0.283,9.503,0.283
	c6.508,0,15.133-0.102,20.84-0.17c2.891-0.033,5.172-0.061,6.033-0.061c0.143,0,0.245,0,0.301,0.003c0.025,0,0.051,0,0.076,0
	c0.833,0,1.82-0.444,2.704-1.167c0.176-0.06,0.3-0.123,0.356-0.186c0.104-0.117,0.192-0.256,0.279-0.394
	c0.163-0.169,0.32-0.347,0.468-0.535C126.096,296.759,126.555,294.604,126.024,292.428z M89.582,269.203
	c3.556-8.662,6.868-16.76,6.868-16.76v-12.221c0,0-1.403-1.193-1.352-1.677c0.066-0.638,3.062-0.891,6.354-0.891
	c4.012,0,8.464,0.376,8.584,0.891c0.097,0.411-1.259,1.677-1.259,1.677l0.096,11.872l4.207,10.928c0,0,1.108,2.566,2.645,6.181
	H89.582z"/>
<path class="st26" d="M534.773,277.11c0.291-6.271,0.301-12.567,0.162-18.843c-0.225-10.165-0.516-20.985-3.566-30.769
	c-1.093-3.502-2.773-7.684-6.535-9.015c-2.108-0.745-3.014,2.604-0.923,3.343c0.651,0.232,1.546,1.096,2.174,2.08
	c0.839,1.412,1.491,2.928,1.941,4.507c1.388,4.399,2.028,9.015,2.5,13.597c0.984,9.51,1.134,19.117,0.964,28.672
	c-0.038,2.14-0.087,4.282-0.184,6.421c-0.104,2.229,3.363,2.226,3.467,0V277.11z"/>
<path class="st21" d="M548.225,300.709h-32.617c-5.672,0-10.269-3.667-10.269-8.192l5.044-34.521l44.235,0.309l3.88,34.212
	C558.498,297.042,553.896,300.709,548.225,300.709L548.225,300.709z"/>
<path class="st23" d="M558.494,292.17c0,4.524-4.598,8.193-10.27,8.193h-32.617c-5.672,0-10.271-3.668-10.271-8.193l0.824-5.651
	c0.822,0.148,1.619,0.411,2.368,0.78c2.354,1.162,4.288,3.041,6.636,4.209c3.006,1.494,6.459,1.733,9.812,1.917l20.251,1.207
	c4.77,0.28,7.679-1.293,7.779-6.352c0.139-6.903,1.317-13.736,1.162-20.628l0.446-9.708L558.494,292.17z"/>
<path class="st19" d="M492.205,192.438c4.632-0.938,11.548,0.688,22.566,6.175c8.747,7.655,12.827,17.303,9.112,21.548
	c-3.715,4.244-13.817,1.48-22.565-6.176C492.57,206.33,491.212,197.75,492.205,192.438z"/>
<path class="st26" d="M509.014,205.397c-0.191-0.779-0.334-1.568-0.426-2.365c-0.102-0.873-0.434-2.871,0.495-3.395
	c0.583-0.328,0.06-1.227-0.523-0.897c-2.021,1.138-0.984,5.166-0.548,6.935C508.172,206.323,509.177,206.048,509.014,205.397z
	 M515.084,210.815c-0.191-0.778-0.334-1.568-0.426-2.364c-0.101-0.874-0.434-2.87,0.496-3.394c0.582-0.33,0.059-1.228-0.523-0.898
	c-2.021,1.137-0.985,5.166-0.549,6.934C514.242,211.741,515.248,211.467,515.084,210.815z"/>
<path class="st26" d="M509,205.105c-1.82-0.024-5.971-0.114-6.611,2.122c-0.068,0.279,0.102,0.561,0.381,0.629
	c0.268,0.065,0.539-0.089,0.621-0.352c0.295-1.04,2.427-1.158,3.287-1.248c0.771-0.082,1.547-0.119,2.322-0.111
	c0.287,0,0.52-0.232,0.52-0.52S509.287,205.105,509,205.105L509,205.105z M515.383,211.602c-1.82-0.023-5.971-0.114-6.611,2.122
	c-0.068,0.278,0.102,0.561,0.381,0.629c0.268,0.065,0.539-0.089,0.621-0.352c0.295-1.04,2.426-1.158,3.286-1.248
	c0.771-0.083,1.548-0.12,2.323-0.111c0.287,0,0.52-0.232,0.52-0.521C515.902,211.834,515.67,211.602,515.383,211.602
	L515.383,211.602z"/>
<path class="st2" d="M520.073,205.646c2.985,8.092,0.974,15.83-6.108,16.045c3.838,0.937,7.065,0.507,8.837-1.519
	C525.434,217.163,524.15,211.446,520.073,205.646z"/>
<path class="st26" d="M523.273,221.337c-0.146-0.177-14.561-17.882-23.613-21.353l0.371-0.971
	c3.921,1.504,9.166,5.613,15.602,12.214c4.76,4.892,8.428,9.409,8.466,9.454L523.273,221.337z"/>
<path class="st26" d="M518.347,223.341c-1.489-0.021-2.971-0.24-4.403-0.651c-4.379-1.2-9.177-3.932-13.521-7.746
	c-8.931-7.814-9.392-21.596-9.405-22.188l-0.021-0.801l0.794-0.087c0.579-0.062,14.298-1.433,23.229,6.386
	c4.327,3.786,7.687,8.179,9.454,12.367c1.858,4.393,1.766,8.088-0.264,10.4C522.898,222.572,520.878,223.341,518.347,223.341z
	 M492.816,193.56c0.246,3.055,1.611,13.833,8.764,20.108c4.133,3.616,8.689,6.24,12.828,7.367c3.925,1.074,6.934,0.693,8.516-1.109
	c1.58-1.803,1.557-4.854-0.028-8.588c-1.671-3.952-4.854-8.119-9.015-11.738C506.743,193.329,495.877,193.405,492.816,193.56z"/>
<circle class="st8" cx="500.465" cy="203.215" r="4.334"/>
<path class="st19" d="M534.706,203.428c7.287-8.334,16.801-13.172,20.841-9.633c3.287,3.788,1.078,14.116-6.209,22.45
	c-7.286,8.335-16.469,12.223-20.51,8.683C524.788,221.389,527.42,211.763,534.706,203.428z"/>
<path class="st2" d="M543.455,221.063c-8.092,2.985-15.83,0.975-16.046-6.108c-0.937,3.838-0.506,7.065,1.519,8.837
	C531.934,226.423,537.654,225.141,543.455,221.063z"/>
<path class="st26" d="M528.415,225.071l-0.655-0.807c0.177-0.146,17.883-14.562,21.353-23.614l0.971,0.371
	c-1.505,3.921-5.612,9.167-12.214,15.602C532.978,221.366,528.46,225.034,528.415,225.071L528.415,225.071z"/>
<path class="st26" d="M532.734,226.811c-1.844,0-3.467-0.512-4.688-1.594c-2.315-2.028-2.898-5.676-1.639-10.276
	c1.199-4.386,3.945-9.185,7.734-13.521c7.814-8.932,21.596-9.393,22.188-9.406l0.801-0.021l0.088,0.795
	c0.062,0.578,1.432,14.297-6.387,23.229C544.861,222.829,537.865,226.811,532.734,226.811L532.734,226.811z M555.547,193.795
	c-3.055,0.246-13.833,1.613-20.107,8.766c-3.62,4.132-6.241,8.688-7.367,12.827c-1.075,3.925-0.693,6.934,1.109,8.515
	c3.812,3.336,13.118-0.797,20.322-9.014C555.772,207.733,555.696,196.868,555.547,193.795z"/>
<path class="st19" d="M514.555,243.081c1.266-2.42,6.333-2.267,11.32,0.342c4.986,2.607,8.002,6.684,6.737,9.103
	c-1.266,2.419-6.334,2.267-11.32-0.341C516.305,249.576,514.888,245.646,514.555,243.081z"/>
<path class="st26" d="M523.305,248.334c-0.402,0.058-0.803,0.137-1.196,0.239c-0.382,0.101-1.387,0.319-1.429,0.821
	c-0.023,0.236-0.402,0.24-0.374,0c0.073-0.662,0.88-0.932,1.421-1.102c0.516-0.162,1.043-0.277,1.578-0.348
	c0.239-0.031,0.236,0.348,0,0.375V248.334z M526.771,249.96c-0.402,0.058-0.803,0.138-1.196,0.239
	c-0.382,0.101-1.387,0.318-1.429,0.822c-0.023,0.235-0.401,0.238-0.374,0c0.073-0.662,0.881-0.934,1.421-1.104
	c0.516-0.16,1.043-0.277,1.578-0.346c0.239-0.031,0.236,0.346,0,0.374V249.96z"/>
<path class="st26" d="M523.305,248.574c-0.203-0.498-0.361-1.013-0.472-1.539c-0.11-0.544-0.257-1.356,0.271-1.733
	c0.197-0.143,0.385,0.184,0.19,0.322c-0.423,0.301-0.114,1.3,0,1.688c0.103,0.395,0.229,0.782,0.382,1.161
	c0.09,0.222-0.271,0.318-0.348,0.101H523.305z M527.312,250.144c-0.203-0.497-0.361-1.013-0.472-1.539
	c-0.11-0.544-0.257-1.355,0.271-1.733c0.197-0.143,0.385,0.184,0.19,0.322c-0.423,0.302-0.114,1.301,0,1.688
	c0.103,0.396,0.229,0.782,0.382,1.161c0.09,0.223-0.271,0.319-0.348,0.101H527.312z"/>
<path class="st2" d="M525.385,253.344c4.16-0.069,7.315-2.333,6.171-5.568c1.096,1.57,1.467,3.1,0.863,4.254
	C531.528,253.75,528.72,254.172,525.385,253.344z"/>
<path class="st26" d="M532.855,252.644c-1.311-0.423-2.6-0.901-3.879-1.404c-2.459-0.923-4.837-2.046-7.111-3.359
	c-1.126-0.628-2.156-1.415-3.057-2.337c-0.326-0.347,0.204-0.887,0.529-0.53c0.772,0.796,1.65,1.482,2.611,2.038
	c1.107,0.674,2.252,1.283,3.429,1.828c2.071,0.964,4.19,1.824,6.348,2.575c0.44,0.156,0.884,0.309,1.328,0.454
	c0.444,0.146,0.26,0.871-0.198,0.721V252.644z"/>
<path class="st26" d="M521.755,251.347c1.431,0.755,2.954,1.317,4.531,1.675c1.201,0.3,2.449,0.363,3.675,0.188
	c0.447-0.072,0.879-0.219,1.275-0.434c0.314-0.17,0.578-0.42,0.764-0.725c0.143-0.262,0.225-0.552,0.235-0.85V250.9
	c0-0.048-0.034-0.284,0-0.146c-0.036-0.217-0.088-0.43-0.155-0.638c-0.354-0.941-0.888-1.804-1.574-2.538
	c-0.898-0.993-1.92-1.867-3.041-2.6c-1.175-0.828-2.479-1.457-3.859-1.859c-1.274-0.319-2.59-0.447-3.902-0.381
	c-1.653,0.045-3.29,0.34-4.854,0.874l0.523-0.923c0.06,0.219,0.132,0.434,0.204,0.646c0.073,0.212,0.17,0.475,0.264,0.693
	l0.087,0.215l0.056,0.139l0.076,0.181l0.125,0.28c0.703,1.622,1.67,3.116,2.859,4.424c0.785,0.837,1.703,1.54,2.715,2.08
	c0.854,0.45,0.098,1.733-0.756,1.294c-3.342-1.772-5.547-5.201-6.799-8.668c-0.104-0.287-0.203-0.579-0.283-0.873
	c-0.102-0.398,0.13-0.805,0.523-0.923c1.545-0.519,3.153-0.823,4.781-0.905c1.424-0.102,2.855-0.004,4.254,0.288
	c1.574,0.374,3.068,1.027,4.412,1.928c2.258,1.438,4.557,3.411,5.527,5.983c0.376,0.903,0.414,1.911,0.107,2.84
	c-0.436,1.044-1.32,1.836-2.406,2.153c-1.436,0.492-3.044,0.398-4.508,0.149c-1.957-0.361-3.848-1.023-5.602-1.967
	C520.143,252.19,520.898,250.897,521.755,251.347L521.755,251.347z"/>
<circle class="st8" cx="520.867" cy="244.907" r="2.097"/>
<path class="st19" d="M494.49,225.594c6.722-1.385,11.449-2.59,23.335-0.143c10.462,4.999,16.977,13.166,14.551,18.243
	c-2.425,5.077-12.872,5.141-23.335,0.142C500.045,236.543,495.504,230.126,494.49,225.594z"/>
<path class="st26" d="M514.77,233.489c-0.393-0.699-0.74-1.424-1.041-2.166c-0.329-0.805-1.189-2.652-0.439-3.398
	c0.195-0.21,0.184-0.539-0.026-0.734c-0.2-0.187-0.509-0.187-0.709,0c-1.647,1.643,0.43,5.231,1.327,6.822
	c0.154,0.243,0.475,0.315,0.719,0.162c0.229-0.146,0.309-0.445,0.18-0.686H514.77z M522.092,237.165
	c-0.393-0.7-0.74-1.424-1.041-2.168c-0.329-0.804-1.189-2.651-0.439-3.396c0.195-0.211,0.184-0.539-0.026-0.735
	c-0.2-0.187-0.509-0.187-0.709,0c-1.647,1.644,0.43,5.231,1.327,6.823c0.154,0.242,0.475,0.314,0.718,0.161
	c0.23-0.146,0.31-0.444,0.181-0.685H522.092z"/>
<path class="st26" d="M515.012,233.455c-1.733,0.461-5.801,1.505-5.797,3.813c0,0.287,0.232,0.52,0.52,0.52s0.521-0.232,0.521-0.52
	l0,0c0-1.04,1.99-1.751,2.773-2.08c0.737-0.297,1.493-0.548,2.261-0.752c0.274-0.086,0.428-0.377,0.344-0.65
	c-0.082-0.264-0.354-0.418-0.621-0.352V233.455z M522.573,237.743c-1.733,0.461-5.8,1.505-5.797,3.814
	c0,0.287,0.233,0.52,0.521,0.52s0.52-0.232,0.52-0.52c0-1.041,1.99-1.752,2.773-2.08c0.738-0.297,1.492-0.548,2.261-0.753
	c0.274-0.085,0.429-0.376,0.343-0.65c-0.08-0.263-0.354-0.417-0.62-0.352V237.743z"/>
<path class="st2" d="M525.485,230.743c5.052,6.99,5.2,14.984-1.567,17.096c3.949-0.131,6.934-1.414,8.103-3.841
	C533.747,240.395,530.977,235.233,525.485,230.743L525.485,230.743z"/>
<path class="st26" d="M532.79,244.996c-0.187-0.132-18.843-13.306-28.491-14.214l0.098-1.041c4.181,0.393,10.338,2.94,18.295,7.568
	c5.894,3.433,10.65,6.796,10.698,6.83L532.79,244.996z"/>
<path class="st26" d="M524.057,248.636c-4.507,0-9.779-1.345-14.908-3.796c-10.637-5.094-14.766-18.168-14.936-18.723l-0.187-0.609
	l0.593-0.236c0.537-0.215,13.312-5.2,23.949-0.107c10.998,5.264,17.539,13.709,14.908,19.225c-1.301,2.715-4.601,4.223-9.302,4.247
	H524.057z M495.764,226.333c0.96,2.651,5.199,13.042,13.996,17.255c4.934,2.361,10.005,3.661,14.297,3.661h0.115
	c4.139-0.021,6.999-1.252,8.057-3.468c2.229-4.655-4.295-12.612-14.249-17.375c-8.813-4.209-19.55-0.992-22.22-0.073H495.764z"/>
<circle class="st8" cx="505.939" cy="233.687" r="4.334"/>
<g class="st16">
	<path class="st22" d="M554.799,263.897c-3.366,2.725-7.263,4.717-11.441,5.85c-4.507,1.195-9.201,1.387-13.867,1.237
		c-4.387-0.139-8.831-0.589-12.901-2.226c-2.801-1.089-5.298-2.838-7.28-5.096l0.693-4.764l44.234,0.309L554.799,263.897z"/>
</g>
<g class="st16">
	<path class="st22" d="M554.105,264.574c-3.367,3.634-7.281,6.362-11.441,7.856c-4.508,1.605-9.201,1.857-13.867,1.66
		c-4.387-0.188-8.831-0.791-12.901-2.988c-2.972-1.623-5.478-3.979-7.28-6.844l0.693-6.396l44.266,0.42L554.105,264.574z"/>
</g>
<path class="st26" d="M547.646,301.326h-32.621c-6.047,0-10.963-3.987-10.963-8.885v-0.101l5.132-35.117l45.452,0.319l3.951,34.898
	C558.608,297.339,553.689,301.326,547.646,301.326z M505.449,292.49c0.035,4.111,4.316,7.45,9.576,7.45h32.617
	c5.266,0,9.551-3.341,9.576-7.46l-3.814-33.561l-43.004-0.291L505.449,292.49z"/>
<circle class="st9" cx="93.29" cy="285.165" r="5"/>
<circle class="st9" cx="107.654" cy="278.262" r="5"/>
<circle class="st9" cx="100.654" cy="262.799" r="4.5"/>
<circle class="st9" cx="102.654" cy="245.887" r="4"/>
<circle class="st9" cx="93.395" cy="227.439" r="5"/>
<circle class="st9" cx="107.654" cy="214.297" r="3"/>
<circle class="st9" cx="112.17" cy="292.179" r="3"/>
</svg>
