<?xml version="1.0" encoding="utf-8"?>
<!-- Generator: Adobe Illustrator 16.0.4, SVG Export Plug-In . SVG Version: 6.00 Build 0)  -->
<!DOCTYPE svg PUBLIC "-//W3C//DTD SVG 1.1//EN" "http://www.w3.org/Graphics/SVG/1.1/DTD/svg11.dtd">
<svg version="1.1" id="Layer_1" xmlns="http://www.w3.org/2000/svg" xmlns:xlink="http://www.w3.org/1999/xlink" x="0px" y="0px"
	 width="238.172px" height="20.952px" viewBox="0 0 238.172 20.952" style="enable-background:new 0 0 238.172 20.952;"
	 xml:space="preserve">
<style type="text/css">
<![CDATA[
	.st0{fill:#F8F1E5;}
	.st1{fill:#2F2E33;}
	.st2{fill:#337BAE;}
]]>
</style>
<path class="st1" d="M8.808,2.76c0.896,0.24,1.612,0.7,2.148,1.38c0.536,0.681,0.804,1.652,0.804,2.916
	c0,0.561-0.084,1.132-0.252,1.716s-0.376,1.092-0.624,1.524s-0.468,0.712-0.66,0.84c-0.224,0.16-0.72,0.284-1.488,0.372
	c-0.768,0.088-1.672,0.132-2.712,0.132c-0.368,0-0.936-0.016-1.704-0.048v4.56H0V2.472C1.68,2.424,3.52,2.4,5.52,2.4
	C6.816,2.4,7.912,2.52,8.808,2.76z M7.56,7.32c0-0.816-0.172-1.392-0.516-1.728C6.7,5.256,6.104,5.088,5.256,5.088
	c-0.288,0-0.6,0.024-0.936,0.072v3.648c0.16,0.017,0.472,0.024,0.936,0.024c1.232,0,1.92-0.088,2.064-0.264
	C7.479,8.36,7.56,7.944,7.56,7.32z"/>
<path class="st1" d="M20.579,4.944c0.232,0.048,0.404,0.104,0.516,0.168c0,0.352-0.04,0.932-0.12,1.74s-0.152,1.38-0.216,1.716
	c-0.16-0.016-0.456-0.024-0.888-0.024c-1.008,0-1.904,0.056-2.688,0.168v7.44h-4.104V5.112h3.432l0.48,1.776h0.024
	c0.464-0.608,0.96-1.096,1.488-1.464c0.528-0.368,1-0.552,1.416-0.552C20.127,4.872,20.347,4.896,20.579,4.944z"/>
<path class="st1" d="M23.195,15.108c-0.952-0.904-1.428-2.332-1.428-4.284c0-1.072,0.1-2.012,0.3-2.82
	c0.2-0.808,0.444-1.372,0.732-1.692c0.368-0.416,1.044-0.76,2.028-1.032c0.984-0.272,1.908-0.408,2.772-0.408
	c2.064,0,3.536,0.44,4.416,1.32c0.879,0.88,1.32,2.288,1.32,4.224c0,2.08-0.472,3.608-1.416,4.584
	c-0.944,0.976-2.416,1.464-4.416,1.464C25.583,16.464,24.147,16.012,23.195,15.108z M28.799,12.996
	c0.192-0.44,0.288-1.22,0.288-2.34c0-0.784-0.04-1.388-0.12-1.812c-0.08-0.424-0.228-0.736-0.444-0.936
	c-0.216-0.2-0.548-0.3-0.996-0.3c-0.64,0-1.008,0.056-1.104,0.168c-0.128,0.112-0.232,0.464-0.312,1.056s-0.12,1.208-0.12,1.848
	c0,1.088,0.108,1.856,0.324,2.304c0.216,0.448,0.636,0.672,1.26,0.672S28.607,13.436,28.799,12.996z"/>
<path class="st1" d="M43.008,5.076c0.816,0.104,1.768,0.244,2.856,0.42v9.552c0,2.288-0.76,4.064-2.28,5.328
	c-0.192,0.16-0.624,0.296-1.296,0.408s-1.432,0.168-2.28,0.168c-1.84,0-3.296-0.24-4.368-0.72c-0.016-0.352,0.012-0.816,0.084-1.392
	s0.148-1.032,0.228-1.368c1.152,0.176,2.28,0.264,3.384,0.264c0.56,0,1.036-0.028,1.428-0.084c0.392-0.056,0.636-0.14,0.732-0.252
	c0.128-0.128,0.224-0.608,0.288-1.44c0.016-0.224,0.024-0.552,0.024-0.984v-0.6c-0.4,0.592-0.912,1.016-1.536,1.272
	s-1.184,0.384-1.68,0.384c-1.344,0-2.36-0.44-3.048-1.32s-1.032-2.168-1.032-3.864c0-1.12,0.156-2.172,0.468-3.156
	s0.74-1.668,1.284-2.052c0.352-0.24,0.924-0.42,1.716-0.54c0.792-0.12,1.684-0.18,2.676-0.18C41.408,4.92,42.191,4.972,43.008,5.076
	z M41.76,12.744V7.728c-0.176-0.032-0.44-0.064-0.792-0.096c-0.16-0.016-0.4-0.024-0.72-0.024c-0.496,0-0.808,0.048-0.936,0.144
	c-0.176,0.128-0.316,0.484-0.42,1.068c-0.104,0.584-0.156,1.196-0.156,1.836c0,0.88,0.1,1.497,0.3,1.848
	c0.2,0.352,0.572,0.528,1.116,0.528C40.743,13.032,41.28,12.936,41.76,12.744z"/>
<path class="st1" d="M55.307,4.944c0.232,0.048,0.404,0.104,0.516,0.168c0,0.352-0.04,0.932-0.12,1.74s-0.152,1.38-0.216,1.716
	c-0.16-0.016-0.456-0.024-0.888-0.024c-1.008,0-1.904,0.056-2.688,0.168v7.44h-4.104V5.112h3.432l0.48,1.776h0.024
	c0.464-0.608,0.96-1.096,1.488-1.464c0.528-0.368,1-0.552,1.416-0.552C54.855,4.872,55.075,4.896,55.307,4.944z"/>
<path class="st1" d="M62.759,16.152l-0.384-1.512c-0.736,1.2-1.76,1.8-3.072,1.8c-1.072,0-1.948-0.3-2.628-0.9
	c-0.68-0.6-1.02-1.444-1.02-2.532c0-0.672,0.196-1.26,0.588-1.764c0.392-0.504,0.932-0.86,1.62-1.068
	c0.896-0.256,2.28-0.4,4.152-0.432c0-1.056-0.048-1.616-0.144-1.68C61.791,8,61.535,7.968,61.103,7.968
	c-0.272,0-0.648,0.016-1.128,0.048c-0.768,0.033-1.808,0.12-3.12,0.264c-0.128-0.864-0.224-1.792-0.288-2.784
	c0.848-0.176,1.736-0.324,2.664-0.444c0.928-0.12,1.76-0.18,2.496-0.18c1.28,0,2.24,0.212,2.88,0.636
	c0.64,0.424,1.056,0.98,1.248,1.668c0.192,0.688,0.28,1.56,0.264,2.616l-0.024,3.528l0.072,2.832H62.759z M62.015,13.512v-1.776
	h-0.192c-1.184,0-1.84,0.064-1.968,0.192c-0.08,0.081-0.14,0.2-0.18,0.36c-0.04,0.16-0.06,0.312-0.06,0.456
	c0,0.384,0.088,0.648,0.264,0.792c0.176,0.144,0.448,0.216,0.816,0.216C61.111,13.752,61.551,13.672,62.015,13.512z"/>
<path class="st1" d="M85.607,10.344v5.808h-4.104v-5.4V9.456c0-0.592-0.056-0.944-0.168-1.056c-0.128-0.128-0.4-0.192-0.816-0.192
	l-0.288,0.024c-0.496,0.032-0.968,0.144-1.416,0.336c0.016,0.336,0.024,0.928,0.024,1.776v5.808h-4.104v-5.4v-1.44
	c0-0.496-0.056-0.8-0.168-0.912c-0.128-0.128-0.4-0.192-0.816-0.192l-0.288,0.024c-0.448,0.016-0.912,0.12-1.392,0.312v7.608h-4.104
	V5.112h3.336l0.432,1.8c0.528-0.704,1.136-1.22,1.824-1.548c0.688-0.328,1.384-0.492,2.088-0.492c0.592,0,1.156,0.088,1.692,0.264
	c0.536,0.176,0.908,0.424,1.116,0.744c0.096,0.144,0.176,0.408,0.24,0.792c0.512-0.624,1.096-1.08,1.752-1.368
	s1.312-0.432,1.968-0.432c0.592,0,1.156,0.088,1.692,0.264c0.536,0.176,0.908,0.424,1.116,0.744
	C85.479,6.264,85.607,7.752,85.607,10.344z"/>
<path class="st1" d="M105.143,10.344v5.808h-4.104v-5.4V9.456c0-0.592-0.056-0.944-0.168-1.056c-0.128-0.128-0.4-0.192-0.816-0.192
	l-0.288,0.024c-0.496,0.032-0.968,0.144-1.416,0.336c0.016,0.336,0.024,0.928,0.024,1.776v5.808h-4.104v-5.4v-1.44
	c0-0.496-0.056-0.8-0.168-0.912c-0.128-0.128-0.4-0.192-0.816-0.192l-0.288,0.024c-0.448,0.016-0.912,0.12-1.392,0.312v7.608h-4.104
	V5.112h3.336l0.432,1.8c0.528-0.704,1.136-1.22,1.824-1.548c0.688-0.328,1.384-0.492,2.088-0.492c0.592,0,1.156,0.088,1.692,0.264
	c0.536,0.176,0.908,0.424,1.116,0.744c0.096,0.144,0.176,0.408,0.24,0.792c0.512-0.624,1.096-1.08,1.752-1.368
	s1.312-0.432,1.968-0.432c0.592,0,1.156,0.088,1.692,0.264c0.536,0.176,0.908,0.424,1.116,0.744
	C105.015,6.264,105.143,7.752,105.143,10.344z"/>
<path class="st1" d="M115.967,13.152c0.144,0,0.408-0.016,0.792-0.048l0.36,2.472c-1.232,0.576-2.832,0.864-4.8,0.864
	c-1.84,0-3.252-0.464-4.236-1.392c-0.984-0.928-1.476-2.328-1.476-4.2c0-0.96,0.124-1.888,0.372-2.784s0.532-1.52,0.852-1.872
	c0.336-0.352,0.96-0.656,1.872-0.912c0.912-0.256,1.816-0.384,2.712-0.384c1.44,0,2.52,0.256,3.24,0.768
	c0.72,0.512,1.192,1.22,1.416,2.124c0.224,0.904,0.336,2.116,0.336,3.636c-1.088,0.064-2.152,0.096-3.192,0.096h-3.408
	c0,0.512,0.108,0.896,0.324,1.152c0.216,0.256,0.524,0.42,0.924,0.492c0.4,0.072,0.96,0.108,1.68,0.108
	C114.135,13.272,114.879,13.232,115.967,13.152z M110.831,8.376c-0.048,0.368-0.08,0.784-0.096,1.248h1.248
	c0.751,0,1.296-0.008,1.632-0.024c0-0.768-0.108-1.312-0.324-1.632c-0.216-0.32-0.588-0.48-1.116-0.48
	c-0.432,0-0.808,0.088-1.128,0.264C110.951,7.8,110.879,8.008,110.831,8.376z"/>
<path class="st1" d="M126.347,4.944c0.232,0.048,0.404,0.104,0.516,0.168c0,0.352-0.04,0.932-0.12,1.74s-0.152,1.38-0.216,1.716
	c-0.16-0.016-0.456-0.024-0.888-0.024c-1.008,0-1.904,0.056-2.688,0.168v7.44h-4.104V5.112h3.432l0.48,1.776h0.024
	c0.464-0.608,0.96-1.096,1.488-1.464c0.528-0.368,1-0.552,1.416-0.552C125.895,4.872,126.115,4.896,126.347,4.944z"/>
<path class="st0" d="M144.743,13.236c0.512,0.36,1.111,0.684,1.801,0.972v0.432c-0.305,0.4-0.697,0.792-1.177,1.176
	c-0.48,0.384-0.848,0.576-1.104,0.576c-0.24,0-0.616-0.132-1.128-0.396c-0.512-0.264-0.992-0.564-1.44-0.9
	c-0.384,0.352-1.004,0.668-1.86,0.948s-1.7,0.42-2.532,0.42c-1.104,0-2.108-0.164-3.012-0.492c-0.904-0.328-1.62-0.819-2.148-1.476
	s-0.792-1.44-0.792-2.352c0-1.552,0.856-2.848,2.568-3.888c-0.592-0.688-0.888-1.424-0.888-2.208c0-0.704,0.224-1.34,0.672-1.908
	c0.448-0.567,1.064-1.016,1.848-1.344c0.784-0.328,1.656-0.492,2.616-0.492c1.28,0,2.292,0.284,3.036,0.852
	c0.744,0.568,1.116,1.348,1.116,2.34c0,0.784-0.244,1.468-0.732,2.052c-0.488,0.584-1.196,1.052-2.124,1.404
	c0.4,0.369,1.232,1.088,2.496,2.16l0.12-0.072c-0.048-0.32-0.072-0.616-0.072-0.888c0-0.32,0.032-0.752,0.096-1.296h3.335
	c-0.047,0.72-0.228,1.424-0.54,2.112c-0.312,0.688-0.66,1.24-1.044,1.656C143.935,12.672,144.23,12.876,144.743,13.236z
	 M135.935,12.828c0.512,0.44,1.192,0.66,2.04,0.66c0.48,0,0.936-0.063,1.368-0.192c-0.688-0.48-1.353-1.004-1.992-1.572
	c-0.64-0.567-1.184-1.107-1.632-1.62c-0.368,0.336-0.552,0.72-0.552,1.152C135.167,11.864,135.422,12.388,135.935,12.828z
	 M137.338,5.028c-0.2,0.184-0.3,0.428-0.3,0.732c0,0.288,0.088,0.584,0.264,0.888c0.176,0.304,0.44,0.592,0.792,0.864
	c0.336-0.304,0.604-0.62,0.804-0.948c0.2-0.328,0.3-0.644,0.3-0.948c0-0.256-0.104-0.464-0.312-0.624
	c-0.208-0.16-0.448-0.24-0.72-0.24C137.814,4.752,137.539,4.844,137.338,5.028z"/>
<path class="st2" d="M155.794,6.96c0.344,0.192,0.884,0.4,1.62,0.624c0.879,0.288,1.604,0.568,2.172,0.84
	c0.567,0.272,1.063,0.696,1.487,1.272s0.637,1.328,0.637,2.256c0,2.976-1.937,4.464-5.809,4.464c-0.64,0-1.42-0.057-2.34-0.168
	c-0.92-0.112-1.756-0.256-2.508-0.432c0.032-0.336,0.1-0.828,0.204-1.476c0.104-0.648,0.204-1.132,0.3-1.452
	c0.56,0.081,1.404,0.176,2.532,0.288c1.128,0.112,1.979,0.168,2.556,0.168c0.336,0,0.536-0.024,0.6-0.072
	c0.097-0.064,0.172-0.172,0.229-0.324c0.056-0.152,0.084-0.284,0.084-0.396c0-0.32-0.152-0.564-0.456-0.732s-0.824-0.372-1.56-0.612
	c-0.881-0.272-1.608-0.552-2.185-0.84c-0.576-0.288-1.08-0.735-1.512-1.344c-0.432-0.608-0.648-1.408-0.648-2.4
	c0-0.704,0.16-1.396,0.48-2.076c0.319-0.68,0.647-1.14,0.983-1.38c0.256-0.176,0.784-0.344,1.584-0.504
	c0.801-0.16,1.552-0.24,2.257-0.24c1.791,0,3.256,0.168,4.392,0.504c-0.016,0.32-0.068,0.76-0.156,1.32s-0.18,1.072-0.275,1.536
	L159.91,5.76c-2.08-0.144-3.407-0.216-3.983-0.216c-0.24,0-0.376,0.008-0.408,0.024c-0.064,0.032-0.12,0.104-0.168,0.216
	c-0.048,0.112-0.072,0.24-0.072,0.384C155.278,6.504,155.45,6.768,155.794,6.96z"/>
<path class="st2" d="M172.775,15.816c-1.297,0.432-2.745,0.648-4.345,0.648c-1.792,0-3.132-0.452-4.02-1.356
	c-0.889-0.904-1.332-2.316-1.332-4.236c0-0.944,0.128-1.876,0.384-2.796c0.256-0.92,0.528-1.54,0.816-1.86
	c0.336-0.368,0.996-0.68,1.979-0.936c0.984-0.256,2.004-0.384,3.061-0.384c1.104,0,2.216,0.096,3.336,0.288
	c-0.032,0.4-0.084,0.868-0.156,1.404S172.35,7.6,172.27,8.016c-0.992-0.063-1.928-0.096-2.808-0.096
	c-0.864,0-1.416,0.048-1.656,0.144c-0.128,0.048-0.244,0.376-0.348,0.984c-0.104,0.608-0.156,1.176-0.156,1.704
	c0,0.704,0.1,1.244,0.3,1.62s0.517,0.636,0.948,0.78c0.433,0.144,1.016,0.216,1.752,0.216c0.32,0,1.024-0.032,2.112-0.096
	L172.775,15.816z"/>
<path class="st2" d="M174.213,5.112h4.104v11.04h-4.104V5.112z M174.874,3.192c-0.392-0.368-0.588-0.808-0.588-1.32
	s0.196-0.952,0.588-1.32C175.265,0.184,175.734,0,176.278,0s1.008,0.184,1.392,0.552c0.385,0.368,0.576,0.808,0.576,1.32
	s-0.191,0.952-0.576,1.32c-0.384,0.368-0.848,0.552-1.392,0.552S175.265,3.56,174.874,3.192z"/>
<path class="st2" d="M189.286,13.152c0.144,0,0.408-0.016,0.792-0.048l0.36,2.472c-1.232,0.576-2.832,0.864-4.801,0.864
	c-1.84,0-3.252-0.464-4.235-1.392c-0.984-0.928-1.477-2.328-1.477-4.2c0-0.96,0.124-1.888,0.372-2.784s0.532-1.52,0.853-1.872
	c0.336-0.352,0.96-0.656,1.872-0.912c0.911-0.256,1.815-0.384,2.712-0.384c1.439,0,2.52,0.256,3.239,0.768
	c0.721,0.512,1.192,1.22,1.416,2.124c0.225,0.904,0.336,2.116,0.336,3.636c-1.088,0.064-2.151,0.096-3.191,0.096h-3.408
	c0,0.512,0.108,0.896,0.324,1.152c0.216,0.256,0.523,0.42,0.924,0.492c0.399,0.072,0.96,0.108,1.68,0.108
	C187.454,13.272,188.198,13.232,189.286,13.152z M184.15,8.376c-0.049,0.368-0.081,0.784-0.097,1.248h1.248
	c0.752,0,1.296-0.008,1.632-0.024c0-0.768-0.107-1.312-0.323-1.632c-0.217-0.32-0.588-0.48-1.116-0.48
	c-0.432,0-0.809,0.088-1.128,0.264C184.27,7.8,184.198,8.008,184.15,8.376z"/>
<path class="st2" d="M203.169,7.128c0.071,0.704,0.107,1.776,0.107,3.216v5.808h-4.104v-5.76V9.408c0-0.512-0.04-0.832-0.12-0.96
	c-0.128-0.16-0.424-0.24-0.888-0.24c-0.225,0-0.393,0.008-0.504,0.024c-0.448,0.016-0.912,0.12-1.393,0.312v7.608h-4.104V5.112
	h3.336l0.456,1.848c1.151-1.392,2.527-2.088,4.128-2.088c0.576,0,1.115,0.08,1.62,0.24c0.504,0.16,0.884,0.392,1.14,0.696
	C202.989,5.984,203.097,6.424,203.169,7.128z"/>
<path class="st2" d="M210.261,11.616c0,0.288,0.008,0.588,0.023,0.9s0.064,0.508,0.145,0.588c0.111,0.112,0.504,0.168,1.176,0.168
	l0.816-0.024c0.144,0.768,0.216,1.656,0.216,2.664c-0.305,0.112-0.748,0.216-1.332,0.312c-0.584,0.096-1.141,0.144-1.668,0.144
	c-1.104,0-1.956-0.244-2.557-0.732c-0.6-0.488-0.899-1.244-0.899-2.268V7.464h-1.8V5.28l1.8-0.168l1.08-2.64l3-0.168v2.808h2.544
	v2.352h-2.544V11.616z"/>
<path class="st2" d="M214.1,5.112h4.104v11.04H214.1V5.112z M214.76,3.192c-0.392-0.368-0.588-0.808-0.588-1.32
	s0.196-0.952,0.588-1.32C215.152,0.184,215.621,0,216.165,0s1.008,0.184,1.392,0.552c0.385,0.368,0.576,0.808,0.576,1.32
	s-0.191,0.952-0.576,1.32c-0.384,0.368-0.848,0.552-1.392,0.552S215.152,3.56,214.76,3.192z"/>
<path class="st2" d="M227.816,15.48c-0.903,0.624-2.188,0.936-3.852,0.936c-1.168,0-2.513-0.168-4.032-0.504
	c0.032-0.32,0.108-0.78,0.229-1.38c0.119-0.6,0.22-1.06,0.3-1.38c0.576,0.096,1.216,0.172,1.92,0.228
	c0.704,0.056,1.304,0.084,1.8,0.084c0.432,0,0.696-0.024,0.792-0.072c0.016-0.016,0.036-0.06,0.061-0.132
	c0.023-0.072,0.035-0.147,0.035-0.228c0-0.32-0.2-0.536-0.6-0.648c-0.128-0.032-0.616-0.168-1.464-0.408
	c-0.849-0.24-1.54-0.676-2.076-1.308c-0.536-0.632-0.804-1.42-0.804-2.364c0-0.496,0.111-1.047,0.336-1.656
	c0.224-0.608,0.464-0.992,0.72-1.152c0.192-0.128,0.656-0.26,1.392-0.396c0.736-0.136,1.416-0.204,2.04-0.204
	c1.328,0,2.664,0.096,4.009,0.288c0,0.288-0.04,0.772-0.12,1.452c-0.08,0.68-0.152,1.108-0.216,1.284
	c-1.36-0.176-2.457-0.264-3.288-0.264c-0.433,0-0.713,0.024-0.84,0.072c-0.033,0.016-0.064,0.06-0.097,0.132
	s-0.048,0.164-0.048,0.276c0,0.224,0.072,0.384,0.216,0.48c0.145,0.112,0.52,0.249,1.128,0.408c0.721,0.208,1.34,0.424,1.86,0.648
	c0.52,0.224,0.976,0.56,1.368,1.008c0.392,0.448,0.588,1.024,0.588,1.728C229.172,13.832,228.72,14.856,227.816,15.48z"/>
<path class="st2" d="M235.628,11.616c0,0.288,0.008,0.588,0.023,0.9s0.064,0.508,0.145,0.588c0.111,0.112,0.504,0.168,1.176,0.168
	l0.816-0.024c0.144,0.768,0.216,1.656,0.216,2.664c-0.305,0.112-0.748,0.216-1.332,0.312c-0.584,0.096-1.141,0.144-1.668,0.144
	c-1.104,0-1.956-0.244-2.557-0.732c-0.6-0.488-0.899-1.244-0.899-2.268V7.464h-1.8V5.28l1.8-0.168l1.08-2.64l3-0.168v2.808h2.544
	v2.352h-2.544V11.616z"/>
</svg>
