<svg id="Layer_1" xmlns="http://www.w3.org/2000/svg" width="238.172" height="20.952">
  <style>
    .st1{fill:#1a405f}.st2{fill:#1a405f}
  </style>
  <path class="st1" d="M8.808 2.76c.896.24 1.612.7 2.148 1.38.536.681.804 1.652.804 2.916 0 .561-.084 1.132-.252 1.716s-.376 1.092-.624 1.524-.468.712-.66.84c-.224.16-.72.284-1.488.372a24.19 24.19 0 0 1-2.712.132c-.368 0-.936-.016-1.704-.048v4.56H0V2.472C1.68 2.424 3.52 2.4 5.52 2.4c1.296 0 2.392.12 3.288.36zM7.56 7.32c0-.816-.172-1.392-.516-1.728-.344-.336-.94-.504-1.788-.504-.288 0-.6.024-.936.072v3.648c.16.017.472.024.936.024 1.232 0 1.92-.088 2.064-.264.159-.208.24-.624.24-1.248zM20.579 4.944c.232.048.404.104.516.168 0 .352-.04.932-.12 1.74s-.152 1.38-.216 1.716c-.16-.016-.456-.024-.888-.024a19.18 19.18 0 0 0-2.688.168v7.44h-4.104V5.112h3.432l.48 1.776h.024c.464-.608.96-1.096 1.488-1.464.528-.368 1-.552 1.416-.552.208 0 .428.024.66.072zM23.195 15.108c-.952-.904-1.428-2.332-1.428-4.284 0-1.072.1-2.012.3-2.82.2-.808.444-1.372.732-1.692.368-.416 1.044-.76 2.028-1.032s1.908-.408 2.772-.408c2.064 0 3.536.44 4.416 1.32.879.88 1.32 2.288 1.32 4.224 0 2.08-.472 3.608-1.416 4.584-.944.976-2.416 1.464-4.416 1.464-1.92 0-3.356-.452-4.308-1.356zm5.604-2.112c.192-.44.288-1.22.288-2.34 0-.784-.04-1.388-.12-1.812-.08-.424-.228-.736-.444-.936-.216-.2-.548-.3-.996-.3-.64 0-1.008.056-1.104.168-.128.112-.232.464-.312 1.056s-.12 1.208-.12 1.848c0 1.088.108 1.856.324 2.304.216.448.636.672 1.26.672s1.032-.22 1.224-.66zM43.008 5.076a87.28 87.28 0 0 1 2.856.42v9.552c0 2.288-.76 4.064-2.28 5.328-.192.16-.624.296-1.296.408s-1.432.168-2.28.168c-1.84 0-3.296-.24-4.368-.72-.016-.352.012-.816.084-1.392s.148-1.032.228-1.368a22.39 22.39 0 0 0 3.384.264c.56 0 1.036-.028 1.428-.084.392-.056.636-.14.732-.252.128-.128.224-.608.288-1.44.016-.224.024-.552.024-.984v-.6c-.4.592-.912 1.016-1.536 1.272s-1.184.384-1.68.384c-1.344 0-2.36-.44-3.048-1.32s-1.032-2.168-1.032-3.864c0-1.12.156-2.172.468-3.156s.74-1.668 1.284-2.052c.352-.24.924-.42 1.716-.54.792-.12 1.684-.18 2.676-.18.752 0 1.535.052 2.352.156zm-1.248 7.668V7.728a9.752 9.752 0 0 0-.792-.096c-.16-.016-.4-.024-.72-.024-.496 0-.808.048-.936.144-.176.128-.316.484-.42 1.068a10.46 10.46 0 0 0-.156 1.836c0 .88.1 1.497.3 1.848.2.352.572.528 1.116.528a4.3 4.3 0 0 0 1.608-.288zM55.307 4.944c.232.048.404.104.516.168 0 .352-.04.932-.12 1.74s-.152 1.38-.216 1.716c-.16-.016-.456-.024-.888-.024a19.18 19.18 0 0 0-2.688.168v7.44h-4.104V5.112h3.432l.48 1.776h.024c.464-.608.96-1.096 1.488-1.464.528-.368 1-.552 1.416-.552.208 0 .428.024.66.072zM62.759 16.152l-.384-1.512c-.736 1.2-1.76 1.8-3.072 1.8-1.072 0-1.948-.3-2.628-.9-.68-.6-1.02-1.444-1.02-2.532 0-.672.196-1.26.588-1.764.392-.504.932-.86 1.62-1.068.896-.256 2.28-.4 4.152-.432 0-1.056-.048-1.616-.144-1.68-.08-.064-.336-.096-.768-.096-.272 0-.648.016-1.128.048-.768.033-1.808.12-3.12.264a33.965 33.965 0 0 1-.288-2.784 35.55 35.55 0 0 1 2.664-.444c.928-.12 1.76-.18 2.496-.18 1.28 0 2.24.212 2.88.636.64.424 1.056.98 1.248 1.668.192.688.28 1.56.264 2.616l-.024 3.528.072 2.832h-3.408zm-.744-2.64v-1.776h-.192c-1.184 0-1.84.064-1.968.192-.08.081-.14.2-.18.36-.04.16-.06.312-.06.456 0 .384.088.648.264.792.176.144.448.216.816.216.416 0 .856-.08 1.32-.24zM85.607 10.344v5.808h-4.104V9.456c0-.592-.056-.944-.168-1.056-.128-.128-.4-.192-.816-.192l-.288.024a4.265 4.265 0 0 0-1.416.336c.016.336.024.928.024 1.776v5.808h-4.104v-6.84c0-.496-.056-.8-.168-.912-.128-.128-.4-.192-.816-.192l-.288.024c-.448.016-.912.12-1.392.312v7.608h-4.104V5.112h3.336l.432 1.8c.528-.704 1.136-1.22 1.824-1.548a4.809 4.809 0 0 1 2.088-.492c.592 0 1.156.088 1.692.264.536.176.908.424 1.116.744.096.144.176.408.24.792.512-.624 1.096-1.08 1.752-1.368s1.312-.432 1.968-.432c.592 0 1.156.088 1.692.264.536.176.908.424 1.116.744.256.384.384 1.872.384 4.464zM105.143 10.344v5.808h-4.104V9.456c0-.592-.056-.944-.168-1.056-.128-.128-.4-.192-.816-.192l-.288.024a4.265 4.265 0 0 0-1.416.336c.016.336.024.928.024 1.776v5.808h-4.104v-6.84c0-.496-.056-.8-.168-.912-.128-.128-.4-.192-.816-.192l-.288.024c-.448.016-.912.12-1.392.312v7.608h-4.104V5.112h3.336l.432 1.8c.528-.704 1.136-1.22 1.824-1.548a4.809 4.809 0 0 1 2.088-.492c.592 0 1.156.088 1.692.264.536.176.908.424 1.116.744.096.144.176.408.24.792.512-.624 1.096-1.08 1.752-1.368s1.312-.432 1.968-.432c.592 0 1.156.088 1.692.264.536.176.908.424 1.116.744.256.384.384 1.872.384 4.464zM115.967 13.152c.144 0 .408-.016.792-.048l.36 2.472c-1.232.576-2.832.864-4.8.864-1.84 0-3.252-.464-4.236-1.392-.984-.928-1.476-2.328-1.476-4.2 0-.96.124-1.888.372-2.784s.532-1.52.852-1.872c.336-.352.96-.656 1.872-.912a10 10 0 0 1 2.712-.384c1.44 0 2.52.256 3.24.768.72.512 1.192 1.22 1.416 2.124.224.904.336 2.116.336 3.636a54.37 54.37 0 0 1-3.192.096h-3.408c0 .512.108.896.324 1.152.216.256.524.42.924.492.4.072.96.108 1.68.108.4 0 1.144-.04 2.232-.12zm-5.136-4.776c-.048.368-.08.784-.096 1.248h1.248c.751 0 1.296-.008 1.632-.024 0-.768-.108-1.312-.324-1.632-.216-.32-.588-.48-1.116-.48-.432 0-.808.088-1.128.264-.096.048-.168.256-.216.624zM126.347 4.944c.232.048.404.104.516.168 0 .352-.04.932-.12 1.74s-.152 1.38-.216 1.716c-.16-.016-.456-.024-.888-.024a19.18 19.18 0 0 0-2.688.168v7.44h-4.104V5.112h3.432l.48 1.776h.024c.464-.608.96-1.096 1.488-1.464.528-.368 1-.552 1.416-.552.208 0 .428.024.66.072z"/>
  <path d="M144.743 13.236c.512.36 1.111.684 1.801.972v.432c-.305.4-.697.792-1.177 1.176-.48.384-.848.576-1.104.576-.24 0-.616-.132-1.128-.396a10.138 10.138 0 0 1-1.44-.9c-.384.352-1.004.668-1.86.948s-1.7.42-2.532.42c-1.104 0-2.108-.164-3.012-.492-.904-.328-1.62-.819-2.148-1.476s-.792-1.44-.792-2.352c0-1.552.856-2.848 2.568-3.888-.592-.688-.888-1.424-.888-2.208 0-.704.224-1.34.672-1.908.448-.567 1.064-1.016 1.848-1.344.784-.328 1.656-.492 2.616-.492 1.28 0 2.292.284 3.036.852.744.568 1.116 1.348 1.116 2.34 0 .784-.244 1.468-.732 2.052-.488.584-1.196 1.052-2.124 1.404.4.369 1.232 1.088 2.496 2.16l.12-.072a6.015 6.015 0 0 1-.072-.888c0-.32.032-.752.096-1.296h3.335a6.034 6.034 0 0 1-.54 2.112c-.312.688-.66 1.24-1.044 1.656.081.048.376.252.889.612zm-8.808-.408c.512.44 1.192.66 2.04.66.48 0 .936-.063 1.368-.192a21.604 21.604 0 0 1-1.992-1.572 18.142 18.142 0 0 1-1.632-1.62c-.368.336-.552.72-.552 1.152 0 .608.255 1.132.768 1.572zm1.403-7.8c-.2.184-.3.428-.3.732 0 .288.088.584.264.888.176.304.44.592.792.864.336-.304.604-.62.804-.948.2-.328.3-.644.3-.948a.751.751 0 0 0-.312-.624 1.148 1.148 0 0 0-.72-.24c-.352 0-.627.092-.828.276z" fill="#337bae"/>
  <path class="st2" d="M155.794 6.96c.344.192.884.4 1.62.624.879.288 1.604.568 2.172.84.567.272 1.063.696 1.487 1.272s.637 1.328.637 2.256c0 2.976-1.937 4.464-5.809 4.464-.64 0-1.42-.057-2.34-.168a23.54 23.54 0 0 1-2.508-.432c.032-.336.1-.828.204-1.476.104-.648.204-1.132.3-1.452.56.081 1.404.176 2.532.288 1.128.112 1.979.168 2.556.168.336 0 .536-.024.6-.072a.64.64 0 0 0 .229-.324c.056-.152.084-.284.084-.396 0-.32-.152-.564-.456-.732s-.824-.372-1.56-.612c-.881-.272-1.608-.552-2.185-.84-.576-.288-1.08-.735-1.512-1.344-.432-.608-.648-1.408-.648-2.4 0-.704.16-1.396.48-2.076.319-.68.647-1.14.983-1.38.256-.176.784-.344 1.584-.504a11.54 11.54 0 0 1 2.257-.24c1.791 0 3.256.168 4.392.504-.016.32-.068.76-.156 1.32s-.18 1.072-.275 1.536l-.552-.024c-2.08-.144-3.407-.216-3.983-.216-.24 0-.376.008-.408.024-.064.032-.12.104-.168.216a.967.967 0 0 0-.072.384c-.001.336.171.6.515.792zM172.775 15.816c-1.297.432-2.745.648-4.345.648-1.792 0-3.132-.452-4.02-1.356-.889-.904-1.332-2.316-1.332-4.236 0-.944.128-1.876.384-2.796.256-.92.528-1.54.816-1.86.336-.368.996-.68 1.979-.936a12.106 12.106 0 0 1 3.061-.384c1.104 0 2.216.096 3.336.288-.032.4-.084.868-.156 1.404s-.148 1.012-.228 1.428a44.466 44.466 0 0 0-2.808-.096c-.864 0-1.416.048-1.656.144-.128.048-.244.376-.348.984a10.14 10.14 0 0 0-.156 1.704c0 .704.1 1.244.3 1.62s.517.636.948.78c.433.144 1.016.216 1.752.216.32 0 1.024-.032 2.112-.096l.361 2.544zM174.213 5.112h4.104v11.04h-4.104V5.112zm.661-1.92c-.392-.368-.588-.808-.588-1.32s.196-.952.588-1.32c.391-.368.86-.552 1.404-.552s1.008.184 1.392.552c.385.368.576.808.576 1.32s-.191.952-.576 1.32c-.384.368-.848.552-1.392.552s-1.013-.184-1.404-.552zM189.286 13.152c.144 0 .408-.016.792-.048l.36 2.472c-1.232.576-2.832.864-4.801.864-1.84 0-3.252-.464-4.235-1.392-.984-.928-1.477-2.328-1.477-4.2 0-.96.124-1.888.372-2.784s.532-1.52.853-1.872c.336-.352.96-.656 1.872-.912a9.989 9.989 0 0 1 2.712-.384c1.439 0 2.52.256 3.239.768.721.512 1.192 1.22 1.416 2.124.225.904.336 2.116.336 3.636a54.336 54.336 0 0 1-3.191.096h-3.408c0 .512.108.896.324 1.152.216.256.523.42.924.492.399.072.96.108 1.68.108.4 0 1.144-.04 2.232-.12zm-5.136-4.776c-.049.368-.081.784-.097 1.248h1.248c.752 0 1.296-.008 1.632-.024 0-.768-.107-1.312-.323-1.632-.217-.32-.588-.48-1.116-.48-.432 0-.809.088-1.128.264-.096.048-.168.256-.216.624zM203.169 7.128c.071.704.107 1.776.107 3.216v5.808h-4.104V9.408c0-.512-.04-.832-.12-.96-.128-.16-.424-.24-.888-.24-.225 0-.393.008-.504.024-.448.016-.912.12-1.393.312v7.608h-4.104V5.112h3.336l.456 1.848c1.151-1.392 2.527-2.088 4.128-2.088.576 0 1.115.08 1.62.24.504.16.884.392 1.14.696.146.176.254.616.326 1.32zM210.261 11.616c0 .288.008.588.023.9s.064.508.145.588c.111.112.504.168 1.176.168l.816-.024c.144.768.216 1.656.216 2.664-.305.112-.748.216-1.332.312-.584.096-1.141.144-1.668.144-1.104 0-1.956-.244-2.557-.732-.6-.488-.899-1.244-.899-2.268V7.464h-1.8V5.28l1.8-.168 1.08-2.64 3-.168v2.808h2.544v2.352h-2.544v4.152zM214.1 5.112h4.104v11.04H214.1V5.112zm.66-1.92c-.392-.368-.588-.808-.588-1.32s.196-.952.588-1.32c.392-.368.861-.552 1.405-.552s1.008.184 1.392.552c.385.368.576.808.576 1.32s-.191.952-.576 1.32c-.384.368-.848.552-1.392.552s-1.013-.184-1.405-.552zM227.816 15.48c-.903.624-2.188.936-3.852.936-1.168 0-2.513-.168-4.032-.504.032-.32.108-.78.229-1.38.119-.6.22-1.06.3-1.38.576.096 1.216.172 1.92.228.704.056 1.304.084 1.8.084.432 0 .696-.024.792-.072a.427.427 0 0 0 .061-.132.74.74 0 0 0 .035-.228c0-.32-.2-.536-.6-.648a93.945 93.945 0 0 1-1.464-.408c-.849-.24-1.54-.676-2.076-1.308s-.804-1.42-.804-2.364c0-.496.111-1.047.336-1.656.224-.608.464-.992.72-1.152.192-.128.656-.26 1.392-.396a11.282 11.282 0 0 1 2.04-.204c1.328 0 2.664.096 4.009.288 0 .288-.04.772-.12 1.452-.08.68-.152 1.108-.216 1.284-1.36-.176-2.457-.264-3.288-.264-.433 0-.713.024-.84.072-.033.016-.064.06-.097.132s-.048.164-.048.276c0 .224.072.384.216.48.145.112.52.249 1.128.408.721.208 1.34.424 1.86.648.52.224.976.56 1.368 1.008.392.448.588 1.024.588 1.728-.001 1.424-.453 2.448-1.357 3.072zM235.628 11.616c0 .288.008.588.023.9s.064.508.145.588c.111.112.504.168 1.176.168l.816-.024c.144.768.216 1.656.216 2.664-.305.112-.748.216-1.332.312-.584.096-1.141.144-1.668.144-1.104 0-1.956-.244-2.557-.732-.6-.488-.899-1.244-.899-2.268V7.464h-1.8V5.28l1.8-.168 1.08-2.64 3-.168v2.808h2.544v2.352h-2.544v4.152z"/>
</svg>
