<?xml version="1.0" encoding="utf-8"?>
<!-- Generator: Adobe Illustrator 16.0.4, SVG Export Plug-In . SVG Version: 6.00 Build 0)  -->
<!DOCTYPE svg PUBLIC "-//W3C//DTD SVG 1.1//EN" "http://www.w3.org/Graphics/SVG/1.1/DTD/svg11.dtd">
<svg version="1.1" id="Layer_1" xmlns="http://www.w3.org/2000/svg" xmlns:xlink="http://www.w3.org/1999/xlink" x="0px" y="0px"
	 width="199.677px" height="32.952px" viewBox="0 0 199.677 32.952" style="enable-background:new 0 0 199.677 32.952;"
	 xml:space="preserve">
<style type="text/css">
<![CDATA[
	.st0{fill:#F8F1E5;}
	.st1{fill:#2F2E33;}
]]>
</style>
<path class="st0" d="M7.536,5.16v8.76c0,1.216-0.112,2.2-0.336,2.952c-0.225,0.752-0.621,1.32-1.188,1.704
	c-0.568,0.384-1.364,0.576-2.388,0.576c-1.088,0-2.232-0.104-3.432-0.312l0.36-2.76c0.448,0.016,0.96,0.008,1.536-0.024
	c0.576-0.032,0.904-0.096,0.984-0.192c0.096-0.16,0.144-0.543,0.144-1.152c0-0.608,0-0.952,0-1.032V5.16H7.536z"/>
<path class="st0" d="M17.808,15.84h-3.984l-0.72,3H8.688l4.416-13.68h5.64l4.224,13.68h-4.44L17.808,15.84z M15.792,8.112
	l-1.416,5.064h2.856l-1.344-5.064H15.792z"/>
<path class="st0" d="M41.808,18.84h-4.032l-0.312-7.536c-0.048-1.488-0.104-2.616-0.168-3.384h-0.072
	c-0.192,0.608-0.416,1.552-0.672,2.832l-0.12,0.6l-1.656,7.488h-4.032l-1.392-6.744l-0.24-1.2c-0.336-1.488-0.568-2.48-0.696-2.976
	h-0.072c-0.064,0.8-0.12,2.104-0.168,3.912c-0.016,0.112-0.024,0.288-0.024,0.528l-0.216,6.48H23.88l0.576-13.68h6.864l1.176,5.904
	l0.288,1.584c0.128-0.496,0.248-1.048,0.36-1.656l1.104-5.832h7.008L41.808,18.84z"/>
<path class="st0" d="M43.8,5.16h9.96v2.88h-5.64v2.496h4.752v2.592H48.12v2.784h5.616v2.928H43.8V5.16z"/>
<path class="st0" d="M60.035,9.648c0.344,0.192,0.884,0.4,1.62,0.624c0.88,0.288,1.604,0.568,2.172,0.84
	c0.568,0.272,1.064,0.696,1.488,1.272c0.424,0.576,0.636,1.328,0.636,2.256c0,2.976-1.936,4.464-5.808,4.464
	c-0.64,0-1.42-0.057-2.34-0.168c-0.92-0.112-1.756-0.256-2.508-0.432c0.032-0.336,0.1-0.828,0.204-1.476
	c0.104-0.648,0.204-1.132,0.3-1.452c0.56,0.081,1.404,0.176,2.532,0.288c1.128,0.112,1.98,0.168,2.556,0.168
	c0.336,0,0.536-0.024,0.6-0.072c0.096-0.064,0.172-0.172,0.228-0.324c0.056-0.152,0.084-0.284,0.084-0.396
	c0-0.32-0.152-0.564-0.456-0.732c-0.304-0.168-0.824-0.372-1.56-0.612c-0.88-0.272-1.608-0.552-2.184-0.84
	c-0.576-0.288-1.08-0.735-1.512-1.344c-0.432-0.608-0.648-1.408-0.648-2.4c0-0.704,0.16-1.396,0.48-2.076
	c0.32-0.68,0.648-1.14,0.984-1.38c0.256-0.176,0.784-0.344,1.584-0.504c0.8-0.16,1.552-0.24,2.256-0.24
	c1.792,0,3.256,0.168,4.392,0.504c-0.016,0.32-0.068,0.76-0.156,1.32c-0.088,0.56-0.18,1.072-0.276,1.536l-0.552-0.024
	c-2.08-0.144-3.408-0.216-3.984-0.216c-0.24,0-0.376,0.008-0.408,0.024c-0.064,0.032-0.12,0.104-0.168,0.216
	c-0.048,0.112-0.072,0.24-0.072,0.384C59.52,9.192,59.691,9.457,60.035,9.648z"/>
<path class="st0" d="M84.311,18.84h-4.728l-2.664-5.112c-0.048-0.08-0.172-0.304-0.372-0.672c-0.2-0.368-0.42-0.72-0.66-1.056v6.84
	h-4.32V5.16h4.32v6.216c0.272-0.304,0.508-0.636,0.708-0.996c0.2-0.36,0.316-0.572,0.348-0.636l2.568-4.584h4.56l-2.736,4.584
	c-0.048,0.064-0.152,0.232-0.312,0.504c-0.16,0.272-0.333,0.524-0.516,0.756c-0.184,0.232-0.38,0.444-0.588,0.636
	c0.288,0.272,0.524,0.54,0.708,0.804c0.184,0.264,0.396,0.612,0.636,1.044L84.311,18.84z"/>
<path class="st0" d="M89.375,13.32v5.52h-4.008V5.16h4.056l3.624,5.52c0.544,0.816,0.96,1.504,1.248,2.064h0.072V10.44V5.16h3.984
	v13.68h-4.08l-3.72-5.76l-1.08-1.632h-0.072L89.375,13.32z"/>
<path class="st0" d="M100.751,5.16h4.32v13.68h-4.32V5.16z"/>
<path class="st0" d="M119.447,11.256v6.84c-1.072,0.352-2.088,0.608-3.048,0.768s-1.768,0.24-2.424,0.24
	c-2.176,0-3.88-0.568-5.112-1.704c-1.232-1.136-1.848-2.88-1.848-5.232c0-2.4,0.648-4.196,1.944-5.388
	c1.296-1.192,3.12-1.788,5.472-1.788c1.231,0,2.712,0.184,4.44,0.552c0,0.32-0.032,0.796-0.096,1.428
	c-0.064,0.632-0.128,1.076-0.192,1.332l-0.864-0.024c-1.056-0.032-1.88-0.048-2.472-0.048c-1.776,0-2.745,0.104-2.904,0.312
	c-0.256,0.304-0.436,0.776-0.54,1.416c-0.104,0.64-0.156,1.256-0.156,1.848c0,1.072,0.12,1.904,0.36,2.496
	c0.24,0.592,0.608,1.008,1.104,1.248c0.496,0.24,1.168,0.36,2.016,0.36h0.096v-4.656H119.447z"/>
<path class="st0" d="M121.511,5.16h4.344v5.016h3.72V5.16h4.344v13.68h-4.344v-5.904h-3.72v5.904h-4.344V5.16z"/>
<path class="st0" d="M143.519,18.84h-4.32V8.16h-3.864v-3h12.048v3h-3.864V18.84z"/>
<path class="st0" d="M153.106,14.892c0.52,0.504,0.78,1.196,0.78,2.076c0,0.848-0.288,1.732-0.864,2.652
	c-0.576,0.92-1.264,1.78-2.064,2.58l-1.632-1.392c0.592-0.832,1.104-1.632,1.536-2.4c-0.96-0.272-1.656-0.56-2.088-0.864
	c-0.048-0.24-0.072-0.464-0.072-0.672c0-0.784,0.228-1.436,0.684-1.956s1.092-0.78,1.908-0.78
	C151.982,14.136,152.586,14.388,153.106,14.892z"/>
<path class="st1" d="M168.286,5.448c0.896,0.24,1.612,0.7,2.148,1.38c0.536,0.681,0.804,1.652,0.804,2.916
	c0,0.561-0.084,1.132-0.252,1.716s-0.376,1.092-0.624,1.524s-0.468,0.712-0.66,0.84c-0.224,0.16-0.72,0.284-1.488,0.372
	c-0.768,0.088-1.672,0.132-2.712,0.132c-0.368,0-0.936-0.016-1.704-0.048v4.56h-4.32V5.16c1.68-0.048,3.52-0.072,5.52-0.072
	C166.294,5.088,167.39,5.208,168.286,5.448z M167.038,10.008c0-0.816-0.172-1.392-0.516-1.728c-0.344-0.336-0.94-0.504-1.788-0.504
	c-0.288,0-0.6,0.024-0.936,0.072v3.648c0.16,0.017,0.472,0.024,0.936,0.024c1.232,0,1.92-0.088,2.064-0.264
	C166.958,11.048,167.038,10.632,167.038,10.008z"/>
<path class="st1" d="M183.562,9.816c0.072,0.704,0.108,1.776,0.108,3.216v5.808h-4.104v-5.76c0-0.064,0-0.38,0-0.948
	c0-0.568-0.041-0.916-0.12-1.044c-0.048-0.064-0.165-0.112-0.348-0.144c-0.184-0.032-0.396-0.048-0.636-0.048l-0.408,0.024
	c-0.448,0.016-0.912,0.12-1.392,0.312v7.608h-4.104V4.44l4.104-0.168v2.808c0,1.152-0.04,1.92-0.12,2.304l0.024,0.024
	c1.088-1.232,2.392-1.848,3.912-1.848c0.576,0,1.116,0.08,1.62,0.24c0.504,0.16,0.884,0.392,1.14,0.696
	C183.382,8.672,183.49,9.112,183.562,9.816z"/>
<path class="st1" d="M195.178,5.688c1.191,0.352,2.12,1.016,2.784,1.992c0.664,0.976,0.996,2.376,0.996,4.2
	c0,1.952-0.352,3.436-1.056,4.452s-1.648,1.688-2.832,2.016c-1.184,0.328-2.68,0.492-4.488,0.492h-4.8V5.16h4.8
	C192.454,5.16,193.985,5.336,195.178,5.688z M194.206,14.088c0.08-0.8,0.12-1.536,0.12-2.208c0-0.848-0.06-1.524-0.18-2.028
	c-0.12-0.504-0.332-0.908-0.636-1.212c-0.48-0.528-1.305-0.792-2.472-0.792c-0.208,0-0.52,0.016-0.936,0.048v7.968
	c0.272,0.032,0.696,0.048,1.272,0.048c0.592,0,1.116-0.027,1.572-0.084c0.456-0.056,0.74-0.14,0.852-0.252
	C193.99,15.384,194.125,14.889,194.206,14.088z"/>
</svg>
