<svg xmlns="http://www.w3.org/2000/svg" viewBox="0 0 199.677 32.952">
  <style>
    .st0{fill:#f8f1e5}.st1{fill:#2f2e33}
  </style>
  <path class="st0" d="M7.536 5.16v8.76c0 1.216-.112 2.2-.336 2.952-.225.752-.621 1.32-1.188 1.704-.568.384-1.364.576-2.388.576-1.088 0-2.232-.104-3.432-.312l.36-2.76c.448.016.96.008 1.536-.024.576-.032.904-.096.984-.192.096-.16.144-.543.144-1.152V5.16h4.32zM17.808 15.84h-3.984l-.72 3H8.688l4.416-13.68h5.64l4.224 13.68h-4.44l-.72-3zm-2.016-7.728l-1.416 5.064h2.856l-1.344-5.064h-.096zM41.808 18.84h-4.032l-.312-7.536a72.18 72.18 0 0 0-.168-3.384h-.072c-.192.608-.416 1.552-.672 2.832l-.12.6-1.656 7.488h-4.032l-1.392-6.744-.24-1.2c-.336-1.488-.568-2.48-.696-2.976h-.072c-.064.8-.12 2.104-.168 3.912a4.138 4.138 0 0 0-.024.528l-.216 6.48H23.88l.576-13.68h6.864l1.176 5.904.288 1.584c.128-.496.248-1.048.36-1.656l1.104-5.832h7.008l.552 13.68zM43.8 5.16h9.96v2.88h-5.64v2.496h4.752v2.592H48.12v2.784h5.616v2.928H43.8V5.16zM60.035 9.648c.344.192.884.4 1.62.624.88.288 1.604.568 2.172.84.568.272 1.064.696 1.488 1.272.424.576.636 1.328.636 2.256 0 2.976-1.936 4.464-5.808 4.464-.64 0-1.42-.057-2.34-.168a23.54 23.54 0 0 1-2.508-.432c.032-.336.1-.828.204-1.476.104-.648.204-1.132.3-1.452.56.081 1.404.176 2.532.288 1.128.112 1.98.168 2.556.168.336 0 .536-.024.6-.072a.638.638 0 0 0 .228-.324c.056-.152.084-.284.084-.396 0-.32-.152-.564-.456-.732-.304-.168-.824-.372-1.56-.612-.88-.272-1.608-.552-2.184-.84-.576-.288-1.08-.735-1.512-1.344-.432-.608-.648-1.408-.648-2.4 0-.704.16-1.396.48-2.076.32-.68.648-1.14.984-1.38.256-.176.784-.344 1.584-.504.8-.16 1.552-.24 2.256-.24 1.792 0 3.256.168 4.392.504-.016.32-.068.76-.156 1.32s-.18 1.072-.276 1.536l-.552-.024c-2.08-.144-3.408-.216-3.984-.216-.24 0-.376.008-.408.024-.064.032-.12.104-.168.216a.967.967 0 0 0-.072.384c.001.336.172.601.516.792zM84.311 18.84h-4.728l-2.664-5.112c-.048-.08-.172-.304-.372-.672-.2-.368-.42-.72-.66-1.056v6.84h-4.32V5.16h4.32v6.216a5.48 5.48 0 0 0 .708-.996c.2-.36.316-.572.348-.636l2.568-4.584h4.56l-2.736 4.584a7.49 7.49 0 0 0-.312.504c-.16.272-.333.524-.516.756-.184.232-.38.444-.588.636.288.272.524.54.708.804.184.264.396.612.636 1.044l3.048 5.352zM89.375 13.32v5.52h-4.008V5.16h4.056l3.624 5.52c.544.816.96 1.504 1.248 2.064h.072V5.16h3.984v13.68h-4.08l-3.72-5.76-1.08-1.632h-.072l-.024 1.872zM100.751 5.16h4.32v13.68h-4.32V5.16zM119.447 11.256v6.84c-1.072.352-2.088.608-3.048.768s-1.768.24-2.424.24c-2.176 0-3.88-.568-5.112-1.704-1.232-1.136-1.848-2.88-1.848-5.232 0-2.4.648-4.196 1.944-5.388 1.296-1.192 3.12-1.788 5.472-1.788 1.231 0 2.712.184 4.44.552 0 .32-.032.796-.096 1.428-.064.632-.128 1.076-.192 1.332l-.864-.024a86.894 86.894 0 0 0-2.472-.048c-1.776 0-2.745.104-2.904.312-.256.304-.436.776-.54 1.416-.104.64-.156 1.256-.156 1.848 0 1.072.12 1.904.36 2.496.24.592.608 1.008 1.104 1.248.496.24 1.168.36 2.016.36h.096v-4.656h4.224zM121.511 5.16h4.344v5.016h3.72V5.16h4.344v13.68h-4.344v-5.904h-3.72v5.904h-4.344V5.16zM143.519 18.84h-4.32V8.16h-3.864v-3h12.048v3h-3.864v10.68zM153.106 14.892c.52.504.78 1.196.78 2.076 0 .848-.288 1.732-.864 2.652-.576.92-1.264 1.78-2.064 2.58l-1.632-1.392a26.975 26.975 0 0 0 1.536-2.4c-.96-.272-1.656-.56-2.088-.864a3.438 3.438 0 0 1-.072-.672c0-.784.228-1.436.684-1.956s1.092-.78 1.908-.78c.688 0 1.292.252 1.812.756z"/>
  <path class="st1" d="M168.286 5.448c.896.24 1.612.7 2.148 1.38.536.681.804 1.652.804 2.916 0 .561-.084 1.132-.252 1.716s-.376 1.092-.624 1.524-.468.712-.66.84c-.224.16-.72.284-1.488.372a24.19 24.19 0 0 1-2.712.132c-.368 0-.936-.016-1.704-.048v4.56h-4.32V5.16c1.68-.048 3.52-.072 5.52-.072 1.296 0 2.392.12 3.288.36zm-1.248 4.56c0-.816-.172-1.392-.516-1.728-.344-.336-.94-.504-1.788-.504-.288 0-.6.024-.936.072v3.648c.16.017.472.024.936.024 1.232 0 1.92-.088 2.064-.264.16-.208.24-.624.24-1.248zM183.562 9.816c.072.704.108 1.776.108 3.216v5.808h-4.104v-5.76-.948c0-.568-.041-.916-.12-1.044-.048-.064-.165-.112-.348-.144a3.746 3.746 0 0 0-.636-.048l-.408.024c-.448.016-.912.12-1.392.312v7.608h-4.104V4.44l4.104-.168V7.08c0 1.152-.04 1.92-.12 2.304l.024.024c1.088-1.232 2.392-1.848 3.912-1.848.576 0 1.116.08 1.62.24.504.16.884.392 1.14.696.144.176.252.616.324 1.32zM195.178 5.688c1.191.352 2.12 1.016 2.784 1.992.664.976.996 2.376.996 4.2 0 1.952-.352 3.436-1.056 4.452s-1.648 1.688-2.832 2.016c-1.184.328-2.68.492-4.488.492h-4.8V5.16h4.8c1.872 0 3.403.176 4.596.528zm-.972 8.4c.08-.8.12-1.536.12-2.208 0-.848-.06-1.524-.18-2.028s-.332-.908-.636-1.212c-.48-.528-1.305-.792-2.472-.792-.208 0-.52.016-.936.048v7.968c.272.032.696.048 1.272.048.592 0 1.116-.027 1.572-.084.456-.056.74-.14.852-.252.192-.192.327-.687.408-1.488z"/>
</svg>
