<svg version="1.1" id="Layer_1" xmlns="http://www.w3.org/2000/svg" xmlns:xlink="http://www.w3.org/1999/xlink" x="0px" y="0px"
	 width="35px" height="61.006px" viewBox="0 0 35 61.006" style="enable-background:new 0 0 35 61.006;" xml:space="preserve">
<style type="text/css">
<![CDATA[
	.st0{fill:url(#SVGID_1_);}
]]>
</style>
<g>
	<linearGradient id="SVGID_1_" gradientUnits="userSpaceOnUse" x1="17.4995" y1="0" x2="17.4995" y2="61.0063">
		<stop  offset="0" style="stop-color:#FFFFAA"/>
		<stop  offset="0.0704" style="stop-color:#EAEDA3"/>
		<stop  offset="0.3278" style="stop-color:#A1B08B"/>
		<stop  offset="0.5586" style="stop-color:#678078"/>
		<stop  offset="0.7545" style="stop-color:#3D5D6A"/>
		<stop  offset="0.908" style="stop-color:#234862"/>
		<stop  offset="1" style="stop-color:#1A405F"/>
	</linearGradient>
	<path class="st0" d="M17.34,42.373C14.664,46.18,7.05,61.006,2.269,61.006C0.567,61.006,0,59.223,0,57.766
		c0-5.834,8.103-13.287,12.559-16.528l10.37-20.092c-5.995,1.702-11.504,4.861-17.581,5.995c1.945-4.699,2.026-6.644,2.837-7.94
		c0.81-1.296,3.97-2.43,6.966-3.483c2.755-0.973,9.399-3.808,12.316-3.728c1.943,0.082,3.564,0.892,3.564,2.999
		c0,1.377-1.214,3.727-1.863,4.941l-8.427,16.285l0.162,0.162l13.207-7.778l0.485,3.564L17.34,42.373z M25.279,6.237
		C25.279,2.916,29.168,0,32.327,0C33.785,0,35,1.052,35,2.51c0,3.242-2.996,7.211-6.48,7.211
		C26.576,9.721,25.279,8.183,25.279,6.237z"/>
</g>
</svg>
