<?xml version="1.0" standalone="no"?>
<!DOCTYPE svg PUBLIC "-//W3C//DTD SVG 20010904//EN"
 "http://www.w3.org/TR/2001/REC-SVG-20010904/DTD/svg10.dtd">
<svg version="1.0" xmlns="http://www.w3.org/2000/svg"
 width="625.000000pt" height="625.000000pt" viewBox="0 0 625.000000 625.000000"
 preserveAspectRatio="xMidYMid meet">
<metadata>
Created by potrace 1.11, written by Peter Selinger 2001-2013
</metadata>
<g transform="translate(0.000000,625.000000) scale(0.100000,-0.100000)"
fill="#000000" stroke="none">
<path d="M0 3125 l0 -3125 3125 0 3125 0 0 3125 0 3125 -3125 0 -3125 0 0
-3125z m4339 2430 c183 -43 313 -179 365 -381 36 -142 39 -224 43 -1644 5
-1459 2 -1605 -37 -1785 -69 -318 -235 -587 -472 -766 -177 -133 -443 -237
-733 -285 -139 -23 -495 -24 -661 -1 -300 42 -584 151 -785 302 -337 253 -521
632 -559 1155 -23 314 18 428 187 518 94 50 180 64 373 64 249 -1 377 -33 493
-121 98 -76 108 -104 118 -325 10 -219 33 -345 83 -450 82 -170 218 -246 442
-246 148 0 215 23 299 102 70 65 114 142 133 233 7 33 12 491 14 1355 l3 1305
-610 6 c-647 6 -661 7 -792 57 -117 44 -215 128 -254 217 -50 114 -47 316 6
430 68 143 232 238 457 264 40 5 467 9 948 10 748 1 884 -1 939 -14z"/>
</g>
</svg>
