<svg xmlns="http://www.w3.org/2000/svg" height="32" width="27" viewBox="0 -2.333 31.5 37">
	<style type="text/css">
	<![CDATA[
		.st0{fill:#FAF4EB;}
	]]>
	</style>
	<path class="st0" d="M27.563,0H3.937C1.763,0,0,1.344,0,3v26c0,1.656,1.763,3,3.937,3h23.626c2.173,0,3.937-1.344,3.937-3V3
	C31.5,1.344,29.737,0,27.563,0z M8.174,3.833c1.441,0,2.613,1.172,2.613,2.613S9.615,9.06,8.174,9.06
	c-1.442,0-2.614-1.172-2.614-2.614S6.732,3.833,8.174,3.833z M3.6,13.503v-0.784c0-1.299,1.229-2.352,2.744-2.352h0.204
	c0.502,0.208,1.049,0.327,1.625,0.327c0.576,0,1.127-0.119,1.625-0.327h0.204c1.515,0,2.744,1.053,2.744,2.352v0.784
	c0,0.433-0.408,0.784-0.915,0.784H4.515C4.008,14.287,3.6,13.936,3.6,13.503z M27.876,27.818h-24v-2.322h24V27.818z M27.876,23.679
	h-24v-2.307h24V23.679z M27.876,19.572h-24v-2.324h24V19.572z M27.607,13.648H15.258v-2.323h12.349V13.648z M27.756,8.886H15.258
	V6.562h12.498V8.886z"/>
</svg>
