<svg xmlns="http://www.w3.org/2000/svg" height="32px" viewBox="0 0 228 275.5">
	<style type="text/css">
	<![CDATA[
		.st0{fill:#faf4eb;}
	]]>
	</style>
	<path
		class="st0"
		d="M199.5,0h-171C12.766,0,0,11.569,0,25.828v223.844c0,14.26,12.766,25.828,28.5,25.828h171c15.734,0,28.5-11.568,28.5-25.828
		V25.828C228,11.569,215.234,0,199.5,0z M67.5,33C79.91,33,90,43.09,90,55.5S79.91,78,67.5,78S45,67.91,45,55.5S55.09,33,67.5,33z
	 	M28.125,116.25v-6.75c0-11.18,10.582-20.25,23.625-20.25h1.758c4.324,1.793,9.035,2.812,13.992,2.812s9.703-1.02,13.992-2.812
		h1.758c13.043,0,23.625,9.07,23.625,20.25v6.75c0,3.727-3.516,6.75-7.875,6.75H36C31.641,123,28.125,119.977,28.125,116.25z
	 	M197.5,239.5h-167v-20h167V239.5z M197.5,204h-167v-20h167V204z M197.5,168.5h-167v-20h167V168.5z M197.5,117.5h-69v-20h69V117.5z
	 	M197.5,76.5h-69v-20h69V76.5z"
	/>
</svg>
