<svg xmlns="http://www.w3.org/2000/svg" height="32px" viewBox="0 0 32 32">
<style type="text/css">
<![CDATA[
	.st0{fill:#FAF4EB;}
]]>
</style>
<path class="st0" d="M31.394,11.925C31.638,11.731,32,11.913,32,12.219V25c0,1.656-1.344,3-3,3H3c-1.656,0-3-1.344-3-3V12.225
	c0-0.312,0.356-0.488,0.606-0.294c1.4,1.087,3.256,2.469,9.631,7.1c1.319,0.963,3.544,2.987,5.763,2.975
	c2.231,0.02,4.5-2.05,5.769-2.975C28.144,14.4,29.994,13.013,31.394,11.925z M16,20c1.45,0.025,3.537-1.825,4.588-2.588
	c8.293-6.019,8.925-6.543,10.837-8.043C31.787,9.087,32,8.65,32,8.188V7c0-1.656-1.344-3-3-3H3C1.344,4,0,5.344,0,7v1.188
	C0,8.65,0.212,9.081,0.575,9.369c1.912,1.494,2.543,2.025,10.837,8.043C12.462,18.175,14.55,20.025,16,20z"/>
</svg>
