<svg xmlns="http://www.w3.org/2000/svg" width="180px" height="154.938px" viewBox="0 0 180 154.938" xml:space="preserve">
<style type="text/css">
<![CDATA[
	.st0{fill:#88A0E7;stroke:#E6EBFA;stroke-width:2;}
	.st1{fill:#6382E0;stroke:#E6EBFA;stroke-width:2;}
	.st2{fill:#4067D9;stroke:#0033CC;stroke-width:2;}
	.st3{fill:#5A7BDE;stroke:#E6EBFA;stroke-width:2;}
	.st4{fill:#2752D4;stroke:#E6EBFA;stroke-width:2;}
	.st5{fill:#1947D1;stroke:#000514;stroke-width:2;}
	.st6{fill:#1C49D2;stroke:#000514;stroke-width:2;}
	.st7{fill:#8FA5E9;stroke:#E6EBFA;stroke-width:2;}
	.st8{fill:#0028A2;stroke:#000514;stroke-width:2;}
	.st9{fill:#1E4BD2;stroke:#000514;stroke-width:2;}
	.st10{fill:#B3C3F0;stroke:#E6EBFA;stroke-width:2;}
	.st11{fill:#4E72DC;stroke:#000514;stroke-width:2;}
	.st12{fill:#0033CC;stroke:#000514;stroke-width:2;}
	.st13{fill:#1E4BD2;stroke:#E6EBFA;stroke-width:2;}
	.st14{fill:#D1DAF6;stroke:#E6EBFA;stroke-width:2;}
	.st15{fill:#0031C5;stroke:#000514;stroke-width:2;}
	.st16{fill:#2550D3;stroke:#000514;stroke-width:2;}
	.st17{enable-background:new    ;}
	.st18{fill:#C4CFF3;stroke:#E6EBFA;stroke-width:2;}
	.st19{fill:#5E7EDF;stroke:#E6EBFA;stroke-width:2;}
	.st20{fill:#DBE2F8;stroke:#E6EBFA;stroke-width:2;}
	.st21{fill:#C6D1F4;stroke:#E6EBFA;stroke-width:2;}
	.st22{fill:#B1C1EF;stroke:#000514;stroke-width:2;}
	.st23{fill:#001B6A;stroke:#000514;stroke-width:2;}
	.st24{fill:#6A88E1;stroke:#0033CC;stroke-width:2;}
	.st25{fill:#4C70DB;stroke:#E6EBFA;stroke-width:2;}
	.st26{fill:#B8C6F1;stroke:#E6EBFA;stroke-width:2;}
	.st27{fill:#6886E1;stroke:#E6EBFA;stroke-width:2;}
	.st28{fill:#00279A;stroke:#E6EBFA;stroke-width:2;}
	.st29{fill:#0030C1;stroke:#000514;stroke-width:2;}
	.st30{fill:#0031C3;stroke:#E6EBFA;stroke-width:2;}
	.st31{fill:#DFE5F9;stroke:#E6EBFA;stroke-width:2;}
	.st32{fill:#002FBD;stroke:#000514;stroke-width:2;}
	.st33{fill:#7A95E4;stroke:#E6EBFA;stroke-width:2;}
	.st34{fill:#002DB6;stroke:#000514;stroke-width:2;}
	.st35{fill:#AFBFEF;stroke:#E6EBFA;stroke-width:2;}
	.st36{fill:#002EB8;stroke:#000514;stroke-width:2;}
	.st37{fill:#9CB0EB;stroke:#E6EBFA;stroke-width:2;}
	.st38{fill:#5779DD;stroke:#E6EBFA;stroke-width:2;}
	.st39{fill:#FFFFFF;}
	.st40{fill:#3E65D8;stroke:#000514;stroke-width:2;}
	.st41{fill:#0537CD;stroke:#000514;stroke-width:2;}
	.st42{fill:#2954D4;stroke:#000514;stroke-width:2;}
	.st43{fill:#0032C8;stroke:#000514;stroke-width:2;}
	.st44{fill:#476CDA;stroke:#E6EBFA;stroke-width:2;}
	.st45{fill:#2C56D5;stroke:#000514;stroke-width:2;}
	.st46{fill:#1745D1;stroke:#000514;stroke-width:2;}
	.st47{fill:#4067D9;stroke:#000514;stroke-width:2;}
	.st48{fill:#6E8BE2;stroke:#000514;stroke-width:2;}
	.st49{fill:#6C89E2;stroke:#E6EBFA;stroke-width:2;}
	.st50{fill:#0235CC;stroke:#E6EBFA;stroke-width:2;}
	.st51{fill:#839CE6;stroke:#E6EBFA;stroke-width:2;}
	.st52{fill:#305AD6;stroke:#E6EBFA;stroke-width:2;}
	.st53{fill:#234FD3;stroke:#000514;stroke-width:2;}
	.st54{fill:#DDE4F8;stroke:#E6EBFA;stroke-width:2;}
	.st55{fill:#234FD3;stroke:#E6EBFA;stroke-width:2;}
	.st56{fill:#C8D3F4;stroke:#E6EBFA;stroke-width:2;}
	.st57{fill:#CFD9F5;stroke:#E6EBFA;stroke-width:2;}
	.st58{fill:#7893E4;stroke:#000514;stroke-width:2;}
	.st59{fill:#002184;stroke:#000514;stroke-width:2;}
	.st60{fill:#91A7E9;stroke:#E6EBFA;stroke-width:2;}
	.st61{fill:#204DD2;stroke:#000514;stroke-width:2;}
	.st62{fill:#355DD7;stroke:#E6EBFA;stroke-width:2;}
	.st63{fill:#D6DEF7;stroke:#0033CC;stroke-width:2;}
	.st64{fill:#FFFFFF;stroke:#E6EBFA;stroke-width:2;}
	.st65{fill:#7591E3;stroke:#E6EBFA;stroke-width:2;}
	.st66{fill:#4368D9;stroke:#E6EBFA;stroke-width:2;}
]]>
</style>
<rect x="44.862" y="35.793" class="st39" width="135.049" height="118.52"/>
<circle class="st6" cx="54.445" cy="44.581" r="2.284"/>
<circle class="st38" cx="69.088" cy="44.581" r="1.609"/>
<circle class="st15" cx="83.729" cy="44.581" r="2.7"/>
<circle class="st10" cx="98.373" cy="44.581" r="0.57"/>
<circle class="st57" cx="113.014" cy="44.581" r="0.26"/>
<circle class="st46" cx="127.657" cy="44.581" r="2.336"/>
<circle class="st2" cx="142.298" cy="44.581" r="1.869"/>
<circle class="st41" cx="156.939" cy="44.58" r="2.544"/>
<path class="st29" d="M171.585,41.829c1.519,0,2.75,1.232,2.75,2.752c0,1.519-1.231,2.752-2.75,2.752
	c-1.522,0-2.753-1.233-2.753-2.752C168.832,43.061,170.062,41.829,171.585,41.829z"/>
<circle class="st12" cx="54.445" cy="59.222" r="3.49"/>
<circle class="st24" cx="69.088" cy="59.224" r="1.892"/>
<circle class="st32" cx="83.729" cy="59.223" r="3.768"/>
<circle class="st57" cx="98.373" cy="59.223" r="0.361"/>
<path class="st54" d="M113.014,59.07c0.085,0,0.155,0.07,0.155,0.152c0,0.085-0.07,0.154-0.155,0.154
	c-0.082,0-0.153-0.068-0.153-0.154C112.86,59.14,112.932,59.07,113.014,59.07z"/>
<circle class="st61" cx="127.657" cy="59.222" r="3.004"/>
<circle class="st47" cx="142.298" cy="59.222" r="2.517"/>
<circle class="st43" cx="156.939" cy="59.224" r="3.56"/>
<circle class="st8" cx="171.585" cy="59.223" r="4.254"/>
<circle class="st4" cx="54.445" cy="73.865" r="2.645"/>
<circle class="st7" cx="69.088" cy="73.865" r="1.24"/>
<path class="st36" d="M83.729,70.327c1.956,0,3.541,1.584,3.541,3.54c0,1.953-1.585,3.54-3.541,3.54
	c-1.952,0-3.538-1.587-3.538-3.54C80.191,71.911,81.777,70.327,83.729,70.327z"/>
<circle class="st65" cx="98.373" cy="73.865" r="1.559"/>
<circle class="st26" cx="113.014" cy="73.866" r="0.665"/>
<circle class="st23" cx="127.657" cy="73.865" r="4.879"/>
<path class="st37" d="M142.298,72.816c0.58,0,1.049,0.47,1.049,1.05c0,0.578-0.469,1.047-1.049,1.047
	c-0.576,0-1.047-0.47-1.047-1.047C141.251,73.286,141.722,72.816,142.298,72.816z"/>
<path class="st19" d="M156.939,71.987c1.04,0,1.882,0.842,1.882,1.879c0,1.037-0.842,1.877-1.882,1.877
	c-1.036,0-1.878-0.841-1.878-1.877C155.062,72.829,155.903,71.987,156.939,71.987z"/>
<circle class="st3" cx="171.585" cy="73.865" r="1.942"/>
<circle class="st27" cx="54.445" cy="88.507" r="1.962"/>
<circle class="st14" cx="69.088" cy="88.507" r="0.328"/>
<circle class="st56" cx="83.729" cy="88.508" r="0.47"/>
<circle class="st31" cx="98.373" cy="88.508" r="0.114"/>
<circle class="st60" cx="113.014" cy="88.508" r="1.324"/>
<circle class="st27" cx="127.657" cy="88.507" r="1.962"/>
<circle class="st55" cx="142.298" cy="88.506" r="3.032"/>
<circle class="st66" cx="156.939" cy="88.508" r="2.533"/>
<circle class="st0" cx="171.585" cy="88.508" r="1.465"/>
<circle class="st34" cx="54.445" cy="103.149" r="4.879"/>
<circle class="st18" cx="69.088" cy="103.149" r="0.682"/>
<circle class="st33" cx="83.729" cy="103.15" r="2.082"/>
<circle class="st20" cx="98.373" cy="103.15" r="0.244"/>
<path class="st51" d="M113.014,101.243c1.055,0,1.908,0.854,1.908,1.907s-0.854,1.906-1.908,1.906c-1.051,0-1.906-0.853-1.906-1.906
	S111.963,101.243,113.014,101.243z"/>
<circle class="st49" cx="127.657" cy="103.149" r="2.345"/>
<circle class="st1" cx="142.298" cy="103.151" r="2.519"/>
<path class="st62" d="M156.939,99.757c1.877,0,3.396,1.518,3.396,3.394c0,1.873-1.52,3.393-3.396,3.393
	c-1.871,0-3.393-1.52-3.393-3.393C153.547,101.274,155.068,99.757,156.939,99.757z"/>
<path class="st25" d="M171.585,100.193c1.631,0,2.954,1.325,2.954,2.957s-1.323,2.955-2.954,2.955c-1.635,0-2.959-1.323-2.959-2.955
	S169.95,100.193,171.585,100.193z"/>
<circle class="st53" cx="54.445" cy="117.792" r="2.988"/>
<circle class="st63" cx="69.088" cy="117.792" r="0.252"/>
<circle class="st22" cx="83.729" cy="117.792" r="0.813"/>
<circle class="st64" cx="98.373" cy="117.791" r="0"/>
<circle class="st40" cx="113.014" cy="117.792" r="2.567"/>
<path class="st45" d="M127.657,114.947c1.571,0,2.846,1.272,2.846,2.844c0,1.573-1.274,2.849-2.846,2.849
	c-1.573,0-2.849-1.275-2.849-2.849C124.809,116.22,126.084,114.947,127.657,114.947z"/>
<circle class="st59" cx="142.298" cy="117.792" r="4.88"/>
<circle class="st5" cx="156.939" cy="117.792" r="3.126"/>
<circle class="st9" cx="171.585" cy="117.792" r="3.058"/>
<circle class="st48" cx="54.445" cy="132.434" r="2.351"/>
<circle class="st10" cx="69.088" cy="132.434" r="0.995"/>
<circle class="st21" cx="83.729" cy="132.434" r="0.633"/>
<circle class="st64" cx="98.373" cy="132.434" r="0"/>
<circle class="st11" cx="113.014" cy="132.434" r="2.983"/>
<circle class="st16" cx="127.657" cy="132.435" r="3.796"/>
<circle class="st42" cx="142.298" cy="132.435" r="3.706"/>
<circle class="st47" cx="156.939" cy="132.436" r="3.253"/>
<circle class="st58" cx="171.585" cy="132.436" r="2.168"/>
<circle class="st30" cx="54.445" cy="147.077" r="2.296"/>
<circle class="st25" cx="69.088" cy="147.077" r="1.463"/>
<circle class="st65" cx="83.729" cy="147.077" r="1.069"/>
<circle class="st35" cx="98.373" cy="147.077" r="0.544"/>
<circle class="st28" cx="113.014" cy="147.077" r="2.778"/>
<circle class="st13" cx="127.657" cy="147.076" r="1.901"/>
<circle class="st50" cx="142.298" cy="147.077" r="2.165"/>
<path class="st52" d="M156.939,145.352c0.954,0,1.729,0.771,1.729,1.725c0,0.953-0.775,1.727-1.729,1.727
	c-0.95,0-1.725-0.773-1.725-1.727C155.215,146.122,155.989,145.352,156.939,145.352z"/>
<path class="st44" d="M171.585,145.568c0.831,0,1.505,0.676,1.505,1.508s-0.674,1.51-1.505,1.51c-0.834,0-1.51-0.678-1.51-1.51
	S170.751,145.568,171.585,145.568z"/>
<path d="M180,154.938H44.238V35.168H180V154.938z M45.177,153.939h133.883V36.167H45.177V153.939z"/>
<g class="st17">
	<path d="M11.684,47.017v-2.741l-2.494-3.73h1.042l1.276,1.952c0.235,0.365,0.454,0.729,0.658,1.094
		c0.194-0.337,0.43-0.72,0.707-1.143l1.253-1.903h0.998l-2.583,3.73v2.741H11.684z"/>
	<path d="M17.021,47.017l-1.717-6.471h0.879l0.984,4.242c0.106,0.446,0.196,0.886,0.273,1.325c0.165-0.692,0.262-1.09,0.292-1.197
		l1.231-4.37h1.033l0.928,3.276c0.232,0.812,0.398,1.576,0.502,2.291c0.082-0.41,0.189-0.878,0.322-1.408l1.016-4.159h0.861
		l-1.775,6.471h-0.825l-1.364-4.931c-0.115-0.411-0.183-0.665-0.204-0.759c-0.067,0.298-0.131,0.55-0.189,0.759l-1.373,4.931H17.021
		z"/>
	<path d="M24.45,47.017v-6.471h0.856v2.658h3.364v-2.658h0.857v6.471H28.67v-3.051h-3.364v3.051H24.45z"/>
	<path d="M30.242,47.017l2.486-6.471h0.922l2.649,6.471h-0.977l-0.754-1.96h-2.706l-0.71,1.96H30.242z M32.11,44.359h2.194
		l-0.676-1.792c-0.207-0.545-0.359-0.992-0.459-1.342c-0.083,0.415-0.199,0.828-0.348,1.236L32.11,44.359z"/>
	<path d="M36.466,47.017v-0.794l3.315-4.146c0.236-0.294,0.458-0.55,0.671-0.768h-3.611v-0.764h4.634v0.764l-3.632,4.489
		l-0.393,0.454h4.132v0.764H36.466z"/>
</g>
<g class="st17">
	<path d="M11.176,61.66v-2.741l-2.494-3.73h1.042L11,57.14c0.235,0.365,0.454,0.729,0.657,1.094c0.194-0.338,0.43-0.72,0.707-1.144
		l1.253-1.902h0.999l-2.583,3.73v2.741H11.176z"/>
	<path d="M16.513,61.66l-1.717-6.471h0.879l0.985,4.242c0.106,0.445,0.196,0.885,0.273,1.325c0.165-0.692,0.263-1.091,0.292-1.197
		l1.231-4.369h1.033l0.928,3.275c0.232,0.813,0.399,1.577,0.503,2.292c0.082-0.41,0.189-0.878,0.322-1.408l1.016-4.158h0.861
		l-1.775,6.471h-0.825l-1.365-4.931c-0.114-0.411-0.183-0.665-0.204-0.759c-0.067,0.298-0.13,0.55-0.189,0.759l-1.373,4.931H16.513z
		"/>
	<path d="M23.943,61.66v-6.471h0.855v2.658h3.364v-2.658h0.857v6.471h-0.857v-3.05h-3.364v3.05H23.943z"/>
	<path d="M29.734,61.66l2.486-6.471h0.922l2.649,6.471h-0.976L34.061,59.7h-2.707l-0.71,1.959H29.734z M31.602,59.002h2.194
		l-0.676-1.791c-0.207-0.545-0.358-0.992-0.458-1.343c-0.083,0.415-0.199,0.828-0.349,1.236L31.602,59.002z"/>
	<path d="M36.439,61.66v-6.471h2.429c0.494,0,0.89,0.065,1.189,0.196c0.299,0.131,0.533,0.332,0.702,0.604
		c0.169,0.272,0.253,0.558,0.253,0.854c0,0.277-0.074,0.538-0.224,0.783c-0.15,0.244-0.377,0.44-0.68,0.59
		c0.391,0.116,0.691,0.311,0.903,0.588c0.21,0.275,0.315,0.603,0.315,0.979c0,0.303-0.063,0.584-0.192,0.846
		c-0.128,0.26-0.287,0.461-0.475,0.601c-0.188,0.142-0.424,0.249-0.708,0.321c-0.283,0.072-0.632,0.107-1.043,0.107H36.439z
		 M37.296,57.907h1.399c0.379,0,0.652-0.024,0.816-0.074c0.218-0.065,0.382-0.172,0.493-0.322c0.11-0.15,0.165-0.339,0.165-0.565
		c0-0.214-0.051-0.404-0.154-0.567c-0.104-0.163-0.25-0.276-0.441-0.335c-0.192-0.061-0.52-0.09-0.985-0.09h-1.293V57.907z
		 M37.296,60.896h1.612c0.275,0,0.471-0.009,0.582-0.03c0.197-0.035,0.362-0.094,0.494-0.177c0.133-0.082,0.241-0.202,0.327-0.359
		c0.085-0.157,0.128-0.339,0.128-0.545c0-0.242-0.062-0.452-0.186-0.629c-0.124-0.179-0.295-0.303-0.514-0.375
		c-0.22-0.072-0.536-0.109-0.947-0.109h-1.497V60.896z"/>
</g>
<g class="st17">
	<path d="M12.386,76.302V69.83h0.856v2.658h3.364V69.83h0.855v6.472h-0.855v-3.05h-3.364v3.05H12.386z"/>
	<path d="M18.597,74.223l0.808-0.071c0.038,0.323,0.126,0.589,0.267,0.796c0.14,0.208,0.356,0.375,0.651,0.503
		c0.294,0.128,0.625,0.193,0.994,0.193c0.325,0,0.615-0.049,0.865-0.146c0.25-0.096,0.435-0.229,0.557-0.399
		s0.183-0.354,0.183-0.554c0-0.204-0.059-0.38-0.176-0.532c-0.118-0.151-0.312-0.28-0.583-0.382
		c-0.173-0.067-0.558-0.173-1.152-0.316c-0.595-0.143-1.01-0.277-1.25-0.404c-0.309-0.161-0.54-0.362-0.691-0.602
		c-0.151-0.24-0.227-0.509-0.227-0.807c0-0.326,0.093-0.632,0.278-0.915c0.186-0.284,0.456-0.5,0.812-0.647
		c0.356-0.147,0.751-0.221,1.188-0.221c0.479,0,0.903,0.077,1.269,0.232c0.368,0.154,0.649,0.382,0.846,0.682
		c0.198,0.301,0.304,0.64,0.318,1.02l-0.821,0.062c-0.044-0.409-0.193-0.718-0.447-0.927c-0.255-0.208-0.631-0.313-1.129-0.313
		c-0.517,0-0.895,0.095-1.132,0.286c-0.236,0.189-0.355,0.418-0.355,0.686c0,0.233,0.084,0.424,0.252,0.575
		c0.164,0.15,0.595,0.304,1.292,0.461c0.696,0.158,1.173,0.294,1.433,0.413c0.376,0.173,0.654,0.393,0.834,0.66
		c0.179,0.266,0.27,0.572,0.27,0.92c0,0.344-0.099,0.669-0.295,0.974c-0.198,0.304-0.481,0.542-0.851,0.71
		c-0.37,0.169-0.784,0.254-1.247,0.254c-0.585,0-1.076-0.085-1.471-0.256c-0.397-0.17-0.707-0.427-0.932-0.771
		C18.728,75.042,18.61,74.655,18.597,74.223z"/>
	<path d="M24.919,76.302V69.83h2.44c0.431,0,0.758,0.021,0.985,0.062c0.318,0.052,0.584,0.154,0.799,0.302
		c0.215,0.147,0.388,0.356,0.519,0.625c0.131,0.267,0.197,0.561,0.197,0.882c0,0.551-0.175,1.017-0.525,1.397
		c-0.351,0.381-0.983,0.572-1.898,0.572h-1.66v2.63H24.919z M25.775,72.908h1.673c0.553,0,0.946-0.104,1.179-0.309
		c0.232-0.206,0.349-0.497,0.349-0.87c0-0.271-0.069-0.503-0.206-0.696s-0.317-0.32-0.541-0.382
		c-0.144-0.038-0.41-0.058-0.799-0.058h-1.655V72.908z"/>
	<path d="M30.975,76.302V69.83h0.856v2.658h3.364V69.83h0.855v6.472h-0.855v-3.05h-3.364v3.05H30.975z"/>
	<path d="M40.148,76.302h-0.796v-5.064c-0.19,0.184-0.441,0.365-0.751,0.548c-0.311,0.182-0.589,0.32-0.837,0.41v-0.767
		c0.444-0.209,0.832-0.462,1.166-0.759c0.333-0.298,0.568-0.585,0.706-0.865h0.513V76.302z"/>
</g>
<g class="st17">
	<path d="M12.36,90.944v-6.47h2.441c0.429,0,0.757,0.021,0.985,0.061c0.317,0.054,0.583,0.154,0.798,0.303
		c0.216,0.148,0.388,0.357,0.52,0.624c0.13,0.269,0.196,0.563,0.196,0.884c0,0.55-0.176,1.016-0.526,1.396
		c-0.35,0.382-0.983,0.571-1.898,0.571h-1.66v2.631H12.36z M13.216,87.55h1.673c0.554,0,0.947-0.103,1.179-0.309
		c0.233-0.206,0.349-0.495,0.349-0.87c0-0.271-0.068-0.501-0.205-0.694c-0.137-0.193-0.318-0.321-0.541-0.382
		c-0.146-0.039-0.412-0.058-0.799-0.058h-1.656V87.55z"/>
	<path d="M18.403,90.944v-6.47h2.87c0.576,0,1.015,0.057,1.315,0.174c0.3,0.116,0.54,0.321,0.719,0.615
		c0.181,0.294,0.27,0.62,0.27,0.976c0,0.459-0.148,0.846-0.445,1.16c-0.298,0.315-0.756,0.516-1.377,0.601
		c0.227,0.11,0.399,0.217,0.516,0.322c0.25,0.229,0.487,0.518,0.711,0.861l1.125,1.761H23.03l-0.857-1.346
		c-0.25-0.389-0.456-0.686-0.619-0.892c-0.161-0.207-0.306-0.351-0.434-0.433c-0.128-0.083-0.259-0.14-0.391-0.173
		c-0.097-0.02-0.256-0.03-0.477-0.03H19.26v2.873H18.403z M19.26,87.329h1.841c0.391,0,0.697-0.04,0.917-0.121
		c0.221-0.08,0.388-0.211,0.504-0.388c0.115-0.178,0.172-0.372,0.172-0.581c0-0.306-0.111-0.557-0.334-0.755
		c-0.222-0.196-0.572-0.295-1.052-0.295H19.26V87.329z"/>
	<path d="M24.919,90.944v-6.47h2.229c0.502,0,0.887,0.03,1.152,0.092c0.371,0.085,0.687,0.239,0.949,0.464
		c0.342,0.288,0.597,0.656,0.765,1.105c0.169,0.449,0.254,0.962,0.254,1.539c0,0.49-0.058,0.926-0.172,1.305
		c-0.115,0.38-0.261,0.695-0.44,0.943c-0.181,0.249-0.376,0.444-0.589,0.588c-0.214,0.143-0.471,0.251-0.772,0.324
		c-0.303,0.073-0.649,0.109-1.04,0.109H24.919z M25.775,90.181h1.381c0.427,0,0.762-0.039,1.004-0.118
		c0.243-0.079,0.437-0.191,0.581-0.336c0.203-0.203,0.361-0.476,0.474-0.818s0.17-0.759,0.17-1.247c0-0.678-0.111-1.197-0.333-1.561
		c-0.222-0.364-0.493-0.607-0.81-0.731c-0.229-0.088-0.6-0.132-1.108-0.132h-1.359V90.181z"/>
	<path d="M30.789,90.944l2.504-3.372l-2.208-3.098h1.019l1.175,1.659c0.244,0.344,0.417,0.609,0.521,0.794
		c0.144-0.236,0.315-0.48,0.512-0.737l1.302-1.716h0.932l-2.273,3.05l2.449,3.42h-1.059l-1.629-2.309
		c-0.09-0.132-0.185-0.275-0.281-0.432c-0.144,0.235-0.248,0.396-0.309,0.485l-1.625,2.255H30.789z"/>
	<path d="M41.331,90.181v0.764h-4.277c-0.005-0.19,0.025-0.374,0.093-0.551c0.109-0.292,0.283-0.579,0.522-0.861
		c0.241-0.282,0.587-0.609,1.04-0.98c0.704-0.576,1.179-1.034,1.426-1.37c0.247-0.337,0.371-0.655,0.371-0.956
		c0-0.315-0.114-0.581-0.338-0.797c-0.226-0.216-0.519-0.325-0.881-0.325c-0.382,0-0.688,0.115-0.918,0.345
		c-0.23,0.229-0.346,0.547-0.349,0.954l-0.816-0.084c0.055-0.609,0.266-1.074,0.631-1.392c0.365-0.32,0.854-0.479,1.471-0.479
		c0.62,0,1.111,0.171,1.474,0.516c0.362,0.344,0.543,0.771,0.543,1.28c0,0.26-0.053,0.514-0.159,0.764
		c-0.106,0.25-0.281,0.513-0.528,0.791c-0.246,0.277-0.654,0.656-1.226,1.138c-0.476,0.4-0.782,0.673-0.917,0.815
		c-0.135,0.144-0.248,0.286-0.335,0.43H41.331z"/>
</g>
<g class="st17">
	<path d="M12.36,105.589v-6.473h2.441c0.429,0,0.757,0.021,0.985,0.062c0.317,0.053,0.583,0.154,0.798,0.303
		c0.216,0.147,0.388,0.355,0.52,0.625c0.13,0.267,0.196,0.562,0.196,0.882c0,0.55-0.176,1.016-0.526,1.397
		c-0.35,0.381-0.983,0.572-1.898,0.572h-1.66v2.631H12.36z M13.216,102.193h1.673c0.554,0,0.947-0.104,1.179-0.309
		c0.233-0.206,0.349-0.496,0.349-0.87c0-0.271-0.068-0.502-0.205-0.694c-0.137-0.194-0.318-0.32-0.541-0.383
		c-0.146-0.037-0.412-0.058-0.799-0.058h-1.656V102.193z"/>
	<path d="M18.403,105.589v-6.473h2.87c0.576,0,1.015,0.059,1.315,0.175s0.54,0.322,0.719,0.616c0.181,0.293,0.27,0.62,0.27,0.975
		c0,0.46-0.148,0.847-0.445,1.162c-0.298,0.314-0.756,0.514-1.377,0.6c0.227,0.109,0.399,0.216,0.516,0.323
		c0.25,0.229,0.487,0.516,0.711,0.86l1.125,1.762H23.03l-0.857-1.348c-0.25-0.389-0.456-0.686-0.619-0.891
		c-0.161-0.206-0.306-0.351-0.434-0.434c-0.128-0.081-0.259-0.139-0.391-0.172c-0.097-0.021-0.256-0.03-0.477-0.03H19.26v2.874
		H18.403z M19.26,101.973h1.841c0.391,0,0.697-0.039,0.917-0.122c0.221-0.081,0.388-0.21,0.504-0.388
		c0.115-0.178,0.172-0.371,0.172-0.581c0-0.307-0.111-0.558-0.334-0.754c-0.222-0.197-0.572-0.297-1.052-0.297H19.26V101.973z"/>
	<path d="M24.919,105.589v-6.473h2.229c0.502,0,0.887,0.032,1.152,0.093c0.371,0.085,0.687,0.24,0.949,0.464
		c0.342,0.288,0.597,0.657,0.765,1.105c0.169,0.449,0.254,0.961,0.254,1.539c0,0.491-0.058,0.928-0.172,1.307
		c-0.115,0.38-0.261,0.692-0.44,0.941c-0.181,0.25-0.376,0.444-0.589,0.588c-0.214,0.143-0.471,0.251-0.772,0.324
		c-0.303,0.074-0.649,0.111-1.04,0.111H24.919z M25.775,104.824h1.381c0.427,0,0.762-0.04,1.004-0.119
		c0.243-0.079,0.437-0.191,0.581-0.336c0.203-0.202,0.361-0.476,0.474-0.818s0.17-0.758,0.17-1.247c0-0.678-0.111-1.197-0.333-1.561
		c-0.222-0.363-0.493-0.606-0.81-0.729c-0.229-0.09-0.6-0.134-1.108-0.134h-1.359V104.824z"/>
	<path d="M30.789,105.589l2.504-3.373l-2.208-3.1h1.019l1.175,1.659c0.244,0.346,0.417,0.61,0.521,0.796
		c0.144-0.235,0.315-0.481,0.512-0.738l1.302-1.717h0.932l-2.273,3.051l2.449,3.422h-1.059l-1.629-2.31
		c-0.09-0.133-0.185-0.276-0.281-0.433c-0.144,0.235-0.248,0.398-0.309,0.486l-1.625,2.256H30.789z"/>
	<path d="M41.278,100.701l-0.791,0.062c-0.071-0.312-0.171-0.539-0.3-0.682c-0.214-0.225-0.479-0.339-0.794-0.339
		c-0.254,0-0.476,0.071-0.667,0.213c-0.25,0.182-0.447,0.447-0.591,0.797c-0.144,0.352-0.22,0.851-0.226,1.498
		c0.191-0.292,0.426-0.508,0.703-0.648c0.275-0.143,0.566-0.213,0.869-0.213c0.53,0,0.981,0.195,1.354,0.585
		s0.559,0.895,0.559,1.513c0,0.406-0.087,0.783-0.263,1.132c-0.175,0.348-0.415,0.615-0.722,0.801
		c-0.306,0.186-0.652,0.278-1.042,0.278c-0.661,0-1.202-0.242-1.619-0.731c-0.418-0.486-0.627-1.288-0.627-2.406
		c0-1.251,0.23-2.161,0.693-2.729c0.403-0.494,0.946-0.74,1.629-0.74c0.509,0,0.926,0.143,1.25,0.428
		C41.019,99.803,41.214,100.198,41.278,100.701z M38.034,103.491c0,0.273,0.058,0.535,0.175,0.786
		c0.116,0.25,0.278,0.44,0.487,0.571c0.21,0.131,0.428,0.196,0.657,0.196c0.336,0,0.625-0.135,0.865-0.406
		c0.242-0.271,0.363-0.638,0.363-1.103c0-0.448-0.12-0.8-0.357-1.058c-0.238-0.258-0.538-0.387-0.901-0.387
		c-0.358,0-0.664,0.129-0.914,0.387C38.158,102.736,38.034,103.073,38.034,103.491z"/>
</g>
<g class="st17">
	<path d="M12.36,120.231v-6.473h2.441c0.429,0,0.757,0.021,0.985,0.062c0.317,0.055,0.583,0.154,0.798,0.303
		c0.216,0.149,0.388,0.357,0.52,0.625c0.13,0.269,0.196,0.563,0.196,0.883c0,0.551-0.176,1.017-0.526,1.397
		c-0.35,0.382-0.983,0.571-1.898,0.571h-1.66v2.632H12.36z M13.216,116.837h1.673c0.554,0,0.947-0.103,1.179-0.31
		c0.233-0.206,0.349-0.497,0.349-0.869c0-0.271-0.068-0.504-0.205-0.696c-0.137-0.192-0.318-0.319-0.541-0.382
		c-0.146-0.038-0.412-0.057-0.799-0.057h-1.656V116.837z"/>
	<path d="M18.403,120.231v-6.473h2.87c0.576,0,1.015,0.059,1.315,0.175c0.3,0.117,0.54,0.321,0.719,0.615
		c0.181,0.295,0.27,0.62,0.27,0.978c0,0.458-0.148,0.846-0.445,1.159c-0.298,0.315-0.756,0.516-1.377,0.602
		c0.227,0.108,0.399,0.215,0.516,0.322c0.25,0.229,0.487,0.516,0.711,0.861l1.125,1.761H23.03l-0.857-1.347
		c-0.25-0.389-0.456-0.686-0.619-0.892c-0.161-0.206-0.306-0.351-0.434-0.434c-0.128-0.081-0.259-0.139-0.391-0.171
		c-0.097-0.021-0.256-0.032-0.477-0.032H19.26v2.875H18.403z M19.26,116.615h1.841c0.391,0,0.697-0.04,0.917-0.121
		c0.221-0.082,0.388-0.21,0.504-0.39c0.115-0.178,0.172-0.37,0.172-0.578c0-0.308-0.111-0.559-0.334-0.756
		c-0.222-0.198-0.572-0.296-1.052-0.296H19.26V116.615z"/>
	<path d="M24.919,120.231v-6.473h2.229c0.502,0,0.887,0.031,1.152,0.094c0.371,0.084,0.687,0.239,0.949,0.462
		c0.342,0.29,0.597,0.659,0.765,1.107c0.169,0.448,0.254,0.961,0.254,1.537c0,0.492-0.058,0.928-0.172,1.308
		c-0.115,0.379-0.261,0.694-0.44,0.943c-0.181,0.248-0.376,0.443-0.589,0.587c-0.214,0.143-0.471,0.25-0.772,0.324
		c-0.303,0.073-0.649,0.11-1.04,0.11H24.919z M25.775,119.467h1.381c0.427,0,0.762-0.038,1.004-0.119
		c0.243-0.079,0.437-0.19,0.581-0.335c0.203-0.203,0.361-0.478,0.474-0.819c0.113-0.344,0.17-0.758,0.17-1.247
		c0-0.676-0.111-1.197-0.333-1.56c-0.222-0.363-0.493-0.608-0.81-0.73c-0.229-0.088-0.6-0.133-1.108-0.133h-1.359V119.467z"/>
	<path d="M30.789,120.231l2.504-3.373l-2.208-3.1h1.019l1.175,1.66c0.244,0.345,0.417,0.609,0.521,0.795
		c0.144-0.235,0.315-0.48,0.512-0.737l1.302-1.718h0.932l-2.273,3.051l2.449,3.422h-1.059l-1.629-2.31
		c-0.09-0.133-0.185-0.276-0.281-0.434c-0.144,0.236-0.248,0.398-0.309,0.486l-1.625,2.257H30.789z"/>
	<path d="M37.159,118.523l0.795-0.107c0.09,0.45,0.247,0.774,0.465,0.974c0.22,0.199,0.487,0.299,0.802,0.299
		c0.374,0,0.689-0.13,0.947-0.389c0.258-0.26,0.385-0.58,0.385-0.963c0-0.364-0.118-0.666-0.357-0.902
		c-0.237-0.237-0.54-0.355-0.909-0.355c-0.15,0-0.337,0.029-0.561,0.088l0.088-0.697c0.053,0.007,0.096,0.009,0.128,0.009
		c0.338,0,0.643-0.088,0.914-0.265s0.407-0.449,0.407-0.816c0-0.291-0.099-0.533-0.297-0.725c-0.196-0.19-0.451-0.287-0.764-0.287
		c-0.309,0-0.566,0.098-0.772,0.292c-0.207,0.194-0.338,0.486-0.397,0.873l-0.795-0.141c0.098-0.532,0.319-0.944,0.663-1.237
		c0.344-0.294,0.772-0.44,1.285-0.44c0.353,0,0.679,0.077,0.975,0.228c0.298,0.151,0.525,0.359,0.682,0.62
		c0.158,0.263,0.237,0.541,0.237,0.835c0,0.279-0.076,0.534-0.226,0.763c-0.15,0.23-0.372,0.413-0.667,0.549
		c0.383,0.088,0.68,0.271,0.892,0.549c0.212,0.278,0.317,0.626,0.317,1.045c0,0.564-0.205,1.043-0.617,1.436
		c-0.412,0.393-0.934,0.59-1.563,0.59c-0.567,0-1.04-0.17-1.415-0.508C37.426,119.5,37.212,119.061,37.159,118.523z"/>
</g>
<g class="st17">
	<path d="M0,134.872V128.4h0.855v2.657H4.22V128.4h0.856v6.472H4.22v-3.051H0.855v3.051H0z"/>
	<path d="M6.493,134.872V128.4h0.878l3.399,5.08v-5.08h0.821v6.472h-0.878l-3.399-5.085v5.085H6.493z"/>
	<path d="M13.044,134.872V128.4h2.869c0.577,0,1.015,0.058,1.315,0.174c0.3,0.117,0.541,0.322,0.72,0.617
		c0.179,0.294,0.27,0.619,0.27,0.976c0,0.459-0.149,0.846-0.447,1.16c-0.296,0.315-0.756,0.516-1.376,0.601
		c0.226,0.108,0.398,0.217,0.516,0.322c0.25,0.229,0.487,0.516,0.71,0.861l1.126,1.761h-1.078l-0.856-1.347
		c-0.25-0.388-0.457-0.686-0.618-0.892c-0.162-0.206-0.307-0.35-0.436-0.433c-0.128-0.082-0.257-0.139-0.391-0.172
		c-0.096-0.021-0.256-0.031-0.476-0.031H13.9v2.874H13.044z M13.9,131.256h1.84c0.392,0,0.698-0.039,0.919-0.12
		c0.22-0.081,0.388-0.211,0.503-0.39c0.114-0.178,0.171-0.37,0.171-0.579c0-0.306-0.111-0.558-0.333-0.755
		c-0.222-0.198-0.574-0.296-1.053-0.296H13.9V131.256z"/>
	<path d="M19.55,134.872V128.4h0.878l3.399,5.08v-5.08h0.821v6.472h-0.878l-3.399-5.085v5.085H19.55z"/>
	<path d="M26.088,134.872V128.4h2.441c0.431,0,0.757,0.021,0.984,0.062c0.318,0.053,0.584,0.153,0.799,0.302
		c0.214,0.149,0.388,0.356,0.519,0.625c0.13,0.268,0.196,0.562,0.196,0.883c0,0.55-0.174,1.017-0.524,1.396
		c-0.352,0.382-0.983,0.572-1.899,0.572h-1.659v2.631H26.088z M26.945,131.478h1.673c0.553,0,0.946-0.103,1.179-0.31
		c0.232-0.206,0.349-0.496,0.349-0.869c0-0.271-0.07-0.503-0.206-0.695c-0.137-0.192-0.318-0.32-0.541-0.382
		c-0.144-0.038-0.41-0.058-0.799-0.058h-1.655V131.478z"/>
	<path d="M30.736,134.872l2.486-6.472h0.922l2.649,6.472h-0.977l-0.753-1.96h-2.707l-0.71,1.96H30.736z M32.604,132.214h2.194
		l-0.676-1.792c-0.206-0.544-0.358-0.99-0.458-1.341c-0.083,0.415-0.199,0.826-0.349,1.236L32.604,132.214z"/>
	<path d="M37.159,133.164l0.795-0.106c0.09,0.45,0.247,0.775,0.465,0.974c0.22,0.199,0.487,0.298,0.802,0.298
		c0.374,0,0.689-0.129,0.947-0.388c0.258-0.261,0.385-0.58,0.385-0.963c0-0.364-0.118-0.666-0.357-0.903
		c-0.237-0.237-0.54-0.355-0.909-0.355c-0.15,0-0.337,0.029-0.561,0.088l0.088-0.695c0.053,0.005,0.096,0.008,0.128,0.008
		c0.338,0,0.643-0.088,0.914-0.265s0.407-0.449,0.407-0.816c0-0.292-0.099-0.533-0.297-0.725c-0.196-0.19-0.451-0.287-0.764-0.287
		c-0.309,0-0.566,0.098-0.772,0.291c-0.207,0.195-0.338,0.486-0.397,0.874l-0.795-0.141c0.098-0.533,0.319-0.945,0.663-1.237
		c0.344-0.293,0.772-0.44,1.285-0.44c0.353,0,0.679,0.076,0.975,0.228c0.298,0.15,0.525,0.359,0.682,0.62
		c0.158,0.263,0.237,0.54,0.237,0.834c0,0.279-0.076,0.535-0.226,0.765c-0.15,0.229-0.372,0.412-0.667,0.547
		c0.383,0.088,0.68,0.271,0.892,0.55c0.212,0.278,0.317,0.626,0.317,1.045c0,0.563-0.205,1.042-0.617,1.436
		c-0.412,0.393-0.934,0.59-1.563,0.59c-0.567,0-1.04-0.17-1.415-0.508C37.426,134.142,37.212,133.702,37.159,133.164z"/>
</g>
<g class="st17">
	<path d="M13.864,149.514v-6.473h2.442c0.43,0,0.758,0.021,0.984,0.063c0.318,0.053,0.583,0.152,0.798,0.302
		c0.216,0.149,0.388,0.356,0.52,0.624c0.131,0.269,0.197,0.563,0.197,0.883c0,0.551-0.176,1.017-0.526,1.397
		c-0.35,0.382-0.983,0.572-1.899,0.572h-1.659v2.631H13.864z M14.721,146.119h1.673c0.554,0,0.947-0.103,1.179-0.309
		c0.233-0.207,0.349-0.497,0.349-0.87c0-0.271-0.068-0.503-0.205-0.696c-0.137-0.192-0.317-0.319-0.541-0.381
		c-0.145-0.039-0.411-0.058-0.799-0.058h-1.656V146.119z"/>
	<path d="M21.542,149.514v-5.708h-2.133v-0.765h5.129v0.765h-2.14v5.708H21.542z"/>
	<path d="M25.381,149.514v-6.473h2.428c0.495,0,0.891,0.066,1.189,0.197c0.298,0.132,0.533,0.333,0.702,0.604
		c0.168,0.272,0.254,0.559,0.254,0.854c0,0.277-0.076,0.537-0.226,0.781c-0.15,0.245-0.376,0.441-0.68,0.591
		c0.392,0.115,0.693,0.312,0.903,0.588c0.21,0.277,0.316,0.604,0.316,0.979c0,0.304-0.065,0.585-0.193,0.846
		s-0.286,0.461-0.475,0.604c-0.188,0.141-0.425,0.247-0.708,0.319c-0.285,0.072-0.632,0.108-1.045,0.108H25.381z M26.238,145.761
		h1.399c0.38,0,0.652-0.025,0.816-0.075c0.217-0.064,0.382-0.172,0.492-0.322c0.111-0.149,0.166-0.338,0.166-0.564
		c0-0.216-0.051-0.404-0.155-0.567c-0.103-0.162-0.25-0.275-0.442-0.336c-0.19-0.06-0.519-0.09-0.983-0.09h-1.293V145.761z
		 M26.238,148.75h1.61c0.277,0,0.471-0.01,0.583-0.031c0.197-0.035,0.361-0.094,0.495-0.177c0.132-0.081,0.242-0.203,0.327-0.359
		c0.086-0.157,0.128-0.34,0.128-0.546c0-0.24-0.062-0.45-0.185-0.628c-0.125-0.179-0.295-0.303-0.515-0.376
		c-0.22-0.072-0.535-0.107-0.947-0.107h-1.496V148.75z"/>
	<path d="M31.447,149.514v-6.473h2.44c0.431,0,0.757,0.021,0.985,0.063c0.318,0.053,0.584,0.152,0.799,0.302
		c0.215,0.149,0.388,0.356,0.519,0.624c0.13,0.269,0.196,0.563,0.196,0.883c0,0.551-0.174,1.017-0.524,1.397
		c-0.352,0.382-0.984,0.572-1.899,0.572h-1.659v2.631H31.447z M32.304,146.119h1.673c0.553,0,0.946-0.103,1.179-0.309
		c0.231-0.207,0.349-0.497,0.349-0.87c0-0.271-0.07-0.503-0.207-0.696c-0.137-0.192-0.317-0.319-0.541-0.381
		c-0.144-0.039-0.41-0.058-0.799-0.058h-1.654V146.119z"/>
	<path d="M40.147,149.514h-0.795v-5.063c-0.191,0.183-0.442,0.365-0.752,0.548c-0.31,0.182-0.589,0.319-0.837,0.41v-0.769
		c0.445-0.208,0.833-0.463,1.167-0.759c0.332-0.297,0.567-0.585,0.705-0.864h0.513V149.514z"/>
</g>
<g class="st17">
	<path d="M54.275,9.894l-0.217,0.856c-0.703-0.179-1.24-0.503-1.608-0.969c-0.369-0.467-0.554-1.037-0.554-1.711
		c0-0.698,0.142-1.265,0.426-1.702c0.285-0.437,0.695-0.769,1.233-0.997c0.538-0.228,1.117-0.343,1.735-0.343
		c0.673,0,1.262,0.129,1.763,0.387c0.501,0.258,0.883,0.624,1.144,1.1c0.261,0.475,0.391,0.999,0.391,1.569
		c0,0.646-0.165,1.191-0.495,1.632c-0.329,0.442-0.793,0.749-1.391,0.923l-0.198-0.843c0.471-0.15,0.813-0.367,1.028-0.653
		s0.322-0.645,0.322-1.078c0-0.497-0.12-0.913-0.357-1.247c-0.239-0.334-0.559-0.568-0.96-0.704
		c-0.401-0.135-0.816-0.203-1.244-0.203c-0.55,0-1.029,0.08-1.441,0.241c-0.41,0.16-0.717,0.41-0.92,0.748
		C52.73,7.238,52.628,7.605,52.628,8c0,0.479,0.139,0.886,0.415,1.218C53.319,9.551,53.73,9.775,54.275,9.894z"/>
	<path d="M52.005,11.823h6.472v4.679h-0.764v-3.823h-1.982v3.58h-0.76v-3.58h-2.203v3.973h-0.764V11.823z"/>
	<path d="M52.005,17.834h6.472v2.442c0,0.43-0.021,0.758-0.062,0.984c-0.052,0.318-0.154,0.583-0.302,0.798
		c-0.148,0.216-0.356,0.388-0.625,0.52c-0.267,0.131-0.561,0.197-0.882,0.197c-0.551,0-1.017-0.176-1.398-0.526
		c-0.38-0.35-0.572-0.983-0.572-1.899v-1.659h-2.631V17.834z M55.4,18.691v1.673c0,0.554,0.104,0.947,0.309,1.179
		c0.207,0.233,0.497,0.349,0.87,0.349c0.271,0,0.503-0.069,0.695-0.206c0.193-0.136,0.32-0.317,0.382-0.541
		c0.038-0.145,0.057-0.411,0.057-0.799v-1.655H55.4z"/>
	<path d="M52.005,26.536v-0.795h5.063c-0.183-0.191-0.365-0.442-0.547-0.752c-0.182-0.311-0.32-0.59-0.41-0.837h0.768
		c0.208,0.444,0.462,0.833,0.759,1.166c0.298,0.333,0.586,0.569,0.865,0.706v0.513H52.005z"/>
	<path d="M53.502,28.689l0.071,0.764c-0.36,0.064-0.62,0.188-0.782,0.371c-0.161,0.182-0.243,0.416-0.243,0.702
		c0,0.244,0.056,0.458,0.168,0.642c0.111,0.185,0.261,0.336,0.448,0.453c0.187,0.118,0.439,0.216,0.757,0.295
		c0.318,0.081,0.642,0.12,0.971,0.12c0.036,0,0.089-0.001,0.159-0.004c-0.253-0.16-0.458-0.377-0.615-0.651
		c-0.157-0.276-0.237-0.574-0.237-0.895c0-0.536,0.194-0.988,0.583-1.359c0.388-0.371,0.9-0.557,1.536-0.557
		c0.656,0,1.184,0.194,1.584,0.581c0.4,0.387,0.6,0.871,0.6,1.454c0,0.421-0.112,0.806-0.339,1.155
		c-0.228,0.349-0.549,0.613-0.969,0.794c-0.42,0.182-1.027,0.271-1.821,0.271c-0.827,0-1.486-0.09-1.975-0.27
		c-0.491-0.179-0.864-0.446-1.119-0.801c-0.256-0.354-0.384-0.771-0.384-1.247c0-0.505,0.14-0.919,0.421-1.24
		C52.599,28.947,52.993,28.754,53.502,28.689z M56.357,31.943c0.457,0,0.819-0.121,1.086-0.364c0.269-0.243,0.401-0.536,0.401-0.876
		c0-0.354-0.144-0.662-0.432-0.923c-0.288-0.262-0.663-0.393-1.122-0.393c-0.412,0-0.746,0.123-1.004,0.372
		c-0.257,0.249-0.387,0.555-0.387,0.921c0,0.367,0.129,0.67,0.387,0.906C55.545,31.824,55.901,31.943,56.357,31.943z"/>
</g>
<g class="st17">
	<path d="M66.644,3.784h6.471v2.229c0,0.504-0.03,0.887-0.092,1.152c-0.085,0.371-0.239,0.688-0.464,0.949
		c-0.288,0.342-0.656,0.597-1.105,0.766c-0.449,0.17-0.961,0.254-1.539,0.254c-0.491,0-0.926-0.058-1.306-0.172
		c-0.379-0.115-0.694-0.262-0.943-0.442c-0.249-0.179-0.444-0.376-0.586-0.589c-0.143-0.213-0.251-0.471-0.325-0.772
		c-0.073-0.302-0.11-0.648-0.11-1.04V3.784z M67.408,4.641v1.382c0,0.426,0.039,0.761,0.119,1.004
		c0.079,0.243,0.192,0.436,0.336,0.579c0.203,0.204,0.476,0.361,0.818,0.475c0.343,0.113,0.759,0.169,1.247,0.169
		c0.677,0,1.197-0.111,1.561-0.333c0.364-0.222,0.607-0.492,0.731-0.81C72.307,6.878,72.351,6.51,72.351,6V4.641H67.408z"/>
	<path d="M68.913,14.931l-0.216,0.856c-0.702-0.179-1.239-0.502-1.609-0.969c-0.369-0.468-0.554-1.037-0.554-1.711
		c0-0.698,0.143-1.266,0.426-1.702c0.284-0.437,0.695-0.769,1.235-0.997c0.538-0.228,1.117-0.343,1.734-0.343
		c0.675,0,1.262,0.129,1.765,0.387c0.501,0.257,0.882,0.623,1.143,1.099c0.26,0.475,0.391,0.998,0.391,1.569
		c0,0.647-0.165,1.191-0.494,1.633c-0.331,0.441-0.793,0.749-1.391,0.922l-0.199-0.843c0.471-0.15,0.814-0.368,1.029-0.653
		c0.214-0.286,0.322-0.645,0.322-1.078c0-0.496-0.118-0.913-0.357-1.247c-0.238-0.334-0.558-0.569-0.96-0.704
		c-0.401-0.136-0.815-0.203-1.242-0.203c-0.55,0-1.031,0.079-1.441,0.24c-0.412,0.16-0.718,0.41-0.921,0.748
		c-0.202,0.338-0.304,0.706-0.304,1.1c0,0.479,0.138,0.885,0.415,1.217C67.958,14.588,68.368,14.812,68.913,14.931z"/>
	<path d="M66.644,18.489h5.707v-2.133h0.764v5.129h-0.764v-2.14h-5.707V18.489z"/>
	<path d="M66.644,22.355h6.471v0.878l-5.081,3.399h5.081v0.821h-6.471v-0.878l5.085-3.399h-5.085V22.355z"/>
	<path d="M66.644,31.564v-0.795h5.063c-0.182-0.191-0.365-0.442-0.547-0.752c-0.183-0.311-0.32-0.589-0.411-0.837h0.769
		c0.209,0.444,0.461,0.833,0.759,1.166c0.297,0.333,0.586,0.569,0.865,0.707v0.512H66.644z"/>
</g>
<g class="st17">
	<path d="M83.556,4.865l-0.217,0.856c-0.703-0.179-1.24-0.502-1.608-0.969c-0.37-0.467-0.554-1.037-0.554-1.71
		c0-0.698,0.142-1.266,0.426-1.702c0.285-0.437,0.695-0.769,1.233-0.997S83.953,0,84.571,0c0.673,0,1.262,0.129,1.763,0.387
		c0.501,0.258,0.884,0.624,1.144,1.1c0.261,0.474,0.391,0.998,0.391,1.569c0,0.646-0.165,1.191-0.495,1.632
		c-0.329,0.442-0.793,0.749-1.391,0.922l-0.198-0.843C86.257,4.618,86.6,4.4,86.814,4.114c0.215-0.285,0.322-0.644,0.322-1.077
		c0-0.497-0.12-0.913-0.357-1.247c-0.239-0.334-0.559-0.568-0.96-0.704c-0.401-0.135-0.816-0.203-1.244-0.203
		c-0.55,0-1.029,0.079-1.441,0.24c-0.41,0.16-0.717,0.41-0.92,0.748c-0.203,0.338-0.305,0.706-0.305,1.1
		c0,0.479,0.139,0.886,0.415,1.218C82.601,4.522,83.012,4.747,83.556,4.865z"/>
	<path d="M81.287,6.794h6.472v4.679h-0.764V7.65h-1.981v3.58h-0.76V7.65H82.05v3.973h-0.763V6.794z"/>
	<path d="M81.287,12.806h6.472v2.442c0,0.429-0.021,0.758-0.062,0.984c-0.052,0.317-0.154,0.583-0.302,0.798
		c-0.147,0.215-0.356,0.388-0.625,0.52c-0.267,0.13-0.561,0.196-0.882,0.196c-0.551,0-1.017-0.175-1.397-0.525
		c-0.381-0.351-0.572-0.984-0.572-1.899v-1.66h-2.63V12.806z M84.681,13.663v1.673c0,0.554,0.104,0.947,0.309,1.179
		c0.207,0.233,0.497,0.349,0.87,0.349c0.271,0,0.503-0.068,0.696-0.205c0.192-0.136,0.32-0.317,0.382-0.541
		c0.038-0.145,0.057-0.411,0.057-0.799v-1.656H84.681z"/>
	<path d="M81.287,21.507v-0.796h5.063c-0.183-0.19-0.365-0.441-0.547-0.751c-0.182-0.311-0.32-0.589-0.41-0.837h0.768
		c0.208,0.444,0.462,0.833,0.759,1.165c0.298,0.333,0.585,0.569,0.865,0.707v0.513H81.287z"/>
	<path d="M86.911,23.595h0.764v4.188h-0.617c-0.439-0.412-1.021-0.819-1.749-1.225c-0.728-0.405-1.474-0.718-2.243-0.938
		c-0.542-0.159-1.135-0.26-1.779-0.304V24.5c0.508,0.009,1.125,0.108,1.845,0.3c0.721,0.192,1.417,0.466,2.086,0.824
		c0.669,0.358,1.233,0.738,1.692,1.141V23.595z"/>
	<path d="M84.479,28.57c0.765,0,1.381,0.078,1.848,0.236c0.466,0.157,0.826,0.392,1.079,0.703c0.254,0.31,0.379,0.701,0.379,1.171
		c0,0.348-0.069,0.652-0.208,0.914c-0.14,0.262-0.342,0.479-0.605,0.649c-0.264,0.171-0.585,0.304-0.963,0.401
		c-0.378,0.097-0.887,0.145-1.529,0.145c-0.759,0-1.372-0.078-1.839-0.233c-0.466-0.156-0.827-0.389-1.081-0.7
		c-0.255-0.31-0.382-0.703-0.382-1.176c0-0.624,0.223-1.114,0.671-1.471C82.386,28.784,83.263,28.57,84.479,28.57z M84.479,29.386
		c-1.062,0-1.769,0.125-2.121,0.374c-0.353,0.248-0.528,0.555-0.528,0.92c0,0.365,0.177,0.671,0.53,0.92
		c0.354,0.249,1.061,0.374,2.119,0.374c1.065,0,1.773-0.125,2.124-0.374c0.35-0.249,0.524-0.558,0.524-0.929
		c0-0.365-0.154-0.656-0.462-0.875C86.269,29.523,85.54,29.386,84.479,29.386z"/>
</g>
<g class="st17">
	<path d="M95.931,3.254h6.471v2.44c0,0.431-0.021,0.758-0.062,0.984c-0.053,0.319-0.153,0.584-0.302,0.799
		c-0.149,0.215-0.358,0.388-0.625,0.519c-0.269,0.131-0.562,0.197-0.884,0.197c-0.551,0-1.016-0.175-1.397-0.525
		c-0.38-0.351-0.57-0.983-0.57-1.898v-1.66h-2.631V3.254z M99.325,4.111v1.673c0,0.553,0.102,0.946,0.308,1.179
		c0.207,0.232,0.497,0.349,0.871,0.349c0.271,0,0.502-0.07,0.694-0.207c0.192-0.136,0.32-0.317,0.382-0.541
		c0.039-0.144,0.057-0.41,0.057-0.799V4.111H99.325z"/>
	<path d="M99.083,9.023c1.072,0,1.913,0.289,2.521,0.865c0.607,0.577,0.912,1.322,0.912,2.234c0,0.598-0.144,1.136-0.429,1.616
		s-0.684,0.846-1.193,1.097c-0.512,0.251-1.09,0.377-1.737,0.377c-0.656,0-1.244-0.132-1.761-0.396
		c-0.52-0.265-0.911-0.641-1.177-1.126c-0.268-0.485-0.4-1.009-0.4-1.572c0-0.608,0.147-1.153,0.441-1.632s0.696-0.843,1.206-1.091
		C97.976,9.148,98.513,9.023,99.083,9.023z M99.069,9.907c-0.78,0-1.396,0.209-1.843,0.628c-0.449,0.42-0.674,0.946-0.674,1.579
		c0,0.644,0.227,1.175,0.679,1.591c0.454,0.416,1.097,0.625,1.93,0.625c0.527,0,0.986-0.089,1.38-0.267
		c0.393-0.178,0.697-0.438,0.914-0.781s0.324-0.729,0.324-1.154c0-0.607-0.208-1.129-0.625-1.565
		C100.737,10.125,100.043,9.907,99.069,9.907z"/>
	<path d="M98.199,20.933l-0.217,0.857c-0.702-0.18-1.239-0.503-1.609-0.969c-0.368-0.466-0.554-1.036-0.554-1.711
		c0-0.696,0.143-1.264,0.426-1.7c0.284-0.437,0.695-0.771,1.234-0.999c0.538-0.228,1.117-0.342,1.734-0.342
		c0.675,0,1.262,0.128,1.765,0.385c0.501,0.258,0.883,0.625,1.143,1.1c0.26,0.476,0.391,0.999,0.391,1.569
		c0,0.648-0.164,1.192-0.494,1.634c-0.33,0.441-0.793,0.749-1.391,0.922l-0.199-0.843c0.471-0.15,0.814-0.369,1.029-0.654
		c0.215-0.286,0.322-0.645,0.322-1.077c0-0.498-0.118-0.914-0.358-1.247c-0.237-0.334-0.558-0.569-0.96-0.704
		c-0.401-0.136-0.815-0.204-1.242-0.204c-0.551,0-1.031,0.081-1.441,0.241c-0.41,0.161-0.717,0.41-0.921,0.749
		c-0.202,0.338-0.304,0.704-0.304,1.098c0,0.481,0.138,0.886,0.415,1.219C97.244,20.59,97.655,20.815,98.199,20.933z"/>
	<path d="M95.931,25.516v-0.794h5.062c-0.183-0.192-0.365-0.443-0.547-0.753c-0.183-0.311-0.32-0.589-0.411-0.837h0.769
		c0.209,0.445,0.462,0.834,0.759,1.167c0.297,0.332,0.586,0.567,0.866,0.705v0.513H95.931z"/>
	<path d="M95.931,27.162l6.471,2.485v0.922l-6.471,2.649v-0.976l1.96-0.754v-2.707l-1.96-0.71V27.162z M98.588,29.03v2.193
		l1.792-0.676c0.545-0.206,0.991-0.359,1.342-0.459c-0.415-0.083-0.827-0.199-1.236-0.349L98.588,29.03z"/>
</g>
<g class="st17">
	<path d="M112.841,9.894l-0.216,0.856c-0.702-0.179-1.239-0.503-1.607-0.969c-0.37-0.467-0.554-1.037-0.554-1.711
		c0-0.698,0.141-1.265,0.425-1.702s0.696-0.769,1.234-0.997c0.538-0.228,1.115-0.343,1.734-0.343c0.674,0,1.263,0.129,1.764,0.387
		c0.502,0.258,0.882,0.624,1.144,1.1c0.259,0.475,0.39,0.999,0.39,1.569c0,0.646-0.164,1.191-0.493,1.632
		c-0.33,0.442-0.794,0.749-1.392,0.923l-0.199-0.843c0.472-0.15,0.814-0.367,1.029-0.653s0.321-0.645,0.321-1.078
		c0-0.497-0.118-0.913-0.356-1.247s-0.559-0.568-0.959-0.704c-0.403-0.135-0.816-0.203-1.244-0.203c-0.551,0-1.031,0.08-1.441,0.241
		c-0.409,0.16-0.717,0.41-0.92,0.748c-0.202,0.338-0.305,0.706-0.305,1.1c0,0.479,0.14,0.886,0.414,1.218
		C111.888,9.551,112.298,9.775,112.841,9.894z"/>
	<path d="M110.572,11.823h6.473v4.679h-0.765v-3.823h-1.982v3.58h-0.759v-3.58h-2.202v3.973h-0.765V11.823z"/>
	<path d="M110.572,17.834h6.473v2.442c0,0.43-0.021,0.758-0.062,0.984c-0.055,0.318-0.154,0.583-0.303,0.798
		c-0.149,0.216-0.357,0.388-0.625,0.52c-0.268,0.131-0.563,0.197-0.883,0.197c-0.551,0-1.017-0.176-1.397-0.526
		c-0.382-0.35-0.571-0.983-0.571-1.899v-1.659h-2.632V17.834z M113.967,18.691v1.673c0,0.554,0.103,0.947,0.31,1.179
		c0.206,0.233,0.497,0.349,0.869,0.349c0.271,0,0.504-0.069,0.696-0.206c0.193-0.136,0.319-0.317,0.383-0.541
		c0.037-0.145,0.056-0.411,0.056-0.799v-1.655H113.967z"/>
	<path d="M114.082,24.766c0.121-0.33,0.294-0.574,0.517-0.733c0.224-0.159,0.492-0.238,0.804-0.238c0.471,0,0.867,0.169,1.188,0.508
		c0.321,0.338,0.481,0.788,0.481,1.351c0,0.564-0.165,1.02-0.492,1.364c-0.329,0.344-0.728,0.516-1.198,0.516
		c-0.301,0-0.562-0.078-0.783-0.235c-0.225-0.157-0.395-0.396-0.516-0.717c-0.13,0.396-0.338,0.699-0.627,0.907
		c-0.288,0.207-0.632,0.311-1.032,0.311c-0.555,0-1.019-0.195-1.396-0.586c-0.376-0.392-0.563-0.907-0.563-1.545
		c0-0.639,0.188-1.154,0.567-1.544c0.378-0.392,0.849-0.587,1.414-0.587c0.421,0,0.773,0.106,1.056,0.319
		C113.786,24.067,113.979,24.371,114.082,24.766z M112.44,24.351c-0.227,0-0.446,0.054-0.658,0.161
		c-0.211,0.107-0.375,0.267-0.491,0.478c-0.116,0.212-0.175,0.44-0.175,0.685c0,0.379,0.122,0.693,0.366,0.94
		c0.245,0.247,0.555,0.371,0.932,0.371c0.382,0,0.698-0.128,0.948-0.382c0.25-0.255,0.376-0.574,0.376-0.957
		c0-0.373-0.124-0.683-0.371-0.929C113.119,24.472,112.811,24.351,112.44,24.351z M115.429,24.607c-0.306,0-0.556,0.097-0.751,0.295
		c-0.194,0.198-0.291,0.453-0.291,0.768c0,0.307,0.097,0.558,0.29,0.753c0.192,0.196,0.429,0.294,0.708,0.294
		c0.291,0,0.536-0.102,0.734-0.303c0.198-0.201,0.299-0.452,0.299-0.752c0-0.303-0.098-0.554-0.292-0.754
		C115.932,24.707,115.698,24.607,115.429,24.607z"/>
	<path d="M112.269,28.57l0.07,0.834c-0.406,0.062-0.711,0.205-0.915,0.431c-0.205,0.225-0.308,0.497-0.308,0.814
		c0,0.383,0.144,0.707,0.433,0.972c0.288,0.265,0.67,0.397,1.147,0.397c0.452,0,0.812-0.128,1.072-0.382
		c0.263-0.255,0.394-0.588,0.394-1c0-0.255-0.058-0.486-0.175-0.693c-0.116-0.205-0.268-0.367-0.453-0.486l0.098-0.746l3.324,0.627
		v3.217h-0.759v-2.582l-1.739-0.349c0.27,0.389,0.405,0.796,0.405,1.223c0,0.565-0.195,1.042-0.587,1.43
		c-0.392,0.388-0.895,0.583-1.51,0.583c-0.585,0-1.092-0.17-1.518-0.512c-0.524-0.415-0.785-0.981-0.785-1.7
		c0-0.588,0.164-1.069,0.494-1.441C111.286,28.836,111.724,28.624,112.269,28.57z"/>
</g>
<g class="st17">
	<path d="M127.482,4.865l-0.216,0.856c-0.703-0.179-1.24-0.502-1.608-0.969c-0.37-0.467-0.554-1.037-0.554-1.71
		c0-0.698,0.141-1.266,0.426-1.702c0.282-0.437,0.694-0.769,1.233-0.997C127.302,0.115,127.881,0,128.499,0
		c0.673,0,1.262,0.129,1.763,0.387c0.502,0.258,0.883,0.624,1.145,1.1c0.26,0.474,0.391,0.998,0.391,1.569
		c0,0.646-0.166,1.191-0.495,1.632c-0.329,0.442-0.793,0.749-1.391,0.922l-0.199-0.843c0.472-0.149,0.813-0.367,1.028-0.653
		c0.215-0.285,0.322-0.644,0.322-1.077c0-0.497-0.118-0.913-0.357-1.247c-0.238-0.334-0.558-0.568-0.959-0.704
		c-0.402-0.135-0.816-0.203-1.244-0.203c-0.55,0-1.031,0.079-1.44,0.24c-0.41,0.16-0.718,0.41-0.92,0.748
		c-0.204,0.338-0.305,0.706-0.305,1.1c0,0.479,0.138,0.886,0.415,1.218C126.528,4.522,126.938,4.747,127.482,4.865z"/>
	<path d="M125.214,6.794h6.473v4.679h-0.764V7.65h-1.983v3.58h-0.759V7.65h-2.202v3.973h-0.765V6.794z"/>
	<path d="M125.214,12.806h6.473v2.442c0,0.429-0.021,0.758-0.062,0.984c-0.054,0.317-0.154,0.583-0.303,0.798
		c-0.148,0.215-0.355,0.388-0.625,0.52c-0.267,0.13-0.562,0.196-0.882,0.196c-0.55,0-1.016-0.175-1.397-0.525
		c-0.382-0.351-0.572-0.984-0.572-1.899v-1.66h-2.631V12.806z M128.609,13.663v1.673c0,0.554,0.103,0.947,0.309,1.179
		c0.206,0.233,0.496,0.349,0.87,0.349c0.271,0,0.502-0.068,0.694-0.205c0.193-0.136,0.32-0.317,0.383-0.541
		c0.037-0.145,0.058-0.411,0.058-0.799v-1.656H128.609z"/>
	<path d="M125.214,21.507v-0.796h5.062c-0.181-0.19-0.364-0.441-0.546-0.751c-0.184-0.311-0.319-0.589-0.412-0.837h0.77
		c0.209,0.444,0.462,0.833,0.759,1.165c0.298,0.333,0.586,0.569,0.865,0.707v0.513H125.214z"/>
	<path d="M128.406,23.542c0.765,0,1.38,0.079,1.848,0.237c0.466,0.158,0.825,0.392,1.079,0.701c0.253,0.311,0.379,0.702,0.379,1.173
		c0,0.346-0.069,0.651-0.21,0.913c-0.139,0.262-0.341,0.478-0.604,0.649c-0.264,0.171-0.585,0.305-0.963,0.401
		c-0.378,0.098-0.889,0.146-1.529,0.146c-0.761,0-1.373-0.078-1.839-0.234c-0.467-0.156-0.828-0.389-1.082-0.699
		c-0.255-0.311-0.381-0.703-0.381-1.176c0-0.625,0.223-1.115,0.67-1.471C126.313,23.755,127.189,23.542,128.406,23.542z
		 M128.406,24.359c-1.062,0-1.771,0.123-2.122,0.372c-0.351,0.249-0.526,0.555-0.526,0.921c0,0.365,0.177,0.671,0.529,0.92
		c0.354,0.249,1.059,0.372,2.119,0.372c1.065,0,1.772-0.124,2.124-0.372c0.35-0.249,0.524-0.559,0.524-0.93
		c0-0.365-0.154-0.656-0.464-0.874C130.196,24.496,129.468,24.359,128.406,24.359z"/>
	<path d="M125.214,31.116h1.55v-2.807h0.729l4.194,2.954v0.648h-4.194v0.875h-0.729v-0.875h-1.55V31.116z M127.492,31.116h2.917
		l-2.917-2.025V31.116z"/>
</g>
<g class="st17">
	<path d="M139.855,18.792h6.472v0.878l-5.081,3.398h5.081v0.821h-6.472V23.01l5.086-3.398h-5.086V18.792z"/>
	<path d="M139.855,25.474h6.472v0.857h-6.472V25.474z"/>
	<path d="M139.855,27.832h6.472v0.879l-5.081,3.398h5.081v0.821h-6.472v-0.879l5.086-3.398h-5.086V27.832z"/>
</g>
<g class="st17">
	<path d="M156.77,4.865l-0.217,0.856c-0.702-0.179-1.239-0.502-1.608-0.969c-0.369-0.467-0.554-1.037-0.554-1.71
		c0-0.698,0.142-1.266,0.427-1.702c0.282-0.437,0.693-0.769,1.232-0.997C156.588,0.115,157.167,0,157.786,0
		c0.673,0,1.261,0.129,1.763,0.387c0.501,0.258,0.882,0.624,1.143,1.1c0.26,0.474,0.391,0.998,0.391,1.569
		c0,0.646-0.164,1.191-0.494,1.632c-0.33,0.442-0.793,0.749-1.392,0.922l-0.198-0.843c0.471-0.149,0.814-0.367,1.029-0.653
		c0.214-0.285,0.322-0.644,0.322-1.077c0-0.497-0.118-0.913-0.358-1.247c-0.237-0.334-0.558-0.568-0.959-0.704
		c-0.403-0.135-0.816-0.203-1.243-0.203c-0.551,0-1.031,0.079-1.441,0.24c-0.409,0.16-0.718,0.41-0.919,0.748
		c-0.205,0.338-0.307,0.706-0.307,1.1c0,0.479,0.139,0.886,0.415,1.218C155.814,4.522,156.225,4.747,156.77,4.865z"/>
	<path d="M154.501,6.794h6.471v4.679h-0.763V7.65h-1.983v3.58h-0.759V7.65h-2.203v3.973h-0.763V6.794z"/>
	<path d="M154.501,12.806h6.471v2.442c0,0.429-0.021,0.758-0.062,0.984c-0.053,0.317-0.153,0.583-0.303,0.798
		c-0.148,0.215-0.356,0.388-0.625,0.52c-0.267,0.13-0.562,0.196-0.882,0.196c-0.551,0-1.017-0.175-1.397-0.525
		c-0.381-0.351-0.571-0.984-0.571-1.899v-1.66h-2.631V12.806z M157.896,13.663v1.673c0,0.554,0.102,0.947,0.308,1.179
		c0.206,0.233,0.497,0.349,0.871,0.349c0.271,0,0.503-0.068,0.695-0.205c0.192-0.136,0.319-0.317,0.382-0.541
		c0.038-0.145,0.058-0.411,0.058-0.799v-1.656H157.896z"/>
	<path d="M154.501,21.507v-0.796h5.062c-0.183-0.19-0.365-0.441-0.547-0.751c-0.184-0.311-0.32-0.589-0.411-0.837h0.769
		c0.209,0.444,0.462,0.833,0.759,1.165c0.298,0.333,0.586,0.569,0.865,0.707v0.513H154.501z"/>
	<path d="M156.209,23.546l0.105,0.794c-0.45,0.091-0.774,0.247-0.973,0.466c-0.199,0.218-0.299,0.486-0.299,0.8
		c0,0.375,0.13,0.69,0.389,0.947c0.26,0.257,0.58,0.387,0.963,0.387c0.364,0,0.666-0.12,0.902-0.358
		c0.236-0.239,0.355-0.542,0.355-0.909c0-0.15-0.029-0.338-0.088-0.562l0.696,0.089c-0.006,0.053-0.008,0.095-0.008,0.127
		c0,0.339,0.088,0.643,0.265,0.914s0.449,0.406,0.816,0.406c0.291,0,0.532-0.098,0.725-0.295c0.19-0.197,0.286-0.453,0.286-0.764
		c0-0.309-0.097-0.566-0.291-0.772c-0.194-0.207-0.485-0.339-0.874-0.398l0.142-0.794c0.532,0.098,0.944,0.318,1.237,0.663
		c0.293,0.344,0.439,0.772,0.439,1.284c0,0.354-0.076,0.679-0.227,0.977c-0.152,0.296-0.359,0.524-0.62,0.682
		c-0.263,0.158-0.541,0.236-0.835,0.236c-0.278,0-0.534-0.075-0.764-0.225c-0.229-0.15-0.412-0.372-0.548-0.667
		c-0.088,0.382-0.271,0.68-0.549,0.891c-0.278,0.212-0.626,0.318-1.045,0.318c-0.565,0-1.044-0.206-1.437-0.618
		c-0.393-0.411-0.589-0.933-0.589-1.562c0-0.568,0.17-1.04,0.508-1.416C155.231,23.813,155.671,23.599,156.209,23.546z"/>
	<path d="M156.195,28.57l0.07,0.833c-0.406,0.062-0.711,0.206-0.916,0.431c-0.204,0.226-0.307,0.497-0.307,0.815
		c0,0.382,0.145,0.707,0.434,0.972c0.288,0.265,0.67,0.396,1.147,0.396c0.452,0,0.811-0.127,1.072-0.382
		c0.262-0.254,0.393-0.588,0.393-1c0-0.256-0.058-0.486-0.175-0.693c-0.116-0.206-0.267-0.369-0.452-0.486l0.098-0.746l3.323,0.626
		v3.219h-0.759v-2.583l-1.738-0.349c0.27,0.39,0.405,0.797,0.405,1.223c0,0.566-0.195,1.042-0.588,1.432
		c-0.392,0.388-0.894,0.582-1.508,0.582c-0.587,0-1.094-0.171-1.52-0.512c-0.524-0.415-0.785-0.981-0.785-1.699
		c0-0.589,0.165-1.069,0.494-1.441C155.215,28.835,155.651,28.623,156.195,28.57z"/>
</g>
<g class="st17">
	<path d="M171.41,4.865l-0.216,0.856c-0.703-0.179-1.239-0.502-1.608-0.969c-0.37-0.467-0.555-1.037-0.555-1.71
		c0-0.698,0.143-1.266,0.427-1.702c0.283-0.437,0.693-0.769,1.233-0.997C171.229,0.115,171.808,0,172.427,0
		c0.674,0,1.261,0.129,1.764,0.387c0.501,0.258,0.881,0.624,1.143,1.1c0.26,0.474,0.391,0.998,0.391,1.569
		c0,0.646-0.165,1.191-0.494,1.632c-0.329,0.442-0.793,0.749-1.391,0.922l-0.199-0.843c0.471-0.149,0.813-0.367,1.028-0.653
		c0.215-0.285,0.322-0.644,0.322-1.077c0-0.497-0.118-0.913-0.357-1.247c-0.238-0.334-0.558-0.568-0.96-0.704
		c-0.401-0.135-0.815-0.203-1.242-0.203c-0.551,0-1.031,0.079-1.441,0.24c-0.41,0.16-0.717,0.41-0.92,0.748
		c-0.204,0.338-0.305,0.706-0.305,1.1c0,0.479,0.137,0.886,0.414,1.218C170.456,4.522,170.865,4.747,171.41,4.865z"/>
	<path d="M169.142,6.794h6.473v4.679h-0.765V7.65h-1.982v3.58h-0.759V7.65h-2.203v3.973h-0.764V6.794z"/>
	<path d="M169.142,12.806h6.473v2.442c0,0.429-0.021,0.758-0.063,0.984c-0.053,0.317-0.152,0.583-0.302,0.798
		c-0.149,0.215-0.356,0.388-0.624,0.52c-0.269,0.13-0.563,0.196-0.883,0.196c-0.551,0-1.017-0.175-1.397-0.525
		c-0.382-0.351-0.572-0.984-0.572-1.899v-1.66h-2.631V12.806z M172.536,13.663v1.673c0,0.554,0.103,0.947,0.309,1.179
		c0.207,0.233,0.496,0.349,0.87,0.349c0.271,0,0.503-0.068,0.696-0.205c0.192-0.136,0.319-0.317,0.381-0.541
		c0.039-0.145,0.058-0.411,0.058-0.799v-1.656H172.536z"/>
	<path d="M169.142,21.507v-0.796h5.063c-0.183-0.19-0.365-0.441-0.548-0.751c-0.183-0.311-0.319-0.589-0.411-0.837h0.77
		c0.208,0.444,0.463,0.833,0.759,1.165c0.297,0.333,0.585,0.569,0.864,0.707v0.513H169.142z"/>
	<path d="M169.905,27.718h-0.764V23.44c0.191-0.006,0.376,0.026,0.552,0.093c0.292,0.109,0.579,0.283,0.861,0.523
		c0.281,0.239,0.609,0.586,0.979,1.04c0.576,0.703,1.033,1.179,1.37,1.425c0.338,0.248,0.655,0.371,0.956,0.371
		c0.315,0,0.581-0.112,0.797-0.338c0.217-0.224,0.324-0.519,0.324-0.879c0-0.383-0.115-0.689-0.345-0.919
		c-0.229-0.229-0.547-0.345-0.952-0.349l0.083-0.816c0.61,0.056,1.074,0.266,1.393,0.631c0.319,0.365,0.479,0.855,0.479,1.47
		c0,0.621-0.171,1.113-0.516,1.474c-0.344,0.362-0.771,0.543-1.28,0.543c-0.259,0-0.513-0.052-0.764-0.159
		c-0.25-0.106-0.514-0.282-0.791-0.527c-0.275-0.247-0.654-0.654-1.138-1.226c-0.4-0.477-0.671-0.783-0.814-0.918
		c-0.143-0.135-0.287-0.247-0.431-0.335V27.718z"/>
	<path d="M172.651,29.793c0.12-0.33,0.292-0.574,0.516-0.733c0.225-0.159,0.491-0.238,0.805-0.238c0.471,0,0.865,0.169,1.187,0.508
		c0.321,0.338,0.48,0.788,0.48,1.351c0,0.565-0.163,1.021-0.49,1.364c-0.329,0.344-0.728,0.516-1.199,0.516
		c-0.3,0-0.561-0.078-0.783-0.236c-0.224-0.157-0.395-0.396-0.515-0.717c-0.13,0.396-0.338,0.699-0.627,0.907
		s-0.633,0.311-1.033,0.311c-0.554,0-1.019-0.195-1.395-0.586c-0.377-0.392-0.565-0.907-0.565-1.545
		c0-0.639,0.188-1.154,0.566-1.544c0.379-0.392,0.852-0.587,1.415-0.587c0.422,0,0.774,0.106,1.058,0.319
		C172.354,29.095,172.549,29.398,172.651,29.793z M171.009,29.377c-0.226,0-0.445,0.054-0.658,0.162
		c-0.211,0.107-0.376,0.267-0.491,0.478c-0.116,0.212-0.175,0.44-0.175,0.685c0,0.38,0.123,0.693,0.366,0.941
		c0.244,0.247,0.555,0.371,0.932,0.371c0.383,0,0.698-0.128,0.949-0.382c0.25-0.255,0.375-0.574,0.375-0.957
		c0-0.374-0.123-0.683-0.37-0.929C171.688,29.5,171.38,29.377,171.009,29.377z M173.996,29.634c-0.304,0-0.555,0.097-0.75,0.295
		c-0.193,0.198-0.29,0.453-0.29,0.768c0,0.306,0.097,0.558,0.289,0.753c0.193,0.196,0.428,0.294,0.707,0.294
		c0.293,0,0.537-0.102,0.736-0.303c0.198-0.201,0.299-0.453,0.299-0.752c0-0.303-0.099-0.554-0.293-0.754
		C174.501,29.734,174.268,29.634,173.996,29.634z"/>
</g>
</svg>
