<?xml version="1.0" encoding="UTF-8" standalone="no"?>
<svg
   xmlns:dc="http://purl.org/dc/elements/1.1/"
   xmlns:cc="http://creativecommons.org/ns#"
   xmlns:rdf="http://www.w3.org/1999/02/22-rdf-syntax-ns#"
   xmlns:svg="http://www.w3.org/2000/svg"
   xmlns="http://www.w3.org/2000/svg"
   viewBox="0 0 166.22267 145.77733"
   height="145.77733"
   width="166.22267"
   xml:space="preserve"
   version="1.1"
   id="svg2"><metadata
     id="metadata8"><rdf:RDF><cc:Work
         rdf:about=""><dc:format>image/svg+xml</dc:format><dc:type
           rdf:resource="http://purl.org/dc/dcmitype/StillImage" /></cc:Work></rdf:RDF></metadata><defs
     id="defs6"><clipPath
       id="clipPath16"
       clipPathUnits="userSpaceOnUse"><path
         id="path18"
         d="m 0,109.333 124.667,0 L 124.667,0 0,0 0,109.333 Z" /></clipPath></defs><g
     transform="matrix(1.3333333,0,0,-1.3333333,0,145.77733)"
     id="g10"><g
       id="g12"><g
         clip-path="url(#clipPath16)"
         id="g14"><g
           transform="translate(15.0744,2.8532)"
           id="g20"><path
             id="path22"
             style="fill:#821529;fill-opacity:1;fill-rule:nonzero;stroke:none"
             d="m 0,0 c -0.091,0.735 -0.153,1.652 -0.153,3.151 -1.193,-2.081 -3.181,-3.304 -5.445,-3.304 -1.958,0 -3.457,0.947 -4.07,2.57 -0.305,0.825 -0.428,2.08 -0.428,4.741 l 0,5.048 c 0,1.592 -0.122,2.234 -0.459,2.51 -0.183,0.182 -0.458,0.244 -1.04,0.274 l -0.551,0 0,0.674 4.742,0.306 c -0.152,-2.845 -0.183,-3.58 -0.183,-5.691 l 0,-2.661 c 0,-3.091 0.061,-3.917 0.428,-4.987 0.368,-1.132 1.224,-1.713 2.478,-1.713 1.683,0 3.182,1.1 3.977,2.967 0.46,1.04 0.551,1.714 0.551,3.61 l 0,4.711 c 0,1.622 -0.091,2.203 -0.458,2.479 -0.185,0.183 -0.49,0.275 -1.04,0.305 l -0.552,0 0,0.674 4.743,0.306 C 2.448,13.674 2.387,11.656 2.387,10.279 l 0,-5.782 c 0,-3.059 0.275,-3.61 1.865,-3.61 l 0.215,0 0,-0.673 L 0,0 Z" /></g><g
           transform="translate(29.453,6.8301)"
           id="g24"><path
             id="path26"
             style="fill:#821529;fill-opacity:1;fill-rule:nonzero;stroke:none"
             d="m 0,0 c 1.224,-2.172 3.151,-3.335 5.599,-3.335 2.447,0 4.375,1.163 5.598,3.335 1.102,1.989 1.653,4.375 1.653,7.343 0,2.967 -0.551,5.353 -1.653,7.343 C 9.974,16.888 8.046,18.02 5.599,18.02 3.151,18.02 1.224,16.857 0,14.686 -1.101,12.666 -1.652,10.248 -1.652,7.343 -1.652,4.437 -1.101,2.049 0,0 m -2.203,15.359 c 1.836,2.294 4.498,3.487 7.802,3.487 3.334,0 5.935,-1.162 7.801,-3.487 1.683,-2.142 2.54,-4.804 2.54,-8.016 0,-3.213 -0.857,-5.905 -2.54,-7.986 -1.897,-2.356 -4.467,-3.518 -7.801,-3.518 -3.304,0 -5.996,1.224 -7.802,3.518 -1.682,2.142 -2.539,4.804 -2.539,7.986 0,3.212 0.827,5.842 2.539,8.016" /></g><g
           transform="translate(52.3369,7.4116)"
           id="g28"><path
             id="path30"
             style="fill:#821529;fill-opacity:1;fill-rule:nonzero;stroke:none"
             d="m 0,0 c 0,-1.805 0.092,-2.601 0.398,-3.028 0.306,-0.429 0.795,-0.643 1.498,-0.643 0.674,0 1.255,0.152 1.928,0.55 L 4.1,-3.916 C 3.09,-4.437 2.111,-4.681 1.009,-4.681 c -1.498,0 -2.631,0.519 -3.151,1.498 -0.336,0.613 -0.428,1.286 -0.428,3.55 l 0,9.912 -1.927,0 0,0.704 c 1.805,0.153 2.722,1.345 3.181,4.222 l 1.408,0.398 C 0.031,14.287 0,13.125 0,11.106 l 3.671,0 0,-0.827 L 0,10.279 0,0 Z" /></g><g
           transform="translate(62.4224,7.4116)"
           id="g32"><path
             id="path34"
             style="fill:#821529;fill-opacity:1;fill-rule:nonzero;stroke:none"
             d="m 0,0 c 0,-1.805 0.092,-2.601 0.398,-3.028 0.307,-0.429 0.796,-0.643 1.499,-0.643 0.674,0 1.255,0.152 1.928,0.55 L 4.102,-3.916 C 3.091,-4.437 2.111,-4.681 1.01,-4.681 c -1.499,0 -2.631,0.519 -3.151,1.498 -0.337,0.613 -0.429,1.286 -0.429,3.55 l 0,9.912 -1.927,0 0,0.704 c 1.806,0.153 2.723,1.345 3.182,4.222 l 1.407,0.398 C 0.031,14.287 0,13.125 0,11.106 l 3.672,0 0,-0.827 L 0,10.279 0,0 Z" /></g><g
           transform="translate(78.4232,11.6029)"
           id="g36"><path
             id="path38"
             style="fill:#821529;fill-opacity:1;fill-rule:nonzero;stroke:none"
             d="m 0,0 c -2.724,-0.245 -3.917,-0.49 -5.139,-1.102 -1.348,-0.642 -2.05,-1.865 -2.05,-3.488 0,-1.927 1.041,-3.242 2.568,-3.242 1.561,0 3.153,0.918 3.918,2.233 C -0.214,-4.743 0,-3.457 0,-1.438 L 0,0 Z m 4.437,-8.475 c -1.194,-0.183 -2.54,-0.306 -3.152,-0.306 -0.918,0 -1.162,0.49 -1.285,2.54 -0.49,-0.551 -0.887,-0.888 -1.498,-1.315 -1.347,-0.979 -2.419,-1.316 -3.978,-1.316 -1.347,0 -2.357,0.306 -3.12,0.948 -0.827,0.735 -1.347,1.958 -1.347,3.243 0,2.417 1.529,3.978 4.498,4.651 C -3.854,0.337 -2.233,0.551 0,0.703 L 0,2.631 C 0,4.038 -0.122,4.772 -0.428,5.415 -0.827,6.21 -1.684,6.608 -2.937,6.608 -4.956,6.608 -5.997,5.691 -6.119,3.793 -6.148,3.151 -6.211,2.937 -6.454,2.754 -6.671,2.601 -7.067,2.508 -7.526,2.508 c -1.041,0 -1.5,0.276 -1.5,0.918 0,1.101 0.797,2.203 2.081,2.937 1.162,0.643 2.661,0.979 4.467,0.979 1.957,0 3.365,-0.459 4.099,-1.346 0.612,-0.764 0.888,-1.774 0.888,-3.457 0,-0.091 0,-0.091 -0.062,-3.089 L 2.418,-3.457 2.386,-4.864 c 0,-1.286 0.153,-2.387 0.338,-2.631 0.182,-0.245 0.548,-0.337 1.713,-0.337 l 0,-0.643 z" /></g><g
           transform="translate(90.5077,2.9452)"
           id="g40"><path
             id="path42"
             style="fill:#821529;fill-opacity:1;fill-rule:nonzero;stroke:none"
             d="m 0,0 -1.591,0 -3.794,12.695 c -0.52,1.745 -0.887,2.111 -2.387,2.203 l 0,0.674 6.793,0 0,-0.674 c -1.467,-0.06 -2.049,-0.367 -2.049,-1.131 0,-0.245 0.091,-0.704 0.274,-1.346 L 0,2.814 l 4.038,12.359 1.254,0 3.885,-12.359 2.663,8.994 c 0.245,0.765 0.367,1.347 0.367,1.774 0,0.522 -0.306,0.919 -0.857,1.103 -0.367,0.121 -0.581,0.153 -1.377,0.213 l 0,0.674 5.996,0 0,-0.674 C 14.288,14.806 13.707,14.225 12.971,11.87 L 9.27,0 7.709,0 3.885,11.747 0,0 Z" /></g><g
           transform="translate(116.6032,11.6029)"
           id="g44"><path
             id="path46"
             style="fill:#821529;fill-opacity:1;fill-rule:nonzero;stroke:none"
             d="m 0,0 c -2.722,-0.245 -3.914,-0.49 -5.138,-1.102 -1.348,-0.642 -2.051,-1.865 -2.051,-3.488 0,-1.927 1.04,-3.242 2.57,-3.242 1.561,0 3.151,0.918 3.916,2.233 C -0.214,-4.743 0,-3.457 0,-1.438 L 0,0 Z m 4.437,-8.475 c -1.192,-0.183 -2.54,-0.306 -3.152,-0.306 -0.918,0 -1.163,0.49 -1.285,2.54 -0.49,-0.551 -0.887,-0.888 -1.498,-1.315 -1.347,-0.979 -2.416,-1.316 -3.978,-1.316 -1.346,0 -2.356,0.306 -3.119,0.948 -0.827,0.735 -1.348,1.958 -1.348,3.243 0,2.417 1.53,3.978 4.497,4.651 C -3.855,0.337 -2.232,0.551 0,0.703 L 0,2.631 C 0,4.038 -0.12,4.772 -0.428,5.415 -0.826,6.21 -1.681,6.608 -2.936,6.608 -4.954,6.608 -5.995,5.691 -6.117,3.793 -6.149,3.151 -6.21,2.937 -6.455,2.754 -6.669,2.601 -7.068,2.508 -7.526,2.508 c -1.039,0 -1.499,0.276 -1.499,0.918 0,1.101 0.795,2.203 2.082,2.937 1.162,0.643 2.66,0.979 4.465,0.979 1.958,0 3.367,-0.459 4.1,-1.346 C 2.234,5.232 2.51,4.222 2.51,2.539 2.51,2.448 2.51,2.448 2.447,-0.55 L 2.418,-3.457 2.387,-4.864 c 0,-1.286 0.153,-2.387 0.336,-2.631 0.184,-0.245 0.551,-0.337 1.714,-0.337 l 0,-0.643 z" /></g><g
           transform="translate(39.1873,80.0715)"
           id="g48"><path
             id="path50"
             style="fill:#821529;fill-opacity:1;fill-rule:nonzero;stroke:none"
             d="m 0,0 1.026,-2.853 c 0,0 20.801,7.479 21.78,7.831 0.979,-0.352 21.779,-7.831 21.779,-7.831 L 45.611,0 22.806,8.2 0,0 Z m -0.793,-33.156 47.203,0 0,1.668 -47.203,0 0,-1.668 z m 1.306,2.918 44.584,0 0,1.668 -44.584,0 0,-1.668 z m 6.954,23.226 c 0.52,0 0.942,0.423 0.942,0.946 0,0.255 -0.102,0.487 -0.267,0.657 l 3.387,0 c -0.165,-0.17 -0.268,-0.402 -0.268,-0.657 0,-0.523 0.424,-0.946 0.945,-0.946 0.155,0 0.299,0.042 0.429,0.108 l -0.41,-16.975 -4.776,0 -0.412,16.975 c 0.13,-0.066 0.275,-0.108 0.43,-0.108 m 8.639,0 c 0.521,0 0.945,0.423 0.945,0.946 0,0.255 -0.103,0.487 -0.268,0.657 l 3.403,0 c -0.165,-0.17 -0.267,-0.402 -0.267,-0.657 0,-0.523 0.422,-0.946 0.942,-0.946 0.153,0 0.296,0.04 0.424,0.105 l -0.412,-16.972 -4.778,0 -0.414,16.973 c 0.128,-0.065 0.271,-0.106 0.425,-0.106 m 8.622,0 c 0.521,0 0.945,0.423 0.945,0.946 0,0.255 -0.102,0.487 -0.268,0.657 l 3.406,0 c -0.165,-0.17 -0.269,-0.402 -0.269,-0.657 0,-0.523 0.423,-0.946 0.944,-0.946 0.157,0 0.301,0.042 0.431,0.109 l -0.412,-16.976 -4.763,0 -0.412,16.959 c 0.122,-0.057 0.255,-0.092 0.398,-0.092 m 8.656,0 c 0.522,0 0.948,0.423 0.948,0.946 0,0.255 -0.103,0.487 -0.27,0.657 l 3.403,0 c -0.165,-0.17 -0.268,-0.402 -0.268,-0.657 0,-0.523 0.423,-0.946 0.943,-0.946 0.15,0 0.29,0.038 0.414,0.1 l -0.413,-16.967 -4.763,0 -0.413,16.971 c 0.127,-0.064 0.268,-0.104 0.419,-0.104 m -31.365,-16.867 0,-2.779 41.568,0 0,2.779 -1.575,0 -0.417,16.983 c 0.132,-0.071 0.281,-0.116 0.442,-0.116 0.522,0 0.947,0.423 0.947,0.946 0,0.255 -0.104,0.487 -0.27,0.657 l 0.761,0 0,1.668 -41.34,0 0,-1.668 0.757,0 c -0.165,-0.17 -0.268,-0.402 -0.268,-0.657 0,-0.523 0.424,-0.946 0.946,-0.946 0.153,0 0.296,0.041 0.424,0.106 l -0.412,-16.973 -1.563,0 z m 46.238,-12.81 -50.903,0 0,48.108 6.902,0 0,3.706 5.75,0 0.43,0.791 c 3.027,5.568 8.397,6.737 12.37,6.737 3.972,0 9.341,-1.169 12.369,-6.737 l 0.43,-0.791 5.751,0 0,-3.706 6.901,0 0,-48.108 z m -3.871,51.14 0,3.705 -7.051,0 c -3.001,4.846 -8.106,7.529 -14.529,7.529 -6.424,0 -11.529,-2.683 -14.53,-7.529 l -7.052,0 0,-3.705 -6.902,0 0,-54.172 56.967,0 0,54.172 -6.903,0 z" /></g></g></g></g></svg>