<?xml version="1.0" encoding="utf-8"?>
<!-- Generator: Adobe Illustrator 16.0.4, SVG Export Plug-In . SVG Version: 6.00 Build 0)  -->
<!DOCTYPE svg PUBLIC "-//W3C//DTD SVG 1.1//EN" "http://www.w3.org/Graphics/SVG/1.1/DTD/svg11.dtd">
<svg version="1.1" id="Layer_1" xmlns="http://www.w3.org/2000/svg" xmlns:xlink="http://www.w3.org/1999/xlink" x="0px" y="0px"
	 width="184.727px" height="185.82px" viewBox="0 0 184.727 185.82" style="enable-background:new 0 0 184.727 185.82;"
	 xml:space="preserve">
<style type="text/css">
<![CDATA[
	.st0{fill:#EB0029;}
	.st1{fill:#A41F35;}
]]>
</style>
<g>
	<path class="st1" d="M45.99,148.58C30.259,139.573,11.632,123.186,0,93.596c0,0,1.917,47.521,34.573,78.037
		c0.046-0.016,0.099-0.037,0.146-0.055c-0.062,0.008-0.103,0.012-0.103,0.012C39.372,164.852,43.099,157.055,45.99,148.58z"/>
	<path class="st0" d="M68.836,77.92C67.671,71.757,46.065,0,46.065,0s19.791,90.35-0.074,148.58
		c-2.893,8.475-6.619,16.271-11.374,23.01c0,0,0.04-0.004,0.103-0.012c2.37-0.287,48.255-7.043,47.697-102.296
		C75.403,73.909,68.836,77.92,68.836,77.92z"/>
</g>
<g>
	<path class="st0" d="M106.737,141.334h-1.344l-4.866-14.738h1.345l3.645,11.523c0.284,0.875,0.529,1.932,0.529,1.932h0.041
		c0,0,0.244-1.057,0.529-1.932l3.644-11.523h1.344L106.737,141.334z"/>
	<path class="st0" d="M116.706,141.537c-2.869,0-4.336-1.281-4.336-3.275c0-3.197,3.502-3.604,6.819-3.789v-0.955
		c0-1.852-1.241-2.403-2.87-2.403c-1.019,0-2.238,0.327-2.933,0.694l-0.366-0.896c0.794-0.388,2.139-0.754,3.38-0.754
		c2.302,0,3.949,0.916,3.949,3.438v7.188C119.597,141.213,118.07,141.537,116.706,141.537z M119.19,135.391
		c-2.626,0.144-5.66,0.285-5.66,2.851c0,1.403,1.02,2.342,3.156,2.342c0.938,0,2.057-0.185,2.504-0.408V135.391z"/>
	<path class="st0" d="M130.222,141.334v-7.49c0-1.629-0.998-2.688-2.993-2.688c-1.099,0-2.056,0.202-2.667,0.446v9.73h-1.201
		v-10.422c0.998-0.449,2.362-0.754,3.868-0.754c2.729,0,4.193,1.362,4.193,3.625v7.551L130.222,141.334L130.222,141.334z"/>
	<path class="st0" d="M135.145,127.918c-0.469,0-0.854-0.365-0.854-0.834s0.386-0.834,0.854-0.834s0.835,0.365,0.835,0.834
		S135.613,127.918,135.145,127.918z M134.534,141.334v-10.972h1.2v10.972H134.534z"/>
	<path class="st0" d="M147.276,135.35l-7.693,1.142c0.162,2.688,1.669,4.051,3.989,4.051c1.1,0,2.279-0.285,2.973-0.691l0.407,0.937
		c-0.732,0.428-2.036,0.752-3.42,0.752c-3.137,0-5.109-1.976-5.109-5.699c0-3.379,1.771-5.68,4.641-5.68
		c2.545,0,4.234,1.649,4.234,4.541C147.297,134.902,147.297,135.105,147.276,135.35z M143.062,131.113
		c-2.158,0-3.479,1.773-3.542,4.462l6.616-0.959C146.117,132.234,144.896,131.113,143.062,131.113z"/>
	<path class="st0" d="M154.338,131.238c-0.244-0.04-0.528-0.061-0.813-0.061c-0.876,0-1.873,0.162-2.442,0.426v9.73h-1.201v-10.422
		c0.917-0.449,2.423-0.754,3.786-0.754c0.448,0,0.835,0.02,0.938,0.041L154.338,131.238z"/>
</g>
<g>
	<g>
		<path class="st1" d="M103.845,156.953c-1.757,0-3.269-1.371-3.269-4.324c0-2.955,1.512-4.328,3.269-4.328
			c0.756,0,1.407,0.174,1.779,0.43l-0.244,0.584c-0.29-0.198-0.849-0.387-1.489-0.387c-1.395,0-2.582,1.141-2.582,3.701
			c0,2.557,1.188,3.686,2.582,3.686c0.641,0,1.199-0.174,1.489-0.371l0.244,0.58C105.252,156.779,104.601,156.953,103.845,156.953z"
			/>
		<path class="st1" d="M109.194,156.953c-1.641,0-2.477-0.73-2.477-1.871c0-1.826,2-2.06,3.896-2.162v-0.549
			c0-1.058-0.71-1.371-1.64-1.371c-0.582,0-1.279,0.186-1.675,0.395l-0.209-0.512c0.454-0.221,1.221-0.43,1.931-0.43
			c1.314,0,2.256,0.522,2.256,1.965v4.104C110.847,156.768,109.974,156.953,109.194,156.953z M110.613,153.441
			c-1.501,0.082-3.232,0.164-3.232,1.629c0,0.804,0.582,1.339,1.803,1.339c0.535,0,1.175-0.105,1.431-0.232L110.613,153.441
			L110.613,153.441z"/>
		<path class="st1" d="M116.917,156.838v-4.279c0-0.93-0.569-1.535-1.709-1.535c-0.629,0-1.176,0.115-1.524,0.256v5.56h-0.686
			v-5.955c0.568-0.254,1.349-0.43,2.21-0.43c1.558,0,2.395,0.778,2.395,2.069v4.314H116.917z"/>
		<path class="st1" d="M121.487,156.953c-1.641,0-2.477-0.73-2.477-1.871c0-1.826,2-2.06,3.896-2.162v-0.549
			c0-1.058-0.712-1.371-1.642-1.371c-0.581,0-1.279,0.186-1.675,0.395l-0.21-0.512c0.453-0.221,1.221-0.43,1.932-0.43
			c1.313,0,2.256,0.522,2.256,1.965v4.104C123.14,156.768,122.267,156.953,121.487,156.953z M122.907,153.441
			c-1.501,0.082-3.233,0.164-3.233,1.629c0,0.804,0.581,1.339,1.802,1.339c0.535,0,1.176-0.105,1.433-0.232L122.907,153.441
			L122.907,153.441z"/>
		<path class="st1" d="M127.953,156.953c-1.85,0-2.907-1.269-2.907-3.15c0-1.906,1.034-3.291,2.884-3.291
			c0.488,0,0.979,0.094,1.222,0.187v-2.988h0.688v8.813C129.501,156.732,128.709,156.953,127.953,156.953z M129.151,151.256
			c-0.209-0.082-0.756-0.176-1.187-0.176c-1.465,0-2.233,1.151-2.233,2.711c0,1.549,0.779,2.594,2.21,2.594
			c0.442,0,1.014-0.129,1.21-0.244V151.256z"/>
		<path class="st1" d="M133.723,156.953c-1.641,0-2.478-0.73-2.478-1.871c0-1.826,2-2.06,3.896-2.162v-0.549
			c0-1.058-0.71-1.371-1.64-1.371c-0.582,0-1.28,0.186-1.676,0.395l-0.209-0.512c0.452-0.221,1.221-0.43,1.931-0.43
			c1.313,0,2.256,0.522,2.256,1.965v4.104C135.374,156.768,134.502,156.953,133.723,156.953z M135.142,153.441
			c-1.5,0.082-3.232,0.164-3.232,1.629c0,0.804,0.581,1.339,1.803,1.339c0.535,0,1.174-0.105,1.431-0.232L135.142,153.441
			L135.142,153.441z"/>
		<path class="st1" d="M144.154,156.953c-2,0-3.663-1.429-3.663-4.324c0-2.896,1.688-4.328,3.698-4.328
			c0.837,0,1.582,0.174,1.988,0.43l-0.256,0.572c-0.338-0.209-0.989-0.385-1.721-0.385c-1.582,0-3.001,1.149-3.001,3.711
			c0,2.567,1.396,3.709,2.931,3.709c0.697,0,1.326-0.115,1.535-0.244v-3.326h-2.023v-0.594h2.71v4.35
			C145.945,156.756,145.166,156.953,144.154,156.953z"/>
		<path class="st1" d="M150.644,151.07c-0.14-0.022-0.303-0.034-0.465-0.034c-0.5,0-1.07,0.092-1.396,0.243v5.56h-0.688v-5.955
			c0.523-0.254,1.384-0.43,2.163-0.43c0.256,0,0.477,0.012,0.535,0.022L150.644,151.07z"/>
		<path class="st1" d="M154.014,156.953c-1.64,0-2.478-0.73-2.478-1.871c0-1.826,2-2.06,3.896-2.162v-0.549
			c0-1.058-0.71-1.371-1.64-1.371c-0.582,0-1.28,0.186-1.676,0.395l-0.209-0.512c0.452-0.221,1.222-0.43,1.931-0.43
			c1.313,0,2.256,0.522,2.256,1.965v4.104C155.665,156.768,154.793,156.953,154.014,156.953z M155.433,153.441
			c-1.5,0.082-3.232,0.164-3.232,1.629c0,0.804,0.58,1.339,1.803,1.339c0.535,0,1.174-0.105,1.431-0.232L155.433,153.441
			L155.433,153.441z"/>
		<path class="st1" d="M160.479,156.953c-1.85,0-2.907-1.269-2.907-3.15c0-1.906,1.035-3.291,2.885-3.291
			c0.488,0,0.977,0.094,1.222,0.187v-2.988h0.688v8.813C162.027,156.732,161.235,156.953,160.479,156.953z M161.678,151.256
			c-0.209-0.082-0.756-0.176-1.187-0.176c-1.466,0-2.232,1.151-2.232,2.711c0,1.549,0.779,2.594,2.209,2.594
			c0.442,0,1.013-0.129,1.21-0.244V151.256L161.678,151.256z"/>
		<path class="st1" d="M166.399,156.953c-1.477,0-2.312-0.687-2.312-2.14v-4.244h0.686v4.257c0,1.047,0.548,1.547,1.628,1.547
			c0.652,0,1.222-0.129,1.501-0.256v-5.548h0.686v5.953C168.133,156.756,167.296,156.953,166.399,156.953z"/>
		<path class="st1" d="M172.471,156.953c-1.642,0-2.478-0.73-2.478-1.871c0-1.826,2.002-2.06,3.896-2.162v-0.549
			c0-1.058-0.711-1.371-1.642-1.371c-0.58,0-1.277,0.186-1.676,0.395l-0.209-0.512c0.455-0.221,1.224-0.43,1.933-0.43
			c1.313,0,2.258,0.522,2.258,1.965v4.104C174.122,156.768,173.249,156.953,172.471,156.953z M173.89,153.441
			c-1.5,0.082-3.231,0.164-3.231,1.629c0,0.804,0.579,1.339,1.801,1.339c0.535,0,1.176-0.105,1.432-0.232L173.89,153.441
			L173.89,153.441z"/>
		<path class="st1" d="M178.251,156.898c-0.932,0-1.594-0.514-1.594-1.571v-4.232h-0.979v-0.523h0.979v-1.559l0.662-0.258v1.815
			h1.417v0.523h-1.417v4.209c0,0.699,0.478,0.988,1.035,0.988c0.14,0,0.29-0.023,0.382-0.058v0.593
			C178.633,156.875,178.471,156.898,178.251,156.898z"/>
		<path class="st1" d="M184.716,153.418l-4.396,0.651c0.093,1.535,0.954,2.314,2.279,2.314c0.627,0,1.302-0.162,1.698-0.396
			l0.231,0.533c-0.418,0.244-1.161,0.431-1.953,0.431c-1.79,0-2.919-1.127-2.919-3.257c0-1.93,1.011-3.243,2.651-3.243
			c1.453,0,2.417,0.94,2.417,2.594C184.727,153.164,184.727,153.279,184.716,153.418z M182.31,151c-1.232,0-1.989,1.012-2.024,2.547
			l3.78-0.547C184.053,151.639,183.354,151,182.31,151z"/>
		<path class="st1" d="M102.438,170.256c-0.756,0-1.487-0.174-1.965-0.43l0.269-0.617c0.383,0.211,1.034,0.408,1.686,0.408
			c1.199,0,2.071-0.605,2.071-1.677c0-0.965-0.85-1.385-1.723-1.768c-1.104-0.478-2.221-1.045-2.221-2.383
			c0-1.373,1.071-2.188,2.524-2.188c0.744,0,1.419,0.187,1.792,0.431l-0.269,0.594c-0.326-0.199-0.919-0.396-1.512-0.396
			c-1.059,0-1.826,0.56-1.826,1.535c0,0.967,0.954,1.408,1.837,1.793c1.023,0.453,2.117,0.998,2.117,2.373
			C105.217,169.383,104.054,170.256,102.438,170.256z"/>
		<path class="st1" d="M109.124,170.256c-1.268,0-2.64-0.92-2.64-3.256c0-2.338,1.372-3.246,2.64-3.246
			c0.582,0,1.129,0.186,1.488,0.432l-0.243,0.513c-0.303-0.21-0.757-0.361-1.197-0.361c-0.953,0-1.989,0.697-1.989,2.664
			c0,1.965,1.046,2.664,1.989,2.664c0.44,0,0.896-0.152,1.197-0.361l0.243,0.523C110.229,170.082,109.706,170.256,109.124,170.256z"
			/>
		<path class="st1" d="M115.894,170.139v-4.279c0-1.022-0.686-1.512-1.745-1.512c-0.511,0-1.093,0.162-1.487,0.406v5.385h-0.687
			v-9.129h0.687v3.164c0.431-0.234,1.022-0.408,1.581-0.408c1.432,0,2.338,0.724,2.338,2.062v4.312H115.894z"/>
		<path class="st1" d="M120.639,170.256c-1.698,0-2.582-1.408-2.582-3.256c0-1.849,0.884-3.246,2.582-3.246s2.581,1.397,2.581,3.246
			C123.22,168.848,122.337,170.256,120.639,170.256z M120.639,164.324c-1.291,0-1.896,1.141-1.896,2.676s0.604,2.674,1.896,2.674
			s1.896-1.139,1.896-2.674S121.93,164.324,120.639,164.324z"/>
		<path class="st1" d="M124.755,170.139v-9.129h0.687v9.129H124.755z"/>
		<path class="st1" d="M129.385,170.256c-1.641,0-2.478-0.732-2.478-1.873c0-1.826,2-2.059,3.896-2.16v-0.549
			c0-1.059-0.711-1.373-1.641-1.373c-0.581,0-1.279,0.188-1.676,0.396l-0.209-0.512c0.453-0.221,1.222-0.432,1.932-0.432
			c1.313,0,2.256,0.522,2.256,1.967v4.105C131.036,170.07,130.164,170.256,129.385,170.256z M130.804,166.742
			c-1.501,0.084-3.233,0.166-3.233,1.631c0,0.803,0.581,1.336,1.804,1.336c0.534,0,1.174-0.104,1.431-0.232L130.804,166.742
			L130.804,166.742z"/>
		<path class="st1" d="M135.734,164.371c-0.14-0.023-0.303-0.035-0.465-0.035c-0.501,0-1.069,0.094-1.396,0.244v5.559h-0.687v-5.953
			c0.523-0.256,1.384-0.432,2.163-0.432c0.256,0,0.478,0.012,0.535,0.024L135.734,164.371z"/>
		<path class="st1" d="M138.476,170.256c-0.628,0-1.349-0.174-1.79-0.43l0.268-0.535c0.35,0.209,1,0.396,1.512,0.396
			c0.919,0,1.536-0.455,1.536-1.164c0-0.756-0.605-1.035-1.42-1.338c-0.931-0.348-1.732-0.731-1.732-1.812
			c0-0.908,0.721-1.619,1.988-1.619c0.664,0,1.257,0.186,1.651,0.432l-0.268,0.513c-0.291-0.199-0.826-0.386-1.337-0.386
			c-0.85,0-1.338,0.478-1.338,1.062c0,0.754,0.569,0.998,1.338,1.291c0.977,0.371,1.825,0.729,1.825,1.871
			C140.709,169.57,139.86,170.256,138.476,170.256z"/>
		<path class="st1" d="M146.07,170.139v-4.279c0-1.022-0.686-1.512-1.743-1.512c-0.513,0-1.094,0.162-1.489,0.406v5.385h-0.687
			v-9.129h0.687v3.164c0.431-0.234,1.023-0.408,1.582-0.408c1.431,0,2.338,0.724,2.338,2.062v4.312H146.07z"/>
		<path class="st1" d="M148.885,162.477c-0.268,0-0.488-0.211-0.488-0.477c0-0.269,0.222-0.479,0.488-0.479s0.477,0.211,0.477,0.479
			C149.361,162.266,149.152,162.477,148.885,162.477z M148.536,170.139v-6.268h0.687v6.268H148.536z"/>
		<path class="st1" d="M152.908,170.221c-0.488,0-0.978-0.092-1.222-0.186v2.604h-0.686v-8.455c0.383-0.221,1.162-0.432,1.883-0.432
			c1.85,0,2.92,1.279,2.92,3.164C155.805,168.826,154.758,170.221,152.908,170.221z M152.896,164.324
			c-0.477,0-0.987,0.116-1.209,0.231v4.908c0.209,0.082,0.756,0.186,1.188,0.186c1.466,0,2.244-1.174,2.244-2.731
			C155.118,165.373,154.328,164.324,152.896,164.324z"/>
		<path class="st1" d="M158.689,170.256c-0.628,0-1.35-0.174-1.791-0.43l0.269-0.535c0.349,0.209,1,0.396,1.512,0.396
			c0.919,0,1.535-0.455,1.535-1.164c0-0.756-0.604-1.035-1.419-1.338c-0.932-0.348-1.732-0.731-1.732-1.812
			c0-0.908,0.721-1.619,1.988-1.619c0.663,0,1.256,0.186,1.651,0.432l-0.269,0.513c-0.291-0.199-0.825-0.386-1.338-0.386
			c-0.849,0-1.337,0.478-1.337,1.062c0,0.754,0.569,0.998,1.337,1.291c0.979,0.371,1.826,0.729,1.826,1.871
			C160.922,169.57,160.073,170.256,158.689,170.256z"/>
	</g>
</g>
</svg>
