<?xml version="1.0" encoding="utf-8"?>
<!-- Generator: Adobe Illustrator 16.0.4, SVG Export Plug-In . SVG Version: 6.00 Build 0)  -->
<!DOCTYPE svg PUBLIC "-//W3C//DTD SVG 1.1//EN" "http://www.w3.org/Graphics/SVG/1.1/DTD/svg11.dtd">
<svg version="1.1" id="WhatsApp_logo" xmlns="http://www.w3.org/2000/svg" xmlns:xlink="http://www.w3.org/1999/xlink" x="0px"
	 y="0px" width="19.893px" height="25.812px" viewBox="0 0 19.893 25.812" style="enable-background:new 0 0 19.893 25.812;"
	 xml:space="preserve">
<style type="text/css">
<![CDATA[
	.st0{fill:#006B77;}
]]>
</style>
<path class="st0" d="M11.2,20.173l0.021,0.021h-0.043c-0.065,0.021-0.108,0.108-0.151,0.217c-0.043,0.152-0.108,0.303-0.281,0.238
	c-0.064-0.021-0.15-0.086-0.15-0.107c0,0-0.087-0.131-0.13-0.174c0.086-0.086,0.13-0.151,0.174-0.26v-0.043
	c0-0.021,0-0.021-0.021-0.043c-0.021-0.043-0.086-0.064-0.108-0.064c0,0-0.15-0.043-0.28-0.087V19.85
	c0.129,0.043,0.28,0.086,0.28,0.086c0.022,0,0.087,0.021,0.131,0c0.021-0.021,0.043-0.021,0.043-0.064
	c0.021-0.087,0.043-0.173,0.021-0.281l0.194-0.064c0,0,0.107-0.021,0.173,0c0.173,0.064,0.108,0.217,0.065,0.367
	C11.178,20,11.157,20.107,11.2,20.173 M10.4,20.193c-0.043,0.045-0.086,0.065-0.108,0.108c-0.043,0-0.086,0.021-0.15,0.064
	c-0.086,0.043-0.129,0.087-0.174,0.021c-0.021-0.021-0.021-0.063-0.021-0.086v-0.15c0.13-0.022,0.238-0.108,0.303-0.217
	c0.065,0.021,0.151,0.043,0.151,0.043s0.043,0.021,0.064,0.043c0,0.021,0.021,0.021,0.021,0.043
	C10.486,20.129,10.443,20.15,10.4,20.193 M10.4,20.713c0,0,0.043,0.107,0.043,0.174c0,0.174-0.173,0.174-0.324,0.174
	c-0.108,0-0.216,0-0.259,0.063l-0.022,0.022l-0.021-0.022c-0.044-0.063-0.152-0.063-0.26-0.063c-0.151,0-0.324,0-0.324-0.174
	c0-0.064,0.043-0.174,0.043-0.174s0.086-0.129,0.13-0.172c0.086,0.043,0.173,0.064,0.281,0.064c0.043,0,0.064,0,0.087-0.021
	c0.021-0.021,0.043-0.107,0.043-0.107v-0.281H9.86v0.281c0,0.021,0.021,0.086,0.043,0.107c0.021,0.021,0.043,0.021,0.086,0.021
	c0.087,0,0.195-0.021,0.281-0.064C10.335,20.605,10.4,20.713,10.4,20.713 M9.34,20.193c-0.064-0.043-0.086-0.064-0.086-0.107
	c0-0.021,0-0.021,0.021-0.043S9.34,20,9.34,20s0.086-0.021,0.151-0.043c0.065,0.107,0.173,0.193,0.303,0.216v0.151
	c0,0-0.021,0.064-0.021,0.086C9.73,20.454,9.686,20.432,9.6,20.389c-0.043-0.043-0.108-0.063-0.151-0.063
	C9.427,20.26,9.384,20.238,9.34,20.193 M9.103,20.562c0,0-0.086,0.086-0.151,0.106c-0.173,0.043-0.216-0.106-0.281-0.237
	c-0.043-0.107-0.064-0.217-0.15-0.217H8.476l0.021-0.021c0.043-0.043,0.021-0.15,0-0.258c-0.043-0.152-0.086-0.304,0.065-0.369
	c0.064-0.021,0.173,0,0.173,0l0.195,0.065c-0.022,0.086,0,0.193,0.021,0.281c0.021,0.043,0.021,0.063,0.043,0.063
	c0.043,0.021,0.108,0,0.129,0c0,0,0.151-0.043,0.281-0.086v0.021C9.275,19.957,9.124,20,9.124,20c-0.021,0-0.086,0.043-0.107,0.064
	c-0.022,0.021-0.021,0.043,0,0.086c0.021,0.088,0.086,0.174,0.173,0.26C9.189,20.432,9.103,20.562,9.103,20.562 M9.427,19.783
	c-0.064,0.021-0.15,0.043-0.15,0.043H9.189c-0.043-0.021-0.043-0.021-0.043-0.064c0-0.021,0-0.063,0.021-0.107
	c0.021-0.043,0.021-0.086,0.021-0.107v-0.044c0.043-0.021,0.064-0.086,0.086-0.129c0.021-0.087,0.064-0.151,0.107-0.13
	c0.021,0,0.064,0.043,0.064,0.043s0.064,0.087,0.108,0.15c-0.065,0.064-0.087,0.131-0.108,0.217v0.087
	C9.427,19.762,9.427,19.762,9.427,19.783 M8.843,19.266c0,0-0.107-0.065-0.15-0.108c-0.108-0.15,0.043-0.237,0.15-0.347
	c0.087-0.063,0.174-0.129,0.174-0.217v-0.043l0.021,0.021c0.065,0.044,0.151-0.021,0.259-0.086c0.13-0.086,0.261-0.174,0.368-0.043
	c0.043,0.043,0.065,0.149,0.065,0.173v0.216c-0.108,0.021-0.194,0.043-0.259,0.107c-0.044,0.021-0.044,0.043-0.044,0.065
	c0,0.043,0.021,0.086,0.044,0.106c0,0,0.107,0.131,0.173,0.261l-0.021,0.021c-0.086-0.107-0.173-0.26-0.173-0.26
	c0-0.021-0.064-0.064-0.108-0.064c-0.021,0-0.043,0-0.086,0.021c-0.086,0.064-0.15,0.131-0.194,0.238
	C8.995,19.309,8.843,19.266,8.843,19.266 M10.01,19.049c0.087,0,0.151,0,0.151,0.064c0,0.021-0.021,0.063-0.021,0.086
	c0,0-0.064,0.087-0.108,0.152c-0.043-0.021-0.108-0.043-0.173-0.043c-0.065,0-0.13,0.021-0.173,0.043
	c-0.043-0.065-0.108-0.152-0.108-0.152s-0.021-0.043-0.021-0.086c0-0.064,0.064-0.064,0.15-0.064c0.065,0,0.108,0,0.151-0.043
	C9.902,19.049,9.967,19.049,10.01,19.049 M10.292,19.697c0-0.108-0.043-0.195-0.107-0.26c0.043-0.064,0.107-0.151,0.107-0.151
	s0.043-0.043,0.065-0.043c0.064-0.021,0.086,0.021,0.107,0.13c0.021,0.064,0.043,0.107,0.086,0.129v0.044
	c0,0.043,0.021,0.065,0.021,0.108c0.021,0.043,0.021,0.086,0.021,0.106c0,0.021-0.021,0.044-0.043,0.064h-0.086
	c0,0-0.086-0.021-0.15-0.043V19.74C10.313,19.719,10.313,19.719,10.292,19.697 M10.01,18.639c0-0.021,0.021-0.109,0.065-0.174
	c0.108-0.15,0.238-0.043,0.367,0.043c0.087,0.064,0.173,0.131,0.26,0.086l0.021-0.021v0.065c0,0.064,0.086,0.129,0.173,0.193
	s0.194,0.15,0.194,0.238c0,0.021-0.021,0.063-0.043,0.106c-0.043,0.044-0.129,0.108-0.15,0.108c0,0-0.151,0.044-0.194,0.064
	c-0.043-0.107-0.107-0.174-0.195-0.238c-0.021-0.021-0.043-0.021-0.086-0.021s-0.086,0.063-0.107,0.063l-0.173,0.261l-0.021-0.021
	c0.086-0.108,0.173-0.261,0.173-0.261s0.043-0.063,0.043-0.106c0-0.021-0.021-0.045-0.043-0.065
	c-0.063-0.043-0.15-0.087-0.259-0.108C10.01,18.768,10.01,18.639,10.01,18.639 M11.438,19.523c-0.021-0.064-0.043-0.107-0.108-0.129
	c-0.064-0.043-0.216,0-0.216,0s-0.281,0.086-0.368,0.106c0-0.021,0-0.043-0.021-0.063v-0.021c0.086-0.021,0.367-0.13,0.367-0.13
	c0.021,0,0.151-0.063,0.174-0.13c0.021-0.021,0.021-0.043,0.021-0.086c0-0.021,0-0.043-0.021-0.088
	c-0.065-0.215-0.217-0.41-0.454-0.582c-0.216-0.174-0.454-0.238-0.692-0.26c-0.064,0-0.107,0.021-0.151,0.043
	c-0.064,0.063-0.064,0.194-0.064,0.217v0.389H9.816V18.4c0-0.021-0.021-0.152-0.065-0.217c-0.043-0.043-0.086-0.043-0.15-0.043
	c-0.238,0-0.454,0.086-0.692,0.26c-0.216,0.172-0.367,0.367-0.454,0.582c0,0.022-0.021,0.065-0.021,0.088
	c0,0.021,0,0.043,0.021,0.086c0.043,0.064,0.173,0.13,0.173,0.13s0.304,0.108,0.368,0.13c0,0,0,0.021-0.021,0.021
	c0,0.021-0.021,0.043-0.021,0.063c-0.108-0.021-0.368-0.106-0.368-0.106c-0.021,0-0.15-0.021-0.216,0
	c-0.043,0.021-0.063,0.063-0.086,0.129C8.216,19.74,8.216,20,8.303,20.26c0.086,0.26,0.216,0.475,0.41,0.605
	c0.065,0.043,0.086,0.043,0.151,0.043c0.086-0.021,0.173-0.108,0.173-0.131c0,0,0.195-0.26,0.238-0.323l0.021,0.021
	c0.021,0,0.021,0.021,0.043,0.021c-0.064,0.087-0.237,0.324-0.237,0.324s-0.065,0.107-0.065,0.193v0.021
	c0,0.064,0.021,0.087,0.086,0.131c0.195,0.129,0.434,0.193,0.713,0.193c0.281,0,0.52-0.064,0.714-0.193
	c0.065-0.044,0.087-0.064,0.087-0.131v-0.021c0-0.086-0.065-0.172-0.065-0.193c0,0-0.173-0.237-0.238-0.324
	c0.021,0,0.021-0.021,0.043-0.021l0.021-0.021c0.064,0.087,0.238,0.323,0.238,0.323s0.107,0.108,0.173,0.131
	c0.064,0,0.086,0,0.15-0.043c0.195-0.131,0.324-0.348,0.411-0.605C11.502,19.979,11.502,19.74,11.438,19.523"/>
<path class="st0" d="M19.286,7.611c-0.194,0.086-0.346,0.173-0.583,0.173c-0.324,0-0.8-0.151-0.8-0.151
	c-0.043-0.021-0.086,0-0.086,0.043c-0.021,0.043-0.021,0.086,0.021,0.108c0.261,0.238,0.434,0.497,0.498,0.778h-0.043
	c-0.647-0.086-1.059-0.086-1.21-0.108c-0.043-0.108-0.107-0.195-0.173-0.281C16.951,8.086,16.951,8,16.951,7.957
	c0-0.086,0.065-0.238,0.216-0.303c0.021-0.021,0.043-0.043,0.043-0.065c0-0.021,0-0.043-0.021-0.064
	c-0.021-0.022-0.043-0.043-0.605-0.043c-0.13,0-0.237,0.043-0.346,0.108c-0.173-0.129-0.368-0.259-0.605-0.411
	c0.086-0.086,0.174-0.151,0.26-0.238c0.107-0.108,0.216-0.216,0.26-0.238c0.043-0.021,0.063-0.043,0.043-0.086
	c0-0.043-0.043-0.065-0.086-0.065c-0.13,0-0.281-0.086-0.434-0.195c-0.237-0.151-0.496-0.303-0.8-0.303
	c-0.303,0-0.497,0.043-0.647,0.087c-0.13,0.021-0.261,0.064-0.391,0.064c-0.193,0-0.389-0.108-0.497-0.238
	c-0.043-0.108-0.064-0.151-0.064-0.151c0.086,0.022,0.26,0.065,0.648,0.065c0.887,0,1.535-0.778,1.535-1.47
	c0-0.433-0.325-0.886-0.584-1.211c-0.043-0.086-0.107-0.194-0.107-0.281c0-0.173,0.043-0.389,0.063-0.584
	c0.022-0.086,0.022-0.151,0.043-0.216c0.086,0.043,0.216,0.086,0.347,0.151c0.26,0.086,0.541,0.195,0.691,0.346
	c0.238,0.216,0.346,0.497,0.281,0.778v0.021c0,0.043,0.021,0.086,0.064,0.108c0.043,0,0.087-0.022,0.108-0.065v-0.02
	c0.108-0.454,0.433-0.605,0.67-0.713c0.043-0.021,0.086-0.043,0.108-0.065c0.021,0.043,0.021,0.108,0.043,0.195
	c0.043,0.216,0.13,0.497,0.086,0.605c-0.065,0.216-0.238,0.519-0.411,0.67c-0.108,0.086-0.13,0.216-0.151,0.346
	c-0.021,0.151-0.064,0.281-0.216,0.433l-0.691,0.648c-0.021,0.021-0.043,0.065-0.021,0.108s0.065,0.043,0.108,0.022
	c0.173-0.087,0.367-0.173,0.562-0.238c0.714-0.302,1.449-0.627,1.946-1.254c0.281-0.346,0.432-0.821,0.432-1.232
	c0.541,0.26,0.843,0.714,0.865,1.06v0.021c0,0.973-0.498,1.751-2.919,2.422c-0.022,0-0.043,0.043-0.043,0.065
	c0,0.043,0.043,0.064,0.086,0.064c0.627,0,0.648,0.065,0.648,0.108c0.021,0.065,0.044,0.129,0.174,0.151
	c0.064,0.021,0.107,0.021,0.193,0.021h0.304c0.107,0,0.194,0.021,0.28,0.043c0.13,0.043,0.304,0.194,0.454,0.346
	C19.005,7.395,19.157,7.524,19.286,7.611z M16.583,8.411c0.086-0.043,0.151-0.108,0.195-0.151c0.043,0.043,0.064,0.108,0.108,0.151
	H16.583 M16.627,11.654c0.108,0.108,0.194,0.216,0.281,0.303c0.281,0.324,0.454,0.497,0.433,0.734c-0.021,0-0.021,0.021-0.043,0.021
	c-0.41,0.087-0.583,0.108-0.713,0.108c-0.107,0-0.173,0.021-0.303,0.044c-0.131,0.044-0.282,0.13-0.412,0.196
	c-0.107,0.063-0.238,0.129-0.281,0.129s-0.064,0.021-0.086,0.064c0,0.043,0.021,0.086,0.043,0.086
	c0.129,0.064,0.26,0.217,0.347,0.324c0.043,0.044,0.064,0.087,0.107,0.109c0.043,0.043,0.129,0.086,0.259,0.106
	c-0.389,0.218-0.777,0.562-0.95,1.017c0.063-0.648,0.063-1.232,0.063-1.772c0.281-0.237,0.477-0.562,0.477-1.06
	c0-0.454-0.217-0.93-0.411-1.319c-0.021-0.043-0.043-0.108-0.065-0.151V10.4c0.238,0.259,0.411,0.411,0.584,0.583
	C16.194,11.2,16.367,11.351,16.627,11.654 M17.362,12.844c0.389-0.195,0.627-0.434,0.735-0.671
	c-0.043,0.411-0.217,0.888-0.498,1.405c0,0.021-0.021,0.021-0.021,0.021c-0.064,0.129-0.151,0.303-0.216,0.453
	c-0.108,0.238-0.216,0.477-0.281,0.54c-0.043,0.044-0.194,0.132-0.346,0.218h-0.108c0,0-0.021,0-0.021,0.021h-0.043
	c0,0-0.021,0-0.021,0.021c-0.087,0.043-0.194,0.088-0.303,0.088c-0.043,0-0.086,0-0.108-0.021c-0.043,0-0.064,0-0.086,0.043
	c-0.021,0.044,0,0.064,0.021,0.087l0.021,0.021c0,0,0,0.021,0.021,0.021c0,0,0,0.021,0.021,0.021c0,0,0,0.021,0.022,0.021
	c-0.087,0.063-0.173,0.13-0.216,0.195c-0.086-0.175-0.13-0.368-0.13-0.455c0-0.129,0-0.39,0.864-1.08
	c0.022-0.021,0.043-0.065,0.022-0.108c-0.022-0.021-0.043-0.043-0.065-0.043h-0.021c-0.064,0.021-0.129,0.021-0.173,0.021
	c-0.151,0-0.238-0.063-0.281-0.086c-0.022-0.021-0.043-0.064-0.087-0.107c-0.064-0.087-0.151-0.194-0.259-0.26
	c0.043-0.021,0.107-0.063,0.173-0.108c0.107-0.064,0.26-0.15,0.368-0.173c0.107-0.043,0.173-0.043,0.259-0.043
	C16.735,12.973,16.93,12.951,17.362,12.844C17.34,12.844,17.362,12.844,17.362,12.844 M17.038,15.266
	c0,0.28-0.043,0.389-0.281,0.453c-0.216,0-0.303-0.193-0.41-0.453c0-0.021-0.021-0.043-0.021-0.065c0-0.021-0.021-0.043-0.021-0.064
	c0.129,0,0.237-0.043,0.346-0.086c0.043-0.021,0.064-0.021,0.086-0.043c0.021,0,0.043-0.022,0.064-0.022
	c0.043-0.021,0.087-0.021,0.131-0.021C16.995,14.982,17.038,15.178,17.038,15.266 M16.346,15.805c-0.174,0-0.304-0.106-0.39-0.216
	c0.043-0.063,0.13-0.13,0.238-0.216c0.064,0.15,0.13,0.324,0.281,0.432H16.346 M13.859,7.265c0.129,0,0.216,0.043,0.324,0.086
	c0.15,0.065,0.323,0.13,0.627,0.13c0.194,0,0.411-0.086,0.67-0.303c0.237,0.151,0.454,0.303,0.647,0.454
	c-0.021,0.021-0.043,0.021-0.064,0.043c-0.216,0.129-0.433,0.259-0.692,0.259C14.53,7.935,13.989,7.502,13.859,7.265 M13.016,10.659
	c-0.151,0.151-0.324,0.216-0.411,0.216c-0.086,0-0.194-0.043-0.259-0.108c0-0.022-0.021-0.022-0.021-0.043
	c-0.043-0.108,0.043-0.238,0.216-0.389c0.086,0.108,0.194,0.173,0.303,0.216C12.908,10.573,12.951,10.616,13.016,10.659
	 M14.789,15.979l-4.908-5.361l-4.886,5.361c-0.195-1.039-0.217-2.012-0.217-2.832v-3.049h2.616
	c-0.086,0.108-0.195,0.238-0.347,0.454l-0.043,0.043l1.622,0.843l0.021-0.021c0,0,0.67-0.778,1.275-1.319h3.396
	c-0.043,0.195-0.108,0.346-0.216,0.454l-0.195-0.13c-0.108-0.065-0.238-0.129-0.303-0.238c-0.021-0.021-0.021-0.043-0.043-0.043
	c-0.022,0-0.043,0-0.065,0.021c-0.13,0.108-0.216,0.194-0.281,0.281c-0.043,0.065-0.063,0.108-0.063,0.173
	c-0.022,0.043-0.022,0.108,0,0.151v0.021c0,0,0,0.021,0.021,0.021c0.043,0.086,0.151,0.173,0.304,0.281
	c0.15,0.108,0.411,0.173,0.627,0.173c0.389,0,0.691-0.173,0.843-0.476c0.064,0.584,0.238,2.313,0.886,2.746h0.043
	c0.043-0.021,0.065-0.043,0.108-0.064C15.005,14.205,14.962,15.049,14.789,15.979 M14.032,17.189l-0.238,0.236h-0.389v-0.021
	c0-0.043-0.021-0.086-0.065-0.129c-0.043-0.064-0.086-0.129-0.086-0.194s0-0.237,0.043-0.281c0,0,0.022-0.021,0.043-0.021
	c0.021,0,0.043,0,0.065,0.021c0.021,0.021,0,0.065,0,0.065v0.021h0.021c0.043,0,0.087-0.065,0.087-0.108s-0.021-0.15-0.217-0.172
	c0-0.131-0.043-0.238-0.107-0.26h-0.043c-0.065,0.043-0.108,0.15-0.108,0.26c-0.194,0.021-0.216,0.129-0.216,0.172
	c0,0.065,0.043,0.108,0.086,0.108h0.022V16.8c0-0.021,0.021-0.021,0.064-0.021c0.021,0,0.021,0,0.043,0.021
	c0.043,0.065,0.043,0.237,0.043,0.304c0,0.065-0.043,0.129-0.086,0.193c-0.021,0.043-0.064,0.087-0.064,0.13v0.021h-0.52v-0.021
	c0-0.043-0.021-0.087-0.064-0.13c-0.044-0.064-0.087-0.129-0.087-0.193c0-0.065,0-0.237,0.043-0.281c0,0,0.021-0.021,0.044-0.021
	c0.021,0,0.043,0,0.064,0.021s0,0.064,0,0.064v0.021h0.021c0.043,0,0.086-0.064,0.086-0.108c0-0.043-0.021-0.151-0.217-0.173
	c0-0.13-0.043-0.238-0.107-0.26H12.15c-0.065,0.043-0.108,0.15-0.108,0.26c-0.193,0.021-0.216,0.13-0.216,0.173
	c0,0.065,0.043,0.108,0.087,0.108h0.064V16.82c0-0.021,0.021-0.021,0.064-0.021c0.021,0,0.021,0,0.043,0.021
	c0.043,0.065,0.043,0.238,0.043,0.304s-0.043,0.13-0.086,0.194c-0.021,0.043-0.064,0.086-0.064,0.13v0.022h-0.411v-1.429
	c0-0.063,0.043-0.173,0.13-0.237l0.043-0.021c0.043-0.021,0.086-0.021,0.108,0h2.075c0.021-0.021,0.043-0.021,0.064-0.021
	s0.043,0.021,0.043,0.064v1.363H14.032z M10.486,14.616c-0.043-0.065-0.086-0.13-0.086-0.194s0-0.238,0.043-0.281
	c0,0,0.021-0.021,0.043-0.021c0.021,0,0.043,0,0.064,0.021c0.022,0.021,0,0.064,0,0.064v0.021h0.021
	c0.043,0,0.086-0.064,0.086-0.107s-0.021-0.152-0.216-0.174c0-0.129-0.043-0.217-0.108-0.26h-0.043
	c-0.063,0.043-0.107,0.151-0.107,0.26c-0.195,0.021-0.217,0.131-0.217,0.174c0,0.064,0.043,0.107,0.087,0.107h0.021v-0.086
	c0-0.021,0.021-0.021,0.064-0.021c0.021,0,0.021,0,0.043,0.021c0.043,0.063,0.043,0.237,0.043,0.303
	c0,0.064-0.043,0.129-0.087,0.193c-0.021,0.045-0.064,0.088-0.064,0.131v0.021H9.535v-0.021c0-0.043-0.021-0.086-0.064-0.131
	c-0.044-0.064-0.087-0.13-0.087-0.193c0-0.064,0-0.238,0.043-0.281c0,0,0.021-0.021,0.044-0.021c0.021,0,0.043,0,0.064,0.021
	s0,0.064,0,0.064v0.021h0.021c0.043,0,0.086-0.063,0.086-0.106s-0.021-0.151-0.217-0.175c0-0.129-0.043-0.216-0.107-0.259H9.275
	c-0.065,0.043-0.108,0.15-0.108,0.259c-0.194,0.022-0.216,0.132-0.216,0.175c0,0.063,0.043,0.106,0.086,0.106h0.021v-0.086
	c0-0.021,0.021-0.021,0.064-0.021c0.022,0,0.022,0,0.043,0.021C9.21,14.227,9.21,14.4,9.21,14.465s-0.043,0.129-0.086,0.194
	c-0.021,0.044-0.064,0.087-0.064,0.13v0.021H8.648v-1.428c0-0.064,0.043-0.173,0.13-0.236l0.043-0.022
	c0.043-0.021,0.086-0.021,0.108,0h2.075c0.021-0.021,0.043-0.021,0.064-0.021s0.043,0.021,0.043,0.064v1.404l-0.238,0.238h-0.389
	v-0.021C10.53,14.703,10.508,14.659,10.486,14.616 M9.881,22.529c-1.318-0.778-2.378-1.709-3.178-2.746l3.178-3.48l3.179,3.48
	C12.281,20.82,11.2,21.751,9.881,22.529 M6.638,17.297c-0.043-0.064-0.087-0.129-0.087-0.193c0-0.065,0-0.237,0.044-0.281
	c0,0,0.021-0.021,0.043-0.021c0.021,0,0.043,0,0.064,0.021s0,0.064,0,0.064v0.021h0.021c0.043,0,0.086-0.064,0.086-0.108
	c0-0.043-0.021-0.151-0.217-0.173c0-0.13-0.043-0.238-0.107-0.26H6.443c-0.064,0.043-0.108,0.15-0.108,0.26
	c-0.194,0.021-0.216,0.13-0.216,0.173c0,0.065,0.043,0.108,0.086,0.108h0.022V16.82C6.249,16.8,6.249,16.8,6.292,16.8
	c0.022,0,0.022,0,0.043,0.021c0.043,0.065,0.043,0.238,0.043,0.304s-0.043,0.13-0.087,0.194c-0.021,0.043-0.063,0.086-0.063,0.13
	v0.022H5.816v-1.429c0-0.063,0.043-0.173,0.13-0.237l0.043-0.021c0.043-0.021,0.087-0.021,0.108,0h2.075
	c0.021-0.021,0.043-0.021,0.065-0.021c0.021,0,0.043,0.021,0.043,0.064v1.406l-0.238,0.238H7.654v-0.022
	c0-0.044-0.021-0.087-0.065-0.13c-0.043-0.064-0.086-0.129-0.086-0.194c0-0.063,0-0.237,0.043-0.28c0,0,0.021-0.021,0.043-0.021
	c0.022,0,0.043,0,0.065,0.021c0.021,0.021,0,0.064,0,0.064v0.021h0.021c0.043,0,0.088-0.064,0.088-0.109
	c0-0.043-0.022-0.15-0.217-0.172c0-0.131-0.043-0.238-0.107-0.26H7.395c-0.065,0.043-0.108,0.151-0.108,0.26
	c-0.194,0.021-0.216,0.129-0.216,0.172c0,0.065,0.043,0.109,0.087,0.109h0.021v-0.087C7.2,16.82,7.2,16.82,7.243,16.82
	c0.021,0,0.021,0,0.043,0.022c0.043,0.064,0.043,0.237,0.043,0.304c0,0.063-0.043,0.129-0.086,0.192
	c-0.021,0.044-0.064,0.087-0.064,0.132v0.021h-0.54v-0.021C6.681,17.384,6.659,17.34,6.638,17.297 M3.135,8.627
	C3.157,8.583,3.2,8.541,3.221,8.519c0.064,0.065,0.13,0.108,0.194,0.13c-0.021,0-0.043,0.021-0.086,0.021
	C3.286,8.648,3.221,8.648,3.135,8.627 M4.367,9.687v0.778c-1.254,1.103-1.816,1.989-1.902,2.486
	c-0.476-0.131-0.648-0.627-0.648-1.06c0-0.562,1.06-1.405,1.924-2.076C3.783,9.794,3.783,9.75,3.762,9.707
	C3.74,9.665,3.697,9.665,3.654,9.687C3.546,9.751,3.438,9.773,3.286,9.773c-0.129,0-0.259-0.022-0.367-0.043
	c-0.087-0.021-0.194-0.021-0.26-0.021c-0.108,0-0.194,0.021-0.281,0.065C2.27,9.816,2.119,9.881,1.751,9.881
	c-0.367,0-0.777-0.281-1.124-0.497c-0.107-0.065-0.216-0.13-0.303-0.195c0.108-0.043,0.194-0.108,0.281-0.173
	C0.778,8.908,0.93,8.8,1.146,8.8h0.237c0,0.346,0.13,0.498,0.217,0.605c0.064,0.086,0.107,0.151,0.107,0.303
	c0,0.021,0,0.043,0.021,0.065C1.75,9.794,1.772,9.794,1.794,9.794c0.022,0,0.52-0.086,0.865-0.497
	C2.724,9.21,2.832,9.06,2.962,8.908C3.005,8.865,3.027,8.821,3.07,8.757C3.308,8.821,3.481,8.8,3.567,8.713
	c0.064-0.065,0.064-0.13,0.064-0.13c0-0.043-0.021-0.065-0.064-0.086c0,0-0.13-0.043-0.238-0.151
	C3.308,8.303,3.264,8.26,3.243,8.216C3.178,8.065,3.157,7.935,3.135,7.849c0.131,0,0.39,0,0.562,0.043
	c0.043,0,0.086,0.022,0.129,0.043c0.065,0.043,0.151,0.086,0.238,0.13c0.173,0.108,0.368,0.216,0.584,0.216
	c0.13,0,0.324-0.065,0.584-0.194C5.297,8.173,5.34,8.238,5.405,8.303c0.065,0.086,0.13,0.151,0.151,0.216
	C5.578,8.562,5.6,8.583,5.643,8.583S5.708,8.54,5.708,8.518c0.021-0.043,0.173-0.173,0.281-0.259
	c0.26-0.216,0.433-0.368,0.476-0.497C6.681,7.978,6.876,8.238,7.048,8.54C7.07,8.583,7.092,8.627,7.113,8.692
	c-0.238,0.303-0.52,0.692-0.67,1.016H4.367V9.687z M3.502,14.032l-0.043-0.021c-0.107-0.044-0.15-0.044-0.173-0.108
	c0.216,0,0.498,0,0.627-0.129c0.064-0.064,0.108-0.131,0.173-0.194c0.043-0.086,0.108-0.151,0.194-0.238
	c0.021,0.021,0.043,0.021,0.086,0.044c0,0.583,0.022,1.211,0.108,1.881C4.303,14.508,3.697,14.076,3.502,14.032 M3.827,17.037
	c-0.086,0.044-0.173,0.087-0.281,0.109c-0.043,0-0.107,0.021-0.173,0.021c-0.15,0-0.324-0.044-0.454-0.131
	c-0.15-0.106-0.325-0.259-0.216-0.627c0.043-0.13,0.129-0.194,0.259-0.237c0,0.043,0.021,0.087,0.065,0.13
	c0.064,0.087,0.194,0.151,0.324,0.151s0.26-0.044,0.389-0.151c0.13-0.108,0.195-0.237,0.195-0.411
	c0.129,0.151,0.173,0.303,0.173,0.348v0.063C4.108,16.497,4.129,16.865,3.827,17.037 M3.351,15.395
	c0.107,0.043,0.194,0.107,0.303,0.174c0.021,0.021,0.064,0.043,0.086,0.064v0.043c0.043,0.15,0.086,0.367-0.086,0.497
	c-0.108,0.087-0.216,0.108-0.281,0.108c-0.063,0-0.129-0.021-0.173-0.043c0.043-0.045,0.065-0.088,0.108-0.131
	C3.416,15.893,3.459,15.611,3.351,15.395 M4.367,13.168C4.173,13.016,4,12.67,3.957,12.26c-0.064-0.649,0.13-0.995,0.195-1.103
	c0.043-0.086,0.129-0.151,0.238-0.26v2.25C4.367,13.146,4.367,13.168,4.367,13.168 M2.616,13.037
	c0.043-0.346,0.411-1.08,1.448-2.075C4.043,11.005,4,11.027,3.978,11.07c-0.281,0.411-0.238,1.016-0.216,1.211
	c0.043,0.303,0.129,0.562,0.259,0.777c0.043,0.064,0.086,0.108,0.13,0.151c-0.087,0-0.173-0.063-0.281-0.108
	c-0.13-0.064-0.259-0.129-0.411-0.129c-0.151,0-0.237,0.021-0.325,0.043c-0.107,0.021-0.216,0.043-0.41,0.043
	C2.703,13.061,2.659,13.037,2.616,13.037 M4.389,7.243C4.843,6.919,5.102,6.81,5.362,6.745c-0.108,0.13-0.259,0.368-0.259,0.8
	c0,0.151,0.021,0.281,0.086,0.389C4.843,8.086,4.713,8.108,4.648,8.108c-0.173,0-0.347-0.086-0.497-0.194
	C4.064,7.87,3.978,7.827,3.914,7.784c-0.021,0-0.043-0.021-0.064-0.021C4.064,7.524,4.238,7.351,4.389,7.243 M6.768,5.902
	C6.66,6.01,6.552,6.14,6.487,6.292v0.216C6.4,6.53,6.335,6.551,6.249,6.573C6.27,6.551,6.27,6.53,6.292,6.53
	c0.022,0,0.022-0.022,0.022-0.043S6.292,6.465,6.292,6.465c-0.043-0.022-0.087-0.022-0.13-0.044C6.097,6.4,6.054,6.356,6.032,6.335
	C6.162,6.141,6.443,6.011,6.768,5.902 M7.567,9.687H6.659c0.108-0.238,0.303-0.519,0.562-0.843C7.33,9.103,7.459,9.384,7.567,9.687
	 M12.086,9.687h-1.47l-0.065-0.065c0.26-0.173,0.52-0.26,0.735-0.26C11.611,9.362,11.87,9.47,12.086,9.687 M7.74,5.34
	c0.022,0,0.022-0.021,0.022-0.021l0.021-0.043c0.021,0,0.065,0,0.086-0.021C7.934,5.234,8.02,5.234,8.107,5.234L8.324,5.21
	l0.151-0.021h0.107c0.065,0,0.108,0,0.151-0.021l0.26-0.021h1.708c0.021,0.043,0.065,0.086,0.129,0.151
	c0.065,0.173,0.087,0.367,0.087,0.605c0,0.692-0.368,1.038-0.714,1.406c-0.346,0.346-0.67,0.67-0.67,1.232
	c0,0.324,0.259,0.541,0.497,0.541c0.086,0,0.173-0.021,0.216-0.086l0.021-0.022c0-0.021,0-0.021-0.021-0.021
	c-0.064-0.043-0.107-0.108-0.15-0.303c0.15-0.065,0.323-0.086,0.496-0.108c0.217-0.022,0.411-0.043,0.541-0.173
	c0.454-0.411,0.498-0.778,0.541-1.059c0.022-0.13,0.043-0.26,0.088-0.368c0.043,0.086,0.086,0.194,0.129,0.281
	c0.086,0.194,0.15,0.389,0.346,0.648C12.129,8.216,12,8.67,11.978,9.06c-0.216-0.108-0.433-0.151-0.692-0.151
	c-0.173,0-0.389,0.021-0.627,0.064c-0.497,0.108-1.038,0.541-1.513,0.908c-0.173,0.13-0.325,0.26-0.477,0.368
	c-0.107,0.086-0.259,0.173-0.389,0.238l-0.216,0.065H7.978l-0.064-0.259C7.87,10.119,7.827,9.967,7.762,9.816
	C7.135,7.957,6.335,7.222,6.01,6.983c1.708-0.519,4.324-0.843,4.347-0.843h0.021c0.108-0.043,0.129-0.411,0.108-0.562
	c-0.021-0.151-0.13-0.238-0.259-0.238c-0.411,0-1.515,0.649-1.665,0.735c-0.174,0.022-1.45,0.217-1.97,0.346V6.356
	C6.983,5.751,7.74,5.34,7.74,5.34 M7.351,5.189C7.265,5.21,7.178,5.124,7.135,5.016c-0.021-0.065,0-0.108,0.022-0.173
	C7.178,4.8,7.221,4.778,7.265,4.757l0.28-0.043c0.043,0,0.108-0.021,0.173-0.021c0.044,0,0.065,0,0.108-0.022
	C7.914,4.648,8,4.648,8.086,4.648l0.216-0.021l0.151-0.021h0.108c0.064,0,0.107,0,0.173-0.022h0.021
	C8.713,4.648,8.713,4.713,8.713,4.8c0,0.087,0.043,0.151,0.065,0.216H8.756c-0.043,0-0.107,0-0.173,0.021H8.476L8.324,5.06
	L8.108,5.081c-0.086,0-0.173,0.021-0.238,0.021c-0.043,0-0.064,0-0.107,0.021c-0.065,0-0.108,0.022-0.174,0.022L7.351,5.189z
	 M10.465,4.995h-1.47c-0.087,0-0.173-0.086-0.173-0.195c0-0.065,0.021-0.13,0.043-0.173C8.885,4.605,8.93,4.583,8.951,4.583
	c0.065,0,0.281-0.021,0.281-0.021h1.231C10.421,4.627,10.4,4.692,10.4,4.778C10.421,4.865,10.443,4.951,10.465,4.995 M7.178,3.632
	L7.048,3.113C7.178,3.092,7.33,3.07,7.459,3.048c0.26-0.043,0.52-0.086,0.779-0.108l0.065,0.584c0,0.043,0.043,0.064,0.086,0.064
	C8.67,3.567,8.93,3.546,9.21,3.546c0.022,0,0.043,0,0.043-0.021c0.021-0.022,0.021-0.043,0.021-0.043L9.254,2.789h1.254l-0.043,0.67
	c0,0.021,0,0.043,0.021,0.043c0.021,0.022,0.021,0.022,0.043,0.022c0.281,0,0.562,0.021,0.821,0.043
	c0.043,0,0.064-0.021,0.086-0.065l0.064-0.583c0.26,0.021,0.52,0.064,0.778,0.108c0.13,0.021,0.26,0.043,0.411,0.065l-0.13,0.519
	l-0.217,0.973l-0.13-0.021c-0.043,0-0.107-0.021-0.173-0.021c-0.043,0-0.064,0-0.107-0.022c-0.086-0.021-0.174-0.021-0.261-0.021
	l-0.15-0.021l-0.216-0.021H11.2c-0.065,0-0.13,0-0.173-0.022l-0.259-0.021H8.973L8.713,4.432c-0.043,0-0.107,0-0.173,0.022H8.432
	L8.281,4.476L8.064,4.497c-0.086,0-0.173,0.021-0.259,0.021c-0.043,0-0.065,0-0.108,0.022c-0.065,0-0.13,0.021-0.173,0.021
	L7.395,4.583L7.178,3.632z M10.962,5.016c-0.043,0-0.237-0.021-0.237-0.021c-0.086-0.022-0.151-0.108-0.151-0.216
	c0-0.108,0.086-0.195,0.173-0.195c0.022,0,0.238,0.022,0.26,0.022h0.021c0.043,0,0.107,0,0.173,0.021h0.108l0.15,0.021l0.216,0.021
	c0.088,0,0.174,0.022,0.261,0.022c0.043,0,0.064,0,0.107,0.021c0.065,0,0.108,0.021,0.173,0.021l0.261,0.043
	c0.043,0,0.086,0.043,0.107,0.086c0.022,0.043,0.043,0.108,0.021,0.173c-0.021,0.108-0.108,0.173-0.173,0.173h-0.021l-0.259-0.043
	c-0.043,0-0.108-0.021-0.173-0.021c-0.043,0-0.064,0-0.108-0.022c-0.086-0.021-0.15-0.021-0.238-0.021L11.438,5.08l-0.173-0.02
	h-0.108c-0.065,0-0.108,0-0.173-0.022L10.962,5.016z M13.362,9.687h-0.886c-0.043-0.173-0.108-0.26-0.324-0.454V9.21
	c0-0.367,0.107-0.8,0.216-1.167c0,0.022,0.022,0.022,0.022,0.043C12.756,8.562,13.34,9.362,13.362,9.687 M2.94,2.335
	C2.94,2.335,2.919,2.335,2.94,2.335C2.919,2.335,2.919,2.335,2.94,2.335C2.919,2.335,2.919,2.335,2.94,2.335 M2.962,0.303
	c0.086-0.022,0.13-0.043,0.173-0.065C3.2,0.195,3.265,0.173,3.395,0.173c0.259,0,0.389,0.324,0.389,0.497
	c0,0.216-0.108,0.39-0.173,0.519c-0.065,0.086-0.108,0.173-0.108,0.26c0,0.086-0.086,0.324-0.28,0.497
	c0.087-0.303,0.173-0.692,0.064-1.081C3.243,0.648,3.135,0.454,2.962,0.303 M17.427,0.541c0,0.108-0.043,0.259-0.13,0.389
	c-0.346-0.043-0.519-0.151-0.583-0.26c-0.021-0.064-0.021-0.151-0.021-0.216c0.129-0.13,0.324-0.195,0.432-0.195
	c0.043,0,0.108,0,0.173,0.021c0.065,0,0.108,0.022,0.174,0.022C17.427,0.367,17.427,0.432,17.427,0.541 M6.421,20.086
	c0.844,1.082,1.989,2.033,3.353,2.854l0.107,0.065l0.108-0.065c1.384-0.799,2.508-1.771,3.352-2.854l0.238-0.324
	c0.649-0.887,1.125-1.881,1.405-2.962v-0.043c0.021-0.108,0.064-0.216,0.086-0.325l0.021-0.106c0.065-0.281,0.108-0.541,0.151-0.822
	v0.022c0.086,0.906,0.411,1.341,0.973,1.341c0.434,0,0.671-0.175,0.779-0.498c0-0.021,0.021-0.063,0.043-0.107
	c0.086-0.237,0.216-0.627,0.216-0.844v-0.043c0-0.194,0-0.411-0.216-0.478l-0.021-0.021c0.086-0.043,0.13-0.086,0.173-0.129
	c0.107-0.087,0.194-0.324,0.324-0.604c0.064-0.151,0.13-0.304,0.216-0.434c0,0,0-0.021,0.021-0.021
	c0.498-0.908,0.649-1.708,0.434-2.271c0,0,0-0.021-0.021-0.021c-0.13-0.389-0.281-0.692-0.887-1.125
	c-0.259-0.173-0.497-0.324-0.692-0.454c-0.193-0.129-0.368-0.216-0.476-0.303C16.346,9.535,16.583,9.6,16.8,9.665
	c0.304,0.086,0.627,0.173,0.974,0.173c0.647,0,0.973-0.216,1.254-0.411c0.173-0.108,0.303-0.194,0.454-0.194
	c0.021,0,0.043-0.022,0.043-0.043s0-0.043-0.021-0.043c-0.086-0.022-0.15-0.108-0.237-0.173c-0.174-0.151-0.39-0.324-0.758-0.432
	V8.519c-0.043-0.238-0.173-0.476-0.346-0.692c0.173,0.043,0.389,0.087,0.562,0.087c0.28,0,0.476-0.087,0.67-0.173
	c0.043-0.021,0.107-0.043,0.15-0.064c0.021-0.022,0.043-0.043,0.043-0.087c0-0.043-0.021-0.064-0.064-0.064
	c-0.151-0.043-0.324-0.216-0.497-0.368c-0.173-0.173-0.346-0.325-0.52-0.389c-0.107-0.043-0.216-0.065-0.346-0.065h-0.325
	c-0.063,0-0.107,0-0.15-0.021c-0.022,0-0.043-0.022-0.043-0.022V6.638c-0.021-0.086-0.086-0.173-0.347-0.195
	c0.974-0.302,1.645-0.67,2.055-1.081C19.827,4.886,19.892,4.389,19.892,4V3.957c0-0.108-0.043-0.216-0.086-0.324
	c-0.086-0.498-0.324-0.951-0.497-1.254c-0.065-0.151-0.13-0.26-0.173-0.346L19.07,1.838c-0.087-0.281-0.195-0.562-0.303-0.735
	c-0.087-0.13-0.281-0.281-0.454-0.433c-0.108-0.086-0.216-0.173-0.281-0.238c-0.021-0.021-0.043-0.021-0.043,0
	c-0.021,0-0.021,0.022-0.021,0.043c0.021,0.065,0,0.13-0.021,0.194c-0.021,0.043-0.043,0.108-0.043,0.173
	c0,0.065,0.064,0.151,0.108,0.238c0.021,0.043,0.064,0.108,0.064,0.129c-0.021,0-0.064-0.043-0.108-0.086
	c-0.086-0.086-0.237-0.194-0.389-0.216c-0.043,0-0.064,0-0.107-0.022c0.086-0.129,0.107-0.281,0.107-0.411
	c0-0.13,0.021-0.216,0.065-0.303l0.021-0.043c0.022-0.043,0-0.064-0.043-0.086c-0.021-0.021-0.064-0.021-0.107,0H17.45
	c-0.043,0-0.086,0-0.151-0.021C17.232,0.021,17.167,0,17.103,0c-0.13,0-0.39,0.086-0.584,0.259C16.411,0.367,16.39,0.41,16.39,0.54
	c0,0.259,0.107,0.454,0.237,0.713c0.065,0.13,0.151,0.281,0.216,0.476c0.238,0.541,0.52,0.627,1.428,0.865
	c0.064,0.022,0.13,0.043,0.216,0.065c0.064,0.022,0.108,0.022,0.173,0.043c0.043,0.411-0.129,0.908-0.411,1.254
	c-0.476,0.605-1.188,0.908-1.881,1.211c-0.043,0.021-0.063,0.021-0.108,0.043l0.324-0.302c0.195-0.173,0.216-0.368,0.26-0.519
	c0.021-0.108,0.044-0.195,0.108-0.238c0.195-0.173,0.368-0.519,0.454-0.735c0.065-0.173-0.021-0.454-0.086-0.713
	c-0.022-0.108-0.065-0.238-0.065-0.281s-0.021-0.065-0.043-0.065c-0.021-0.021-0.063,0-0.086,0.022
	c-0.043,0.043-0.107,0.064-0.193,0.108c-0.174,0.086-0.434,0.195-0.584,0.454c-0.043-0.195-0.151-0.368-0.324-0.519
	c-0.173-0.173-0.477-0.281-0.757-0.389c-0.174-0.065-0.347-0.13-0.411-0.194c-0.022-0.022-0.065-0.022-0.086-0.022
	c-0.022,0.022-0.043,0.043-0.043,0.065c0,0.065-0.021,0.195-0.043,0.324c-0.043,0.216-0.087,0.433-0.087,0.627
	c0,0.087,0.043,0.195,0.13,0.368v0.022c0.043,0.064,0.107,0.129,0.173,0.194c0.13,0.216,0.281,0.476,0.281,0.713
	c0,0.779-0.605,1.168-1.211,1.211h-0.194c-0.649,0-0.952-0.281-1.038-0.389c0.021-0.086,0-0.173-0.043-0.259
	c-0.043-0.065-0.108-0.13-0.195-0.151l0.216-0.973l0.131-0.584V2.919c-0.022-0.022-0.022-0.022-0.043-0.022
	c-0.151-0.021-0.324-0.043-0.477-0.086c-0.281-0.043-0.584-0.108-0.865-0.129H11.44l-0.433,0.086l-0.043,0.541
	c-0.107,0-0.216-0.022-0.323-0.022l0.021-0.692c0-0.021,0-0.043-0.021-0.043C10.616,2.53,10.616,2.53,10.594,2.53
	c-0.237,0-0.476-0.022-0.691-0.022c-0.238,0-0.454,0-0.692,0.022c-0.021,0-0.043,0-0.043,0.021C9.146,2.573,9.146,2.594,9.146,2.594
	l0.021,0.692c-0.107,0-0.216,0-0.324,0.022L8.8,2.768L8.346,2.681H8.324C8.021,2.703,7.74,2.746,7.459,2.811
	c-0.15,0.021-0.324,0.064-0.476,0.086c-0.021,0-0.043,0.022-0.043,0.022c-0.021,0.021-0.021,0.043,0,0.064l0.13,0.584L7.286,4.54
	C7.2,4.562,7.135,4.605,7.092,4.692C7.048,4.778,7.027,4.865,7.048,4.973c0.043,0.173,0.174,0.281,0.324,0.281h0.065l0.064-0.021
	c-0.043,0.021-0.086,0.043-0.13,0.086C7.2,5.362,6.983,5.405,6.703,5.405c-0.778,0-1.341-0.735-1.341-1.06
	c0-0.151,0.021-0.281,0.043-0.432C5.427,3.74,5.47,3.546,5.47,3.265c0-0.216-0.044-0.346-0.087-0.476
	C5.319,2.594,5.275,2.443,5.362,2.162c0-0.021,0-0.043-0.021-0.043H5.297C5.103,2.313,5.059,2.335,4.713,2.465
	c-0.346,0.129-0.67,0.454-0.691,0.8C3.957,3.178,3.87,3.092,3.784,3.048C3.611,2.94,3.459,2.94,3.308,2.919
	C3.113,3.048,3.005,3.027,2.897,2.962c-0.021-0.021-0.043,0-0.065,0.021c-0.021,0.022,0,0.043,0,0.065
	C2.94,3.135,2.94,3.632,2.94,3.805c0,0.216,0.281,0.454,0.454,0.627l0.064,0.065C3.502,4.54,3.523,4.583,3.567,4.648
	C3.675,4.821,3.849,5.081,4.346,5.34C3.33,5.254,1.903,4.54,1.492,3.286C1.47,3.2,1.47,3.113,1.513,3.048
	C1.6,2.94,1.773,2.875,1.989,2.875c0.238,0,0.498,0.086,0.498,0.281c0,0.021,0,0.021,0.021,0.043h0.043
	C2.724,3.048,2.745,2.81,2.68,2.658C2.659,2.616,2.638,2.551,2.594,2.53C2.703,2.508,2.789,2.443,2.875,2.4
	c0.021,0,0.216-0.108,0.216-0.108c0.217-0.151,0.541-0.541,0.541-0.8c0-0.043,0.043-0.108,0.086-0.173
	c0.087-0.151,0.217-0.324,0.217-0.605c0-0.238-0.151-0.648-0.541-0.648c-0.173,0-0.261,0.043-0.347,0.086
	C2.983,0.194,2.919,0.216,2.768,0.216c-0.043,0-0.065,0.022-0.087,0.065c-0.021,0.043,0,0.065,0.021,0.086
	C2.919,0.54,3.049,0.735,3.114,0.951C2.962,1.06,2.854,1.124,2.768,1.124c-0.195,0-0.714,0-1.146,0.281
	c-0.454,0.281-0.714,1.038-0.843,1.47C0.713,3.07,0.648,3.178,0.583,3.286c-0.063,0.109-0.106,0.195-0.15,0.346
	C0.324,4.108,0.411,5.06,1.319,5.708C2.032,6.205,2.876,6.313,3.46,6.313h0.259c-0.26,0.13-0.648,0.281-0.973,0.411
	C2.594,6.768,2.4,6.832,2.227,6.875C1.902,6.962,1.557,7.07,1.405,7.178c-0.173,0.108-0.389,0.346-0.54,0.541
	C0.778,7.827,0.692,7.914,0.648,7.957C0.627,7.978,0.627,7.978,0.648,8c0,0.021,0.021,0.021,0.043,0.021
	c0.281,0,0.367,0,0.604,0.043C1.36,8.085,1.382,8.085,1.404,8.107c0.021,0.022,0.043,0.021,0.108,0.021
	c0.043,0,0.107-0.021,0.237-0.043C1.622,8.216,1.492,8.411,1.448,8.713H1.167c-0.26,0-0.454,0.13-0.627,0.259
	c-0.15,0.109-0.302,0.195-0.454,0.195C0.043,9.167,0,9.189,0,9.232s0.021,0.086,0.064,0.086C0.173,9.34,0.367,9.47,0.562,9.6
	c0.368,0.238,0.8,0.519,1.211,0.519c0.389,0,0.562-0.065,0.67-0.129c0.087-0.022,0.13-0.043,0.216-0.043
	c0.065,0,0.151,0.021,0.238,0.021c0.107,0.022,0.26,0.043,0.389,0.043H3.33c-0.757,0.497-1.47,1.038-1.729,1.665
	c-0.26,0.627,0.021,1.34,0.173,1.708c0.021,0.065,0.063,0.13,0.063,0.173c0.087,0.26,0.087,0.735,0.087,0.93
	c0,0.304,0.26,0.648,0.52,0.951c-0.129,0.195-0.173,0.455-0.129,0.845c0.043,0.346,0.129,0.54,0.346,0.756l0.065,0.065
	c0.043,0.021,0.064,0.064,0.107,0.086c0.173,0.107,0.347,0.15,0.541,0.15c0.065,0,0.13,0,0.195-0.021
	c0.107-0.021,0.216-0.063,0.324-0.106c0.064-0.043,0.13-0.087,0.173-0.151c0.303-0.303,0.433-0.734,0.433-1.384v-0.063
	c0.043,0.259,0.086,0.496,0.151,0.756l0.021,0.107c0.022,0.108,0.043,0.217,0.086,0.324v0.045c0.304,1.079,0.779,2.074,1.406,2.961
	L6.421,20.086L6.421,20.086z"/>
</svg>
