<svg xmlns="http://www.w3.org/2000/svg" width="400" height="500">
  <path fill="#1A405F" d="M250 0v300c0 27.613-22.386 50-50 50s-50-22.387-50-50H0c0 110.458 89.543 200 200 200 68.086 0 128.214-34.029 164.334-86C386.812 381.657 400 342.372 400 300V0H250z"/>
  <path fill="#4D97CB" d="M245.25 0v286.2c0 26.344-19.811 47.701-44.25 47.701-24.438 0-44.25-21.357-44.25-47.701H24C24 391.577 103.246 477 201 477c60.256 0 113.47-32.464 145.436-82.045C366.328 364.102 378 326.623 378 286.199V0H245.25z"/>
  <path fill="#337BAE" d="M238.25 0v271.798c0 25.019-17.125 45.302-38.25 45.302s-38.25-20.283-38.25-45.302H47C47 371.875 115.5 453 200 453c52.086 0 98.084-30.83 125.715-77.917C342.91 345.782 353 310.189 353 271.799V0H238.25z"/>
  <path fill="#98BCBF" d="M231.375 0V256.2c0 23.582-14.27 42.701-31.875 42.701-17.604 0-31.875-19.119-31.875-42.701H72C72 350.531 129.083 427 199.5 427c43.403 0 81.737-29.061 104.764-73.444C318.593 325.936 327 292.386 327 256.2V0h-95.625z"/>
  <path fill="#98BCBF" d="M0 0h400v150H0z"/>
  <path fill="#337BAE" d="M40 0h360v110H40z"/>
  <path fill="#4D97CB" d="M80 0h320v70H80z"/>
  <path fill="#337BAE" d="M327 103.098h26V150h-26z"/>
  <path fill="#1A405F" d="M378 30h22v120h-22z"/>
  <path fill="#4D97CB" d="M353 70h25v80h-25z"/>
  <path fill="#1A405F" d="M120 0h280v30H120z"/>
</svg>
