<?xml version="1.0" encoding="utf-8"?>
<!-- Generator: Adobe Illustrator 16.0.4, SVG Export Plug-In . SVG Version: 6.00 Build 0)  -->
<!DOCTYPE svg PUBLIC "-//W3C//DTD SVG 1.1//EN" "http://www.w3.org/Graphics/SVG/1.1/DTD/svg11.dtd">
<svg version="1.1" id="Layer_1" xmlns="http://www.w3.org/2000/svg" xmlns:xlink="http://www.w3.org/1999/xlink" x="0px" y="0px"
	 width="400px" height="500px" viewBox="0 0 400 500" enable-background="new 0 0 400 500" xml:space="preserve">
<path fill="#1A405F" d="M250,0v106.301v3.798V300c0,27.613-22.386,50-50,50s-50-22.387-50-50H0c0,110.458,89.543,200,200,200
	c68.086,0,128.214-34.029,164.334-86C386.812,381.657,400,342.372,400,300V0H250z"/>
<path fill="#4D97CB" d="M245.25,0v101.411v3.624v181.165c0,26.344-19.811,47.701-44.25,47.701c-24.438,0-44.25-21.357-44.25-47.701
	H24C24,391.577,103.246,477,201,477c60.256,0,113.47-32.464,145.436-82.045C366.328,364.102,378,326.623,378,286.199V0H245.25z"/>
<path fill="#337BAE" d="M238.25,0v96.308v3.441v172.049c0,25.019-17.125,45.302-38.25,45.302c-21.125,0-38.25-20.283-38.25-45.302
	H47C47,371.875,115.5,453,200,453c52.086,0,98.084-30.83,125.715-77.917C342.91,345.782,353,310.189,353,271.799V0H238.25z"/>
<path fill="#98BCBF" d="M231.375,0v90.781v3.244v162.175c0,23.582-14.27,42.701-31.875,42.701
	c-17.604,0-31.875-19.119-31.875-42.701H72C72,350.531,129.083,427,199.5,427c43.403,0,81.737-29.061,104.764-73.444
	c14.329-27.62,22.736-61.17,22.736-97.356V0H231.375z"/>
<rect x="0" fill="#98BCBF" width="400" height="150"/>
<rect x="40" fill="#337BAE" width="360" height="110"/>
<rect x="80" fill="#4D97CB" width="320" height="70"/>
<rect x="327" y="103.098" fill="#337BAE" width="26" height="46.902"/>
<rect x="378" y="30" fill="#1A405F" width="22" height="120"/>
<rect x="353" y="70" fill="#4D97CB" width="25" height="80"/>
<rect x="120" fill="#1A405F" width="280" height="30"/>
</svg>
