<svg
  xmlns="http://www.w3.org/2000/svg"
  aria-label="James Knight's description programmer and scientist"
  height="50"
  id="landing__description"
  role="img"
  viewBox="0 0 599.029 82.38"
>
  <title>James Knight's description</title>
  <desc>programmer and scientist</desc>
  <path class="landing__description_dark" fill="none" stroke="#1A405F" stroke-width="3" stroke-miterlimit="10" d="M25.02,13.62c2.24,0.6,4.029,1.75,5.37,3.45
    c1.339,1.7,2.01,4.13,2.01,7.29c0,1.401-0.21,2.831-0.63,4.29c-0.42,1.461-0.94,2.73-1.56,3.81c-0.621,1.08-1.17,1.78-1.65,2.1
    c-0.561,0.4-1.8,0.71-3.72,0.93c-1.92,0.22-4.18,0.33-6.78,0.33c-0.921,0-2.34-0.04-4.26-0.12v11.4H3V12.9
    c4.2-0.12,8.799-0.18,13.8-0.18C20.04,12.72,22.779,13.02,25.02,13.62z M21.9,25.02c0-2.04-0.43-3.48-1.29-4.32
    c-0.86-0.84-2.35-1.26-4.47-1.26c-0.72,0-1.5,0.06-2.34,0.18v9.12c0.399,0.04,1.18,0.06,2.34,0.06c3.08,0,4.8-0.22,5.16-0.66
    C21.699,27.621,21.9,26.58,21.9,25.02z"/>
  <path class="landing__description_dark" fill="none" stroke="#1A405F" stroke-width="3" stroke-miterlimit="10" d="M54.449,19.08c0.58,0.12,1.01,0.261,1.29,0.42
    c0,0.88-0.1,2.331-0.3,4.35c-0.201,2.021-0.381,3.45-0.54,4.29c-0.4-0.04-1.14-0.06-2.22-0.06c-2.52,0-4.761,0.141-6.72,0.42v18.6
    h-10.26V19.5h8.58l1.2,4.44h0.06c1.16-1.52,2.4-2.739,3.72-3.66c1.32-0.92,2.5-1.38,3.54-1.38
    C53.319,18.9,53.869,18.96,54.449,19.08z"/>
  <path class="landing__description_dark" fill="none" stroke="#1A405F" stroke-width="3" stroke-miterlimit="10" d="M60.989,44.49c-2.38-2.259-3.57-5.83-3.57-10.71
    c0-2.68,0.25-5.03,0.75-7.05c0.5-2.019,1.11-3.429,1.83-4.23c0.919-1.04,2.61-1.899,5.07-2.58c2.46-0.68,4.77-1.02,6.93-1.02
    c5.16,0,8.84,1.101,11.04,3.3c2.199,2.2,3.3,5.721,3.3,10.56c0,5.2-1.18,9.021-3.54,11.46c-2.36,2.44-6.04,3.66-11.04,3.66
    C66.959,47.88,63.368,46.75,60.989,44.49z M74.999,39.21c0.48-1.1,0.72-3.049,0.72-5.85c0-1.959-0.101-3.469-0.3-4.53
    c-0.201-1.06-0.57-1.839-1.11-2.34c-0.54-0.5-1.371-0.75-2.49-0.75c-1.6,0-2.52,0.141-2.76,0.42c-0.321,0.28-0.581,1.161-0.78,2.64
    c-0.2,1.48-0.3,3.021-0.3,4.62c0,2.721,0.27,4.641,0.81,5.76c0.54,1.12,1.59,1.68,3.15,1.68S74.519,40.311,74.999,39.21z"/>
  <path class="landing__description_dark" fill="none" stroke="#1A405F" stroke-width="3" stroke-miterlimit="10" d="M110.519,19.41c2.04,0.261,4.419,0.61,7.14,1.05
    v23.88c0,5.719-1.9,10.16-5.7,13.32c-0.48,0.399-1.56,0.74-3.24,1.02c-1.68,0.279-3.58,0.42-5.7,0.42c-4.601,0-8.241-0.6-10.92-1.8
    c-0.04-0.88,0.03-2.04,0.21-3.48c0.18-1.44,0.37-2.58,0.57-3.42c2.88,0.44,5.7,0.66,8.46,0.66c1.399,0,2.589-0.07,3.57-0.21
    c0.98-0.141,1.59-0.351,1.83-0.63c0.32-0.321,0.56-1.521,0.72-3.6c0.039-0.56,0.06-1.38,0.06-2.46v-1.5
    c-1,1.48-2.28,2.541-3.84,3.18c-1.56,0.64-2.96,0.96-4.2,0.96c-3.36,0-5.901-1.1-7.62-3.3c-1.72-2.199-2.58-5.419-2.58-9.66
    c0-2.8,0.39-5.43,1.17-7.89c0.78-2.46,1.85-4.17,3.21-5.13c0.879-0.6,2.31-1.05,4.29-1.35c1.98-0.3,4.209-0.45,6.69-0.45
    C106.519,19.02,108.479,19.15,110.519,19.41z M107.399,38.58V26.04c-0.441-0.08-1.101-0.159-1.98-0.24c-0.4-0.04-1-0.06-1.8-0.06
    c-1.24,0-2.02,0.12-2.34,0.36c-0.44,0.321-0.791,1.21-1.05,2.67c-0.261,1.461-0.39,2.991-0.39,4.59c0,2.201,0.25,3.741,0.75,4.62
    c0.5,0.88,1.43,1.32,2.79,1.32C104.858,39.3,106.199,39.06,107.399,38.58z"/>
  <path class="landing__description_dark" fill="none" stroke="#1A405F" stroke-width="3" stroke-miterlimit="10" d="M141.269,19.08c0.58,0.12,1.01,0.261,1.29,0.42
    c0,0.88-0.1,2.331-0.3,4.35c-0.201,2.021-0.381,3.45-0.54,4.29c-0.4-0.04-1.14-0.06-2.22-0.06c-2.52,0-4.761,0.141-6.72,0.42v18.6
    h-10.26V19.5h8.58l1.2,4.44h0.06c1.16-1.52,2.4-2.739,3.72-3.66c1.32-0.92,2.5-1.38,3.54-1.38
    C140.138,18.9,140.688,18.96,141.269,19.08z"/>
  <path class="landing__description_dark" fill="none" stroke="#1A405F" stroke-width="3" stroke-miterlimit="10" d="M159.898,47.1l-0.96-3.78c-1.84,3-4.4,4.5-7.68,4.5
    c-2.68,0-4.87-0.75-6.57-2.25c-1.701-1.5-2.55-3.609-2.55-6.33c0-1.68,0.489-3.15,1.47-4.41c0.98-1.26,2.33-2.15,4.05-2.67
    c2.24-0.64,5.7-1,10.38-1.08c0-2.64-0.12-4.04-0.36-4.2c-0.201-0.159-0.84-0.24-1.92-0.24c-0.68,0-1.62,0.04-2.82,0.12
    c-1.92,0.081-4.521,0.3-7.8,0.66c-0.321-2.16-0.561-4.479-0.72-6.96c2.12-0.439,4.34-0.81,6.66-1.11c2.319-0.3,4.399-0.45,6.24-0.45
    c3.2,0,5.6,0.531,7.2,1.59c1.599,1.06,2.64,2.451,3.12,4.17c0.48,1.72,0.699,3.9,0.66,6.54l-0.06,8.82l0.18,7.08H159.898z
     M158.039,40.5v-4.44h-0.48c-2.96,0-4.601,0.16-4.92,0.48c-0.201,0.201-0.351,0.5-0.45,0.9c-0.1,0.4-0.15,0.78-0.15,1.14
    c0,0.96,0.219,1.62,0.66,1.98c0.439,0.36,1.119,0.54,2.04,0.54C155.778,41.1,156.878,40.9,158.039,40.5z"/>
  <path class="landing__description_dark" fill="none" stroke="#1A405F" stroke-width="3" stroke-miterlimit="10" d="M217.018,32.58V47.1h-10.26V33.6v-3.24
    c0-1.479-0.141-2.359-0.42-2.64c-0.32-0.32-1-0.48-2.039-0.48l-0.721,0.06c-1.24,0.081-2.42,0.36-3.539,0.84
    c0.039,0.84,0.06,2.32,0.06,4.44V47.1h-10.26V33.6V30c0-1.239-0.141-2-0.42-2.28c-0.321-0.32-1-0.48-2.04-0.48l-0.72,0.06
    c-1.121,0.04-2.28,0.3-3.48,0.78V47.1h-10.26V19.5h8.34l1.08,4.5c1.32-1.76,2.84-3.05,4.56-3.87c1.719-0.819,3.459-1.23,5.22-1.23
    c1.479,0,2.889,0.221,4.23,0.66c1.339,0.44,2.27,1.061,2.79,1.86c0.24,0.36,0.439,1.02,0.6,1.98c1.279-1.56,2.74-2.7,4.381-3.42
    c1.639-0.72,3.279-1.08,4.92-1.08c1.479,0,2.889,0.221,4.229,0.66c1.34,0.44,2.271,1.061,2.791,1.86
    C216.697,22.38,217.018,26.1,217.018,32.58z"/>
  <path class="landing__description_dark" fill="none" stroke="#1A405F" stroke-width="3" stroke-miterlimit="10" d="M265.857,32.58V47.1h-10.26V33.6v-3.24
    c0-1.479-0.141-2.359-0.42-2.64c-0.32-0.32-1-0.48-2.04-0.48l-0.72,0.06c-1.24,0.081-2.421,0.36-3.54,0.84
    c0.039,0.84,0.06,2.32,0.06,4.44V47.1h-10.26V33.6V30c0-1.239-0.141-2-0.42-2.28c-0.32-0.32-1-0.48-2.04-0.48l-0.72,0.06
    c-1.12,0.04-2.28,0.3-3.48,0.78V47.1h-10.26V19.5h8.34l1.08,4.5c1.32-1.76,2.84-3.05,4.561-3.87c1.719-0.819,3.459-1.23,5.22-1.23
    c1.479,0,2.89,0.221,4.229,0.66c1.34,0.44,2.271,1.061,2.79,1.86c0.24,0.36,0.44,1.02,0.601,1.98c1.279-1.56,2.739-2.7,4.38-3.42
    c1.64-0.72,3.279-1.08,4.92-1.08c1.479,0,2.89,0.221,4.229,0.66c1.34,0.44,2.271,1.061,2.79,1.86
    C265.537,22.38,265.857,26.1,265.857,32.58z"/>
  <path class="landing__description_dark" fill="none" stroke="#1A405F" stroke-width="3" stroke-miterlimit="10" d="M292.918,39.6c0.359,0,1.02-0.04,1.979-0.12
    l0.9,6.18c-3.081,1.44-7.08,2.16-12,2.16c-4.601,0-8.13-1.16-10.59-3.48c-2.46-2.32-3.69-5.82-3.69-10.5c0-2.4,0.31-4.72,0.93-6.96
    c0.62-2.239,1.33-3.799,2.131-4.68c0.84-0.879,2.399-1.64,4.68-2.28c2.28-0.639,4.539-0.96,6.78-0.96c3.6,0,6.3,0.641,8.1,1.92
    c1.8,1.281,2.979,3.051,3.54,5.31c0.56,2.26,0.84,5.291,0.84,9.09c-2.721,0.16-5.38,0.24-7.979,0.24h-8.521
    c0,1.281,0.271,2.241,0.811,2.88c0.54,0.641,1.31,1.05,2.31,1.23c0.999,0.18,2.4,0.27,4.2,0.27
    C288.337,39.9,290.197,39.801,292.918,39.6z M280.078,27.66c-0.12,0.92-0.201,1.96-0.24,3.12h3.12c1.879,0,3.239-0.02,4.08-0.06
    c0-1.92-0.271-3.279-0.811-4.08c-0.54-0.8-1.47-1.2-2.79-1.2c-1.08,0-2.021,0.221-2.819,0.66
    C280.378,26.22,280.197,26.74,280.078,27.66z"/>
  <path class="landing__description_dark" fill="none" stroke="#1A405F" stroke-width="3" stroke-miterlimit="10" d="M318.867,19.08c0.579,0.12,1.01,0.261,1.29,0.42
    c0,0.88-0.101,2.331-0.3,4.35c-0.201,2.021-0.381,3.45-0.54,4.29c-0.4-0.04-1.141-0.06-2.22-0.06c-2.521,0-4.761,0.141-6.721,0.42
    v18.6h-10.26V19.5h8.58l1.2,4.44h0.06c1.16-1.52,2.4-2.739,3.72-3.66c1.32-0.92,2.5-1.38,3.54-1.38
    C317.736,18.9,318.287,18.96,318.867,19.08z"/>
  <path class="landing__description_light" fill="none" stroke="#F8F1E5" stroke-width="3" stroke-miterlimit="10" d="M364.856,39.81c1.279,0.9,2.779,1.71,4.5,2.43v1.08
    c-0.761,1-1.74,1.98-2.94,2.94c-1.199,0.96-2.12,1.44-2.76,1.44c-0.6,0-1.54-0.33-2.819-0.99c-1.281-0.66-2.481-1.41-3.601-2.25
    c-0.96,0.88-2.511,1.671-4.649,2.37c-2.141,0.699-4.251,1.05-6.33,1.05c-2.761,0-5.271-0.411-7.53-1.23
    c-2.261-0.819-4.05-2.049-5.37-3.69c-1.32-1.64-1.979-3.6-1.979-5.88c0-3.879,2.139-7.119,6.42-9.72
    c-1.48-1.719-2.221-3.56-2.221-5.52c0-1.76,0.56-3.35,1.681-4.77c1.119-1.419,2.659-2.54,4.62-3.36
    c1.959-0.819,4.14-1.23,6.539-1.23c3.2,0,5.73,0.711,7.591,2.13c1.859,1.42,2.79,3.371,2.79,5.85c0,1.96-0.61,3.67-1.83,5.13
    c-1.221,1.46-2.991,2.63-5.311,3.51c1,0.92,3.08,2.721,6.24,5.4l0.3-0.18c-0.12-0.8-0.18-1.54-0.18-2.22c0-0.8,0.079-1.88,0.24-3.24
    h8.34c-0.12,1.8-0.57,3.561-1.351,5.28c-0.779,1.72-1.649,3.1-2.609,4.14C362.836,38.4,363.576,38.91,364.856,39.81z M342.837,38.79
    c1.279,1.101,2.979,1.65,5.1,1.65c1.2,0,2.34-0.159,3.42-0.48c-1.721-1.2-3.381-2.51-4.979-3.93c-1.601-1.419-2.961-2.77-4.08-4.05
    c-0.921,0.84-1.381,1.8-1.381,2.88C340.916,36.381,341.556,37.69,342.837,38.79z M346.347,19.29c-0.501,0.46-0.75,1.071-0.75,1.83
    c0,0.72,0.219,1.46,0.66,2.22c0.439,0.76,1.1,1.48,1.979,2.16c0.84-0.759,1.51-1.55,2.01-2.37c0.5-0.819,0.75-1.609,0.75-2.37
    c0-0.64-0.26-1.16-0.779-1.56c-0.521-0.399-1.121-0.6-1.801-0.6C347.536,18.6,346.846,18.831,346.347,19.29z"/>
  <path class="landing__description_dark" fill="none" stroke="#1A405F" stroke-width="3" stroke-miterlimit="10" d="M392.485,24.12c0.859,0.48,2.21,1,4.05,1.56
    c2.199,0.72,4.01,1.42,5.431,2.1c1.419,0.681,2.659,1.74,3.72,3.18c1.06,1.44,1.59,3.321,1.59,5.64c0,7.44-4.84,11.16-14.52,11.16
    c-1.601,0-3.551-0.141-5.851-0.42c-2.301-0.28-4.39-0.64-6.27-1.08c0.079-0.84,0.249-2.07,0.51-3.69c0.26-1.62,0.51-2.83,0.75-3.63
    c1.399,0.201,3.51,0.441,6.33,0.72c2.82,0.28,4.95,0.42,6.39,0.42c0.84,0,1.34-0.06,1.5-0.18c0.24-0.159,0.43-0.429,0.57-0.81
    c0.14-0.38,0.21-0.71,0.21-0.99c0-0.8-0.381-1.41-1.14-1.83c-0.761-0.42-2.061-0.93-3.9-1.53c-2.2-0.68-4.02-1.38-5.46-2.1
    c-1.44-0.72-2.7-1.839-3.78-3.36c-1.08-1.52-1.62-3.52-1.62-6c0-1.76,0.399-3.49,1.2-5.19c0.8-1.7,1.62-2.85,2.46-3.45
    c0.64-0.44,1.96-0.86,3.96-1.26c2-0.399,3.88-0.6,5.641-0.6c4.479,0,8.139,0.42,10.979,1.26c-0.04,0.801-0.171,1.9-0.39,3.3
    c-0.221,1.4-0.45,2.68-0.69,3.84l-1.38-0.06c-5.2-0.36-8.52-0.54-9.96-0.54c-0.6,0-0.94,0.021-1.02,0.06
    c-0.161,0.081-0.301,0.261-0.421,0.54c-0.119,0.28-0.18,0.6-0.18,0.96C391.195,22.98,391.625,23.64,392.485,24.12z"/>
  <path class="landing__description_dark" fill="none" stroke="#1A405F" stroke-width="3" stroke-miterlimit="10" d="M434.936,46.26c-3.239,1.08-6.86,1.62-10.859,1.62
    c-4.48,0-7.83-1.129-10.051-3.39c-2.22-2.259-3.329-5.79-3.329-10.59c0-2.359,0.319-4.689,0.96-6.99c0.639-2.3,1.319-3.85,2.04-4.65
    c0.84-0.92,2.489-1.7,4.949-2.34c2.46-0.639,5.011-0.96,7.65-0.96c2.76,0,5.54,0.24,8.34,0.72c-0.08,1-0.21,2.17-0.39,3.51
    c-0.181,1.341-0.37,2.53-0.57,3.57c-2.48-0.16-4.82-0.24-7.02-0.24c-2.16,0-3.54,0.12-4.141,0.36c-0.32,0.12-0.61,0.94-0.87,2.46
    c-0.261,1.521-0.39,2.94-0.39,4.26c0,1.761,0.249,3.111,0.75,4.05c0.5,0.94,1.29,1.59,2.37,1.95s2.54,0.54,4.38,0.54
    c0.8,0,2.56-0.08,5.28-0.24L434.936,46.26z"/>
  <path class="landing__description_dark" fill="none" stroke="#1A405F" stroke-width="3" stroke-miterlimit="10" d="M438.534,19.5h10.261v27.6h-10.261V19.5z
     M440.185,14.7c-0.98-0.92-1.47-2.02-1.47-3.3c0-1.279,0.489-2.379,1.47-3.3c0.979-0.92,2.149-1.38,3.51-1.38
    c1.359,0,2.521,0.46,3.48,1.38c0.96,0.92,1.439,2.021,1.439,3.3c0,1.281-0.479,2.38-1.439,3.3c-0.96,0.92-2.121,1.38-3.48,1.38
    C442.334,16.08,441.164,15.621,440.185,14.7z"/>
  <path class="landing__description_dark" fill="none" stroke="#1A405F" stroke-width="3" stroke-miterlimit="10" d="M476.214,39.6c0.359,0,1.02-0.04,1.979-0.12
    l0.9,6.18c-3.081,1.44-7.08,2.16-12,2.16c-4.601,0-8.13-1.16-10.59-3.48c-2.46-2.32-3.69-5.82-3.69-10.5c0-2.4,0.31-4.72,0.93-6.96
    c0.62-2.239,1.33-3.799,2.131-4.68c0.84-0.879,2.399-1.64,4.68-2.28c2.28-0.639,4.539-0.96,6.78-0.96c3.6,0,6.3,0.641,8.1,1.92
    c1.8,1.281,2.979,3.051,3.54,5.31c0.56,2.26,0.84,5.291,0.84,9.09c-2.721,0.16-5.38,0.24-7.979,0.24h-8.521
    c0,1.281,0.271,2.241,0.811,2.88c0.54,0.641,1.31,1.05,2.31,1.23c0.999,0.18,2.4,0.27,4.2,0.27
    C471.633,39.9,473.493,39.801,476.214,39.6z M463.374,27.66c-0.12,0.92-0.201,1.96-0.24,3.12h3.12c1.879,0,3.239-0.02,4.08-0.06
    c0-1.92-0.271-3.279-0.811-4.08c-0.54-0.8-1.47-1.2-2.79-1.2c-1.08,0-2.021,0.221-2.819,0.66
    C463.674,26.22,463.493,26.74,463.374,27.66z"/>
  <path class="landing__description_dark" fill="none" stroke="#1A405F" stroke-width="3" stroke-miterlimit="10" d="M510.923,24.54c0.181,1.761,0.271,4.44,0.271,8.04
    V47.1h-10.26V32.7v-2.46c0-1.28-0.101-2.08-0.301-2.4c-0.32-0.399-1.06-0.6-2.22-0.6c-0.561,0-0.98,0.021-1.26,0.06
    c-1.12,0.04-2.28,0.3-3.48,0.78V47.1h-10.26V19.5h8.34l1.141,4.62c2.88-3.48,6.319-5.22,10.319-5.22c1.44,0,2.79,0.201,4.05,0.6
    c1.261,0.4,2.21,0.981,2.851,1.74C510.473,21.681,510.743,22.78,510.923,24.54z"/>
  <path class="landing__description_dark" fill="none" stroke="#1A405F" stroke-width="3" stroke-miterlimit="10" d="M528.652,35.76c0,0.72,0.02,1.47,0.061,2.25
    c0.039,0.78,0.159,1.27,0.359,1.47c0.279,0.28,1.261,0.42,2.94,0.42l2.04-0.06c0.36,1.92,0.54,4.14,0.54,6.66
    c-0.761,0.28-1.87,0.54-3.33,0.78c-1.461,0.24-2.85,0.36-4.17,0.36c-2.76,0-4.89-0.609-6.39-1.83c-1.5-1.22-2.25-3.11-2.25-5.67
    V25.38h-4.5v-5.46l4.5-0.42l2.699-6.6l7.5-0.42v7.02h6.36v5.88h-6.36V35.76z"/>
  <path class="landing__description_dark" fill="none" stroke="#1A405F" stroke-width="3" stroke-miterlimit="10" d="M538.252,19.5h10.261v27.6h-10.261V19.5z
     M539.902,14.7c-0.98-0.92-1.47-2.02-1.47-3.3c0-1.279,0.489-2.379,1.47-3.3c0.979-0.92,2.149-1.38,3.51-1.38
    c1.359,0,2.521,0.46,3.48,1.38c0.96,0.92,1.439,2.021,1.439,3.3c0,1.281-0.479,2.38-1.439,3.3c-0.96,0.92-2.121,1.38-3.48,1.38
    C542.052,16.08,540.882,15.621,539.902,14.7z"/>
  <path class="landing__description_dark" fill="none" stroke="#1A405F" stroke-width="3" stroke-miterlimit="10" d="M572.541,45.42c-2.26,1.56-5.47,2.34-9.63,2.34
    c-2.92,0-6.28-0.42-10.08-1.26c0.08-0.8,0.271-1.95,0.57-3.45s0.55-2.649,0.75-3.45c1.44,0.24,3.039,0.43,4.8,0.57
    c1.76,0.141,3.26,0.21,4.5,0.21c1.08,0,1.74-0.06,1.98-0.18c0.039-0.04,0.09-0.15,0.149-0.33c0.061-0.18,0.09-0.37,0.09-0.57
    c0-0.8-0.5-1.34-1.5-1.62c-0.32-0.08-1.54-0.42-3.659-1.02c-2.121-0.6-3.851-1.689-5.19-3.27c-1.341-1.58-2.01-3.549-2.01-5.91
    c0-1.239,0.279-2.619,0.84-4.14c0.56-1.52,1.16-2.48,1.8-2.88c0.48-0.319,1.64-0.649,3.48-0.99c1.839-0.339,3.54-0.51,5.1-0.51
    c3.319,0,6.66,0.24,10.021,0.72c0,0.72-0.101,1.93-0.301,3.63c-0.2,1.701-0.38,2.771-0.54,3.21c-3.399-0.439-6.141-0.66-8.22-0.66
    c-1.08,0-1.78,0.06-2.1,0.18c-0.081,0.041-0.16,0.15-0.24,0.33c-0.081,0.18-0.12,0.411-0.12,0.69c0,0.561,0.18,0.96,0.54,1.2
    c0.36,0.28,1.3,0.621,2.82,1.02c1.8,0.52,3.35,1.06,4.649,1.62c1.3,0.561,2.439,1.401,3.42,2.52c0.98,1.121,1.471,2.561,1.471,4.32
    C575.932,41.301,574.801,43.86,572.541,45.42z"/>
  <path class="landing__description_dark" fill="none" stroke="#1A405F" stroke-width="3" stroke-miterlimit="10" d="M592.07,35.76c0,0.72,0.02,1.47,0.061,2.25
    c0.039,0.78,0.159,1.27,0.359,1.47c0.279,0.28,1.261,0.42,2.94,0.42l2.04-0.06c0.36,1.92,0.54,4.14,0.54,6.66
    c-0.761,0.28-1.87,0.54-3.33,0.78c-1.461,0.24-2.85,0.36-4.17,0.36c-2.76,0-4.89-0.609-6.39-1.83c-1.5-1.22-2.25-3.11-2.25-5.67
    V25.38h-4.5v-5.46l4.5-0.42l2.699-6.6l7.5-0.42v7.02h6.36v5.88h-6.36V35.76z"/>
</svg>
