<svg xmlns="http://www.w3.org/2000/svg" height="36px" viewBox="0 0 612 612">
  <style type="text/css">
	<![CDATA[
		.st0{fill:#337bae;}.st1{fill:#f8f1e5;}
	]]>
	</style>
  <path class="st0" d="M376,0c0,1.08,0,2.16,0,3.3c0,38.76-31.42,70.17-70.17,70.17c-38.76,0-70.17-31.42-70.17-70.17l0,0
    c0-1.14,0-2.22,0-3.3H0v612h612V0H376z" />
  <path class="st1" d="M142.16,329.811h40.56l27.69,147.47h0.5l33.28-147.47h37.94L312.19,479.09h0.59l31.56-149.279h39.78
    L332.43,546.5h-40.25l-29.81-147.47h-0.78L229.68,546.5h-41L142.16,329.811z M429.85,329.811h63.94l63.5,216.689h-41.84
    l-13.811-48.22H428.8l-10.66,48.22h-40.75L429.85,329.811z M454.19,383.221L436.5,462.72h55.06l-20.31-79.499H454.19z" />
</svg>
