<svg id="Layer_1" xmlns="http://www.w3.org/2000/svg" width="150" height="150" viewBox="0 0 150 150">
  <style>
    .st2{fill:#f2f2f2}
  </style>
  <path d="M75 0C33.579 0 0 33.579 0 75s33.579 75 75 75 75-33.579 75-75S116.421 0 75 0zm0 20.308c11.043 0 19.996 8.953 19.996 19.996S86.044 60.299 75 60.299s-19.996-8.952-19.996-19.995c0-11.044 8.953-19.996 19.996-19.996zm39.992 77.185V124.153H55.004v-14.53h42.658v-5.332H35.009V50.97H53.502C57.429 58.869 65.58 64.298 75 64.298s17.571-5.429 21.498-13.328h18.494v46.523z" fill="#f8f1e5"/>
  <defs>
    <filter id="Adobe_OpacityMaskFilter" filterUnits="userSpaceOnUse" x="43.798" y="72.597" width="62.893" height="20.769">
      <feColorMatrix values="1 0 0 0 0 0 1 0 0 0 0 0 1 0 0 0 0 0 1 0"/>
    </filter>
  </defs>
  <mask maskUnits="userSpaceOnUse" x="43.798" y="72.597" width="62.893" height="20.769" id="SVGID_1_">
    <g filter="url(#Adobe_OpacityMaskFilter)">
      <linearGradient id="SVGID_2_" gradientUnits="userSpaceOnUse" x1="44.023" y1="82.981" x2="75.245" y2="82.981">
        <stop offset=".14"/>
        <stop offset="1" stop-color="#fff"/>
      </linearGradient>
      <path fill="url(#SVGID_2_)" d="M44.023 68.776h31.222v28.412H44.023z"/>
      <linearGradient id="SVGID_3_" gradientUnits="userSpaceOnUse" x1="43.872" y1="352.519" x2="75.093" y2="352.519" gradientTransform="rotate(180 75.169 217.75)">
        <stop offset=".14"/>
        <stop offset="1" stop-color="#fff"/>
      </linearGradient>
      <path fill="url(#SVGID_3_)" d="M75.245 68.776h31.222v28.412H75.245z"/>
    </g>
  </mask>
  <g mask="url(#SVGID_1_)">
    <path class="st2" d="M93.885 93.366c-4.109 0-5.742-4.986-7.182-9.386-.621-1.896-1.912-5.841-2.79-5.841-.13 0-.497.131-1.103 1.347l-.425-.212c.548-1.098 1.034-1.609 1.528-1.609 1.13 0 2.136 2.793 3.241 6.167 1.39 4.248 2.965 9.06 6.73 9.06 3.167 0 4.788-3.401 6.067-7.076l.449.156c-1.337 3.84-3.051 7.394-6.515 7.394zM73.941 93.366c-4.107 0-5.74-4.984-7.181-9.382-.622-1.899-1.913-5.845-2.791-5.845-.13 0-.498.131-1.104 1.347l-.425-.212c.547-1.098 1.033-1.609 1.529-1.609 1.131 0 2.137 2.794 3.241 6.168 1.392 4.248 2.967 9.059 6.73 9.059 3.167 0 4.787-3.399 6.067-7.072l.448.156c-1.335 3.838-3.05 7.39-6.514 7.39zM53.997 93.366c-4.109 0-5.742-4.986-7.183-9.386-.623-1.899-1.914-5.841-2.791-5.841v-.475c1.129 0 2.136 2.791 3.241 6.164 1.393 4.251 2.968 9.063 6.733 9.063 3.167 0 4.788-3.401 6.067-7.076l.449.156c-1.337 3.841-3.052 7.395-6.516 7.395z"/>
    <path class="st2" d="M53.997 88.299c-1.131 0-2.137-2.792-3.242-6.166-1.391-4.248-2.966-9.061-6.732-9.061v-.475c4.109 0 5.742 4.987 7.183 9.386.621 1.897 1.913 5.841 2.791 5.841.877 0 2.168-3.944 2.79-5.84.291-.889.59-1.801.915-2.688l.446.163c-.323.88-.62 1.789-.908 2.667-1.107 3.381-2.114 6.173-3.243 6.173zM73.941 88.299c-1.129 0-2.136-2.793-3.241-6.168-1.39-4.246-2.966-9.059-6.73-9.059-1.347 0-2.491.601-3.497 1.837l-.368-.299c1.102-1.354 2.365-2.013 3.865-2.013 4.109 0 5.742 4.987 7.182 9.386.621 1.896 1.913 5.841 2.79 5.841s2.169-3.944 2.79-5.839c.274-.837.583-1.784.913-2.685l.446.162a85.807 85.807 0 0 0-.907 2.669c-1.106 3.376-2.113 6.168-3.243 6.168zM93.885 88.299c-1.131 0-2.137-2.793-3.241-6.168-1.39-4.246-2.966-9.059-6.73-9.059-1.347 0-2.491.601-3.496 1.837l-.368-.299c1.101-1.354 2.365-2.013 3.864-2.013 4.109 0 5.742 4.987 7.182 9.386.621 1.896 1.911 5.841 2.79 5.841.876 0 2.168-3.942 2.789-5.836l.006-.021c.287-.877.584-1.784.907-2.667l.446.163a81.28 81.28 0 0 0-.901 2.652l-.006.016c-1.106 3.377-2.114 6.168-3.242 6.168zM100.36 74.909l-.368-.299c1.102-1.354 2.366-2.013 3.864-2.013 1.004 0 1.931.312 2.752.929l-.285.38c-.749-.561-1.555-.833-2.467-.833-1.346-.001-2.49.6-3.496 1.836zM106.24 82.76c-1.034-3.066-1.836-4.621-2.384-4.621-.13 0-.497.131-1.103 1.347l-.425-.212c.547-1.098 1.032-1.609 1.528-1.609.83 0 1.651 1.432 2.834 4.944l-.45.151z"/>
    <path class="st2" d="M86.524 93.366c-4.109 0-5.741-4.986-7.182-9.386-.622-1.899-1.913-5.841-2.79-5.841-.878 0-2.169 3.946-2.79 5.841a83.54 83.54 0 0 1-.913 2.688l-.446-.163c.322-.882.62-1.792.908-2.672 1.105-3.375 2.111-6.169 3.242-6.169 1.129 0 2.135 2.792 3.24 6.164 1.392 4.25 2.967 9.063 6.731 9.063 1.347 0 2.491-.601 3.497-1.838l.369.3c-1.102 1.355-2.368 2.013-3.866 2.013zM66.582 93.366c-4.109 0-5.741-4.985-7.182-9.384-.621-1.898-1.912-5.844-2.791-5.844-.877 0-2.168 3.942-2.789 5.835l-.012.036a84.153 84.153 0 0 1-.904 2.657l-.446-.163c.319-.873.613-1.772.899-2.643l.009-.03c1.107-3.377 2.113-6.168 3.242-6.168 1.131 0 2.137 2.794 3.242 6.168 1.391 4.247 2.967 9.059 6.731 9.059 1.347 0 2.491-.601 3.496-1.838l.369.3c-1.101 1.357-2.365 2.015-3.864 2.015zM46.636 93.366a4.501 4.501 0 0 1-2.756-.93l.285-.379a3.98 3.98 0 0 0 2.471.834c1.346 0 2.489-.601 3.496-1.836l.368.3c-1.102 1.353-2.366 2.011-3.864 2.011zM46.636 88.299c-.83 0-1.652-1.434-2.838-4.948l.45-.152c1.036 3.069 1.839 4.625 2.388 4.625.13 0 .498-.131 1.103-1.345l.425.212c-.547 1.098-1.032 1.608-1.528 1.608z"/>
    <path class="st2" d="M66.582 88.299c-1.131 0-2.137-2.793-3.242-6.168-1.391-4.247-2.967-9.059-6.731-9.059-3.167 0-4.789 3.401-6.069 7.076l-.448-.156c1.337-3.841 3.053-7.395 6.517-7.395 4.108 0 5.741 4.986 7.182 9.385.621 1.897 1.912 5.842 2.791 5.842.13 0 .497-.131 1.103-1.345l.425.212c-.548 1.098-1.033 1.608-1.528 1.608zM86.524 88.299c-1.13 0-2.136-2.793-3.241-6.168-1.39-4.246-2.965-9.059-6.73-9.059-3.167 0-4.788 3.401-6.068 7.076l-.449-.156c1.337-3.841 3.053-7.395 6.517-7.395 4.109 0 5.741 4.987 7.182 9.386.621 1.896 1.912 5.841 2.79 5.841.13 0 .498-.131 1.104-1.345l.425.212c-.549 1.098-1.035 1.608-1.53 1.608zM106.466 88.299c-1.129 0-2.136-2.793-3.24-6.168-1.39-4.246-2.966-9.059-6.73-9.059-3.167 0-4.787 3.399-6.066 7.072l-.449-.157c1.337-3.838 3.051-7.391 6.515-7.391 4.108 0 5.741 4.987 7.182 9.386.62 1.896 1.911 5.841 2.788 5.841v.476z"/>
    <path class="st2" d="M106.466 93.366c-4.108 0-5.74-4.985-7.18-9.384-.621-1.898-1.912-5.844-2.79-5.844-.877 0-2.169 3.946-2.79 5.841l-.016.048c-.285.868-.579 1.765-.898 2.639l-.446-.163c.316-.867.609-1.761.892-2.625l.016-.048c1.105-3.375 2.113-6.168 3.242-6.168 1.13 0 2.137 2.794 3.24 6.168 1.391 4.247 2.966 9.059 6.729 9.059v.477z"/>
  </g>
</svg>
