<svg xmlns="http://www.w3.org/2000/svg" height="150px" viewBox="0 0 500 500">
<style type="text/css">
<![CDATA[
	.st0{fill:#F8F1E5;}
]]>
</style>
<path class="st0" d="M319.09,261.11l6.09,52.72c-27.689,7.13-68.06,5.61-68.06,1.17c0,6.75-93.52,6.75-93.52-20.25v-27
 C223.71,250.4,283.81,255.35,319.09,261.11z"/>
<path class="st0" d="M143.389,359.757c9.259,0.028,16.581,0.047,18.923-2.289c0.428-0.427,0.67-0.933,0.751-1.528
	c-8.726-12.847-13.198-26.445-13.303-40.436H143v-44.251h-6.75v-41.5h14.5v2.508c29.67-47.697,61.119-73.415,93.5-76.445v-16.812
	h0.703c-0.327-5.066-2.749-8.628-7.247-10.564c-13.446-5.788-42.057,4.248-50.414,11.624c-8.437,7.444-14.064,16.395-20.021,25.871
	c-1.263,2.009-2.537,4.036-3.852,6.07c-5.154,7.972-6.058,8.831-11.077,13.597c-1.962,1.863-4.649,4.415-8.49,8.256
	c-10.119,10.12-40.119,26.782-62.907,26.784c-4.858,0-9.384-0.756-13.324-2.495l-0.834-0.368l0.759-0.505
	c3.184-2.121,6.407-4.048,9.523-5.912c5.396-3.228,10.977-6.565,16.407-10.952c12.4-10.017,27.557-23.903,34.761-42.521
	c3.361-8.688,4.893-17.33,6.374-25.687c2.503-14.128,4.868-27.473,15.42-40.265c20.378-24.702,45.824-26.243,74.552-25.682
	c16.568,0.325,29.718,5.088,37.028,13.411c5.559,6.329,7.817,14.614,6.714,24.623c-0.61,5.53-2.218,10.945-3.773,16.182
	c-0.454,1.53-0.904,3.046-1.323,4.544c-1.725,6.168-3.055,8.733-4.342,11.215c-0.465,0.897-0.91,1.763-1.369,2.775h1.229v16.967
	c16.409,1.875,32.898,9.527,49.038,22.742l-2.784-22.272l0.496-0.062l-0.4-0.3l53.156-70.875l0.4,0.3l0.4-0.3l53.156,70.875
	l-0.4,0.3l0.496,0.062l-25.643,205.142c29.446,5.178,45.988,23.054,50.227,54.441C476.144,371.87,500,313.726,500,250
	C500,111.929,388.071,0,250,0S0,111.929,0,250c0,63.741,23.868,121.898,63.137,166.056c2.288-16.609,8.028-29.577,17.151-38.675
	C98.086,359.631,125.342,359.72,143.389,359.757z"/>
</svg>
