<?xml version="1.0" encoding="utf-8"?>
<!-- Generator: Adobe Illustrator 16.0.4, SVG Export Plug-In . SVG Version: 6.00 Build 0)  -->
<!DOCTYPE svg PUBLIC "-//W3C//DTD SVG 1.1//EN" "http://www.w3.org/Graphics/SVG/1.1/DTD/svg11.dtd">
<svg version="1.1" id="Layer_1" xmlns="http://www.w3.org/2000/svg" xmlns:xlink="http://www.w3.org/1999/xlink" x="0px" y="0px"
	 width="600px" height="400px" viewBox="0 0 600 400" enable-background="new 0 0 600 400" xml:space="preserve">
<path opacity="0.5" fill="#FFFFFF" enable-background="new    " d="M133.539,353.788h251.409v4.8H133.539V353.788z"/>
<path fill="#FDE1CE" d="M155.439,203.633h251.409v94.803H155.439V203.633z"/>
<path fill="#FFFFFF" d="M154.39,237.082h252.008v27.602H154.39V237.082z M154.39,220.883h252.008v2.1H154.39V220.883z
	 M154.39,270.835h252.008v2.099H154.39V270.835z M154.39,277.584h252.008v2.1H154.39V277.584z M154.39,228.083h252.008v2.1H154.39
	V228.083z"/>
<path fill="#EFC3A6" d="M153.939,203.932h251.409v4.8H153.939V203.932z"/>
<path opacity="0.5" fill="#FFFFFF" enable-background="new    " d="M153.939,293.035h251.409v4.801H153.939V293.035z"/>
<path fill="none" stroke="#426572" stroke-width="4" stroke-miterlimit="10" d="M154.765,203.182h251.409v94.803H154.765V203.182z"
	/>
<path fill="#EFC3A6" d="M353.146,276.234l32.082,5.721c3.424,0.611,6.619-1.725,6.619-4.838v-3.283L353.146,276.234z
	 M300.046,276.234l32.083,5.721c3.424,0.611,6.618-1.725,6.618-4.838v-3.283L300.046,276.234z"/>
<path fill="#86C9EF" d="M305.314,224.559h26.662c3.076,0,5.57,2.493,5.57,5.569v41.062c0,3.076-2.494,5.569-5.57,5.569h-26.662
	c-3.076,0-5.569-2.493-5.569-5.569v-41.062C299.745,227.052,302.238,224.559,305.314,224.559z"/>
<path fill="#86C9EF" d="M358.116,224.559h26.661c3.076,0,5.57,2.493,5.57,5.569v41.062c0,3.076-2.494,5.569-5.57,5.569h-26.661
	c-3.076,0-5.569-2.493-5.569-5.569v-41.062C352.547,227.052,355.04,224.559,358.116,224.559z"/>
<path fill="none" stroke="#426572" stroke-width="10" stroke-miterlimit="10" d="M352.098,250.958h38.25"/>
<path fill="#307FC3" d="M337.546,230.411v4.649c0-2.362-1.915-5.028-4.278-5.028l-31.638-2.4c-2.363,0-1.879,2.816-1.879,5.177
	v-2.399c0-2.363,1.915-4.278,4.278-4.278l0,0h29.246C335.636,226.135,337.547,228.051,337.546,230.411z"/>
<path opacity="0.5" fill="#4DA7DF" enable-background="new    " d="M337.396,229.96v7.241l-37.181-9.464
	c0.776-1.277,2.163-2.058,3.657-2.056h29.246C335.481,225.682,337.396,227.598,337.396,229.96z"/>
<path fill="#307FC3" d="M390.049,230.411v4.649c0-2.362-1.916-5.028-4.279-5.028l-31.637-2.4c-2.363,0-1.879,2.816-1.879,5.177
	v-2.399c0-2.363,1.916-4.278,4.279-4.278l0,0h29.244C388.139,226.135,390.05,228.051,390.049,230.411z"/>
<path opacity="0.5" fill="#4DA7DF" enable-background="new    " d="M389.898,229.96v7.241l-37.182-9.462
	c0.775-1.277,2.162-2.058,3.658-2.056h29.244C387.982,225.684,389.897,227.598,389.898,229.96z"/>
<path fill="none" stroke="#426572" stroke-width="10" stroke-miterlimit="10" d="M371.748,224.107v51.902"/>
<path fill="none" stroke="#426572" stroke-width="19" stroke-miterlimit="10" d="M358.116,224.857h26.661
	c3.076,0,5.57,2.493,5.57,5.569v41.062c0,3.076-2.494,5.569-5.57,5.569h-26.661c-3.076,0-5.569-2.493-5.569-5.569v-41.062
	C352.547,227.351,355.04,224.857,358.116,224.857z"/>
<path fill="none" stroke="#426572" stroke-width="10" stroke-miterlimit="10" d="M299.296,250.958h38.25 M318.946,224.107v51.902"/>
<path fill="none" stroke="#426572" stroke-width="19" stroke-miterlimit="10" d="M305.314,224.857h26.662
	c3.076,0,5.57,2.493,5.57,5.569v41.062c0,3.076-2.494,5.569-5.57,5.569h-26.662c-3.076,0-5.569-2.493-5.569-5.569v-41.062
	C299.745,227.351,302.238,224.857,305.314,224.857z"/>
<path fill="#EFC3A6" d="M231.635,276.234l32.083,5.721c3.424,0.611,6.619-1.725,6.619-4.838v-3.283L231.635,276.234z
	 M178.54,276.234l32.083,5.721c3.423,0.611,6.619-1.725,6.619-4.838v-3.283L178.54,276.234z"/>
<path fill="#86C9EF" d="M183.811,224.559h26.662c3.076,0,5.57,2.493,5.57,5.569v41.062c0,3.076-2.494,5.569-5.57,5.569h-26.662
	c-3.076,0-5.57-2.493-5.57-5.569v-41.062C178.241,227.052,180.735,224.559,183.811,224.559z"/>
<path fill="#86C9EF" d="M236.613,224.559h26.661c3.076,0,5.57,2.493,5.57,5.569v41.062c0,3.076-2.494,5.569-5.57,5.569h-26.661
	c-3.076,0-5.57-2.493-5.57-5.569v-41.062C231.043,227.052,233.537,224.559,236.613,224.559z"/>
<path fill="none" stroke="#426572" stroke-width="10" stroke-miterlimit="10" d="M230.592,250.958h38.252"/>
<path fill="#307FC3" d="M216.042,230.411v4.649c0-2.362-1.916-5.028-4.279-5.028l-31.638-2.4c-2.363,0-1.879,2.816-1.879,5.177
	v-2.399c0-2.363,1.916-4.278,4.279-4.278l0,0h29.237c2.363,0,4.279,1.915,4.279,4.278
	C216.042,230.41,216.042,230.41,216.042,230.411z"/>
<path opacity="0.5" fill="#4DA7DF" enable-background="new    " d="M215.892,229.96v7.241l-37.182-9.462
	c0.776-1.277,2.163-2.058,3.658-2.056h29.245C213.976,225.684,215.891,227.598,215.892,229.96L215.892,229.96z"/>
<path fill="#307FC3" d="M268.545,230.411v4.649c0-2.362-1.916-5.028-4.279-5.028l-31.637-2.4c-2.363,0-1.879,2.816-1.879,5.177
	v-2.399c0-2.363,1.916-4.278,4.279-4.278l0,0h29.237c2.363,0,4.279,1.915,4.279,4.278
	C268.545,230.41,268.545,230.41,268.545,230.411z"/>
<path opacity="0.5" fill="#4DA7DF" enable-background="new    " d="M268.395,229.96v7.241l-37.18-9.464
	c0.776-1.277,2.163-2.058,3.658-2.056h29.243C266.479,225.682,268.395,227.597,268.395,229.96L268.395,229.96z"/>
<path fill="none" stroke="#426572" stroke-width="10" stroke-miterlimit="10" d="M250.244,224.107v51.902"/>
<path fill="none" stroke="#426572" stroke-width="19" stroke-miterlimit="10" d="M236.613,224.857h26.661
	c3.076,0,5.57,2.493,5.57,5.569v41.062c0,3.076-2.494,5.569-5.57,5.569h-26.661c-3.076,0-5.57-2.493-5.57-5.569v-41.062
	C231.043,227.351,233.537,224.857,236.613,224.857z"/>
<path fill="none" stroke="#426572" stroke-width="10" stroke-miterlimit="10" d="M177.79,250.958h38.252 M197.441,224.107v51.902"/>
<path fill="none" stroke="#426572" stroke-width="19" stroke-miterlimit="10" d="M183.811,224.857h26.662
	c3.076,0,5.57,2.493,5.57,5.569v41.062c0,3.076-2.494,5.569-5.57,5.569h-26.662c-3.076,0-5.57-2.493-5.57-5.569v-41.062
	C178.241,227.351,180.735,224.857,183.811,224.857z"/>
<path fill="#FDE1CE" d="M155.439,103.277h251.409v94.803H155.439V103.277z"/>
<path fill="#FFFFFF" d="M154.39,138.078h252.008v27.601H154.39V138.078z M154.39,121.879h252.008v2.099H154.39V121.879z
	 M154.39,171.831h252.008v2.099H154.39V171.831z M154.39,178.58h252.008v2.1H154.39V178.58z M154.39,129.079h252.008v2.1H154.39
	V129.079z"/>
<path fill="#EFC3A6" d="M153.939,103.578h251.409v4.8H153.939V103.578z"/>
<path opacity="0.5" fill="#FFFFFF" enable-background="new    " d="M153.939,192.681h251.409v4.8H153.939V192.681z"/>
<path fill="none" stroke="#426572" stroke-width="4" stroke-miterlimit="10" d="M154.765,102.828h251.409v94.803H154.765V102.828z"
	/>
<path fill="#EFC3A6" d="M353.146,175.881l32.082,5.72c3.424,0.611,6.619-1.725,6.619-4.837v-3.283L353.146,175.881z
	 M300.046,175.881l32.083,5.72c3.424,0.611,6.618-1.725,6.618-4.837v-3.283L300.046,175.881z"/>
<path fill="#86C9EF" d="M305.314,124.205h26.662c3.076,0,5.57,2.494,5.57,5.57v41.062c0,3.076-2.494,5.57-5.57,5.57h-26.662
	c-3.076,0-5.569-2.494-5.569-5.57v-41.062C299.745,126.698,302.238,124.205,305.314,124.205z"/>
<path fill="#86C9EF" d="M358.116,124.205h26.661c3.076,0,5.57,2.494,5.57,5.57v41.062c0,3.076-2.494,5.57-5.57,5.57h-26.661
	c-3.076,0-5.569-2.494-5.569-5.57v-41.062C352.547,126.698,355.04,124.205,358.116,124.205z"/>
<path fill="none" stroke="#426572" stroke-width="10" stroke-miterlimit="10" d="M352.098,150.604h38.25"/>
<path fill="#307FC3" d="M337.546,130.065v4.65c0-2.363-1.915-5.029-4.278-5.029l-31.638-2.4c-2.363,0-1.879,2.816-1.879,5.177
	v-2.398c0-2.363,1.915-4.279,4.278-4.279l0,0h29.246C335.635,125.791,337.546,127.705,337.546,130.065z"/>
<path opacity="0.5" fill="#4DA7DF" enable-background="new    " d="M337.396,129.606v7.242l-37.181-9.464
	c0.776-1.277,2.163-2.057,3.657-2.056h29.246C335.481,125.329,337.396,127.244,337.396,129.606L337.396,129.606z"/>
<path fill="#307FC3" d="M390.049,130.065v4.65c0-2.363-1.916-5.029-4.279-5.029l-31.637-2.4c-2.363,0-1.879,2.816-1.879,5.177
	v-2.398c0-2.363,1.916-4.279,4.279-4.279l0,0h29.244C388.138,125.791,390.049,127.705,390.049,130.065z"/>
<path opacity="0.5" fill="#4DA7DF" enable-background="new    " d="M389.898,129.606v7.242l-37.182-9.462
	c0.775-1.277,2.162-2.057,3.658-2.056h29.244C387.982,125.33,389.897,127.244,389.898,129.606z"/>
<path fill="none" stroke="#426572" stroke-width="10" stroke-miterlimit="10" d="M371.748,123.753v51.903"/>
<path fill="none" stroke="#426572" stroke-width="19" stroke-miterlimit="10" d="M358.116,124.503h26.661
	c3.076,0,5.57,2.494,5.57,5.57v41.062c0,3.076-2.494,5.57-5.57,5.57h-26.661c-3.076,0-5.569-2.494-5.569-5.57v-41.062
	C352.547,126.997,355.04,124.503,358.116,124.503z"/>
<path fill="none" stroke="#426572" stroke-width="10" stroke-miterlimit="10" d="M299.296,150.604h38.25 M318.946,123.753v51.903"/>
<path fill="none" stroke="#426572" stroke-width="19" stroke-miterlimit="10" d="M305.314,124.503h26.662
	c3.076,0,5.57,2.494,5.57,5.57v41.062c0,3.076-2.494,5.57-5.57,5.57h-26.662c-3.076,0-5.569-2.494-5.569-5.57v-41.062
	C299.745,126.997,302.238,124.503,305.314,124.503z"/>
<path fill="#EFC3A6" d="M231.635,175.881l32.083,5.72c3.424,0.611,6.619-1.725,6.619-4.837v-3.283L231.635,175.881z M178.54,175.881
	l32.083,5.72c3.423,0.611,6.619-1.725,6.619-4.837v-3.283L178.54,175.881z"/>
<path fill="#86C9EF" d="M183.811,124.205h26.662c3.076,0,5.57,2.494,5.57,5.57v41.062c0,3.076-2.494,5.57-5.57,5.57h-26.662
	c-3.076,0-5.57-2.494-5.57-5.57v-41.062C178.241,126.698,180.735,124.205,183.811,124.205z"/>
<path fill="#86C9EF" d="M236.613,124.205h26.661c3.076,0,5.57,2.494,5.57,5.57v41.062c0,3.076-2.494,5.57-5.57,5.57h-26.661
	c-3.076,0-5.57-2.494-5.57-5.57v-41.062C231.043,126.698,233.537,124.205,236.613,124.205z"/>
<path fill="none" stroke="#426572" stroke-width="10" stroke-miterlimit="10" d="M230.592,150.604h38.252"/>
<path fill="#307FC3" d="M216.042,130.065v4.65c0-2.363-1.916-5.029-4.279-5.029l-31.638-2.4c-2.363,0-1.879,2.816-1.879,5.177
	v-2.398c0-2.363,1.916-4.279,4.279-4.279h29.237C214.126,125.787,216.042,127.702,216.042,130.065z"/>
<path opacity="0.5" fill="#4DA7DF" enable-background="new    " d="M215.892,129.606v7.242l-37.182-9.462
	c0.776-1.277,2.163-2.057,3.658-2.056h29.245C213.976,125.33,215.891,127.244,215.892,129.606L215.892,129.606z"/>
<path fill="#307FC3" d="M268.545,130.065v4.65c0-2.363-1.916-5.029-4.279-5.029l-31.655-2.408c-2.363,0-1.879,2.816-1.879,5.178
	v-2.391c0-2.363,1.916-4.279,4.279-4.279h29.255C266.629,125.787,268.545,127.702,268.545,130.065L268.545,130.065z"/>
<path opacity="0.5" fill="#4DA7DF" enable-background="new    " d="M268.395,129.606v7.242l-37.182-9.462
	c0.776-1.277,2.163-2.057,3.658-2.056h29.245C266.478,125.33,268.394,127.244,268.395,129.606z"/>
<path fill="none" stroke="#426572" stroke-width="10" stroke-miterlimit="10" d="M250.244,123.753v51.903"/>
<path fill="none" stroke="#426572" stroke-width="19" stroke-miterlimit="10" d="M236.613,124.503h26.661
	c3.076,0,5.57,2.494,5.57,5.57v41.062c0,3.076-2.494,5.57-5.57,5.57h-26.661c-3.076,0-5.57-2.494-5.57-5.57v-41.062
	C231.043,126.997,233.537,124.503,236.613,124.503z"/>
<path fill="none" stroke="#426572" stroke-width="10" stroke-miterlimit="10" d="M177.79,150.604h38.252 M197.441,123.753v51.903"/>
<path fill="none" stroke="#426572" stroke-width="19" stroke-miterlimit="10" d="M183.811,124.503h26.662
	c3.076,0,5.57,2.494,5.57,5.57v41.062c0,3.076-2.494,5.57-5.57,5.57h-26.662c-3.076,0-5.57-2.494-5.57-5.57v-41.062
	C178.241,126.997,180.735,124.503,183.811,124.503z"/>
<path fill="#DEE6F1" d="M185.139,72.827h23.113v21.355h-23.113V72.827z"/>
<path fill="#FFFFFF" d="M209.072,94.264v0.164h-23.115V73.073h1.521v21.191H209.072z"/>
<path fill="#A7BCD5" d="M207.317,73.401V91.56h-2.049V73.401H207.317z"/>
<path fill="none" stroke="#426572" stroke-width="4" stroke-miterlimit="10" d="M184.788,72.827H207.9v21.355h-23.113V72.827z"/>
<path fill="#E8837E" d="M141.003,89.177h278.693v13.95H141.003V89.177z"/>
<path fill="#D87673" d="M141.483,88.728h278.693v4.351H141.483V88.728z"/>
<path fill="none" stroke="#426572" stroke-width="4" stroke-miterlimit="10" d="M140.61,88.802h278.693v13.95H140.61V88.802z"/>
<path fill="none" stroke="#426572" stroke-width="2" stroke-miterlimit="10" d="M140.687,96.678h279.01 M154.636,96.377v6.45
	 M159.888,96.377v6.45 M165.137,96.377v6.45 M170.387,96.377v6.45 M175.638,96.377v6.45 M179.501,96.377v6.45 M184.75,96.377v6.45
	 M190,96.377v6.45 M195.251,96.377v6.45 M200.501,96.377v6.45 M204.364,96.377v6.45 M209.613,96.377v6.45 M214.865,96.377v6.45
	 M220.114,96.377v6.45 M225.364,96.377v6.45 M229.227,96.377v6.45 M234.478,96.377v6.45 M239.728,96.377v6.45 M244.977,96.377v6.45
	 M250.229,96.377v6.45 M254.091,96.377v6.45 M259.341,96.377v6.45 M264.59,96.377v6.45 M269.842,96.377v6.45 M275.091,96.377v6.45
	 M280.192,96.377v6.45 M285.442,96.377v6.45 M290.691,96.377v6.45 M295.943,96.377v6.45 M301.192,96.377v6.45 M305.055,96.377v6.45
	 M310.305,96.377v6.45 M315.557,96.377v6.45 M320.806,96.377v6.45 M326.055,96.377v6.45 M329.918,96.377v6.45 M335.17,96.377v6.45
	 M340.419,96.377v6.45 M345.668,96.377v6.45 M350.92,96.377v6.45 M354.783,96.377v6.45 M360.032,96.377v6.45 M365.281,96.377v6.45
	 M370.533,96.377v6.45 M375.783,96.377v6.45 M379.646,96.377v6.45 M384.895,96.377v6.45 M390.146,96.377v6.45 M395.396,96.377v6.45
	 M400.646,96.377v6.45"/>
<path fill="#FDE1CE" d="M155.439,303.986h251.409v94.803H155.439V303.986z"/>
<path fill="#FFFFFF" d="M154.39,337.438h252.008v27.601H154.39V337.438z M154.39,321.236h252.008v2.1H154.39V321.236z
	 M154.39,371.188h252.008v2.1H154.39V371.188z M154.39,377.938h252.008v2.1H154.39V377.938z M154.39,328.437h252.008v2.1H154.39
	V328.437z"/>
<path fill="#EFC3A6" d="M153.939,305.486h251.409v4.8H153.939V305.486z"/>
<path fill="#86C9EF" d="M179.97,397.59v-73.203h49.804v73.203"/>
<path fill="#65AEE2" d="M213.529,323.787L187.6,396.988h-4.345l25.927-73.201H213.529z M223.872,323.787l-25.927,73.201h-7.794
	l25.927-73.201H223.872z"/>
<path fill="none" stroke="#426572" stroke-width="4" stroke-miterlimit="10" d="M179.97,397.889v-73.201h49.804v73.201"/>
<path fill="none" stroke="#426572" stroke-width="4" stroke-miterlimit="10" d="M154.765,303.535h251.409v94.803H154.765V303.535z"
	/>
<path fill="#DEE6F1" d="M147.407,295.223h265.201c2.562,0,4.64,2.078,4.64,4.641v1.973c0,2.562-2.077,4.64-4.64,4.64H147.407
	c-2.563,0-4.641-2.077-4.641-4.64v-1.973C142.766,297.301,144.844,295.223,147.407,295.223z"/>
<path fill="#A7BCD5" d="M146.305,296.064h268.636c1.617,0,2.929,1.312,2.929,2.93l0,0v0.621H143.383v-0.621
	C143.383,297.379,144.69,296.069,146.305,296.064z"/>
<path fill="none" stroke="#426572" stroke-width="4" stroke-miterlimit="10" d="M148.182,295.432h265.201
	c2.562,0,4.64,2.078,4.64,4.641v1.973c0,2.562-2.077,4.64-4.64,4.64H148.182c-2.562,0-4.64-2.077-4.64-4.64v-1.973
	C143.542,297.51,145.619,295.432,148.182,295.432z"/>
<path fill="#DEE6F1" d="M147.407,194.42h265.201c2.562,0,4.64,2.078,4.64,4.64v1.973c0,2.562-2.077,4.641-4.64,4.641H147.407
	c-2.563,0-4.641-2.078-4.641-4.641v-1.973C142.766,196.498,144.844,194.42,147.407,194.42z"/>
<path fill="#A7BCD5" d="M146.305,195.254h268.636c1.617,0,2.929,1.312,2.929,2.929v0.621H143.383v-0.621
	C143.383,196.569,144.69,195.259,146.305,195.254z"/>
<path fill="none" stroke="#426572" stroke-width="4" stroke-miterlimit="10" d="M148.182,194.627h265.201
	c2.562,0,4.64,2.078,4.64,4.64v1.973c0,2.562-2.077,4.641-4.64,4.641H148.182c-2.562,0-4.64-2.078-4.64-4.641v-1.973
	C143.542,196.705,145.619,194.627,148.182,194.627z"/>
<path fill="none" stroke="#426572" stroke-width="4" stroke-miterlimit="10" d="M181.47,332.187h47.702 M181.171,338.486h47.702
	 M194.22,324.236v14.85 M216.421,324.236v14.85"/>
<path fill="none" stroke="#426572" stroke-width="4" stroke-miterlimit="10" d="M205.022,338.787v59.402"/>
<path fill="#86C9EF" d="M255.486,317.938h57.807v62.104h-57.807V317.938z"/>
<path fill="#65AEE2" d="M289.605,316.766l-13.454,62.104h-11.19l13.454-62.104H289.605z M296.238,316.766l-13.456,62.104h-3.642
	l13.454-62.104H296.238z"/>
<path fill="none" stroke="#426572" stroke-width="4" stroke-miterlimit="10" d="M271.01,316.193v63.729 M285.461,316.193v63.729
	 M299.913,316.193v63.729 M315.246,333.606h-59.567 M315.246,348.058h-59.567 M315.246,362.51h-59.567"/>
<path fill="none" stroke="#426572" stroke-width="4" stroke-miterlimit="10" d="M256.558,317.006h57.807v62.104h-57.807V317.006z"/>
<path fill="#86C9EF" d="M328.004,317.938h57.807v62.104h-57.807V317.938z"/>
<path fill="#65AEE2" d="M362.124,316.766l-13.454,62.104H337.48l13.453-62.104H362.124z M368.756,316.766l-13.455,62.104h-3.643
	l13.453-62.104H368.756z"/>
<path fill="none" stroke="#426572" stroke-width="4" stroke-miterlimit="10" d="M343.529,316.193v63.729 M357.981,316.193v63.729
	 M372.434,316.193v63.729 M387.764,333.606h-59.566 M387.764,348.058h-59.566 M387.764,362.51h-59.566"/>
<path fill="none" stroke="#426572" stroke-width="4" stroke-miterlimit="10" d="M329.078,317.006h57.807v62.104h-57.807V317.006z"/>
</svg>
