<svg xmlns="http://www.w3.org/2000/svg" xmlns:xlink="http://www.w3.org/1999/xlink" viewBox="0 0 2657.86 2106.86"><defs><style>.cls-1{fill:#fff;}.cls-12,.cls-13,.cls-16,.cls-17,.cls-2,.cls-7{fill:none;stroke-miterlimit:10;}.cls-2{stroke:#e7f6ff;}.cls-13,.cls-2{stroke-width:12px;}.cls-3{fill:#e7f6ff;}.cls-4{fill:url(#linear-gradient);}.cls-5{fill:#edf1f9;}.cls-19,.cls-6{opacity:0.5;}.cls-12,.cls-13,.cls-16,.cls-17,.cls-7{stroke:#426572;}.cls-7{stroke-width:17px;}.cls-8{fill:#a7bcd5;}.cls-9{fill:#dee6f1;}.cls-10{fill:#7dcac1;}.cls-11{fill:#48a99d;}.cls-12{stroke-width:8px;}.cls-14{fill:#86c9ef;}.cls-15{fill:#65aee2;}.cls-16{stroke-width:10px;}.cls-17{stroke-width:19px;}.cls-18{fill:#f6bb89;}.cls-19{fill:#ce7c55;}.cls-20{fill:#426572;}</style><linearGradient id="linear-gradient" y1="868.86" x2="2553.89" y2="868.86" gradientUnits="userSpaceOnUse"><stop offset="0" stop-color="#c5e9fa"/><stop offset="1" stop-color="#c4f4ea"/></linearGradient></defs><title>Asset 670</title><g id="Layer_2" data-name="Layer 2"><g id="Layer_1-2" data-name="Layer 1"><circle class="cls-1" cx="2655.5" cy="2077.92" r="2.23" transform="matrix(1, -0.01, 0.01, 1, -19.77, 25.51)"/><circle class="cls-1" cx="2655.57" cy="2084.61" r="2.23" transform="translate(-19.83 25.51) rotate(-0.55)"/><circle class="cls-1" cx="2655.63" cy="2091.29" r="2.23" transform="translate(-19.89 25.51) rotate(-0.55)"/><circle class="cls-1" cx="2649.24" cy="2070.1" r="2.23" transform="translate(-19.69 25.45) rotate(-0.55)"/><circle class="cls-1" cx="2649.31" cy="2076.78" r="2.23" transform="translate(-19.76 25.45) rotate(-0.55)"/><circle class="cls-1" cx="2649.37" cy="2083.47" r="2.23" transform="translate(-19.82 25.45) rotate(-0.55)"/><circle class="cls-2" cx="97.2" cy="1548.13" r="40.93" transform="translate(-66.58 5.62) rotate(-2.47)"/><circle class="cls-3" cx="58.23" cy="1667.45" r="23.09" transform="translate(-71.76 4.05) rotate(-2.47)"/><path class="cls-4" d="M2479.67,1028.36c-92.61,239.81-266.74,449.89-508.61,542.22a878.55,878.55,0,0,1-96.2,30.46c-172.56,44-361.33,28.71-520.34-51.47-67.51-34-129.07-79-196.83-112.6s-145.2-55.53-219-39c-63.5,14.27-117.07,55.13-171,91.55-127.16,85.85-280,153.8-430.61,124.31-69.19-13.55-137.52-51.1-169.69-113.83-71.13-138.7,63-303.54,35.85-457C185.88,944.83,106.47,871.3,57.12,784.67c-84.44-148.21-74.44-345.08,24.58-484s281.87-212.52,449.51-181C735.6,158.1,890.16,331.09,1088.91,392.31c124.22,38.26,259.27,26.84,378-23.54,191.82-81.4,455.34-206.26,671.2-185.92,114.79,10.81,227.37,61.77,303.13,148.69,95.72,109.82,124.48,265.72,108.51,410.53A1148,1148,0,0,1,2479.67,1028.36Z"/><circle class="cls-2" cx="563.2" cy="46.93" r="40.93"/><circle class="cls-3" cx="680.74" cy="91" r="23.09"/><circle class="cls-2" cx="2541.19" cy="1164.86" r="40.93" transform="translate(810.26 3359.95) rotate(-76.37)"/><circle class="cls-3" cx="2470.66" cy="1268.69" r="23.09" transform="translate(655.44 3370.76) rotate(-76.37)"/><circle class="cls-2" cx="109.8" cy="1159.84" r="40.93" transform="translate(-49.85 5.8) rotate(-2.47)"/><circle class="cls-3" cx="70.82" cy="1279.17" r="23.09" transform="translate(-55.02 4.24) rotate(-2.47)"/><circle class="cls-2" cx="1442.16" cy="300.32" r="40.93" transform="translate(88.93 882.38) rotate(-35.04)"/><circle class="cls-3" cx="1320.62" cy="331.71" r="23.09" transform="translate(48.88 818.29) rotate(-35.04)"/><path class="cls-1" d="M2451.64,678.07a97.81,97.81,0,0,0-97.81-97.81c-2.16,0-4.31.08-6.44.22.14-2.13.22-4.28.22-6.44a97.81,97.81,0,1,0-192.42,24.86,97.81,97.81,0,1,0-76.95,175,97.82,97.82,0,0,0,162.42,32.88,97.83,97.83,0,0,0,147.85-37.27A97.84,97.84,0,0,0,2451.64,678.07Z"/><path class="cls-1" d="M707.09,1279.47a97.81,97.81,0,0,0-97.81-97.81c-2.16,0-4.31.08-6.44.22.14-2.13.22-4.28.22-6.44a97.81,97.81,0,1,0-192.42,24.86,97.81,97.81,0,1,0-76.95,175,97.82,97.82,0,0,0,162.42,32.88A97.83,97.83,0,0,0,644,1370.94,97.84,97.84,0,0,0,707.09,1279.47Z"/><rect class="cls-5" x="564.84" y="1197.48" width="1287.34" height="906.31"/><rect class="cls-5" x="564.84" y="166.63" width="1287.34" height="485.44"/><rect class="cls-5" x="564.84" y="680.49" width="1287.34" height="485.44"/><rect class="cls-1" x="499.6" y="361.13" width="508" height="141.33" transform="translate(1185.39 -321.81) rotate(90)"/><rect class="cls-1" x="647.85" y="426.41" width="508" height="10.75" transform="translate(1333.64 -470.06) rotate(90)"/><rect class="cls-1" x="392.07" y="426.41" width="508" height="10.75" transform="translate(1077.86 -214.28) rotate(90)"/><rect class="cls-1" x="357.5" y="426.41" width="508" height="10.75" transform="translate(1043.29 -179.71) rotate(90)"/><rect class="cls-1" x="610.98" y="426.41" width="508" height="10.75" transform="translate(1296.77 -433.19) rotate(90)"/><rect class="cls-1" x="940.6" y="361.13" width="508" height="141.33" transform="translate(1626.39 -762.81) rotate(90)"/><rect class="cls-1" x="1088.85" y="426.41" width="508" height="10.75" transform="translate(1774.64 -911.06) rotate(90)"/><rect class="cls-1" x="833.07" y="426.41" width="508" height="10.75" transform="translate(1518.86 -655.28) rotate(90)"/><rect class="cls-1" x="798.5" y="426.41" width="508" height="10.75" transform="translate(1484.29 -620.71) rotate(90)"/><rect class="cls-1" x="1051.98" y="426.41" width="508" height="10.75" transform="translate(1737.77 -874.19) rotate(90)"/><rect class="cls-1" x="1381.6" y="361.13" width="508" height="141.33" transform="translate(2067.39 -1203.81) rotate(90)"/><rect class="cls-1" x="1529.85" y="426.41" width="508" height="10.75" transform="translate(2215.64 -1352.06) rotate(90)"/><rect class="cls-1" x="1274.07" y="426.41" width="508" height="10.75" transform="translate(1959.86 -1096.28) rotate(90)"/><rect class="cls-1" x="1239.5" y="426.41" width="508" height="10.75" transform="translate(1925.29 -1061.71) rotate(90)"/><rect class="cls-1" x="1492.98" y="426.41" width="508" height="10.75" transform="translate(2178.77 -1315.19) rotate(90)"/><rect class="cls-1" x="499.6" y="849.13" width="508" height="141.33" transform="translate(1673.39 166.19) rotate(90)"/><rect class="cls-1" x="647.85" y="914.41" width="508" height="10.75" transform="translate(1821.64 17.94) rotate(90)"/><rect class="cls-1" x="392.07" y="914.41" width="508" height="10.75" transform="translate(1565.86 273.72) rotate(90)"/><rect class="cls-1" x="357.5" y="914.41" width="508" height="10.75" transform="translate(1531.29 308.29) rotate(90)"/><rect class="cls-1" x="610.98" y="914.41" width="508" height="10.75" transform="translate(1784.77 54.81) rotate(90)"/><rect class="cls-1" x="940.6" y="849.13" width="508" height="141.33" transform="translate(2114.39 -274.81) rotate(90)"/><rect class="cls-1" x="1088.85" y="914.41" width="508" height="10.75" transform="translate(2262.64 -423.06) rotate(90)"/><rect class="cls-1" x="833.07" y="914.41" width="508" height="10.75" transform="translate(2006.86 -167.28) rotate(90)"/><rect class="cls-1" x="798.5" y="914.41" width="508" height="10.75" transform="translate(1972.29 -132.71) rotate(90)"/><rect class="cls-1" x="1051.98" y="914.41" width="508" height="10.75" transform="translate(2225.77 -386.19) rotate(90)"/><rect class="cls-1" x="1381.6" y="849.13" width="508" height="141.33" transform="translate(2555.39 -715.81) rotate(90)"/><rect class="cls-1" x="1529.85" y="914.41" width="508" height="10.75" transform="translate(2703.64 -864.06) rotate(90)"/><rect class="cls-1" x="1274.07" y="914.41" width="508" height="10.75" transform="translate(2447.86 -608.28) rotate(90)"/><rect class="cls-1" x="1239.5" y="914.41" width="508" height="10.75" transform="translate(2413.29 -573.71) rotate(90)"/><rect class="cls-1" x="1492.98" y="914.41" width="508" height="10.75" transform="translate(2666.77 -827.19) rotate(90)"/><rect class="cls-1" x="315.15" y="1578.81" width="876.91" height="141.33" transform="translate(2403.08 895.87) rotate(90)"/><rect class="cls-1" x="463.39" y="1644.1" width="876.91" height="10.75" transform="translate(2551.32 747.63) rotate(90)"/><rect class="cls-1" x="207.61" y="1644.1" width="876.91" height="10.75" transform="translate(2295.54 1003.41) rotate(90)"/><rect class="cls-1" x="173.05" y="1644.1" width="876.91" height="10.75" transform="translate(2260.98 1037.97) rotate(90)"/><rect class="cls-1" x="426.52" y="1644.1" width="876.91" height="10.75" transform="translate(2514.45 784.5) rotate(90)"/><rect class="cls-1" x="756.15" y="1578.81" width="876.91" height="141.33" transform="translate(2844.08 454.87) rotate(90)"/><rect class="cls-1" x="904.39" y="1644.1" width="876.91" height="10.75" transform="translate(2992.32 306.63) rotate(90)"/><rect class="cls-1" x="648.61" y="1644.1" width="876.91" height="10.75" transform="translate(2736.54 562.41) rotate(90)"/><rect class="cls-1" x="614.05" y="1644.1" width="876.91" height="10.75" transform="translate(2701.98 596.97) rotate(90)"/><rect class="cls-1" x="867.52" y="1644.1" width="876.91" height="10.75" transform="translate(2955.45 343.5) rotate(90)"/><rect class="cls-1" x="1197.15" y="1578.81" width="876.91" height="141.33" transform="translate(3285.08 13.87) rotate(90)"/><rect class="cls-1" x="1345.39" y="1644.1" width="876.91" height="10.75" transform="translate(3433.32 -134.37) rotate(90)"/><rect class="cls-1" x="1089.61" y="1644.1" width="876.91" height="10.75" transform="translate(3177.54 121.41) rotate(90)"/><rect class="cls-1" x="1055.05" y="1644.1" width="876.91" height="10.75" transform="translate(3142.98 155.97) rotate(90)"/><rect class="cls-1" x="1308.52" y="1644.1" width="876.91" height="10.75" transform="translate(3396.45 -97.5) rotate(90)"/><g class="cls-6"><rect class="cls-1" x="557.16" y="1138.28" width="1287.34" height="24.58"/></g><rect class="cls-7" x="561.39" y="678.18" width="1287.34" height="485.44"/><g class="cls-6"><rect class="cls-8" x="557.16" y="168.16" width="1287.34" height="24.58"/></g><g class="cls-6"><rect class="cls-8" x="557.16" y="690.16" width="1287.34" height="24.58"/></g><g class="cls-6"><rect class="cls-8" x="557.16" y="1215.16" width="1287.34" height="24.58"/></g><g class="cls-6"><rect class="cls-1" x="557.16" y="624.42" width="1287.34" height="24.58"/></g><rect class="cls-7" x="561.39" y="164.32" width="1287.34" height="485.44"/><rect class="cls-9" x="716.92" y="10.7" width="118.35" height="109.35"/><polygon class="cls-1" points="839.47 120.47 839.47 121.31 741.13 121.31 741.13 11.96 747.6 11.96 747.6 120.47 839.47 120.47"/><rect class="cls-8" x="767.81" y="43.95" width="92.98" height="32.35" transform="translate(874.43 -754.18) rotate(90)"/><rect class="cls-7" x="715.12" y="10.7" width="118.35" height="109.35"/><rect class="cls-10" x="490.92" y="94.42" width="1427.05" height="71.43"/><rect class="cls-11" x="493.38" y="92.12" width="1427.05" height="22.28"/><rect class="cls-7" x="488.91" y="92.5" width="1427.05" height="71.43"/><line class="cls-12" x1="489.3" y1="132.83" x2="1917.97" y2="132.83"/><line class="cls-12" x1="560.73" y1="131.29" x2="560.73" y2="164.32"/><line class="cls-12" x1="587.62" y1="131.29" x2="587.62" y2="164.32"/><line class="cls-12" x1="614.5" y1="131.29" x2="614.5" y2="164.32"/><line class="cls-12" x1="641.38" y1="131.29" x2="641.38" y2="164.32"/><line class="cls-12" x1="668.27" y1="131.29" x2="668.27" y2="164.32"/><line class="cls-12" x1="688.05" y1="131.29" x2="688.05" y2="164.32"/><line class="cls-12" x1="714.93" y1="131.29" x2="714.93" y2="164.32"/><line class="cls-12" x1="741.81" y1="131.29" x2="741.81" y2="164.32"/><line class="cls-12" x1="768.7" y1="131.29" x2="768.7" y2="164.32"/><line class="cls-12" x1="795.58" y1="131.29" x2="795.58" y2="164.32"/><line class="cls-12" x1="815.36" y1="131.29" x2="815.36" y2="164.32"/><line class="cls-12" x1="842.24" y1="131.29" x2="842.24" y2="164.32"/><line class="cls-12" x1="869.13" y1="131.29" x2="869.13" y2="164.32"/><line class="cls-12" x1="896.01" y1="131.29" x2="896.01" y2="164.32"/><line class="cls-12" x1="922.89" y1="131.29" x2="922.89" y2="164.32"/><line class="cls-12" x1="942.67" y1="131.29" x2="942.67" y2="164.32"/><line class="cls-12" x1="969.56" y1="131.29" x2="969.56" y2="164.32"/><line class="cls-12" x1="996.44" y1="131.29" x2="996.44" y2="164.32"/><line class="cls-12" x1="1023.32" y1="131.29" x2="1023.32" y2="164.32"/><line class="cls-12" x1="1050.21" y1="131.29" x2="1050.21" y2="164.32"/><line class="cls-12" x1="1069.99" y1="131.29" x2="1069.99" y2="164.32"/><line class="cls-12" x1="1096.87" y1="131.29" x2="1096.87" y2="164.32"/><line class="cls-12" x1="1123.75" y1="131.29" x2="1123.75" y2="164.32"/><line class="cls-12" x1="1150.64" y1="131.29" x2="1150.64" y2="164.32"/><line class="cls-12" x1="1177.52" y1="131.29" x2="1177.52" y2="164.32"/><line class="cls-12" x1="1203.64" y1="131.29" x2="1203.64" y2="164.32"/><line class="cls-12" x1="1230.52" y1="131.29" x2="1230.52" y2="164.32"/><line class="cls-12" x1="1257.4" y1="131.29" x2="1257.4" y2="164.32"/><line class="cls-12" x1="1284.29" y1="131.29" x2="1284.29" y2="164.32"/><line class="cls-12" x1="1311.17" y1="131.29" x2="1311.17" y2="164.32"/><line class="cls-12" x1="1330.95" y1="131.29" x2="1330.95" y2="164.32"/><line class="cls-12" x1="1357.83" y1="131.29" x2="1357.83" y2="164.32"/><line class="cls-12" x1="1384.72" y1="131.29" x2="1384.72" y2="164.32"/><line class="cls-12" x1="1411.6" y1="131.29" x2="1411.6" y2="164.32"/><line class="cls-12" x1="1438.48" y1="131.29" x2="1438.48" y2="164.32"/><line class="cls-12" x1="1458.26" y1="131.29" x2="1458.26" y2="164.32"/><line class="cls-12" x1="1485.15" y1="131.29" x2="1485.15" y2="164.32"/><line class="cls-12" x1="1512.03" y1="131.29" x2="1512.03" y2="164.32"/><line class="cls-12" x1="1538.91" y1="131.29" x2="1538.91" y2="164.32"/><line class="cls-12" x1="1565.8" y1="131.29" x2="1565.8" y2="164.32"/><line class="cls-12" x1="1585.58" y1="131.29" x2="1585.58" y2="164.32"/><line class="cls-12" x1="1612.46" y1="131.29" x2="1612.46" y2="164.32"/><line class="cls-12" x1="1639.34" y1="131.29" x2="1639.34" y2="164.32"/><line class="cls-12" x1="1666.23" y1="131.29" x2="1666.23" y2="164.32"/><line class="cls-12" x1="1693.11" y1="131.29" x2="1693.11" y2="164.32"/><line class="cls-12" x1="1712.89" y1="131.29" x2="1712.89" y2="164.32"/><line class="cls-12" x1="1739.77" y1="131.29" x2="1739.77" y2="164.32"/><line class="cls-12" x1="1766.66" y1="131.29" x2="1766.66" y2="164.32"/><line class="cls-12" x1="1793.54" y1="131.29" x2="1793.54" y2="164.32"/><line class="cls-12" x1="1820.42" y1="131.29" x2="1820.42" y2="164.32"/><rect class="cls-7" x="561.39" y="1192.04" width="1287.34" height="906.31"/><rect class="cls-9" x="499.95" y="1149.48" width="1405.48" height="57.62" rx="23.76" ry="23.76"/><path class="cls-8" d="M518.07,1153.75H1893.62a15,15,0,0,1,15,15v3.18a0,0,0,0,1,0,0H503.11a0,0,0,0,1,0,0v-3.18A15,15,0,0,1,518.07,1153.75Z"/><rect class="cls-13" x="503.92" y="1150.55" width="1405.48" height="57.62" rx="23.76" ry="23.76"/><rect class="cls-9" x="499.95" y="633.32" width="1405.48" height="57.62" rx="23.76" ry="23.76"/><path class="cls-8" d="M518.07,637.59H1893.62a15,15,0,0,1,15,15v3.18a0,0,0,0,1,0,0H503.11a0,0,0,0,1,0,0v-3.18a15,15,0,0,1,15-15Z"/><rect class="cls-13" x="503.92" y="634.39" width="1405.48" height="57.62" rx="23.76" ry="23.76"/><rect class="cls-14" x="512.13" y="249.79" width="296" height="318"/><polygon class="cls-15" points="686.84 243.79 617.95 561.79 560.65 561.79 629.54 243.79 686.84 243.79"/><polygon class="cls-15" points="720.8 243.79 651.9 561.79 633.25 561.79 702.14 243.79 720.8 243.79"/><line class="cls-16" x1="591.62" y1="240.86" x2="591.62" y2="567.18"/><line class="cls-16" x1="665.62" y1="240.86" x2="665.62" y2="567.18"/><line class="cls-16" x1="739.62" y1="240.86" x2="739.62" y2="567.18"/><line class="cls-16" x1="818.13" y1="330.02" x2="513.12" y2="330.02"/><line class="cls-16" x1="818.13" y1="404.02" x2="513.12" y2="404.02"/><line class="cls-16" x1="818.13" y1="478.02" x2="513.12" y2="478.02"/><rect class="cls-17" x="517.62" y="245.02" width="296" height="318"/><rect class="cls-14" x="883.46" y="249.79" width="296" height="318"/><polygon class="cls-15" points="1058.17 243.79 989.28 561.79 931.98 561.79 1000.87 243.79 1058.17 243.79"/><polygon class="cls-15" points="1092.13 243.79 1023.23 561.79 1004.58 561.79 1073.47 243.79 1092.13 243.79"/><line class="cls-16" x1="962.96" y1="240.86" x2="962.96" y2="567.18"/><line class="cls-16" x1="1036.96" y1="240.86" x2="1036.96" y2="567.18"/><line class="cls-16" x1="1110.96" y1="240.86" x2="1110.96" y2="567.18"/><line class="cls-16" x1="1189.46" y1="330.02" x2="884.45" y2="330.02"/><line class="cls-16" x1="1189.46" y1="404.02" x2="884.45" y2="404.02"/><line class="cls-16" x1="1189.46" y1="478.02" x2="884.45" y2="478.02"/><rect class="cls-17" x="888.96" y="245.02" width="296" height="318"/><rect class="cls-14" x="1254.8" y="249.79" width="296" height="318"/><polygon class="cls-15" points="1429.51 243.79 1360.62 561.79 1303.32 561.79 1372.21 243.79 1429.51 243.79"/><polygon class="cls-15" points="1463.47 243.79 1394.57 561.79 1375.92 561.79 1444.81 243.79 1463.47 243.79"/><line class="cls-16" x1="1334.29" y1="240.86" x2="1334.29" y2="567.18"/><line class="cls-16" x1="1408.29" y1="240.86" x2="1408.29" y2="567.18"/><line class="cls-16" x1="1482.29" y1="240.86" x2="1482.29" y2="567.18"/><line class="cls-16" x1="1560.8" y1="330.02" x2="1255.78" y2="330.02"/><line class="cls-16" x1="1560.8" y1="404.02" x2="1255.78" y2="404.02"/><line class="cls-16" x1="1560.8" y1="478.02" x2="1255.78" y2="478.02"/><rect class="cls-17" x="1260.29" y="245.02" width="296" height="318"/><rect class="cls-14" x="1626.13" y="249.79" width="296" height="318"/><polygon class="cls-15" points="1800.84 243.79 1731.95 561.79 1674.65 561.79 1743.54 243.79 1800.84 243.79"/><polygon class="cls-15" points="1834.8 243.79 1765.9 561.79 1747.25 561.79 1816.14 243.79 1834.8 243.79"/><line class="cls-16" x1="1705.62" y1="240.86" x2="1705.62" y2="567.18"/><line class="cls-16" x1="1779.62" y1="240.86" x2="1779.62" y2="567.18"/><line class="cls-16" x1="1853.62" y1="240.86" x2="1853.62" y2="567.18"/><line class="cls-16" x1="1932.13" y1="330.02" x2="1627.12" y2="330.02"/><line class="cls-16" x1="1932.13" y1="404.02" x2="1627.12" y2="404.02"/><line class="cls-16" x1="1932.13" y1="478.02" x2="1627.12" y2="478.02"/><rect class="cls-17" x="1631.62" y="245.02" width="296" height="318"/><rect class="cls-14" x="512.13" y="773.79" width="296" height="318"/><polygon class="cls-15" points="686.84 767.79 617.95 1085.79 560.65 1085.79 629.54 767.79 686.84 767.79"/><polygon class="cls-15" points="720.8 767.79 651.9 1085.79 633.25 1085.79 702.14 767.79 720.8 767.79"/><line class="cls-16" x1="591.62" y1="764.86" x2="591.62" y2="1091.18"/><line class="cls-16" x1="665.62" y1="764.86" x2="665.62" y2="1091.18"/><line class="cls-16" x1="739.62" y1="764.86" x2="739.62" y2="1091.18"/><line class="cls-16" x1="818.13" y1="854.02" x2="513.12" y2="854.02"/><line class="cls-16" x1="818.13" y1="928.02" x2="513.12" y2="928.02"/><line class="cls-16" x1="818.13" y1="1002.02" x2="513.12" y2="1002.02"/><rect class="cls-17" x="517.62" y="769.02" width="296" height="318"/><rect class="cls-14" x="883.46" y="773.79" width="296" height="318"/><polygon class="cls-15" points="1058.17 767.79 989.28 1085.79 931.98 1085.79 1000.87 767.79 1058.17 767.79"/><polygon class="cls-15" points="1092.13 767.79 1023.23 1085.79 1004.58 1085.79 1073.47 767.79 1092.13 767.79"/><line class="cls-16" x1="962.96" y1="764.86" x2="962.96" y2="1091.18"/><line class="cls-16" x1="1036.96" y1="764.86" x2="1036.96" y2="1091.18"/><line class="cls-16" x1="1110.96" y1="764.86" x2="1110.96" y2="1091.18"/><line class="cls-16" x1="1189.46" y1="854.02" x2="884.45" y2="854.02"/><line class="cls-16" x1="1189.46" y1="928.02" x2="884.45" y2="928.02"/><line class="cls-16" x1="1189.46" y1="1002.02" x2="884.45" y2="1002.02"/><rect class="cls-17" x="888.96" y="769.02" width="296" height="318"/><rect class="cls-14" x="1254.8" y="773.79" width="296" height="318"/><polygon class="cls-15" points="1429.51 767.79 1360.62 1085.79 1303.32 1085.79 1372.21 767.79 1429.51 767.79"/><polygon class="cls-15" points="1463.47 767.79 1394.57 1085.79 1375.92 1085.79 1444.81 767.79 1463.47 767.79"/><line class="cls-16" x1="1334.29" y1="764.86" x2="1334.29" y2="1091.18"/><line class="cls-16" x1="1408.29" y1="764.86" x2="1408.29" y2="1091.18"/><line class="cls-16" x1="1482.29" y1="764.86" x2="1482.29" y2="1091.18"/><line class="cls-16" x1="1560.8" y1="854.02" x2="1255.78" y2="854.02"/><line class="cls-16" x1="1560.8" y1="928.02" x2="1255.78" y2="928.02"/><line class="cls-16" x1="1560.8" y1="1002.02" x2="1255.78" y2="1002.02"/><rect class="cls-17" x="1260.29" y="769.02" width="296" height="318"/><rect class="cls-14" x="1626.13" y="773.79" width="296" height="318"/><polygon class="cls-15" points="1800.84 767.79 1731.95 1085.79 1674.65 1085.79 1743.54 767.79 1800.84 767.79"/><polygon class="cls-15" points="1834.8 767.79 1765.9 1085.79 1747.25 1085.79 1816.14 767.79 1834.8 767.79"/><line class="cls-16" x1="1705.62" y1="764.86" x2="1705.62" y2="1091.18"/><line class="cls-16" x1="1779.62" y1="764.86" x2="1779.62" y2="1091.18"/><line class="cls-16" x1="1853.62" y1="764.86" x2="1853.62" y2="1091.18"/><line class="cls-16" x1="1932.13" y1="854.02" x2="1627.12" y2="854.02"/><line class="cls-16" x1="1932.13" y1="928.02" x2="1627.12" y2="928.02"/><line class="cls-16" x1="1932.13" y1="1002.02" x2="1627.12" y2="1002.02"/><rect class="cls-17" x="1631.62" y="769.02" width="296" height="318"/><rect class="cls-14" x="512.13" y="1293.79" width="296" height="318"/><polygon class="cls-15" points="686.84 1287.79 617.95 1605.79 560.65 1605.79 629.54 1287.79 686.84 1287.79"/><polygon class="cls-15" points="720.8 1287.79 651.9 1605.79 633.25 1605.79 702.14 1287.79 720.8 1287.79"/><line class="cls-16" x1="591.62" y1="1284.86" x2="591.62" y2="1611.18"/><line class="cls-16" x1="665.62" y1="1284.86" x2="665.62" y2="1611.18"/><line class="cls-16" x1="739.62" y1="1284.86" x2="739.62" y2="1611.18"/><line class="cls-16" x1="818.13" y1="1374.02" x2="513.12" y2="1374.02"/><line class="cls-16" x1="818.13" y1="1448.02" x2="513.12" y2="1448.02"/><line class="cls-16" x1="818.13" y1="1522.02" x2="513.12" y2="1522.02"/><rect class="cls-17" x="517.62" y="1289.02" width="296" height="318"/><rect class="cls-14" x="883.46" y="1293.79" width="296" height="318"/><polygon class="cls-15" points="1058.17 1287.79 989.28 1605.79 931.98 1605.79 1000.87 1287.79 1058.17 1287.79"/><polygon class="cls-15" points="1092.13 1287.79 1023.23 1605.79 1004.58 1605.79 1073.47 1287.79 1092.13 1287.79"/><line class="cls-16" x1="962.96" y1="1284.86" x2="962.96" y2="1611.18"/><line class="cls-16" x1="1036.96" y1="1284.86" x2="1036.96" y2="1611.18"/><line class="cls-16" x1="1110.96" y1="1284.86" x2="1110.96" y2="1611.18"/><line class="cls-16" x1="1189.46" y1="1374.02" x2="884.45" y2="1374.02"/><line class="cls-16" x1="1189.46" y1="1448.02" x2="884.45" y2="1448.02"/><line class="cls-16" x1="1189.46" y1="1522.02" x2="884.45" y2="1522.02"/><rect class="cls-17" x="888.96" y="1289.02" width="296" height="318"/><rect class="cls-14" x="1254.8" y="1293.79" width="296" height="318"/><polygon class="cls-15" points="1429.51 1287.79 1360.62 1605.79 1303.32 1605.79 1372.21 1287.79 1429.51 1287.79"/><polygon class="cls-15" points="1463.47 1287.79 1394.57 1605.79 1375.92 1605.79 1444.81 1287.79 1463.47 1287.79"/><line class="cls-16" x1="1334.29" y1="1284.86" x2="1334.29" y2="1611.18"/><line class="cls-16" x1="1408.29" y1="1284.86" x2="1408.29" y2="1611.18"/><line class="cls-16" x1="1482.29" y1="1284.86" x2="1482.29" y2="1611.18"/><line class="cls-16" x1="1560.8" y1="1374.02" x2="1255.78" y2="1374.02"/><line class="cls-16" x1="1560.8" y1="1448.02" x2="1255.78" y2="1448.02"/><line class="cls-16" x1="1560.8" y1="1522.02" x2="1255.78" y2="1522.02"/><rect class="cls-17" x="1260.29" y="1289.02" width="296" height="318"/><rect class="cls-14" x="1626.13" y="1293.79" width="296" height="318"/><polygon class="cls-15" points="1800.84 1287.79 1731.95 1605.79 1674.65 1605.79 1743.54 1287.79 1800.84 1287.79"/><polygon class="cls-15" points="1834.8 1287.79 1765.9 1605.79 1747.25 1605.79 1816.14 1287.79 1834.8 1287.79"/><line class="cls-16" x1="1705.62" y1="1284.86" x2="1705.62" y2="1611.18"/><line class="cls-16" x1="1779.62" y1="1284.86" x2="1779.62" y2="1611.18"/><line class="cls-16" x1="1853.62" y1="1284.86" x2="1853.62" y2="1611.18"/><line class="cls-16" x1="1932.13" y1="1374.02" x2="1627.12" y2="1374.02"/><line class="cls-16" x1="1932.13" y1="1448.02" x2="1627.12" y2="1448.02"/><line class="cls-16" x1="1932.13" y1="1522.02" x2="1627.12" y2="1522.02"/><rect class="cls-17" x="1631.62" y="1289.02" width="296" height="318"/><rect class="cls-18" x="691.4" y="1745.23" width="199.91" height="350.62"/><path class="cls-19" d="M691.4,1745.23v350.62H891.32V1745.23ZM872.1,2076H710.62V1765.08H872.1Z"/><rect class="cls-7" x="692.31" y="1743.79" width="199.91" height="350.62"/><circle class="cls-20" cx="840.63" cy="1913.29" r="16.5"/></g></g></svg>