<?xml version="1.0" encoding="UTF-8" standalone="no"?>
<!-- Created with Inkscape (http://www.inkscape.org/) -->
<svg
   xmlns:dc="http://purl.org/dc/elements/1.1/"
   xmlns:cc="http://creativecommons.org/ns#"
   xmlns:rdf="http://www.w3.org/1999/02/22-rdf-syntax-ns#"
   xmlns:svg="http://www.w3.org/2000/svg"
   xmlns="http://www.w3.org/2000/svg"
   xmlns:sodipodi="http://sodipodi.sourceforge.net/DTD/sodipodi-0.dtd"
   xmlns:inkscape="http://www.inkscape.org/namespaces/inkscape"
   width="63.671677"
   height="673.90131"
   id="svg2497"
   sodipodi:version="0.32"
   inkscape:version="0.46"
   version="1.0"
   sodipodi:docname="CNTower-outline.svg"
   inkscape:output_extension="org.inkscape.output.svg.inkscape">
  <defs
     id="defs2499">
    <inkscape:perspective
       sodipodi:type="inkscape:persp3d"
       inkscape:vp_x="0 : 526.18109 : 1"
       inkscape:vp_y="0 : 1000 : 0"
       inkscape:vp_z="744.09448 : 526.18109 : 1"
       inkscape:persp3d-origin="372.04724 : 350.78739 : 1"
       id="perspective2505" />
  </defs>
  <sodipodi:namedview
     id="base"
     pagecolor="#ffffff"
     bordercolor="#666666"
     borderopacity="1.0"
     inkscape:pageopacity="0.0"
     inkscape:pageshadow="2"
     inkscape:zoom="0.57723077"
     inkscape:cx="10"
     inkscape:cy="335.71429"
     inkscape:document-units="px"
     inkscape:current-layer="layer1"
     showgrid="false"
     inkscape:window-width="1366"
     inkscape:window-height="749"
     inkscape:window-x="-4"
     inkscape:window-y="-4" />
  <metadata
     id="metadata2502">
    <rdf:RDF>
      <cc:Work
         rdf:about="">
        <dc:format>image/svg+xml</dc:format>
        <dc:type
           rdf:resource="http://purl.org/dc/dcmitype/StillImage" />
      </cc:Work>
    </rdf:RDF>
  </metadata>
  <g
     inkscape:label="Ebene 1"
     inkscape:groupmode="layer"
     id="layer1"
     transform="translate(-33.878451,6.3882651)">
    <path
       style="fill:#000000;fill-opacity:1;fill-rule:evenodd;stroke:none;stroke-width:1px;stroke-linecap:butt;stroke-linejoin:miter;stroke-opacity:1"
       d="M 64.426537,11.947563 L 64.426537,75.551082 L 62.186982,75.551082 C 62.712459,92.968704 63.028792,110.42238 63.157456,127.91948 L 60.768598,127.91948 L 60.768598,130.42032 C 58.522093,131.45235 57.073315,133.11242 57.073315,134.9741 C 57.073315,137.43715 59.64304,139.50298 63.194779,140.27439 C 63.252124,163.98804 62.994912,187.76979 62.448265,211.6044 L 58.454376,211.6044 L 58.454376,218.99495 L 62.261639,218.99495 C 62.193082,221.70855 62.113037,224.41705 62.037679,227.13202 L 50.093355,227.13202 L 50.093355,237.76992 C 46.472602,239.22277 44.233174,241.15806 44.233174,243.29418 C 44.233174,243.47308 44.277235,243.64069 44.30782,243.81675 L 40.799173,243.81675 L 40.799173,246.98945 L 42.068265,246.98945 L 42.068265,249.6396 L 42.964083,249.6396 L 42.964083,251.05798 L 42.068265,251.05798 L 42.068265,254.2307 L 42.964083,254.2307 L 42.964083,255.61176 L 42.068265,255.61176 L 42.068265,258.18726 L 43.897234,258.18726 C 44.016334,259.5201 44.972409,260.7857 46.659366,261.88253 L 46.659366,267.07085 C 44.639668,268.15782 43.449325,269.40814 43.449325,270.76612 C 43.449325,274.13242 50.615082,276.93255 60.283356,277.74608 C 55.138222,400.94343 44.224353,525.28847 35.61086,649.17721 L 95.81772,649.17721 C 87.879305,525.32873 78.159489,401.48494 73.123507,277.63411 C 82.052525,276.67424 88.501831,273.96494 88.50182,270.76612 C 88.50182,269.52688 87.518296,268.39011 85.814346,267.36945 L 85.814346,261.99451 C 87.626673,260.86646 88.713835,259.5741 88.83775,258.18726 L 89.509618,258.18726 L 89.509618,255.61176 L 88.128558,255.61176 L 88.128558,254.2307 L 89.509618,254.2307 L 89.509618,251.05798 L 88.128558,251.05798 L 88.128558,249.6396 L 89.509618,249.6396 L 89.509618,246.98945 L 90.778709,246.98945 L 90.778709,243.81675 L 87.904597,243.81675 C 87.935194,243.64069 87.979255,243.47308 87.979255,243.29418 C 87.979255,241.45015 86.318059,239.73263 83.537456,238.36714 L 83.537456,227.13202 L 71.369184,227.13202 C 71.289245,224.41838 71.219764,221.70858 71.145224,218.99495 L 74.243285,218.99495 L 74.243285,211.6044 L 70.958599,211.6044 C 70.348421,187.79029 69.936103,163.97636 69.801487,140.16241 C 73.095016,139.30964 75.400386,137.31788 75.400386,134.9741 C 75.400386,133.08607 73.894018,131.41173 71.593133,130.383 L 71.593133,127.91948 L 69.764164,127.91948 C 69.731984,110.46585 69.825792,93.004603 70.100093,75.551082 L 68.12182,75.551082 L 68.12182,11.947563 L 64.426537,11.947563 z"
       id="path4172" />
  </g>
</svg>
