<svg xmlns="http://www.w3.org/2000/svg" width="40px" height="35.556px" viewBox="0 0 40 35.556" xml:space="preserve">
	<rect x="4.444" y="4.444" fill="#F1F10E" width="31.111" height="20"/>
	<path fill="#1A405F" d="M36.667,0H3.333C1.493,0,0,1.493,0,3.333v22.223c0,1.84,1.493,3.333,3.333,3.333h13.334l-1.111,3.333h-5
	c-0.924,0-1.667,0.743-1.667,1.667c0,0.923,0.743,1.667,1.667,1.667h18.889c0.924,0,1.667-0.743,1.667-1.667
	c0-0.924-0.743-1.667-1.667-1.667h-5l-1.111-3.333h13.334c1.84,0,3.333-1.494,3.333-3.333V3.333C40,1.493,38.507,0,36.667,0z
	 M35.556,24.444H4.444v-20h31.111V24.444z"/>
</svg>
