<?xml version="1.0"?><svg width="640" height="480" xmlns="http://www.w3.org/2000/svg">
 <title>green grass flat end</title>
 <metadata id="metadata3953">image/svg+xml</metadata>
 <g>
  <path d="m71.9235,439.990997c0.2117,-1.947998 0.447601,-3.899994 0.624901,-5.873993c1.051498,-11.705017 1.3853,-23.067993 1.083298,-33.790009c-0.349701,-12.553009 -1.586395,-24.244995 -3.249802,-34.665009c-1.663399,-10.418976 -3.7379,-19.544983 -5.666298,-27.122986c-1.928398,-7.578003 -3.676399,-13.612 -4.749798,-17.833008c-1.073402,-4.220001 -1.478703,-6.636993 -0.791603,-6.958008c0.687103,-0.319977 2.394604,1.485016 4.749702,5.25c2.355198,3.765015 5.375599,9.502014 8.457897,16.999023c3.082306,7.496979 6.197205,16.774994 8.749504,27.539978c2.552299,10.766022 4.512497,23.014008 5.291397,36.248016c0.661102,11.281982 0.514503,23.259003 -0.583298,35.540009c-0.140305,1.569 -0.290398,3.113983 -0.458298,4.665985l-13.457603,0l0,0z" id="path4090" fill-rule="evenodd" fill="#11c411"/>
  <path d="m100.334267,439.991333c2.670334,-8.238586 5.430206,-16.085205 7.96875,-23.4375c2.735451,-7.922546 5.206924,-15.3125 7.21875,-22.09375c1.173386,-3.96228 2.199631,-7.703979 3.03125,-11.1875c0.831635,-3.483521 1.46096,-6.705261 1.9375,-9.65625c0.466507,-2.915588 0.770157,-5.564453 0.96875,-7.875c0.198601,-2.310547 0.283051,-4.275635 0.34375,-5.90625c0.060707,-1.630615 0.11895,-2.925049 0.21875,-3.8125c0.0998,-0.887451 0.256454,-1.375732 0.53125,-1.4375c0.274796,-0.061829 0.66111,0.311523 1.09375,1.125c0.43264,0.813477 0.921967,2.080505 1.375,3.75c0.453033,1.669495 0.851151,3.746399 1.125,6.21875c0.273865,2.472351 0.394394,5.318542 0.3125,8.46875c-0.078094,3.183777 -0.339966,6.688904 -0.84375,10.4375c-0.503784,3.748535 -1.232925,7.76239 -2.15625,11.9375c-1.574387,7.136963 -3.681824,14.854858 -6.15625,22.96875c-2.006638,6.580017 -4.27552,13.460205 -6.53125,20.5l-10.4375,0z" id="path4088" fill-rule="evenodd" fill="#11c411"/>
  <path d="m144.021759,439.991333c0.058014,-1.47467 0.135635,-2.931885 0.187515,-4.424988c0.005997,-0.147461 -0.005005,-0.302307 0,-0.449951c0.42305,-12.603027 0.623703,-24.627563 0.862488,-35.624756c0.238785,-10.997192 0.541061,-20.964478 0.974991,-29.324768c0.433929,-8.360291 0.99469,-15.11908 1.687469,-19.799866c0.69281,-4.680786 1.497009,-7.274902 2.324982,-7.274902c0.828003,0 1.619614,2.57843 2.362503,7.237427c0.742874,4.658997 1.447861,11.388184 2.099976,19.724854c0.652115,8.33667 1.244949,18.292175 1.612503,29.362244c0.367523,11.070129 0.501038,23.271362 0.074997,36.112244c-0.00502,0.150452 0.00499,0.299683 0,0.450012c-0.045197,1.352478 -0.129135,2.673157 -0.1875,4.012451l-11.999924,0z" id="path4086" fill-rule="evenodd" fill="#11c411"/>
  <path d="m175.428009,439.991333c0.252869,-6.308777 0.791016,-12.361328 1.620743,-17.905212c1.005157,-6.716187 2.418503,-12.693665 3.987518,-17.570801c1.569,-4.877136 3.268555,-8.6604 4.682114,-11.165039c1.413559,-2.504639 2.514038,-3.737183 3.035645,-3.524414c0.521561,0.212708 0.417679,1.853394 -0.051407,4.604919c-0.469131,2.751526 -1.270157,6.622192 -2.05806,11.447998c-0.787903,4.825867 -1.545456,10.601868 -2.083801,17.082031c-0.437073,5.261292 -0.713486,11.01001 -0.900391,17.030518l-8.232315,0l-0.000046,0z" id="path4038" fill-rule="evenodd" fill="#11c411"/>
  <path d="m280.303192,337.953979c-0.309875,-0.005005 -0.811798,0.384033 -1.46875,1.1875c-0.750793,0.918213 -1.704926,2.378967 -2.75,4.34375c-1.045074,1.964783 -2.174103,4.438538 -3.25,7.4375c-1.075897,2.998962 -2.089111,6.530273 -2.875,10.5c-0.719452,3.640747 -1.233185,7.649841 -1.5,11.96875c-0.266724,4.318909 -0.271881,8.948853 0.031189,13.78125c0.451721,7.134705 1.492828,14.719604 3.125,22.5625c1.632233,7.842896 3.848663,15.93689 6.375,24.125c0.515106,1.669434 1.036865,3.301819 1.5625,4.9375c0.205841,0.643982 0.417877,1.267212 0.625,1.90625l10.4375,0c-0.525848,-1.641052 -1.040009,-3.242798 -1.5625,-4.90625c-0.505463,-1.618164 -0.996948,-3.236145 -1.5,-4.875c-2.467255,-8.038025 -4.693756,-15.858093 -6.46875,-23.3125c-1.774963,-7.454407 -3.087769,-14.544373 -3.875,-21.21875c-0.53476,-4.506348 -0.852173,-8.822693 -0.9375,-12.84375c-0.085297,-4.021057 0.059723,-7.754883 0.34375,-11.1875c0.614349,-7.46936 1.946533,-13.450073 2.90625,-17.59375c0.479889,-2.071838 0.848846,-3.698975 1.03125,-4.84375c0.182434,-1.144775 0.166016,-1.797852 -0.125,-1.9375c-0.036377,-0.017395 -0.080688,-0.030518 -0.125,-0.031189l0.000061,-0.000061z" id="path4082" fill-rule="evenodd" fill="#11c411"/>
  <path d="m229.749207,338.665344c-0.11322,-0.022583 -0.265167,0.020386 -0.374451,0.187256c-0.109283,0.166809 -0.160645,0.488037 -0.187225,0.711426c-0.056091,0.394958 -0.061096,0.907532 0,1.497803c0.120544,1.166809 0.470612,2.734985 0.973572,4.605774c1.000793,3.718567 2.688599,8.82843 4.718109,15.05304c4.0065,12.282959 9.445984,29.154358 13.667557,49.053467c2.050095,9.673096 3.763657,20.075439 4.942795,30.929871l12.094849,0c-1.28299,-11.858887 -3.443878,-23.157166 -6.066132,-33.513611c-2.594177,-10.25415 -5.642212,-19.596802 -8.762253,-27.859375c-3.119949,-8.262512 -6.300278,-15.437317 -9.211533,-21.343872c-2.960693,-6.008911 -5.604218,-10.66571 -7.638855,-13.929626c-1.032043,-1.660217 -1.879028,-2.921936 -2.546295,-3.819458c-0.341003,-0.463379 -0.627533,-0.794556 -0.861237,-1.048462c-0.151733,-0.233582 -0.331421,-0.266296 -0.449341,-0.337036c-0.117889,-0.070679 -0.186447,-0.164551 -0.299561,-0.187195z" id="path4080" fill-rule="evenodd" fill="#11c411"/>
  <path d="m207.771927,358.485229c-0.635544,0.213989 -0.414566,2.795837 0.406265,7.28125c0.820831,4.485413 2.230545,10.896423 3.875,18.8125c1.64444,7.916077 3.516678,17.317261 4.9375,27.8125c1.187317,8.770508 2.055756,18.309814 2.1875,28.3125l9.90625,0c-0.272705,-10.620605 -1.480652,-20.653992 -3.15625,-29.75c-1.992249,-10.814941 -4.60141,-20.341064 -7.156265,-28.1875c-2.554825,-7.846436 -5.049393,-13.992798 -7,-18.15625c-1.950577,-4.163452 -3.364426,-6.338989 -4,-6.125z" id="path4078" fill-rule="evenodd" fill="#11c411"/>
  <path d="m308.032593,360.496948c-0.739471,0 -1.433228,2.077454 -2.109894,5.760376c-0.676666,3.682922 -1.350494,8.986267 -2.00943,15.573059c-0.658936,6.586792 -1.28537,14.441345 -1.774994,23.208923c-0.489624,8.767639 -0.828491,18.453491 -0.636322,28.667908c0.006012,0.339294 0.025909,0.666382 0.033417,1.0047c0.0354,1.762573 0.097778,3.521301 0.16745,5.257996l10.716949,0c-0.056396,-1.815674 -0.125031,-3.64093 -0.16745,-5.492432c-0.007019,-0.329651 -0.0271,-0.640442 -0.033417,-0.971252c-0.192596,-9.958191 -0.181793,-19.514221 -0.234436,-28.232483c-0.052582,-8.718262 -0.158417,-16.599365 -0.468842,-23.242432c-0.310455,-6.642944 -0.801483,-12.02179 -1.406616,-15.740479c-0.605133,-3.718689 -1.336945,-5.793884 -2.076416,-5.793884z" id="path4076" fill-rule="evenodd" fill="#11c411"/>
  <path d="m317.865692,368.766479c-0.657135,0.203613 -0.605988,2.432312 -0.15625,6.28125c0.449768,3.848999 1.302002,9.326782 2.1875,16.09375c0.885498,6.766907 1.780914,14.838806 2.5,23.84375c0.633545,7.933716 1.111084,16.617554 1.46875,25.71875l10,0c-0.411377,-9.438477 -1.185028,-18.48291 -2.3125,-26.71875c-1.260803,-9.209717 -2.936249,-17.429993 -4.75,-24.21875c-1.813751,-6.788696 -3.75882,-12.148743 -5.375,-15.75c-1.61618,-3.601196 -2.905334,-5.453613 -3.5625,-5.25z" id="path4068" fill-rule="evenodd" fill="#11c411"/>
  <rect id="rect4094" width="618.821955" height="13.010852" x="33.130564" y="427.692199" fill="#11c411"/>
  <path transform="rotate(-10, 68.1582, 390.828)" id="path2886" d="m53.961914,434.991333c-0.025043,-1.967102 -0.034233,-3.935303 0,-5.9375c0.026402,-1.405518 0.091782,-2.829407 0.1511,-4.25c0.36417,-8.724182 1.366825,-17.10791 3.082462,-24.78125c1.715649,-7.67334 4.128979,-14.641846 7.071529,-20.71875c2.686432,-5.640747 5.803062,-10.512207 8.94519,-14.53125c3.142136,-4.019043 6.321358,-7.177612 9.126503,-9.65625c6.34111,-4.374207 9.973076,-7.373779 9.640251,-8.21875c-0.352089,-0.83429 -4.691002,0.596741 -12.208969,3.9375c-3.451035,2.08551 -7.394783,5.077393 -11.362801,9.125c-3.968018,4.047607 -7.938522,9.179504 -11.393024,15.3125c-3.636066,6.536011 -6.674576,14.114807 -8.824303,22.4375c-2.149715,8.322693 -3.424267,17.374756 -3.777527,26.6875c-0.057537,1.516418 -0.0793,3.036865 -0.090614,4.53125c-0.018845,2.048462 0.010639,4.055481 0.06044,6.0625l9.579811,0l-0.00005,0z" fill-rule="evenodd" fill="#11c411"/>
  <path id="path2888" d="m71.9235,439.990997c0.2117,-1.947998 0.447601,-3.899994 0.624901,-5.873993c1.051498,-11.705017 1.3853,-23.067993 1.083298,-33.790009c-0.349701,-12.553009 -1.586395,-24.244995 -3.249802,-34.665009c-1.663399,-10.418976 -3.7379,-19.544983 -5.666298,-27.122986c-1.928398,-7.578003 -3.676399,-13.612 -4.749798,-17.833008c-1.073402,-4.220001 -1.478703,-6.636993 -0.791603,-6.958008c0.687103,-0.319977 2.394604,1.485016 4.749702,5.25c2.355198,3.765015 5.375599,9.502014 8.457897,16.999023c3.082306,7.496979 6.197205,16.774994 8.749504,27.539978c2.552299,10.766022 4.512497,23.014008 5.291397,36.248016c0.661102,11.281982 0.514503,23.259003 -0.583298,35.540009c-0.140305,1.569 -0.290398,3.113983 -0.458298,4.665985l-13.457603,0l0,0z" fill-rule="evenodd" fill="#11c411"/>
  <path id="path2890" d="m100.334267,439.991333c2.670334,-8.238586 5.430206,-16.085205 7.96875,-23.4375c2.735451,-7.922546 5.206924,-15.3125 7.21875,-22.09375c1.173386,-3.96228 2.199631,-7.703979 3.03125,-11.1875c0.831635,-3.483521 1.46096,-6.705261 1.9375,-9.65625c0.466507,-2.915588 0.770157,-5.564453 0.96875,-7.875c0.198601,-2.310547 0.283051,-4.275635 0.34375,-5.90625c0.060707,-1.630615 0.11895,-2.925049 0.21875,-3.8125c0.0998,-0.887451 0.256454,-1.375732 0.53125,-1.4375c0.274796,-0.061829 0.66111,0.311523 1.09375,1.125c0.43264,0.813477 0.921967,2.080505 1.375,3.75c0.453033,1.669495 0.851151,3.746399 1.125,6.21875c0.273865,2.472351 0.394394,5.318542 0.3125,8.46875c-0.078094,3.183777 -0.339966,6.688904 -0.84375,10.4375c-0.503784,3.748535 -1.232925,7.76239 -2.15625,11.9375c-1.574387,7.136963 -3.681824,14.854858 -6.15625,22.96875c-2.006638,6.580017 -4.27552,13.460205 -6.53125,20.5l-10.4375,0z" fill-rule="evenodd" fill="#11c411"/>
  <path id="path2892" d="m144.021759,439.991333c0.058014,-1.47467 0.135635,-2.931885 0.187515,-4.424988c0.005997,-0.147461 -0.005005,-0.302307 0,-0.449951c0.42305,-12.603027 0.623703,-24.627563 0.862488,-35.624756c0.238785,-10.997192 0.541061,-20.964478 0.974991,-29.324768c0.433929,-8.360291 0.99469,-15.11908 1.687469,-19.799866c0.69281,-4.680786 1.497009,-7.274902 2.324982,-7.274902c0.828003,0 1.619614,2.57843 2.362503,7.237427c0.742874,4.658997 1.447861,11.388184 2.099976,19.724854c0.652115,8.33667 1.244949,18.292175 1.612503,29.362244c0.367523,11.070129 0.501038,23.271362 0.074997,36.112244c-0.00502,0.150452 0.00499,0.299683 0,0.450012c-0.045197,1.352478 -0.129135,2.673157 -0.1875,4.012451l-11.999924,0z" fill-rule="evenodd" fill="#11c411"/>
  <path id="path2894" d="m175.428009,439.991333c0.252869,-6.308777 0.791016,-12.361328 1.620743,-17.905212c1.005157,-6.716187 2.418503,-12.693665 3.987518,-17.570801c1.569,-4.877136 3.268555,-8.6604 4.682114,-11.165039c1.413559,-2.504639 2.514038,-3.737183 3.035645,-3.524414c0.521561,0.212708 0.417679,1.853394 -0.051407,4.604919c-0.469131,2.751526 -1.270157,6.622192 -2.05806,11.447998c-0.787903,4.825867 -1.545456,10.601868 -2.083801,17.082031c-0.437073,5.261292 -0.713486,11.01001 -0.900391,17.030518l-8.232315,0l-0.000046,0z" fill-rule="evenodd" fill="#11c411"/>
  <path id="path2896" d="m280.303192,337.953979c-0.309875,-0.005005 -0.811798,0.384033 -1.46875,1.1875c-0.750793,0.918213 -1.704926,2.378967 -2.75,4.34375c-1.045074,1.964783 -2.174103,4.438538 -3.25,7.4375c-1.075897,2.998962 -2.089111,6.530273 -2.875,10.5c-0.719452,3.640747 -1.233185,7.649841 -1.5,11.96875c-0.266724,4.318909 -0.271881,8.948853 0.031189,13.78125c0.451721,7.134705 1.492828,14.719604 3.125,22.5625c1.632233,7.842896 3.848663,15.93689 6.375,24.125c0.515106,1.669434 1.036865,3.301819 1.5625,4.9375c0.205841,0.643982 0.417877,1.267212 0.625,1.90625l10.4375,0c-0.525848,-1.641052 -1.040009,-3.242798 -1.5625,-4.90625c-0.505463,-1.618164 -0.996948,-3.236145 -1.5,-4.875c-2.467255,-8.038025 -4.693756,-15.858093 -6.46875,-23.3125c-1.774963,-7.454407 -3.087769,-14.544373 -3.875,-21.21875c-0.53476,-4.506348 -0.852173,-8.822693 -0.9375,-12.84375c-0.085297,-4.021057 0.059723,-7.754883 0.34375,-11.1875c0.614349,-7.46936 1.946533,-13.450073 2.90625,-17.59375c0.479889,-2.071838 0.848846,-3.698975 1.03125,-4.84375c0.182434,-1.144775 0.166016,-1.797852 -0.125,-1.9375c-0.036377,-0.017395 -0.080688,-0.030518 -0.125,-0.031189l0.000061,-0.000061z" fill-rule="evenodd" fill="#11c411"/>
  <path id="path2898" d="m229.749207,338.665344c-0.11322,-0.022583 -0.265167,0.020386 -0.374451,0.187256c-0.109283,0.166809 -0.160645,0.488037 -0.187225,0.711426c-0.056091,0.394958 -0.061096,0.907532 0,1.497803c0.120544,1.166809 0.470612,2.734985 0.973572,4.605774c1.000793,3.718567 2.688599,8.82843 4.718109,15.05304c4.0065,12.282959 9.445984,29.154358 13.667557,49.053467c2.050095,9.673096 3.763657,20.075439 4.942795,30.929871l12.094849,0c-1.28299,-11.858887 -3.443878,-23.157166 -6.066132,-33.513611c-2.594177,-10.25415 -5.642212,-19.596802 -8.762253,-27.859375c-3.119949,-8.262512 -6.300278,-15.437317 -9.211533,-21.343872c-2.960693,-6.008911 -5.604218,-10.66571 -7.638855,-13.929626c-1.032043,-1.660217 -1.879028,-2.921936 -2.546295,-3.819458c-0.341003,-0.463379 -0.627533,-0.794556 -0.861237,-1.048462c-0.151733,-0.233582 -0.331421,-0.266296 -0.449341,-0.337036c-0.117889,-0.070679 -0.186447,-0.164551 -0.299561,-0.187195z" fill-rule="evenodd" fill="#11c411"/>
  <path id="path2900" d="m207.771927,358.485229c-0.635544,0.213989 -0.414566,2.795837 0.406265,7.28125c0.820831,4.485413 2.230545,10.896423 3.875,18.8125c1.64444,7.916077 3.516678,17.317261 4.9375,27.8125c1.187317,8.770508 2.055756,18.309814 2.1875,28.3125l9.90625,0c-0.272705,-10.620605 -1.480652,-20.653992 -3.15625,-29.75c-1.992249,-10.814941 -4.60141,-20.341064 -7.156265,-28.1875c-2.554825,-7.846436 -5.049393,-13.992798 -7,-18.15625c-1.950577,-4.163452 -3.364426,-6.338989 -4,-6.125z" fill-rule="evenodd" fill="#11c411"/>
  <path id="path2902" d="m308.032593,360.496948c-0.739471,0 -1.433228,2.077454 -2.109894,5.760376c-0.676666,3.682922 -1.350494,8.986267 -2.00943,15.573059c-0.658936,6.586792 -1.28537,14.441345 -1.774994,23.208923c-0.489624,8.767639 -0.828491,18.453491 -0.636322,28.667908c0.006012,0.339294 0.025909,0.666382 0.033417,1.0047c0.0354,1.762573 0.097778,3.521301 0.16745,5.257996l10.716949,0c-0.056396,-1.815674 -0.125031,-3.64093 -0.16745,-5.492432c-0.007019,-0.329651 -0.0271,-0.640442 -0.033417,-0.971252c-0.192596,-9.958191 -0.181793,-19.514221 -0.234436,-28.232483c-0.052582,-8.718262 -0.158417,-16.599365 -0.468842,-23.242432c-0.310455,-6.642944 -0.801483,-12.02179 -1.406616,-15.740479c-0.605133,-3.718689 -1.336945,-5.793884 -2.076416,-5.793884z" fill-rule="evenodd" fill="#11c411"/>
  <path id="path2904" d="m317.865692,368.766479c-0.657135,0.203613 -0.605988,2.432312 -0.15625,6.28125c0.449768,3.848999 1.302002,9.326782 2.1875,16.09375c0.885498,6.766907 1.780914,14.838806 2.5,23.84375c0.633545,7.933716 1.111084,16.617554 1.46875,25.71875l10,0c-0.411377,-9.438477 -1.185028,-18.48291 -2.3125,-26.71875c-1.260803,-9.209717 -2.936249,-17.429993 -4.75,-24.21875c-1.813751,-6.788696 -3.75882,-12.148743 -5.375,-15.75c-1.61618,-3.601196 -2.905334,-5.453613 -3.5625,-5.25z" fill-rule="evenodd" fill="#11c411"/>
  <path transform="rotate(-15, 58.3184, 386.619)" d="m41.834862,431.972168c-0.029083,-2.020081 -0.039795,-4.041382 0,-6.097534c0.030617,-1.44342 0.106606,-2.905701 0.175446,-4.364563c0.422836,-8.959412 1.586983,-17.569153 3.578979,-25.44928c1.991989,-7.880188 4.794052,-15.03656 8.210579,-21.277283c3.119133,-5.792847 6.737793,-10.795593 10.386047,-14.922974c3.648262,-4.12738 7.3396,-7.371094 10.596573,-9.916565c7.362518,-4.492065 11.579506,-7.57251 11.193077,-8.440308c-0.408798,-0.85675 -5.446617,0.612854 -14.175545,4.04364c-4.006927,2.141785 -8.585922,5.214294 -13.193092,9.371033c-4.607162,4.156677 -9.217224,9.426941 -13.22818,15.72522c-4.221748,6.712219 -7.749695,14.4953 -10.245678,23.042358c-2.495991,8.547119 -3.97583,17.84314 -4.386009,27.406921c-0.066803,1.557312 -0.092049,3.118713 -0.105167,4.653381c-0.021881,2.103699 0.012341,4.164856 0.07019,6.225952l11.122879,0l-0.000099,0z" id="path2906" fill-rule="evenodd" fill="#11c411"/>
  <path d="m80.862312,429.972168c0.217384,-2.001282 0.459671,-4.005493 0.6418,-6.03302c1.079788,-12.020386 1.422554,-23.689087 1.112488,-34.700623c-0.359192,-12.891174 -1.629227,-24.898682 -3.337433,-35.599182c-1.708206,-10.700439 -3.838699,-20.072449 -5.819107,-27.854614c-1.980377,-7.782166 -3.775391,-13.978394 -4.877747,-18.313049c-1.102371,-4.334595 -1.51857,-6.816223 -0.812973,-7.145508c0.705597,-0.329285 2.459198,1.524658 4.877762,5.391235c2.41861,3.866577 5.520454,9.75824 8.685867,17.457275c3.165367,7.699036 6.364243,17.226685 8.985352,28.282532c2.621117,11.055786 4.634132,23.633606 5.434021,37.225037c0.67894,11.585876 0.528366,23.885315 -0.59903,36.497742c-0.144073,1.611816 -0.298195,3.197876 -0.470673,4.792175l-13.820328,0z" id="path2908" fill-rule="evenodd" fill="#11c411"/>
  <path d="m110.038979,429.972168c2.74231,-8.460693 5.576584,-16.51886 8.183563,-24.069275c2.809189,-8.136169 5.347275,-15.725281 7.41333,-22.689331c1.205025,-4.069092 2.258942,-7.911682 3.112968,-11.489075c0.854065,-3.577454 1.500336,-6.886047 1.989746,-9.916565c0.47905,-2.994202 0.790924,-5.714478 0.994843,-8.08728c0.203964,-2.372864 0.29068,-4.39093 0.353043,-6.065491c0.062271,-1.674561 0.122147,-3.003906 0.224625,-3.915283c0.102478,-0.911377 0.263367,-1.412781 0.545578,-1.476257c0.282196,-0.063477 0.678955,0.319946 1.123245,1.155334c0.44429,0.835449 0.946808,2.136597 1.412048,3.851074c0.465271,1.714539 0.874115,3.847412 1.155334,6.386414c0.28125,2.539001 0.405029,5.461914 0.320923,8.697021c-0.0802,3.269592 -0.349152,6.869263 -0.866486,10.718872c-0.517365,3.849609 -1.266174,7.97168 -2.214371,12.259338c-1.616852,7.329285 -3.781113,15.255249 -6.322227,23.587891c-2.06073,6.757385 -4.390755,13.823059 -6.707314,21.052612l-10.718849,0z" id="path2910" fill-rule="evenodd" fill="#11c411"/>
  <path d="m154.90416,429.972168c0.059601,-1.514404 0.139252,-3.010925 0.192535,-4.54425c0.005997,-0.151489 -0.00499,-0.310486 0,-0.462097c0.434494,-12.94281 0.640533,-25.291443 0.885757,-36.585083c0.245209,-11.29364 0.555634,-21.529602 1.001266,-30.115295c0.445618,-8.585693 1.02153,-15.526611 1.732956,-20.333557c0.711487,-4.807007 1.537354,-7.471069 2.38768,-7.471069c0.850327,0 1.663254,2.647949 2.426163,7.432556c0.762909,4.784546 1.486908,11.695129 2.156601,20.256531c0.669662,8.561401 1.278488,18.785278 1.65596,30.153809c0.377441,11.36853 0.514542,23.898682 0.076996,37.085693c-0.005005,0.15448 0.005005,0.3078 0,0.462158c-0.046417,1.388977 -0.132629,2.745178 -0.192566,4.120605l-12.32338,0l0.000031,0z" id="path2912" fill-rule="evenodd" fill="#11c411"/>
  <path d="m187.157028,429.972168c0.259689,-6.478821 0.812332,-12.69458 1.664398,-18.387878c1.032272,-6.897217 2.483719,-13.035828 4.095016,-18.044434c1.611298,-5.008606 3.356674,-8.89386 4.808334,-11.466003c1.451675,-2.572205 2.581833,-3.837952 3.117462,-3.619507c0.53566,0.218506 0.42897,1.903381 -0.05278,4.729126c-0.481781,2.825684 -1.304413,6.800659 -2.113556,11.756592c-0.809143,4.955933 -1.587097,10.887634 -2.139954,17.54248c-0.448883,5.403137 -0.732727,11.306824 -0.924683,17.489624l-8.454224,0l-0.000015,0z" id="path2914" fill-rule="evenodd" fill="#11c411"/>
  <path d="m294.859314,325.184143c-0.318237,-0.005005 -0.833679,0.394409 -1.508331,1.219482c-0.771057,0.942993 -1.750885,2.443115 -2.824158,4.460876c-1.073242,2.017761 -2.232697,4.558167 -3.337585,7.638c-1.104919,3.079834 -2.145447,6.706299 -2.952515,10.78302c-0.738861,3.738892 -1.266449,7.856079 -1.540436,12.291382c-0.273926,4.435364 -0.279205,9.190125 0.032013,14.152771c0.463898,7.327026 1.53302,15.116394 3.209229,23.170715c1.676208,8.054321 3.952423,16.366516 6.546844,24.77533c0.528992,1.714478 1.064819,3.390808 1.604645,5.070618c0.211365,0.661316 0.429108,1.301331 0.641846,1.957642l10.718842,0c-0.540009,-1.685303 -1.068024,-3.330261 -1.604614,-5.038513c-0.519104,-1.661743 -1.023834,-3.323364 -1.540436,-5.006409c-2.533783,-8.2547 -4.820282,-16.285583 -6.643127,-23.940979c-1.822845,-7.655334 -3.17099,-14.936401 -3.979462,-21.79071c-0.549164,-4.627808 -0.875153,-9.060547 -0.962769,-13.190002c-0.087585,-4.129395 0.06131,-7.963928 0.353027,-11.489075c0.63089,-7.670654 1.998993,-13.812622 2.984589,-18.067993c0.492798,-2.127686 0.871704,-3.798645 1.059052,-4.974365c0.187317,-1.175659 0.170471,-1.846313 -0.128357,-1.989685c-0.037415,-0.017883 -0.082916,-0.031311 -0.128387,-0.031982l0.000092,-0.000122z" id="path2916" fill-rule="evenodd" fill="#11c411"/>
  <path d="m242.942566,325.914673c-0.116287,-0.023193 -0.272308,0.020874 -0.384552,0.192261c-0.112213,0.171326 -0.164963,0.501221 -0.192261,0.730652c-0.057632,0.405579 -0.062714,0.932007 0,1.538208c0.12381,1.198242 0.483276,2.808655 0.999802,4.729919c1.02774,3.818787 2.761093,9.066406 4.845322,15.458801c4.114471,12.614075 9.700592,29.940247 14.03598,50.375793c2.105377,9.933838 3.865112,20.616577 5.07605,31.763611l12.420898,0c-1.317596,-12.178528 -3.536743,-23.781433 -6.229675,-34.416992c-2.664124,-10.530579 -5.794342,-20.125061 -8.998444,-28.610352c-3.204102,-8.485291 -6.470123,-15.853455 -9.459869,-21.91925c-3.040497,-6.170959 -5.755295,-10.953247 -7.844757,-14.305176c-1.059875,-1.704956 -1.929718,-3.000671 -2.614929,-3.922363c-0.35022,-0.475891 -0.64447,-0.81604 -0.88446,-1.076782c-0.155853,-0.239807 -0.340393,-0.273438 -0.461502,-0.346069c-0.121048,-0.072571 -0.191422,-0.169006 -0.307602,-0.192261z" id="path2918" fill-rule="evenodd" fill="#11c411"/>
  <path d="m220.372833,346.26886c-0.652679,0.219727 -0.425751,2.871216 0.417206,7.477539c0.842941,4.606323 2.29068,11.190186 3.979462,19.319641c1.688751,8.129456 3.611481,17.784058 5.070587,28.562195c1.21933,9.006958 2.111176,18.803406 2.24646,29.075745l10.173309,0c-0.28006,-10.906921 -1.520569,-21.210754 -3.241348,-30.551941c-2.045944,-11.106506 -4.725449,-20.889465 -7.349167,-28.947388c-2.623718,-8.057922 -5.185516,-14.369995 -7.18869,-18.645691c-2.003174,-4.275635 -3.455139,-6.509827 -4.107819,-6.2901z" id="path2920" fill-rule="evenodd" fill="#11c411"/>
  <path d="m323.336212,348.334839c-0.759399,0 -1.471863,2.133484 -2.166779,5.915649c-0.694916,3.782166 -1.386871,9.228516 -2.063599,15.99292c-0.676697,6.764343 -1.320007,14.830566 -1.822815,23.834534c-0.502838,9.003967 -0.850861,18.950928 -0.653503,29.440674c0.006012,0.34845 0.026611,0.684326 0.034302,1.031799c0.036407,1.81012 0.100433,3.616211 0.171997,5.399719l11.005829,0c-0.057892,-1.864624 -0.128387,-3.739075 -0.171967,-5.640503c-0.006989,-0.338501 -0.027802,-0.657654 -0.034302,-0.997375c-0.197784,-10.226685 -0.186707,-20.040283 -0.240753,-28.993591c-0.053986,-8.953247 -0.162689,-17.046814 -0.481506,-23.868958c-0.318817,-6.822021 -0.82309,-12.345886 -1.444519,-16.164795c-0.621429,-3.81897 -1.372986,-5.950073 -2.132385,-5.950073z" id="path2922" fill-rule="evenodd" fill="#11c411"/>
  <path d="m333.434387,356.827271c-0.674866,0.209106 -0.622345,2.497864 -0.160461,6.450562c0.461884,3.952759 1.337097,9.578247 2.24646,16.527588c0.909393,6.949341 1.828918,15.238831 2.567413,24.486511c0.650604,8.147583 1.141022,17.065491 1.508331,26.412048l10.269562,0c-0.422455,-9.692932 -1.216949,-18.98114 -2.374847,-27.439026c-1.2948,-9.457947 -3.015381,-17.899841 -4.878021,-24.871582c-1.862671,-6.971741 -3.860168,-12.476257 -5.519897,-16.174561c-1.65976,-3.698303 -2.983673,-5.600647 -3.658539,-5.391541z" id="path2924" fill-rule="evenodd" fill="#11c411"/>
  <path id="path2926" d="m71.480598,433.073181c0.022903,-1.741272 0.031403,-3.483582 0,-5.255981c-0.024101,-1.244202 -0.084,-2.504639 -0.138306,-3.762146c-0.333366,-7.722778 -1.25116,-15.144226 -2.82164,-21.936768c-1.570457,-6.792542 -3.779572,-12.961182 -6.473133,-18.340576c-2.45908,-4.993286 -5.311989,-9.305542 -8.18824,-12.863281c-2.876259,-3.557678 -5.786449,-6.353699 -8.354221,-8.547852c-5.80452,-3.87207 -9.129158,-6.527344 -8.824497,-7.27533c0.3223,-0.738525 4.29406,0.528259 11.17585,3.485474c3.159008,1.846191 6.769039,4.494629 10.401279,8.077637c3.632248,3.583008 7.266754,8.125854 10.428947,13.554871c3.328384,5.785767 6.109779,12.494629 8.077591,19.862c1.967819,7.367432 3.134499,15.380432 3.457878,23.624207c0.052696,1.342346 0.072594,2.688232 0.082893,4.011108c0.017212,1.813354 -0.009987,3.589966 -0.055298,5.366638l-8.769165,0l0.000061,0z" fill-rule="evenodd" fill="#11c411"/>
  <path id="path2928" d="m96.329079,433.073181c0.187393,-1.725098 0.396225,-3.452698 0.553223,-5.200378c0.930756,-10.361267 1.226212,-20.419495 0.958939,-29.911194c-0.309624,-11.111877 -1.404358,-21.462158 -2.876778,-30.68573c-1.47245,-9.223572 -3.308891,-17.302063 -5.015976,-24.010071c-1.707039,-6.70813 -3.254295,-12.049133 -4.204506,-15.785461c-0.950233,-3.736389 -1.308968,-5.875488 -0.70076,-6.159302c0.6082,-0.283813 2.119766,1.314209 4.204529,4.647095c2.084778,3.332947 4.758514,8.411438 7.48703,15.047852c2.728477,6.636353 5.48584,14.84906 7.745193,24.378906c2.259338,9.529846 3.994514,20.371704 4.684006,32.08728c0.585228,9.986755 0.455444,20.588562 -0.516357,31.460205c-0.124168,1.389404 -0.257019,2.756531 -0.405701,4.130798l-11.912842,0z" fill-rule="evenodd" fill="#11c411"/>
  <path id="path2930" d="m121.478752,433.073181c2.3638,-7.292969 4.8069,-14.238892 7.054054,-20.747253c2.421463,-7.013184 4.609238,-13.55481 6.390137,-19.557739c1.038727,-3.507446 1.947144,-6.819702 2.683304,-9.90332c0.736191,-3.083679 1.293289,-5.935608 1.715134,-8.547852c0.412949,-2.580933 0.681732,-4.925781 0.857544,-6.971069c0.175797,-2.045349 0.250565,-3.784912 0.304291,-5.228333c0.05368,-1.44342 0.105286,-2.589294 0.193634,-3.374878c0.088287,-0.785583 0.22702,-1.217773 0.470276,-1.272522c0.243256,-0.054688 0.58522,0.275757 0.968216,0.995911c0.38298,0.720093 0.816132,1.841675 1.217148,3.319519c0.401062,1.477905 0.753464,3.316406 0.99588,5.504944c0.242432,2.188538 0.349121,4.708069 0.276642,7.496643c-0.069107,2.818359 -0.300949,5.921204 -0.746902,9.239502c-0.445969,3.318237 -1.091431,6.871399 -1.908752,10.567261c-1.393692,6.317688 -3.259216,13.149719 -5.449631,20.332275c-1.776306,5.824707 -3.784729,11.915161 -5.781555,18.146912l-9.239418,0z" fill-rule="evenodd" fill="#11c411"/>
  <path id="path2932" d="m160.151611,433.073181c0.051407,-1.305359 0.120056,-2.595398 0.165955,-3.917053c0.005005,-0.130554 -0.003998,-0.267639 0,-0.398315c0.374512,-11.156433 0.552155,-21.80072 0.763489,-31.535583c0.211395,-9.734863 0.478973,-18.558105 0.863098,-25.95874c0.384125,-7.400696 0.880524,-13.383667 1.493774,-17.527161c0.613281,-4.143494 1.325165,-6.43988 2.058105,-6.43988c0.732971,0 1.433716,2.282471 2.091309,6.406677c0.657623,4.124268 1.281708,10.080994 1.858948,17.460754c0.57724,7.379761 1.102051,16.192505 1.427399,25.991943c0.325348,9.799438 0.443542,20.60022 0.066422,31.967102c-0.004013,0.133179 0.003998,0.26532 0,0.398376c-0.040024,1.197266 -0.114334,2.366272 -0.16597,3.55188l-10.622528,0l0,0z" fill-rule="evenodd" fill="#11c411"/>
  <path id="path2934" d="m187.952911,433.073181c0.223831,-5.584595 0.700226,-10.942444 1.434692,-15.849976c0.889801,-5.945251 2.1409,-11.236633 3.529816,-15.553955c1.388916,-4.317322 2.893356,-7.666321 4.144684,-9.883423c1.251312,-2.217163 2.225494,-3.308228 2.687195,-3.119934c0.461731,0.188354 0.369751,1.640686 -0.045502,4.076355c-0.415283,2.43573 -1.124359,5.862061 -1.821823,10.133972c-0.697479,4.271912 -1.368073,9.384949 -1.84462,15.121277c-0.386902,4.657349 -0.631592,9.746216 -0.797058,15.075684l-7.287323,0l-0.000061,0z" fill-rule="evenodd" fill="#11c411"/>
  <path id="path2936" d="m280.790039,342.748108c-0.274323,-0.004028 -0.718628,0.339966 -1.300171,1.051208c-0.664612,0.812805 -1.509216,2.105896 -2.434357,3.845154c-0.92511,1.739258 -1.92453,3.929016 -2.876923,6.583801c-0.952393,2.654724 -1.849335,5.78064 -2.545013,9.294739c-0.636871,3.222839 -1.091644,6.77179 -1.32782,10.59491c-0.236115,3.823181 -0.240662,7.921692 0.027618,12.199402c0.399872,6.315735 1.321442,13.029968 2.766296,19.972656c1.444855,6.942688 3.406891,14.107605 5.64325,21.355835c0.455963,1.477844 0.917847,2.922791 1.383148,4.370728c0.18222,0.570068 0.369904,1.121765 0.553253,1.687439l9.239441,0c-0.465485,-1.452698 -0.920624,-2.870544 -1.383148,-4.343079c-0.447449,-1.432373 -0.882538,-2.864685 -1.32782,-4.31543c-2.184082,-7.115356 -4.154999,-14.037842 -5.726257,-20.636536c-1.571228,-6.598755 -2.733337,-12.874939 -3.430206,-18.783203c-0.473389,-3.989075 -0.754364,-7.809998 -0.829865,-11.369507c-0.0755,-3.559448 0.052795,-6.864746 0.30426,-9.90332c0.543854,-6.612 1.723114,-11.906189 2.572693,-15.57428c0.424744,-1.834045 0.751373,-3.274353 0.912842,-4.28772c0.161499,-1.013428 0.146942,-1.591553 -0.110626,-1.715149c-0.032196,-0.015381 -0.071503,-0.026978 -0.110657,-0.027588l0.000061,-0.000061z" fill-rule="evenodd" fill="#11c411"/>
  <path id="path2938" d="m236.038864,343.377808c-0.100204,-0.02002 -0.234726,0.018005 -0.331467,0.165771c-0.096725,0.147644 -0.142181,0.432007 -0.165756,0.629761c-0.049576,0.349609 -0.05397,0.803345 0,1.325867c0.106735,1.032898 0.416611,2.421082 0.861862,4.077148c0.885895,3.291687 2.380005,7.815002 4.176529,13.325134c3.546616,10.873047 8.36171,25.807861 12.09874,43.422913c1.814789,8.562744 3.331635,17.771057 4.375458,27.379578l10.706543,0c-1.135742,-10.497681 -3.048584,-20.499084 -5.369843,-29.666748c-2.296417,-9.077148 -4.994598,-17.347412 -7.75647,-24.66156c-2.761871,-7.314087 -5.577118,-13.665344 -8.154205,-18.893921c-2.62088,-5.319214 -4.960938,-9.441467 -6.762054,-12.33075c-0.913574,-1.469666 -1.66333,-2.586487 -2.253998,-3.381042c-0.301849,-0.410156 -0.555511,-0.703369 -0.76239,-0.928101c-0.134308,-0.206726 -0.293411,-0.235718 -0.397766,-0.298279c-0.10437,-0.062622 -0.165039,-0.145691 -0.265182,-0.165771z" fill-rule="evenodd" fill="#11c411"/>
  <path id="path2940" d="m216.584259,360.922668c-0.562622,0.189392 -0.367004,2.474915 0.359619,6.445496c0.726624,3.97052 1.974518,9.645691 3.430206,16.653076c1.455688,7.007446 3.113037,15.329529 4.370758,24.620056c1.051025,7.763794 1.819794,16.208191 1.936386,25.062683l8.76918,0c-0.241425,-9.40155 -1.310699,-18.283203 -2.793976,-26.335144c-1.76355,-9.573547 -4.073227,-18.006287 -6.334808,-24.952026c-2.261597,-6.94574 -4.469818,-12.386658 -6.196503,-16.072205c-1.726715,-3.685486 -2.978287,-5.611328 -3.540863,-5.421936z" fill-rule="evenodd" fill="#11c411"/>
  <path id="path2942" d="m305.336548,362.703491c-0.654602,0 -1.268738,1.838989 -1.867737,5.099182c-0.598999,3.260132 -1.195435,7.954773 -1.778778,13.785522c-0.583282,5.83075 -1.137817,12.783691 -1.571228,20.544922c-0.433441,7.761169 -0.733398,16.335266 -0.563293,25.377197c0.005005,0.300354 0.022919,0.589905 0.029602,0.889404c0.031403,1.560303 0.086609,3.117126 0.148254,4.65448l9.486816,0c-0.049896,-1.6073 -0.110687,-3.223022 -0.148254,-4.862c-0.005981,-0.291809 -0.023987,-0.566956 -0.029602,-0.859741c-0.170502,-8.815186 -0.16095,-17.274292 -0.20752,-24.991821c-0.0466,-7.71759 -0.140228,-14.694092 -0.415039,-20.574585c-0.274811,-5.880493 -0.709503,-10.641907 -1.245148,-13.933716c-0.535675,-3.29187 -1.183502,-5.128845 -1.838074,-5.128845z" fill-rule="evenodd" fill="#11c411"/>
  <path id="path2944" d="m314.040955,370.023804c-0.581726,0.180237 -0.536438,2.153137 -0.138306,5.560242c0.398102,3.407166 1.152527,8.256287 1.936401,14.24646c0.783875,5.990173 1.576477,13.135498 2.213043,21.106873c0.560822,7.02301 0.983551,14.710083 1.30014,22.766602l8.852173,0c-0.364166,-8.355103 -1.049011,-16.361328 -2.047058,-23.651855c-1.116089,-8.152527 -2.599213,-15.429321 -4.204773,-21.438782c-1.60556,-6.00946 -3.327393,-10.754272 -4.758057,-13.942139c-1.430664,-3.187866 -2.571869,-4.827637 -3.153564,-4.6474z" fill-rule="evenodd" fill="#11c411"/>
  <path d="m210.536591,433.073181c-0.187378,-1.725098 -0.39624,-3.452698 -0.553223,-5.200378c-0.930756,-10.361267 -1.226227,-20.419495 -0.958923,-29.911194c0.309601,-11.111877 1.404312,-21.462158 2.87677,-30.68573c1.472443,-9.223572 3.308899,-17.302063 5.015961,-24.010071c1.707062,-6.70813 3.254303,-12.049133 4.204529,-15.785461c0.950226,-3.736389 1.30896,-5.875488 0.700745,-6.159302c-0.608215,-0.283813 -2.119766,1.314209 -4.204529,4.647095c-2.084778,3.332947 -4.75853,8.411438 -7.48703,15.047852c-2.728485,6.636353 -5.48584,14.84906 -7.745178,24.378906c-2.259369,9.529846 -3.994553,20.371704 -4.684036,32.08728c-0.58522,9.986755 -0.455429,20.588562 0.516373,31.460205c0.124176,1.389404 0.257019,2.756531 0.405701,4.130798l11.912842,0z" id="path2948" fill-rule="evenodd" fill="#11c411"/>
  <path d="m175.075653,342.748108c0.274323,-0.004028 0.718597,0.339966 1.300156,1.051208c0.664627,0.812805 1.509232,2.105896 2.434341,3.845154c0.92514,1.739258 1.924561,3.929016 2.876968,6.583801c0.952393,2.654724 1.849319,5.78064 2.544983,9.294739c0.636887,3.222839 1.09166,6.77179 1.327805,10.59491c0.236145,3.823181 0.240692,7.921692 -0.027588,12.199402c-0.399857,6.315735 -1.321442,13.029968 -2.766296,19.972656c-1.444855,6.942688 -3.406891,14.107605 -5.64325,21.355835c-0.455963,1.477844 -0.917847,2.922791 -1.383148,4.370728c-0.182205,0.570068 -0.369904,1.121765 -0.553253,1.687439l-9.239441,0c0.465485,-1.452698 0.920639,-2.870544 1.383148,-4.343079c0.447449,-1.432373 0.882523,-2.864685 1.32782,-4.31543c2.184082,-7.115356 4.154999,-14.037842 5.726242,-20.636536c1.571259,-6.598755 2.733337,-12.874939 3.430222,-18.783203c0.473358,-3.989075 0.754364,-7.809998 0.829865,-11.369507c0.0755,-3.559448 -0.052795,-6.864746 -0.304291,-9.90332c-0.543823,-6.612 -1.723083,-11.906189 -2.572662,-15.57428c-0.424774,-1.834045 -0.751373,-3.274353 -0.912872,-4.28772c-0.161469,-1.013428 -0.146927,-1.591553 0.110672,-1.715149c0.032196,-0.015381 0.071487,-0.026978 0.110641,-0.027588l-0.000061,-0.000061z" id="path2956" fill-rule="evenodd" fill="#11c411"/>
  <path d="m304.826813,348.377808c0.10022,-0.02002 0.234741,0.018005 0.331482,0.165771c0.09671,0.147644 0.142181,0.432007 0.165741,0.629761c0.049591,0.349609 0.053986,0.803345 0,1.325867c-0.10672,1.032898 -0.416595,2.421082 -0.861847,4.077148c-0.885895,3.291687 -2.380005,7.815002 -4.176544,13.325134c-3.5466,10.873047 -8.361694,25.807861 -12.098724,43.422913c-1.814789,8.562744 -3.331635,17.771057 -4.375458,27.379578l-10.706543,0c1.135742,-10.497681 3.048584,-20.499084 5.369843,-29.666748c2.296417,-9.077148 4.994598,-17.347412 7.75647,-24.66156c2.761871,-7.314087 5.577118,-13.665344 8.154205,-18.893921c2.62088,-5.319214 4.960938,-9.441467 6.762024,-12.33075c0.913605,-1.469666 1.663361,-2.586487 2.254028,-3.381042c0.301849,-0.410156 0.555481,-0.703369 0.76239,-0.928101c0.134308,-0.206726 0.293396,-0.235718 0.397766,-0.298279c0.10437,-0.062622 0.165039,-0.145691 0.265167,-0.165771z" id="path2958" fill-rule="evenodd" fill="#11c411"/>
  <path d="m350.281433,360.922668c0.562622,0.189392 0.367004,2.474915 -0.359619,6.445496c-0.726624,3.97052 -1.974518,9.645691 -3.430206,16.653076c-1.455688,7.007446 -3.113037,15.329529 -4.370758,24.620056c-1.051025,7.763794 -1.819794,16.208191 -1.936401,25.062683l-8.769165,0c0.241425,-9.40155 1.310699,-18.283203 2.793976,-26.335144c1.76355,-9.573547 4.073212,-18.006287 6.334808,-24.952026c2.261597,-6.94574 4.469818,-12.386658 6.196503,-16.072205c1.726715,-3.685486 2.978271,-5.611328 3.540863,-5.421936z" id="path2960" fill-rule="evenodd" fill="#11c411"/>
  <path d="m129.529144,359.703491c0.654602,0 1.268738,1.838989 1.867737,5.099182c0.598999,3.260132 1.195435,7.954773 1.778763,13.785522c0.583298,5.83075 1.137833,12.783691 1.571243,20.544922c0.433441,7.761169 0.733414,16.335266 0.563293,25.377197c-0.005005,0.300354 -0.022888,0.589905 -0.029602,0.889404c-0.031403,1.560303 -0.086594,3.117126 -0.148239,4.65448l-9.486816,0c0.049889,-1.6073 0.11068,-3.223022 0.148224,-4.862c0.006004,-0.291809 0.02401,-0.566956 0.02961,-0.859741c0.170502,-8.815186 0.16095,-17.274292 0.207535,-24.991821c0.0466,-7.71759 0.140251,-14.694092 0.415039,-20.574585c0.274811,-5.880493 0.709488,-10.641907 1.245148,-13.933716c0.535667,-3.29187 1.183495,-5.128845 1.838066,-5.128845z" id="path2962" fill-rule="evenodd" fill="#11c411"/>
  <path d="m194.824738,366.023804c0.581726,0.180237 0.536423,2.153137 0.138306,5.560242c-0.398148,3.407166 -1.152527,8.256287 -1.936401,14.24646c-0.783875,5.990173 -1.576477,13.135498 -2.213043,21.106873c-0.560837,7.02301 -0.983551,14.710083 -1.30014,22.766602l-8.852173,0c0.364166,-8.355103 1.048981,-16.361328 2.047073,-23.651855c1.116074,-8.152527 2.599197,-15.429321 4.204773,-21.438782c1.605545,-6.00946 3.327377,-10.754272 4.758041,-13.942139c1.430664,-3.187866 2.571838,-4.827637 3.153564,-4.6474z" id="path2964" fill-rule="evenodd" fill="#11c411"/>
  <path id="path2966" d="m339.33429,439.991333c0.025909,-1.967102 0.0354,-3.935303 0,-5.9375c-0.027313,-1.405518 -0.09491,-2.829407 -0.15625,-4.25c-0.376587,-8.724182 -1.413391,-17.10791 -3.1875,-24.78125c-1.774109,-7.67334 -4.269684,-14.641846 -7.3125,-20.71875c-2.777954,-5.640747 -6.000793,-10.512207 -9.25,-14.53125c-3.249207,-4.019043 -6.536774,-7.177612 -9.4375,-9.65625c-6.55719,-4.374207 -10.312927,-7.373779 -9.96875,-8.21875c0.364075,-0.83429 4.850861,0.596741 12.625,3.9375c3.568634,2.08551 7.646759,5.077393 11.75,9.125c4.103241,4.047607 8.209015,9.179504 11.78125,15.3125c3.759979,6.536011 6.902008,14.114807 9.125,22.4375c2.222961,8.322693 3.540955,17.374756 3.90625,26.6875c0.059509,1.516418 0.082001,3.036865 0.093689,4.53125c0.019501,2.048462 -0.010986,4.055481 -0.0625,6.0625l-9.90625,0l0.000061,0z" fill-rule="evenodd" fill="#11c411"/>
  <path id="path2968" d="m371.923492,439.991333c0.2117,-1.948792 0.447601,-3.900391 0.624969,-5.874695c1.051422,-11.704834 1.385193,-23.067261 1.083282,-33.789734c-0.349762,-12.552734 -1.586456,-24.245117 -3.249817,-34.664734c-1.663361,-10.419556 -3.737946,-19.545532 -5.666351,-27.123413c-1.928406,-7.577881 -3.6763,-13.611511 -4.749756,-17.832336c-1.073425,-4.220825 -1.478668,-6.637329 -0.791595,-6.957947c0.687073,-0.320618 2.394623,1.484619 4.749725,5.249695c2.355103,3.765076 5.375549,9.502136 8.457855,16.999023c3.082275,7.496948 6.197174,16.774536 8.749512,27.5401c2.552307,10.765625 4.512482,23.013306 5.291351,36.247986c0.661133,11.281738 0.514496,23.258301 -0.583282,35.539673c-0.14032,1.569519 -0.290375,3.113953 -0.458313,4.666382l-13.457581,0z" fill-rule="evenodd" fill="#11c411"/>
  <path id="path2970" d="m400.33429,439.991333c2.670319,-8.238586 5.430206,-16.085205 7.96875,-23.4375c2.735443,-7.922546 5.206909,-15.3125 7.21875,-22.09375c1.173401,-3.96228 2.199615,-7.703979 3.03125,-11.1875c0.831635,-3.483521 1.460968,-6.705261 1.9375,-9.65625c0.466492,-2.915588 0.770142,-5.564453 0.96875,-7.875c0.198608,-2.310547 0.283051,-4.275635 0.34375,-5.90625c0.060699,-1.630615 0.118958,-2.925049 0.21875,-3.8125c0.099792,-0.887451 0.25647,-1.375732 0.53125,-1.4375c0.27478,-0.061829 0.661102,0.311523 1.09375,1.125c0.432648,0.813477 0.921967,2.080505 1.375,3.75c0.453033,1.669495 0.851135,3.746399 1.125,6.21875c0.273865,2.472351 0.394409,5.318542 0.3125,8.46875c-0.078094,3.183777 -0.339966,6.688904 -0.84375,10.4375c-0.503784,3.748535 -1.232941,7.76239 -2.15625,11.9375c-1.574402,7.136963 -3.681824,14.854858 -6.15625,22.96875c-2.006653,6.580017 -4.275513,13.460205 -6.53125,20.5l-10.4375,0z" fill-rule="evenodd" fill="#11c411"/>
  <path id="path2972" d="m547.20813,439.991333c-0.057983,-1.47467 -0.13562,-2.931885 -0.1875,-4.424988c-0.005981,-0.147461 0.005005,-0.302307 0,-0.449951c-0.423035,-12.603027 -0.623718,-24.627563 -0.862488,-35.624756c-0.23877,-10.997192 -0.541077,-20.964478 -0.974976,-29.324768c-0.43396,-8.360291 -0.994751,-15.11908 -1.6875,-19.799866c-0.69281,-4.680786 -1.497009,-7.274902 -2.325012,-7.274902c-0.827942,0 -1.619568,2.57843 -2.362427,7.237427c-0.74292,4.658997 -1.447876,11.388184 -2.100037,19.724854c-0.6521,8.33667 -1.244934,18.292175 -1.612488,29.362244c-0.367493,11.070129 -0.501038,23.271362 -0.074951,36.112244c0.004944,0.150452 -0.005005,0.299683 0,0.450012c0.045166,1.352478 0.129089,2.673157 0.1875,4.012451l11.999878,0z" fill-rule="evenodd" fill="#11c411"/>
  <path id="path2974" d="m515.80188,439.991333c-0.252869,-6.308777 -0.791016,-12.361328 -1.620728,-17.905212c-1.005127,-6.716187 -2.418488,-12.693665 -3.987457,-17.570801c-1.569031,-4.877136 -3.268555,-8.6604 -4.682129,-11.165039c-1.413574,-2.504639 -2.514038,-3.737183 -3.035645,-3.524414c-0.521606,0.212708 -0.417725,1.853394 0.051392,4.604919c0.469116,2.751526 1.270142,6.622192 2.058044,11.447998c0.787903,4.825867 1.545471,10.601868 2.083801,17.082031c0.437073,5.261292 0.713501,11.01001 0.900391,17.030518l8.232269,0l0.000061,0z" fill-rule="evenodd" fill="#11c411"/>
  <path id="path2976" d="m580.303162,337.953979c-0.309875,-0.005005 -0.811768,0.384033 -1.46875,1.1875c-0.750793,0.918213 -1.704895,2.378967 -2.75,4.34375c-1.045105,1.964783 -2.174133,4.438538 -3.25,7.4375c-1.075867,2.998962 -2.089111,6.530273 -2.875,10.5c-0.719482,3.640747 -1.233215,7.649841 -1.5,11.96875c-0.266724,4.318909 -0.271851,8.948853 0.031189,13.78125c0.451721,7.134705 1.492798,14.719604 3.125,22.5625c1.632202,7.842896 3.848694,15.93689 6.375,24.125c0.515076,1.669434 1.036865,3.301819 1.5625,4.9375c0.205872,0.643982 0.417908,1.267212 0.625,1.90625l10.4375,0c-0.525818,-1.641052 -1.039978,-3.242798 -1.5625,-4.90625c-0.505432,-1.618164 -0.996948,-3.236145 -1.5,-4.875c-2.467285,-8.038025 -4.693726,-15.858093 -6.46875,-23.3125c-1.774963,-7.454407 -3.087769,-14.544373 -3.875,-21.21875c-0.534729,-4.506348 -0.852173,-8.822693 -0.9375,-12.84375c-0.085266,-4.021057 0.059692,-7.754883 0.34375,-11.1875c0.61438,-7.46936 1.946533,-13.450073 2.90625,-17.59375c0.479858,-2.071838 0.848816,-3.698975 1.03125,-4.84375c0.182434,-1.144775 0.166016,-1.797852 -0.125,-1.9375c-0.036377,-0.017395 -0.080688,-0.030518 -0.125,-0.031189l0.000061,-0.000061z" fill-rule="evenodd" fill="#11c411"/>
  <path id="path2978" d="m461.480743,338.665344c0.11322,-0.022583 0.265198,0.020386 0.374451,0.187256c0.109253,0.166809 0.160645,0.488037 0.187256,0.711426c0.056091,0.394958 0.061096,0.907532 0,1.497803c-0.120605,1.166809 -0.470642,2.734985 -0.973633,4.605774c-1.000732,3.718567 -2.688599,8.82843 -4.718079,15.05304c-4.00647,12.282959 -9.445984,29.154358 -13.667572,49.053467c-2.050079,9.673096 -3.763641,20.075439 -4.94278,30.929871l-12.094849,0c1.28299,-11.858887 3.443878,-23.157166 6.066132,-33.513611c2.594177,-10.25415 5.642212,-19.596802 8.762238,-27.859375c3.119965,-8.262512 6.300293,-15.437317 9.211548,-21.343872c2.960693,-6.008911 5.604187,-10.66571 7.638855,-13.929626c1.032043,-1.660217 1.879028,-2.921936 2.546265,-3.819458c0.341003,-0.463379 0.627563,-0.794556 0.861267,-1.048462c0.151733,-0.233582 0.331421,-0.266296 0.449341,-0.337036c0.11792,-0.070679 0.186462,-0.164551 0.299561,-0.187195z" fill-rule="evenodd" fill="#11c411"/>
  <path id="path2980" d="m483.458038,358.485229c0.635559,0.213989 0.414551,2.795837 -0.40625,7.28125c-0.820862,4.485413 -2.230591,10.896423 -3.875,18.8125c-1.644409,7.916077 -3.516724,17.317261 -4.9375,27.8125c-1.187317,8.770508 -2.055786,18.309814 -2.1875,28.3125l-9.90625,0c0.272705,-10.620605 1.480652,-20.653992 3.15625,-29.75c1.992249,-10.814941 4.601379,-20.341064 7.15625,-28.1875c2.554871,-7.846436 5.049377,-13.992798 7,-18.15625c1.950562,-4.163452 3.364441,-6.338989 4,-6.125z" fill-rule="evenodd" fill="#11c411"/>
  <path id="path2982" d="m608.032593,360.496948c-0.739441,0 -1.433228,2.077454 -2.109924,5.760376c-0.676636,3.682922 -1.350464,8.986267 -2.009399,15.573059c-0.658936,6.586792 -1.2854,14.441345 -1.775024,23.208923c-0.489624,8.767639 -0.828491,18.453491 -0.636292,28.667908c0.005981,0.339294 0.025879,0.666382 0.033386,1.0047c0.0354,1.762573 0.097839,3.521301 0.16748,5.257996l10.71698,0c-0.056396,-1.815674 -0.125061,-3.64093 -0.16748,-5.492432c-0.007019,-0.329651 -0.0271,-0.640442 -0.033386,-0.971252c-0.192627,-9.958191 -0.181824,-19.514221 -0.234436,-28.232483c-0.052612,-8.718262 -0.158447,-16.599365 -0.468872,-23.242432c-0.310486,-6.642944 -0.801514,-12.02179 -1.406616,-15.740479c-0.605103,-3.718689 -1.336914,-5.793884 -2.076416,-5.793884z" fill-rule="evenodd" fill="#11c411"/>
  <path id="path2984" d="m617.865662,368.766479c-0.657166,0.203613 -0.605957,2.432312 -0.15625,6.28125c0.449768,3.848999 1.302002,9.326782 2.1875,16.09375c0.885498,6.766907 1.780884,14.838806 2.5,23.84375c0.633545,7.933716 1.111084,16.617554 1.46875,25.71875l10,0c-0.411377,-9.438477 -1.184998,-18.48291 -2.3125,-26.71875c-1.260803,-9.209717 -2.936218,-17.429993 -4.75,-24.21875c-1.813721,-6.788696 -3.758789,-12.148743 -5.375,-15.75c-1.61615,-3.601196 -2.905334,-5.453613 -3.5625,-5.25z" fill-rule="evenodd" fill="#11c411"/>
  <path d="m339.33429,439.991333c0.025909,-1.967102 0.0354,-3.935303 0,-5.9375c-0.027313,-1.405518 -0.09491,-2.829407 -0.15625,-4.25c-0.376587,-8.724182 -1.413391,-17.10791 -3.1875,-24.78125c-1.774109,-7.67334 -4.269684,-14.641846 -7.3125,-20.71875c-2.777954,-5.640747 -6.000793,-10.512207 -9.25,-14.53125c-3.249207,-4.019043 -6.536774,-7.177612 -9.4375,-9.65625c-6.55719,-4.374207 -10.312927,-7.373779 -9.96875,-8.21875c0.364075,-0.83429 4.850861,0.596741 12.625,3.9375c3.568634,2.08551 7.646759,5.077393 11.75,9.125c4.103241,4.047607 8.209015,9.179504 11.78125,15.3125c3.759979,6.536011 6.902008,14.114807 9.125,22.4375c2.222961,8.322693 3.540955,17.374756 3.90625,26.6875c0.059509,1.516418 0.082001,3.036865 0.093689,4.53125c0.019501,2.048462 -0.010986,4.055481 -0.0625,6.0625l-9.90625,0l0.000061,0z" id="path2986" fill-rule="evenodd" fill="#11c411"/>
  <path d="m371.923492,439.991333c0.2117,-1.948792 0.447601,-3.900391 0.624969,-5.874695c1.051422,-11.704834 1.385193,-23.067261 1.083282,-33.789734c-0.349762,-12.552734 -1.586456,-24.245117 -3.249817,-34.664734c-1.663361,-10.419556 -3.737946,-19.545532 -5.666351,-27.123413c-1.928406,-7.577881 -3.6763,-13.611511 -4.749756,-17.832336c-1.073425,-4.220825 -1.478668,-6.637329 -0.791595,-6.957947c0.687073,-0.320618 2.394623,1.484619 4.749725,5.249695c2.355103,3.765076 5.375549,9.502136 8.457855,16.999023c3.082275,7.496948 6.197174,16.774536 8.749512,27.5401c2.552307,10.765625 4.512482,23.013306 5.291351,36.247986c0.661133,11.281738 0.514496,23.258301 -0.583282,35.539673c-0.14032,1.569519 -0.290375,3.113953 -0.458313,4.666382l-13.457581,0z" id="path2988" fill-rule="evenodd" fill="#11c411"/>
  <path d="m400.33429,439.991333c2.670319,-8.238586 5.430206,-16.085205 7.96875,-23.4375c2.735443,-7.922546 5.206909,-15.3125 7.21875,-22.09375c1.173401,-3.96228 2.199615,-7.703979 3.03125,-11.1875c0.831635,-3.483521 1.460968,-6.705261 1.9375,-9.65625c0.466492,-2.915588 0.770142,-5.564453 0.96875,-7.875c0.198608,-2.310547 0.283051,-4.275635 0.34375,-5.90625c0.060699,-1.630615 0.118958,-2.925049 0.21875,-3.8125c0.099792,-0.887451 0.25647,-1.375732 0.53125,-1.4375c0.27478,-0.061829 0.661102,0.311523 1.09375,1.125c0.432648,0.813477 0.921967,2.080505 1.375,3.75c0.453033,1.669495 0.851135,3.746399 1.125,6.21875c0.273865,2.472351 0.394409,5.318542 0.3125,8.46875c-0.078094,3.183777 -0.339966,6.688904 -0.84375,10.4375c-0.503784,3.748535 -1.232941,7.76239 -2.15625,11.9375c-1.574402,7.136963 -3.681824,14.854858 -6.15625,22.96875c-2.006653,6.580017 -4.275513,13.460205 -6.53125,20.5l-10.4375,0z" id="path2990" fill-rule="evenodd" fill="#11c411"/>
  <path d="m547.20813,439.991333c-0.057983,-1.47467 -0.13562,-2.931885 -0.1875,-4.424988c-0.005981,-0.147461 0.005005,-0.302307 0,-0.449951c-0.423035,-12.603027 -0.623718,-24.627563 -0.862488,-35.624756c-0.23877,-10.997192 -0.541077,-20.964478 -0.974976,-29.324768c-0.43396,-8.360291 -0.994751,-15.11908 -1.6875,-19.799866c-0.69281,-4.680786 -1.497009,-7.274902 -2.325012,-7.274902c-0.827942,0 -1.619568,2.57843 -2.362427,7.237427c-0.74292,4.658997 -1.447876,11.388184 -2.100037,19.724854c-0.6521,8.33667 -1.244934,18.292175 -1.612488,29.362244c-0.367493,11.070129 -0.501038,23.271362 -0.074951,36.112244c0.004944,0.150452 -0.005005,0.299683 0,0.450012c0.045166,1.352478 0.129089,2.673157 0.1875,4.012451l11.999878,0z" id="path2992" fill-rule="evenodd" fill="#11c411"/>
  <path d="m515.80188,439.991333c-0.252869,-6.308777 -0.791016,-12.361328 -1.620728,-17.905212c-1.005127,-6.716187 -2.418488,-12.693665 -3.987457,-17.570801c-1.569031,-4.877136 -3.268555,-8.6604 -4.682129,-11.165039c-1.413574,-2.504639 -2.514038,-3.737183 -3.035645,-3.524414c-0.521606,0.212708 -0.417725,1.853394 0.051392,4.604919c0.469116,2.751526 1.270142,6.622192 2.058044,11.447998c0.787903,4.825867 1.545471,10.601868 2.083801,17.082031c0.437073,5.261292 0.713501,11.01001 0.900391,17.030518l8.232269,0l0.000061,0z" id="path2994" fill-rule="evenodd" fill="#11c411"/>
  <path d="m580.303162,337.953979c-0.309875,-0.005005 -0.811768,0.384033 -1.46875,1.1875c-0.750793,0.918213 -1.704895,2.378967 -2.75,4.34375c-1.045105,1.964783 -2.174133,4.438538 -3.25,7.4375c-1.075867,2.998962 -2.089111,6.530273 -2.875,10.5c-0.719482,3.640747 -1.233215,7.649841 -1.5,11.96875c-0.266724,4.318909 -0.271851,8.948853 0.031189,13.78125c0.451721,7.134705 1.492798,14.719604 3.125,22.5625c1.632202,7.842896 3.848694,15.93689 6.375,24.125c0.515076,1.669434 1.036865,3.301819 1.5625,4.9375c0.205872,0.643982 0.417908,1.267212 0.625,1.90625l10.4375,0c-0.525818,-1.641052 -1.039978,-3.242798 -1.5625,-4.90625c-0.505432,-1.618164 -0.996948,-3.236145 -1.5,-4.875c-2.467285,-8.038025 -4.693726,-15.858093 -6.46875,-23.3125c-1.774963,-7.454407 -3.087769,-14.544373 -3.875,-21.21875c-0.534729,-4.506348 -0.852173,-8.822693 -0.9375,-12.84375c-0.085266,-4.021057 0.059692,-7.754883 0.34375,-11.1875c0.61438,-7.46936 1.946533,-13.450073 2.90625,-17.59375c0.479858,-2.071838 0.848816,-3.698975 1.03125,-4.84375c0.182434,-1.144775 0.166016,-1.797852 -0.125,-1.9375c-0.036377,-0.017395 -0.080688,-0.030518 -0.125,-0.031189l0.000061,-0.000061z" id="path2996" fill-rule="evenodd" fill="#11c411"/>
  <path d="m461.480743,338.665344c0.11322,-0.022583 0.265198,0.020386 0.374451,0.187256c0.109253,0.166809 0.160645,0.488037 0.187256,0.711426c0.056091,0.394958 0.061096,0.907532 0,1.497803c-0.120605,1.166809 -0.470642,2.734985 -0.973633,4.605774c-1.000732,3.718567 -2.688599,8.82843 -4.718079,15.05304c-4.00647,12.282959 -9.445984,29.154358 -13.667572,49.053467c-2.050079,9.673096 -3.763641,20.075439 -4.94278,30.929871l-12.094849,0c1.28299,-11.858887 3.443878,-23.157166 6.066132,-33.513611c2.594177,-10.25415 5.642212,-19.596802 8.762238,-27.859375c3.119965,-8.262512 6.300293,-15.437317 9.211548,-21.343872c2.960693,-6.008911 5.604187,-10.66571 7.638855,-13.929626c1.032043,-1.660217 1.879028,-2.921936 2.546265,-3.819458c0.341003,-0.463379 0.627563,-0.794556 0.861267,-1.048462c0.151733,-0.233582 0.331421,-0.266296 0.449341,-0.337036c0.11792,-0.070679 0.186462,-0.164551 0.299561,-0.187195z" id="path2998" fill-rule="evenodd" fill="#11c411"/>
  <path d="m483.458038,358.485229c0.635559,0.213989 0.414551,2.795837 -0.40625,7.28125c-0.820862,4.485413 -2.230591,10.896423 -3.875,18.8125c-1.644409,7.916077 -3.516724,17.317261 -4.9375,27.8125c-1.187317,8.770508 -2.055786,18.309814 -2.1875,28.3125l-9.90625,0c0.272705,-10.620605 1.480652,-20.653992 3.15625,-29.75c1.992249,-10.814941 4.601379,-20.341064 7.15625,-28.1875c2.554871,-7.846436 5.049377,-13.992798 7,-18.15625c1.950562,-4.163452 3.364441,-6.338989 4,-6.125z" id="path3000" fill-rule="evenodd" fill="#11c411"/>
  <path d="m608.032593,360.496948c-0.739441,0 -1.433228,2.077454 -2.109924,5.760376c-0.676636,3.682922 -1.350464,8.986267 -2.009399,15.573059c-0.658936,6.586792 -1.2854,14.441345 -1.775024,23.208923c-0.489624,8.767639 -0.828491,18.453491 -0.636292,28.667908c0.005981,0.339294 0.025879,0.666382 0.033386,1.0047c0.0354,1.762573 0.097839,3.521301 0.16748,5.257996l10.71698,0c-0.056396,-1.815674 -0.125061,-3.64093 -0.16748,-5.492432c-0.007019,-0.329651 -0.0271,-0.640442 -0.033386,-0.971252c-0.192627,-9.958191 -0.181824,-19.514221 -0.234436,-28.232483c-0.052612,-8.718262 -0.158447,-16.599365 -0.468872,-23.242432c-0.310486,-6.642944 -0.801514,-12.02179 -1.406616,-15.740479c-0.605103,-3.718689 -1.336914,-5.793884 -2.076416,-5.793884z" id="path3002" fill-rule="evenodd" fill="#11c411"/>
  <path d="m617.865662,368.766479c-0.657166,0.203613 -0.605957,2.432312 -0.15625,6.28125c0.449768,3.848999 1.302002,9.326782 2.1875,16.09375c0.885498,6.766907 1.780884,14.838806 2.5,23.84375c0.633545,7.933716 1.111084,16.617554 1.46875,25.71875l10,0c-0.411377,-9.438477 -1.184998,-18.48291 -2.3125,-26.71875c-1.260803,-9.209717 -2.936218,-17.429993 -4.75,-24.21875c-1.813721,-6.788696 -3.758789,-12.148743 -5.375,-15.75c-1.61615,-3.601196 -2.905334,-5.453613 -3.5625,-5.25z" id="path3004" fill-rule="evenodd" fill="#11c411"/>
  <path transform="rotate(-20, 365.316, 384.619)" id="path3006" d="m351.216705,429.972168c-0.024902,-2.020081 -0.034058,-4.041382 0,-6.097534c0.026184,-1.44342 0.091217,-2.905701 0.150085,-4.364563c0.361725,-8.959412 1.357666,-17.569153 3.061829,-25.44928c1.704163,-7.880188 4.101318,-15.03656 7.024139,-21.277283c2.668427,-5.792847 5.764191,-10.795593 8.885284,-14.922974c3.121094,-4.12738 6.278992,-7.371094 9.065369,-9.916565c6.298615,-4.492065 9.90625,-7.57251 9.575623,-8.440308c-0.349701,-0.85675 -4.659546,0.612854 -12.127136,4.04364c-3.427948,2.141785 -7.345245,5.214294 -11.286682,9.371033c-3.941467,4.156677 -7.885345,9.426941 -11.316711,15.72522c-3.611725,6.712219 -6.629852,14.4953 -8.765167,23.042358c-2.135376,8.547119 -3.401337,17.84314 -3.752258,27.406921c-0.057129,1.557312 -0.078735,3.118713 -0.089966,4.653381c-0.018738,2.103699 0.010559,4.164856 0.060028,6.225952l9.515656,0l-0.000092,0z" fill-rule="evenodd" fill="#11c411"/>
  <path id="path3008" d="m380.668518,433.972168c0.262787,-2.279053 0.555634,-4.561462 0.775787,-6.870422c1.305237,-13.688782 1.719574,-26.977112 1.344757,-39.517029c-0.434174,-14.68042 -1.96936,-28.354675 -4.03421,-40.540344c-2.06485,-12.185669 -4.640167,-22.858521 -7.034027,-31.720825c-2.39386,-8.862305 -4.563629,-15.91864 -5.896149,-20.854858c-1.33252,-4.936279 -1.835632,-7.762329 -0.982697,-8.137329c0.852905,-0.375 2.972626,1.736267 5.896149,6.139526c2.923553,4.403259 6.673035,11.112732 10.499329,19.880371c3.826233,8.767578 7.692963,19.617737 10.861328,32.208069c3.168365,12.590332 5.601654,26.914001 6.568542,42.391907c0.820709,13.194031 0.638702,27.200562 -0.724091,41.563599c-0.174164,1.835571 -0.360443,3.641785 -0.568939,5.457336l-16.70578,0z" fill-rule="evenodd" fill="#11c411"/>
  <path id="path3010" d="m410.038971,429.972168c2.74231,-8.460693 5.576599,-16.51886 8.183563,-24.069275c2.809204,-8.136169 5.34729,-15.725281 7.41333,-22.689331c1.205048,-4.069092 2.258942,-7.911682 3.112976,-11.489075c0.854065,-3.577454 1.500336,-6.886047 1.989746,-9.916565c0.479065,-2.994202 0.790924,-5.714478 0.994843,-8.08728c0.203949,-2.372864 0.29068,-4.39093 0.353027,-6.065491c0.062286,-1.674561 0.122162,-3.003906 0.22464,-3.915283c0.102478,-0.911377 0.263367,-1.412781 0.545593,-1.476257c0.282166,-0.063477 0.678925,0.319946 1.12323,1.155334c0.444275,0.835449 0.946808,2.136597 1.412048,3.851074c0.465271,1.714539 0.874084,3.847412 1.155334,6.386414c0.281219,2.539001 0.405029,5.461914 0.320923,8.697021c-0.0802,3.269592 -0.349152,6.869263 -0.866486,10.718872c-0.517365,3.849609 -1.266174,7.97168 -2.214386,12.259338c-1.616852,7.329285 -3.781097,15.255249 -6.322205,23.587891c-2.06073,6.757385 -4.390778,13.823059 -6.707306,21.052612l-10.718872,0z" fill-rule="evenodd" fill="#11c411"/>
  <path id="path3012" d="m536.325745,429.972168c-0.05957,-1.514404 -0.139282,-3.010925 -0.192566,-4.54425c-0.005981,-0.151489 0.005005,-0.310486 0,-0.462097c-0.434448,-12.94281 -0.640503,-25.291443 -0.885742,-36.585083c-0.245239,-11.29364 -0.555664,-21.529602 -1.001282,-30.115295c-0.445618,-8.585693 -1.021484,-15.526611 -1.732971,-20.333557c-0.711426,-4.807007 -1.537354,-7.471069 -2.387634,-7.471069c-0.850342,0 -1.663269,2.647949 -2.426147,7.432556c-0.762939,4.784546 -1.486938,11.695129 -2.156616,20.256531c-0.669678,8.561401 -1.278503,18.785278 -1.655945,30.153809c-0.377441,11.36853 -0.514587,23.898682 -0.077026,37.085693c0.005005,0.15448 -0.005005,0.3078 0,0.462158c0.046387,1.388977 0.132629,2.745178 0.192566,4.120605l12.323364,0z" fill-rule="evenodd" fill="#11c411"/>
  <path id="path3014" d="m504.072906,429.972168c-0.259705,-6.478821 -0.812378,-12.69458 -1.664429,-18.387878c-1.032227,-6.897217 -2.483704,-13.035828 -4.095032,-18.044434c-1.611267,-5.008606 -3.356628,-8.89386 -4.808289,-11.466003c-1.45166,-2.572205 -2.581848,-3.837952 -3.117493,-3.619507c-0.535645,0.218506 -0.428955,1.903381 0.052795,4.729126c0.481812,2.825684 1.304443,6.800659 2.113525,11.756592c0.809204,4.955933 1.587158,10.887634 2.140015,17.54248c0.448853,5.403137 0.732727,11.306824 0.924683,17.489624l8.454163,0l0.000061,0z" fill-rule="evenodd" fill="#11c411"/>
  <path id="path3016" d="m594.859253,325.184143c-0.318237,-0.005005 -0.833679,0.394409 -1.508362,1.219482c-0.770996,0.942993 -1.750854,2.443115 -2.824097,4.460876c-1.073242,2.017761 -2.232727,4.558167 -3.337646,7.638c-1.104858,3.079834 -2.145386,6.706299 -2.952454,10.78302c-0.738892,3.738892 -1.266479,7.856079 -1.540466,12.291382c-0.273926,4.435364 -0.279175,9.190125 0.031982,14.152771c0.463928,7.327026 1.533081,15.116394 3.20929,23.170715c1.676208,8.054321 3.952393,16.366516 6.546814,24.77533c0.528992,1.714478 1.064819,3.390808 1.604614,5.070618c0.211426,0.661316 0.429138,1.301331 0.641846,1.957642l10.718872,0c-0.540039,-1.685303 -1.068054,-3.330261 -1.604614,-5.038513c-0.519104,-1.661743 -1.023804,-3.323364 -1.540466,-5.006409c-2.533752,-8.2547 -4.820251,-16.285583 -6.643066,-23.940979c-1.822876,-7.655334 -3.171021,-14.936401 -3.979492,-21.79071c-0.549194,-4.627808 -0.875183,-9.060547 -0.962769,-13.190002c-0.087585,-4.129395 0.061279,-7.963928 0.353027,-11.489075c0.630859,-7.670654 1.999023,-13.812622 2.984619,-18.067993c0.492737,-2.127686 0.871704,-3.798645 1.059021,-4.974365c0.187317,-1.175659 0.170471,-1.846313 -0.128357,-1.989685c-0.037415,-0.017883 -0.082886,-0.031311 -0.128357,-0.031982l0.000061,-0.000122z" fill-rule="evenodd" fill="#11c411"/>
  <path id="path3018" d="m542.942505,325.914673c-0.116272,-0.023193 -0.272339,0.020874 -0.384521,0.192261c-0.112244,0.171326 -0.164978,0.501221 -0.192322,0.730652c-0.057556,0.405579 -0.062683,0.932007 0,1.538208c0.12384,1.198242 0.483337,2.808655 0.999817,4.729919c1.027771,3.818787 2.761108,9.066406 4.845337,15.458801c4.114502,12.614075 9.700562,29.940247 14.036011,50.375793c2.105347,9.933838 3.865051,20.616577 5.075989,31.763611l12.420898,0c-1.317566,-12.178528 -3.536743,-23.781433 -6.229675,-34.416992c-2.664124,-10.530579 -5.794312,-20.125061 -8.998413,-28.610352c-3.204102,-8.485291 -6.470154,-15.853455 -9.4599,-21.91925c-3.040466,-6.170959 -5.755249,-10.953247 -7.844727,-14.305176c-1.059875,-1.704956 -1.929688,-3.000671 -2.614929,-3.922363c-0.35022,-0.475891 -0.64447,-0.81604 -0.88446,-1.076782c-0.155823,-0.239807 -0.340393,-0.273438 -0.461487,-0.346069c-0.121094,-0.072571 -0.191467,-0.169006 -0.307617,-0.192261z" fill-rule="evenodd" fill="#11c411"/>
  <path id="path3020" d="m470.857147,346.26886c0.65271,0.219727 0.425781,2.871216 -0.417175,7.477539c-0.843018,4.606323 -2.29071,11.190186 -3.979492,19.319641c-1.688782,8.129456 -3.611511,17.784058 -5.070618,28.562195c-1.219299,9.006958 -2.111145,18.803406 -2.24646,29.075745l-10.173279,0c0.28009,-10.906921 1.520569,-21.210754 3.241333,-30.551941c2.045959,-11.106506 4.725464,-20.889465 7.349182,-28.947388c2.623718,-8.057922 5.185486,-14.369995 7.18866,-18.645691c2.003174,-4.275635 3.455139,-6.509827 4.107849,-6.2901z" fill-rule="evenodd" fill="#11c411"/>
  <path id="path3022" d="m623.336182,348.334839c-0.759399,0 -1.471863,2.133484 -2.166748,5.915649c-0.694946,3.782166 -1.386902,9.228516 -2.063599,15.99292c-0.676758,6.764343 -1.320068,14.830566 -1.822876,23.834534c-0.502808,9.003967 -0.85083,18.950928 -0.653442,29.440674c0.005981,0.34845 0.02655,0.684326 0.034302,1.031799c0.036377,1.81012 0.100403,3.616211 0.171936,5.399719l11.005859,0c-0.057861,-1.864624 -0.128418,-3.739075 -0.171936,-5.640503c-0.007019,-0.338501 -0.027832,-0.657654 -0.034302,-0.997375c-0.197815,-10.226685 -0.186768,-20.040283 -0.240784,-28.993591c-0.054016,-8.953247 -0.162659,-17.046814 -0.481506,-23.868958c-0.318787,-6.822021 -0.823059,-12.345886 -1.444519,-16.164795c-0.62146,-3.81897 -1.372986,-5.950073 -2.132385,-5.950073z" fill-rule="evenodd" fill="#11c411"/>
  <path id="path3024" d="m633.434326,356.827271c-0.674866,0.209106 -0.622314,2.497864 -0.160461,6.450562c0.461853,3.952759 1.337097,9.578247 2.24646,16.527588c0.909363,6.949341 1.828918,15.238831 2.567383,24.486511c0.650635,8.147583 1.141052,17.065491 1.508362,26.412048l10.269592,0c-0.422485,-9.692932 -1.21698,-18.98114 -2.374878,-27.439026c-1.2948,-9.457947 -3.015381,-17.899841 -4.878052,-24.871582c-1.86261,-6.971741 -3.860107,-12.476257 -5.519897,-16.174561c-1.659729,-3.698303 -2.983643,-5.600647 -3.658508,-5.391541z" fill-rule="evenodd" fill="#11c411"/>
  <path d="m367.480591,433.073181c0.022919,-1.741272 0.031403,-3.483582 0,-5.255981c-0.024109,-1.244202 -0.083984,-2.504639 -0.138306,-3.762146c-0.333344,-7.722778 -1.25116,-15.144226 -2.821625,-21.936768c-1.570465,-6.792542 -3.779572,-12.961182 -6.473145,-18.340576c-2.459076,-4.993286 -5.311981,-9.305542 -8.188232,-12.863281c-2.876251,-3.557678 -5.786469,-6.353699 -8.354218,-8.547852c-5.804535,-3.87207 -9.129181,-6.527344 -8.824493,-7.27533c0.322296,-0.738525 4.294037,0.528259 11.175842,3.485474c3.158997,1.846191 6.769043,4.494629 10.401276,8.077637c3.632233,3.583008 7.266754,8.125854 10.428955,13.554871c3.328369,5.785767 6.109772,12.494629 8.077576,19.862c1.967834,7.367432 3.134491,15.380432 3.457886,23.624207c0.052704,1.342346 0.072601,2.688232 0.082886,4.011108c0.017212,1.813354 -0.009979,3.589966 -0.055298,5.366638l-8.769165,0l0.000061,0z" id="path3026" fill-rule="evenodd" fill="#11c411"/>
  <path d="m397.329071,433.073181c0.187408,-1.725098 0.39624,-3.452698 0.553223,-5.200378c0.930756,-10.361267 1.226227,-20.419495 0.958954,-29.911194c-0.309631,-11.111877 -1.404358,-21.462158 -2.876801,-30.68573c-1.472443,-9.223572 -3.308868,-17.302063 -5.015961,-24.010071c-1.707031,-6.70813 -3.254303,-12.049133 -4.204498,-15.785461c-0.950226,-3.736389 -1.30899,-5.875488 -0.700775,-6.159302c0.608215,-0.283813 2.119781,1.314209 4.204529,4.647095c2.084778,3.332947 4.758514,8.411438 7.48703,15.047852c2.728485,6.636353 5.48584,14.84906 7.745209,24.378906c2.259338,9.529846 3.994507,20.371704 4.68399,32.08728c0.585236,9.986755 0.455444,20.588562 -0.516357,31.460205c-0.124176,1.389404 -0.257019,2.756531 -0.405701,4.130798l-11.912842,0z" id="path3028" fill-rule="evenodd" fill="#11c411"/>
  <path d="m421.47876,433.073181c2.3638,-7.292969 4.806885,-14.238892 7.054047,-20.747253c2.421478,-7.013184 4.609253,-13.55481 6.390137,-19.557739c1.038727,-3.507446 1.947174,-6.819702 2.683319,-9.90332c0.736176,-3.083679 1.293274,-5.935608 1.715118,-8.547852c0.412933,-2.580933 0.681763,-4.925781 0.857544,-6.971069c0.175812,-2.045349 0.250549,-3.784912 0.304291,-5.228333c0.053711,-1.44342 0.105286,-2.589294 0.193634,-3.374878c0.088318,-0.785583 0.227051,-1.217773 0.470276,-1.272522c0.243256,-0.054688 0.585236,0.275757 0.968201,0.995911c0.382996,0.720093 0.816132,1.841675 1.217194,3.319519c0.401031,1.477905 0.753448,3.316406 0.99588,5.504944c0.242371,2.188538 0.349121,4.708069 0.276611,7.496643c-0.069092,2.818359 -0.300964,5.921204 -0.746918,9.239502c-0.445953,3.318237 -1.0914,6.871399 -1.908752,10.567261c-1.393677,6.317688 -3.259216,13.149719 -5.449585,20.332275c-1.776306,5.824707 -3.78476,11.915161 -5.781586,18.146912l-9.23941,0z" id="path3030" fill-rule="evenodd" fill="#11c411"/>
  <path d="m531.078308,433.073181c-0.051392,-1.305359 -0.120056,-2.595398 -0.165955,-3.917053c-0.005005,-0.130554 0.003967,-0.267639 0,-0.398315c-0.374512,-11.156433 -0.552124,-21.80072 -0.763489,-31.535583c-0.211426,-9.734863 -0.479004,-18.558105 -0.863098,-25.95874c-0.384094,-7.400696 -0.880554,-13.383667 -1.493774,-17.527161c-0.613281,-4.143494 -1.325195,-6.43988 -2.058105,-6.43988c-0.732971,0 -1.433716,2.282471 -2.091309,6.406677c-0.657593,4.124268 -1.281677,10.080994 -1.858948,17.460754c-0.577271,7.379761 -1.102051,16.192505 -1.427429,25.991943c-0.325317,9.799438 -0.443542,20.60022 -0.066406,31.967102c0.004028,0.133179 -0.003967,0.26532 0,0.398376c0.040039,1.197266 0.114319,2.366272 0.166016,3.55188l10.622498,0z" id="path3032" fill-rule="evenodd" fill="#11c411"/>
  <path d="m503.277069,433.073181c-0.223877,-5.584595 -0.700256,-10.942444 -1.434692,-15.849976c-0.889771,-5.945251 -2.14093,-11.236633 -3.529846,-15.553955c-1.388855,-4.317322 -2.893372,-7.666321 -4.144653,-9.883423c-1.251282,-2.217163 -2.225464,-3.308228 -2.687195,-3.119934c-0.461731,0.188354 -0.369751,1.640686 0.045471,4.076355c0.415344,2.43573 1.12439,5.862061 1.821838,10.133972c0.69751,4.271912 1.368103,9.384949 1.844604,15.121277c0.386963,4.657349 0.631592,9.746216 0.797058,15.075684l7.287354,0l0.000061,0z" id="path3034" fill-rule="evenodd" fill="#11c411"/>
  <path d="m580.789978,342.748108c-0.274353,-0.004028 -0.718628,0.339966 -1.300171,1.051208c-0.664612,0.812805 -1.509216,2.105896 -2.434326,3.845154c-0.92511,1.739258 -1.924561,3.929016 -2.876953,6.583801c-0.952393,2.654724 -1.849304,5.78064 -2.544983,9.294739c-0.636902,3.222839 -1.091675,6.77179 -1.32782,10.59491c-0.236145,3.823181 -0.240662,7.921692 0.027588,12.199402c0.399841,6.315735 1.321472,13.029968 2.766296,19.972656c1.444885,6.942688 3.40686,14.107605 5.64325,21.355835c0.455933,1.477844 0.917847,2.922791 1.383118,4.370728c0.182251,0.570068 0.369934,1.121765 0.553284,1.687439l9.239441,0c-0.465515,-1.452698 -0.920654,-2.870544 -1.383179,-4.343079c-0.447449,-1.432373 -0.882507,-2.864685 -1.32782,-4.31543c-2.184082,-7.115356 -4.154968,-14.037842 -5.726196,-20.636536c-1.571289,-6.598755 -2.733337,-12.874939 -3.430237,-18.783203c-0.473389,-3.989075 -0.754395,-7.809998 -0.829895,-11.369507c-0.0755,-3.559448 0.052795,-6.864746 0.304321,-9.90332c0.543823,-6.612 1.723083,-11.906189 2.572632,-15.57428c0.424805,-1.834045 0.751404,-3.274353 0.912903,-4.28772c0.161438,-1.013428 0.146912,-1.591553 -0.110657,-1.715149c-0.032227,-0.015381 -0.071533,-0.026978 -0.110657,-0.027588l0.000061,-0.000061z" id="path3036" fill-rule="evenodd" fill="#11c411"/>
  <path d="m536.038818,343.377808c-0.10022,-0.02002 -0.234741,0.018005 -0.331482,0.165771c-0.09668,0.147644 -0.142212,0.432007 -0.16571,0.629761c-0.049622,0.349609 -0.054016,0.803345 0,1.325867c0.106689,1.032898 0.416565,2.421082 0.861816,4.077148c0.885864,3.291687 2.380005,7.815002 4.176514,13.325134c3.546631,10.873047 8.361755,25.807861 12.098755,43.422913c1.814758,8.562744 3.331604,17.771057 4.375427,27.379578l10.706543,0c-1.135681,-10.497681 -3.048584,-20.499084 -5.369812,-29.666748c-2.296448,-9.077148 -4.994568,-17.347412 -7.75647,-24.66156c-2.761841,-7.314087 -5.577148,-13.665344 -8.154236,-18.893921c-2.62085,-5.319214 -4.960938,-9.441467 -6.762024,-12.33075c-0.913574,-1.469666 -1.66333,-2.586487 -2.254028,-3.381042c-0.301819,-0.410156 -0.555481,-0.703369 -0.762329,-0.928101c-0.134338,-0.206726 -0.293396,-0.235718 -0.397827,-0.298279c-0.10437,-0.062622 -0.165039,-0.145691 -0.265137,-0.165771z" id="path3038" fill-rule="evenodd" fill="#11c411"/>
  <path d="m474.645721,360.922668c0.562622,0.189392 0.367004,2.474915 -0.359619,6.445496c-0.726624,3.97052 -1.974487,9.645691 -3.430237,16.653076c-1.455627,7.007446 -3.113037,15.329529 -4.370728,24.620056c-1.051025,7.763794 -1.819763,16.208191 -1.936401,25.062683l-8.769165,0c0.241394,-9.40155 1.310669,-18.283203 2.793945,-26.335144c1.763611,-9.573547 4.073242,-18.006287 6.334839,-24.952026c2.261597,-6.94574 4.469849,-12.386658 6.196533,-16.072205c1.726685,-3.685486 2.97821,-5.611328 3.540833,-5.421936z" id="path3040" fill-rule="evenodd" fill="#11c411"/>
  <path d="m605.336487,362.703491c-0.654602,0 -1.268738,1.838989 -1.867737,5.099182c-0.598999,3.260132 -1.195435,7.954773 -1.778748,13.785522c-0.583313,5.83075 -1.137817,12.783691 -1.571228,20.544922c-0.433472,7.761169 -0.733459,16.335266 -0.563293,25.377197c0.004944,0.300354 0.022888,0.589905 0.029602,0.889404c0.031372,1.560303 0.086548,3.117126 0.148193,4.65448l9.486816,0c-0.049866,-1.6073 -0.110657,-3.223022 -0.148193,-4.862c-0.006042,-0.291809 -0.024048,-0.566956 -0.029602,-0.859741c-0.170532,-8.815186 -0.16095,-17.274292 -0.207581,-24.991821c-0.04657,-7.71759 -0.140198,-14.694092 -0.415039,-20.574585c-0.27478,-5.880493 -0.709473,-10.641907 -1.245117,-13.933716c-0.535706,-3.29187 -1.183472,-5.128845 -1.838074,-5.128845z" id="path3042" fill-rule="evenodd" fill="#11c411"/>
  <path d="m614.040894,370.023804c-0.581726,0.180237 -0.536438,2.153137 -0.138306,5.560242c0.398132,3.407166 1.152527,8.256287 1.936401,14.24646c0.783875,5.990173 1.576477,13.135498 2.213013,21.106873c0.560852,7.02301 0.983582,14.710083 1.300171,22.766602l8.852173,0c-0.364136,-8.355103 -1.049011,-16.361328 -2.047058,-23.651855c-1.116089,-8.152527 -2.599243,-15.429321 -4.204773,-21.438782c-1.605591,-6.00946 -3.327393,-10.754272 -4.758057,-13.942139c-1.430664,-3.187866 -2.571838,-4.827637 -3.153564,-4.6474z" id="path3044" fill-rule="evenodd" fill="#11c411"/>
  <path id="path3046" d="m480.693329,433.073181c0.187378,-1.725098 0.39624,-3.452698 0.553223,-5.200378c0.930725,-10.361267 1.226196,-20.419495 0.958923,-29.911194c-0.30957,-11.111877 -1.404358,-21.462158 -2.87677,-30.68573c-1.472473,-9.223572 -3.308899,-17.302063 -5.01593,-24.010071c-1.707092,-6.70813 -3.254333,-12.049133 -4.204529,-15.785461c-0.950256,-3.736389 -1.309021,-5.875488 -0.700806,-6.159302c0.608215,-0.283813 2.119812,1.314209 4.204529,4.647095c2.084778,3.332947 4.758545,8.411438 7.487061,15.047852c2.728516,6.636353 5.48584,14.84906 7.745178,24.378906c2.259338,9.529846 3.994507,20.371704 4.684021,32.08728c0.585266,9.986755 0.455444,20.588562 -0.516357,31.460205c-0.124207,1.389404 -0.257019,2.756531 -0.405701,4.130798l-11.912842,0z" fill-rule="evenodd" fill="#11c411"/>
  <path id="path3048" d="m516.154297,342.748108c-0.274353,-0.004028 -0.718628,0.339966 -1.300171,1.051208c-0.664612,0.812805 -1.509216,2.105896 -2.434326,3.845154c-0.925079,1.739258 -1.92453,3.929016 -2.876923,6.583801c-0.952393,2.654724 -1.849304,5.78064 -2.544983,9.294739c-0.636902,3.222839 -1.091675,6.77179 -1.32782,10.59491c-0.236145,3.823181 -0.240662,7.921692 0.027588,12.199402c0.399841,6.315735 1.321472,13.029968 2.766296,19.972656c1.444885,6.942688 3.40686,14.107605 5.643219,21.355835c0.455933,1.477844 0.917847,2.922791 1.383118,4.370728c0.182251,0.570068 0.369934,1.121765 0.553284,1.687439l9.239441,0c-0.465515,-1.452698 -0.920654,-2.870544 -1.383179,-4.343079c-0.447449,-1.432373 -0.882507,-2.864685 -1.32782,-4.31543c-2.184082,-7.115356 -4.154968,-14.037842 -5.726196,-20.636536c-1.571289,-6.598755 -2.733337,-12.874939 -3.430237,-18.783203c-0.473389,-3.989075 -0.754395,-7.809998 -0.829895,-11.369507c-0.0755,-3.559448 0.052795,-6.864746 0.304321,-9.90332c0.543823,-6.612 1.723083,-11.906189 2.572632,-15.57428c0.424805,-1.834045 0.751404,-3.274353 0.912903,-4.28772c0.161438,-1.013428 0.146912,-1.591553 -0.110657,-1.715149c-0.032227,-0.015381 -0.071533,-0.026978 -0.110657,-0.027588l0.000061,-0.000061z" fill-rule="evenodd" fill="#11c411"/>
  <path id="path3050" d="m604.826782,348.377808c0.10022,-0.02002 0.234741,0.018005 0.331482,0.165771c0.09668,0.147644 0.142212,0.432007 0.16571,0.629761c0.049622,0.349609 0.054016,0.803345 0,1.325867c-0.106689,1.032898 -0.416565,2.421082 -0.861816,4.077148c-0.885864,3.291687 -2.380005,7.815002 -4.176514,13.325134c-3.546631,10.873047 -8.361755,25.807861 -12.098755,43.422913c-1.814758,8.562744 -3.331665,17.771057 -4.375427,27.379578l-10.706543,0c1.135681,-10.497681 3.048584,-20.499084 5.369812,-29.666748c2.296448,-9.077148 4.994568,-17.347412 7.75647,-24.66156c2.761841,-7.314087 5.577148,-13.665344 8.154236,-18.893921c2.62085,-5.319214 4.960938,-9.441467 6.762024,-12.33075c0.913574,-1.469666 1.66333,-2.586487 2.254028,-3.381042c0.301819,-0.410156 0.555481,-0.703369 0.762329,-0.928101c0.134338,-0.206726 0.293396,-0.235718 0.397766,-0.298279c0.10437,-0.062622 0.1651,-0.145691 0.265198,-0.165771z" fill-rule="evenodd" fill="#11c411"/>
  <path id="path3052" d="m650.281433,360.922668c0.562622,0.189392 0.367004,2.474915 -0.359619,6.445496c-0.726624,3.97052 -1.974548,9.645691 -3.430237,16.653076c-1.455627,7.007446 -3.113037,15.329529 -4.370728,24.620056c-1.051025,7.763794 -1.819763,16.208191 -1.936401,25.062683l-8.769165,0c0.241394,-9.40155 1.310669,-18.283203 2.793945,-26.335144c1.763611,-9.573547 4.073242,-18.006287 6.334839,-24.952026c2.261597,-6.94574 4.469788,-12.386658 6.196533,-16.072205c1.726685,-3.685486 2.97821,-5.611328 3.540833,-5.421936z" fill-rule="evenodd" fill="#11c411"/>
  <path id="path3054" d="m561.700745,359.703491c-0.654602,0 -1.268738,1.838989 -1.867737,5.099182c-0.598999,3.260132 -1.195435,7.954773 -1.778748,13.785522c-0.583313,5.83075 -1.137817,12.783691 -1.571228,20.544922c-0.433472,7.761169 -0.733459,16.335266 -0.563293,25.377197c0.005005,0.300354 0.022888,0.589905 0.029602,0.889404c0.031372,1.560303 0.086548,3.117126 0.148193,4.65448l9.486816,0c-0.049866,-1.6073 -0.110657,-3.223022 -0.148193,-4.862c-0.006042,-0.291809 -0.024048,-0.566956 -0.029602,-0.859741c-0.170532,-8.815186 -0.16095,-17.274292 -0.207581,-24.991821c-0.04657,-7.71759 -0.140198,-14.694092 -0.415039,-20.574585c-0.27478,-5.880493 -0.709473,-10.641907 -1.245117,-13.933716c-0.535645,-3.29187 -1.183472,-5.128845 -1.838074,-5.128845z" fill-rule="evenodd" fill="#11c411"/>
  <path id="path3056" d="m496.405243,366.023804c-0.581726,0.180237 -0.536438,2.153137 -0.138306,5.560242c0.398132,3.407166 1.152527,8.256287 1.936401,14.24646c0.783875,5.990173 1.576477,13.135498 2.213013,21.106873c0.560852,7.02301 0.983582,14.710083 1.300171,22.766602l8.852173,0c-0.364136,-8.355103 -1.049011,-16.361328 -2.047058,-23.651855c-1.116089,-8.152527 -2.599182,-15.429321 -4.204773,-21.438782c-1.605591,-6.00946 -3.327393,-10.754272 -4.758057,-13.942139c-1.430664,-3.187866 -2.571838,-4.827637 -3.153564,-4.6474z" fill-rule="evenodd" fill="#11c411"/>
  <g id="g3354" fill="#00892c"/>
  <title>Layer 1</title>
 </g>
</svg>