<svg xmlns="http://www.w3.org/2000/svg" idth="250px" height="174.771px" viewBox="0 0 250 174.771" xml:space="preserve">
<style type="text/css">
<![CDATA[
	.st0{fill:#ED3729;}
	.st1{fill:#FFFFFF;}
]]>
</style>
<g id="g20" transform="translate(154.2446,79.9023)">
	<path id="path22" class="st1" d="M58.457,7.613c0,47.77-38.729,86.507-86.502,86.507c-47.769,0-86.502-38.737-86.502-86.507
		c0-47.771,38.733-86.501,86.502-86.501C19.727-78.888,58.457-40.158,58.457,7.613"/>
</g>
<g id="g24" transform="translate(89.5078,145.5391)">
	<path id="path26" class="st0" d="M36.877-145.539c-48.26,0-87.385,39.125-87.385,87.386c0,48.264,39.125,87.385,87.385,87.385
		c48.266,0,87.39-39.121,87.39-87.385C124.267-106.414,85.143-145.539,36.877-145.539 M79.981-3.028H61.6l-5.085-35.949
		c-0.022-0.172-0.171-0.303-0.343-0.303c-0.176,0-0.321,0.131-0.342,0.303L50.734-3.028h-7.049l-6.469-59.346
		c-0.018-0.172-0.169-0.3-0.34-0.3c-0.176,0-0.319,0.128-0.342,0.3l-6.47,59.346H23.06L17.965-39
		c-0.017-0.175-0.167-0.307-0.343-0.307c-0.176,0-0.321,0.132-0.338,0.307L12.189-3.028H-6.223l7.34-14.354l-33.841-27.205
		l6.628-5.683l-5.772-22.923l20.028,2.78l5.763-10.835l23.256,17.73L8.1-104.007l14.596,6.368l14.181-24.71l14.184,24.71
		l14.594-6.368l-9.082,40.49l23.26-17.73l5.763,10.835l20.028-2.78L99.855-50.27l6.623,5.683L72.637-17.382L79.981-3.028z"/>
</g>
</svg>
