<?xml version="1.0" encoding="utf-8"?>
<!-- Generator: Adobe Illustrator 16.0.4, SVG Export Plug-In . SVG Version: 6.00 Build 0)  -->
<!DOCTYPE svg PUBLIC "-//W3C//DTD SVG 1.1//EN" "http://www.w3.org/Graphics/SVG/1.1/DTD/svg11.dtd">
<svg version="1.1" id="Layer_1" xmlns="http://www.w3.org/2000/svg" xmlns:xlink="http://www.w3.org/1999/xlink" x="0px" y="0px"
	 width="180px" height="72.512px" viewBox="0 0 180 72.512" style="enable-background:new 0 0 180 72.512;" xml:space="preserve">
<style type="text/css">
<![CDATA[
	.st0{fill:#463E3B;}
	.st1{fill:#4D97CB;}
	.st2{fill:#E8F0F9;}
	.st3{opacity:0.1;fill:#463E3B;enable-background:new    ;}
	.st4{fill:#BCD9EA;}
	.st5{fill:#F1F10E;}
	.st6{fill:#5EDDA6;}
	.st7{fill:#C1C10B;}
	.st8{fill:#2F2E33;}
	.st9{opacity:0.2;}
	.st10{fill:#FF4E00;}
	.st11{fill:#FFFFFF;}
	.st12{fill:#65FFC8;}
	.st13{opacity:0.35;fill:#5EDDA6;enable-background:new    ;}
	.st14{fill:#4D97CB;enable-background:new    ;}
]]>
</style>
<g class="st9">
	<rect x="30.558" y="50.5" class="st5" width="20.275" height="5.321"/>
	<rect x="30.522" y="54.54" class="st7" width="20.274" height="1.183"/>
	<path class="st8" d="M30.059,50h21.273v6.327H30.059V50z M50.333,51H31.057v4.328h19.276V51z"/>
	<rect x="19.471" y="45.179" class="st5" width="20.274" height="5.321"/>
	<rect x="19.438" y="49.221" class="st7" width="20.274" height="1.183"/>
	<path class="st8" d="M18.971,44.683h21.274v6.327H18.971V44.683z M39.247,45.682H19.97v4.328h19.276V45.682z"/>
</g>
<g class="st9">
	<rect x="139.92" y="20.771" class="st5" width="20.275" height="5.321"/>
	<rect x="139.884" y="24.81" class="st7" width="20.275" height="1.182"/>
	<path class="st8" d="M139.421,20.271h21.273v6.327h-21.273V20.271z M159.696,21.27h-19.277v4.329h19.277V21.27z"/>
	<rect x="119.608" y="20.771" class="st5" width="20.275" height="5.321"/>
	<rect x="119.572" y="24.81" class="st7" width="20.274" height="1.182"/>
	<path class="st8" d="M119.109,20.271h21.273v6.327h-21.273V20.271z M139.384,21.27h-19.276v4.329h19.276V21.27z"/>
	<rect x="129.521" y="15.449" class="st5" width="20.274" height="5.321"/>
	<rect x="129.488" y="19.492" class="st7" width="20.274" height="1.182"/>
	<path class="st8" d="M129.021,14.953h21.274v6.327h-21.274V14.953z M149.297,15.952h-19.276v4.329h19.276V15.952z"/>
</g>
<g class="st9">
	<rect x="26.253" y="14.271" class="st5" width="20.275" height="5.321"/>
	<rect x="26.216" y="18.31" class="st7" width="20.275" height="1.182"/>
	<path class="st8" d="M25.754,13.771h21.274v6.327H25.754V13.771z M46.029,14.77H26.752v4.329h19.276V14.77z"/>
	<rect x="5.941" y="14.271" class="st5" width="20.275" height="5.321"/>
	<rect x="5.905" y="18.31" class="st7" width="20.275" height="1.182"/>
	<path class="st8" d="M5.442,13.771h21.274v6.327H5.442V13.771z M25.717,14.77H6.441v4.329h19.276V14.77z"/>
	<rect x="15.854" y="8.949" class="st5" width="20.275" height="5.321"/>
	<rect x="15.821" y="12.992" class="st7" width="20.275" height="1.182"/>
	<path class="st8" d="M15.355,8.453h21.274v6.327H15.355V8.453z M35.63,9.452H16.354v4.329H35.63V9.452z"/>
</g>
<path class="st6" d="M149.164,50.031h2.457c2.491,0,4.51,2.019,4.51,4.509l0,0c0.004,1.535-0.774,2.968-2.064,3.8L149,61.601
	L149.164,50.031z"/>
<path class="st0" d="M148.826,62.174l0.17-12.461h2.771c2.665,0.016,4.814,2.188,4.799,4.853c-0.008,1.62-0.83,3.128-2.187,4.015
	L148.826,62.174z M149.637,50.347l-0.146,10.655l4.563-2.941c1.944-1.257,2.503-3.852,1.245-5.797
	c-0.771-1.194-2.097-1.916-3.519-1.917H149.637z"/>
<path class="st11" d="M149.586,51.614h1.641c1.659,0,3.004,1.346,3.004,3.006l0,0c0.003,1.023-0.516,1.979-1.377,2.533l-3.372,2.172
	L149.586,51.614z"/>
<path class="st0" d="M149.143,59.904l0.117-8.606h1.95c1.835,0,3.322,1.486,3.322,3.321c0,1.13-0.573,2.182-1.523,2.793
	L149.143,59.904z M149.899,51.93l-0.092,6.803l2.875-1.854c1.249-0.803,1.609-2.467,0.806-3.715
	c-0.494-0.77-1.348-1.234-2.262-1.234H149.899z"/>
<path class="st12" d="M147.265,69.03c5.858-4.592,4.274-22.482,4.274-22.482h-20.107l-7.282,14.25l1.583,8.444L147.265,69.03"/>
<path class="st6" d="M149.754,46.389h-0.748c0,0,1.584,17.891-4.274,22.482l-19.315,0.189v0.022l21.532-0.212
	c4.829-3.8,4.601-16.608,4.372-20.997C151.27,47.044,150.585,46.396,149.754,46.389z"/>
<path class="st0" d="M147.461,68.963l-0.39-0.497c4.702-3.687,4.452-16.618,4.263-20.497c-0.037-0.797-0.694-1.423-1.492-1.422
	h-18.41v-0.633h18.41c1.135,0,2.068,0.891,2.122,2.023C152.211,53.004,152.268,65.195,147.461,68.963z"/>
<polygon class="st12" points="52.903,67.446 22.058,67.446 12.78,58.172 13.229,57.722 22.317,66.813 52.903,66.813 "/>
<rect x="0.316" y="68.713" class="st1" width="179.367" height="3.482"/>
<polygon class="st14" points="178.074,68.413 178.074,71.278 1.466,71.278 1.466,68.413 0.085,68.413 0.085,71.895 179.455,71.895 
	179.455,68.413 "/>
<path class="st0" d="M180,72.512H0v-4.115h180V72.512z M0.633,71.879h178.734v-2.85H0.633V71.879z"/>
<circle class="st2" cx="8.717" cy="38.134" r="8.052"/>
<path class="st4" d="M8.717,30.082C7.684,30.08,6.659,30.277,5.7,30.665c4.312-1.096,8.696,1.512,9.791,5.824
	c0.985,3.879-1.027,7.894-4.725,9.426c4.295-1.16,6.837-5.582,5.677-9.877c-0.945-3.5-4.112-5.938-7.738-5.956H8.717z"/>
<path class="st11" d="M2.878,37.975c0-4.08,3.053-7.515,7.105-7.995c-4.417-0.521-8.419,2.637-8.94,7.053
	c-0.521,4.417,2.637,8.42,7.054,8.94c0.627,0.074,1.26,0.074,1.886,0C5.931,45.495,2.877,42.057,2.878,37.975z"/>
<path class="st0" d="M8.717,46.506c-4.622-0.007-8.363-3.76-8.356-8.382c0.007-4.622,3.76-8.363,8.382-8.356
	c4.617,0.007,8.356,3.752,8.356,8.369C17.094,42.762,13.342,46.508,8.717,46.506z M8.717,30.398
	c-4.272,0.007-7.73,3.476-7.723,7.749c0.007,4.271,3.476,7.73,7.749,7.723c4.266-0.007,7.721-3.467,7.723-7.732
	C16.462,33.861,12.994,30.396,8.717,30.398z"/>
<path class="st0" d="M5.789,33.774h5.858c0.605,0,1.096,0.49,1.096,1.096v2.929c0,2.225-1.804,4.028-4.028,4.028l0,0
	c-2.225,0-4.028-1.804-4.028-4.028l0,0V34.87c0-0.605,0.49-1.096,1.096-1.096C5.784,33.774,5.786,33.774,5.789,33.774z"/>
<rect x="8.401" y="40.148" class="st12" width="0.633" height="13.423"/>
<rect x="9.994" y="53.159" class="st5" width="1.121" height="0.158"/>
<rect x="10.288" y="53.424" transform="matrix(-0.4348 0.9005 -0.9005 -0.4348 63.4879 68.1225)" class="st5" width="0.158" height="1.121"/>
<rect x="9.543" y="54.168" transform="matrix(-0.9433 0.3319 -0.3319 -0.9433 36.8611 103.1614)" class="st5" width="0.159" height="1.121"/>
<rect x="11.02" y="58.346" class="st5" width="1.121" height="0.158"/>
<rect x="11.687" y="57.121" transform="matrix(-0.4348 0.9005 -0.9005 -0.4348 68.8256 72.167)" class="st5" width="0.158" height="1.121"/>
<rect x="12.438" y="56.37" transform="matrix(-0.9468 0.3218 -0.3218 -0.9468 42.6871 106.8045)" class="st5" width="0.158" height="1.121"/>
<path class="st2" d="M46.193,0.316h85.161c1.988,0,3.6,1.612,3.6,3.601V64.28l0,0h-92.36l0,0V3.917
	C42.593,1.928,44.205,0.316,46.193,0.316L46.193,0.316z"/>
<rect x="45.303" y="60.731" class="st4" width="86.762" height="0.87"/>
<path class="st11" d="M131.354,0.316H46.193c-1.988,0-3.6,1.612-3.6,3.601v1.9c0-1.989,1.612-3.601,3.6-3.601h85.161
	c1.988,0,3.6,1.612,3.6,3.601v-1.9C134.953,1.928,133.342,0.316,131.354,0.316z"/>
<path class="st0" d="M135.21,64.596H42.226V3.917C42.227,1.754,43.98,0.001,46.142,0h85.161c2.158,0.007,3.905,1.758,3.907,3.917
	V64.596z M42.853,63.963h91.724V3.917c-0.002-1.809-1.465-3.277-3.273-3.284H46.142c-1.812,0.001-3.282,1.471-3.283,3.284
	L42.853,63.963z"/>
<rect x="45.392" y="6.016" class="st11" width="86.446" height="54.781"/>
<rect x="45.708" y="6.016" class="st3" width="86.129" height="1.583"/>
<path class="st0" d="M132.043,61.114H45.392V5.7h86.651V61.114z M46.019,60.48h85.391V6.333H46.025L46.019,60.48z"/>
<path class="st2" d="M29.787,64.28h117.636l0,0v1.793c0,1.633-1.324,2.957-2.958,2.957H33.505c-2.053,0-3.718-1.664-3.718-3.718l0,0
	V64.28L29.787,64.28z"/>
<rect x="30.126" y="64.28" class="st4" width="117.633" height="1.9"/>
<path class="st0" d="M143.848,69.346H33.584c-2.21-0.002-4.001-1.793-4.002-4.002v-1.381h118.269v1.381
	C147.849,67.553,146.058,69.344,143.848,69.346z M30.218,64.596v0.748c0.002,1.858,1.507,3.365,3.366,3.369h110.264
	c1.86-0.002,3.367-1.51,3.369-3.369v-0.748H30.218z"/>
<circle class="st10" cx="87.902" cy="3.245" r="0.519"/>
<path class="st0" d="M87.902,3.923c-0.375,0-0.678-0.304-0.678-0.678c0-0.375,0.303-0.678,0.678-0.678
	c0.374,0,0.677,0.303,0.677,0.678C88.58,3.62,88.276,3.923,87.902,3.923L87.902,3.923z M87.902,2.885
	c-0.2,0-0.361,0.162-0.361,0.361s0.162,0.361,0.361,0.361c0.199,0,0.361-0.162,0.361-0.361S88.102,2.885,87.902,2.885L87.902,2.885z
	"/>
<path class="st0" d="M95.264,66.604H82.408c-1.624,0.005-3.215-0.453-4.588-1.32l-0.95-0.605l0.345-0.531l0.95,0.605
	c1.27,0.801,2.742,1.224,4.243,1.219h12.855c1.833,0.014,3.61-0.624,5.017-1.799l0.415,0.479
	C99.178,65.933,97.25,66.627,95.264,66.604z"/>
<path class="st13" d="M141.211,44.185c-0.764-0.548-1.426-1.228-1.955-2.004c-0.257-0.418-0.419-0.888-0.475-1.374
	c-0.064-0.506,0.018-1.019,0.234-1.479c0.115-0.237,0.271-0.451,0.463-0.633c0.181-0.164,0.373-0.314,0.576-0.45
	c0.373-0.263,0.744-0.521,0.832-0.836c0.09-0.312-0.051-0.652-0.316-1.016c-0.285-0.381-0.541-0.784-0.766-1.203
	c-0.879-1.729-1.104-3.717-0.634-5.599c0.227-0.928,0.64-1.801,1.213-2.565c0.565-0.757,1.32-1.352,2.188-1.726
	c-0.395,0.236-0.761,0.518-1.09,0.839c-0.32,0.322-0.604,0.679-0.846,1.064c-0.484,0.765-0.821,1.613-0.994,2.502
	c-0.348,1.766-0.092,3.597,0.729,5.199c0.208,0.399,0.446,0.781,0.713,1.143c0.151,0.21,0.273,0.44,0.363,0.684
	c0.101,0.283,0.101,0.591,0,0.875c-0.101,0.264-0.271,0.497-0.494,0.674c-0.188,0.154-0.385,0.295-0.592,0.424
	c-0.371,0.2-0.686,0.492-0.912,0.85c-0.195,0.375-0.284,0.797-0.256,1.219c0.018,0.441,0.131,0.873,0.332,1.267
	C139.908,42.846,140.593,43.51,141.211,44.185z"/>
<path class="st13" d="M143.74,42.209c0.633-0.723,0.729-1.678,0.607-2.533c-0.119-0.855-0.512-1.72-0.842-2.605
	c-0.17-0.455-0.303-0.922-0.398-1.397c-0.088-0.482-0.115-0.974-0.082-1.463c0.054-0.968,0.36-1.905,0.889-2.717
	c-0.285,0.878-0.42,1.799-0.396,2.723c0.04,0.905,0.237,1.796,0.579,2.635c0.317,0.867,0.693,1.773,0.738,2.779
	c0.027,0.496-0.047,0.993-0.215,1.461C144.455,41.549,144.146,41.942,143.74,42.209z"/>
<path class="st13" d="M146.59,34.926c0.634-0.722,0.729-1.678,0.608-2.533s-0.513-1.719-0.843-2.606
	c-0.17-0.454-0.303-0.921-0.398-1.396c-0.087-0.482-0.115-0.974-0.082-1.463c0.054-0.968,0.361-1.904,0.889-2.717
	c-0.285,0.878-0.42,1.8-0.395,2.723c0.04,0.905,0.236,1.796,0.579,2.635c0.316,0.868,0.693,1.773,0.737,2.78
	c0.027,0.496-0.046,0.992-0.215,1.459C147.305,34.266,146.996,34.658,146.59,34.926z"/>
<g>
	<path class="st0" d="M55.898,39.174v-3.735l8.437-11.572h4.806v11.415h2.22v3.892h-2.22v3.396h-4.519v-3.396H55.898z
		 M64.988,29.039l-4.545,6.243h4.545V29.039z"/>
	<path class="st0" d="M73.399,33.14c0-2.873,0.583-5.15,1.75-6.831c1.167-1.68,3.03-2.521,5.59-2.521
		c2.542,0,4.401,0.84,5.577,2.521c1.176,1.681,1.763,3.958,1.763,6.831c0,2.891-0.587,5.181-1.763,6.87
		c-1.175,1.689-3.034,2.534-5.577,2.534c-2.56,0-4.423-0.845-5.59-2.534C73.982,38.321,73.399,36.031,73.399,33.14z M83.639,33.14
		c0-1.654-0.196-2.921-0.588-3.801c-0.392-0.879-1.162-1.319-2.312-1.319c-1.167,0-1.951,0.444-2.351,1.332
		s-0.601,2.151-0.601,3.788c0,1.655,0.2,2.93,0.601,3.827c0.4,0.897,1.184,1.345,2.351,1.345c1.149,0,1.92-0.448,2.312-1.345
		C83.443,36.07,83.639,34.794,83.639,33.14z"/>
	<path class="st0" d="M90.273,39.174v-3.735l8.437-11.572h4.807v11.415h2.221v3.892h-2.221v3.396h-4.519v-3.396H90.273z
		 M99.363,29.039l-4.545,6.243h4.545V29.039z"/>
	<path class="st0" d="M112.058,38.103v4.467h-4.623v-4.467H112.058z"/>
	<path class="st0" d="M118.223,38.103v4.467H113.6v-4.467H118.223z"/>
	<path class="st0" d="M124.387,38.103v4.467h-4.623v-4.467H124.387z"/>
</g>
</svg>
