<?xml version="1.0" encoding="utf-8"?>
<!-- Generator: Adobe Illustrator 16.0.4, SVG Export Plug-In . SVG Version: 6.00 Build 0)  -->
<!DOCTYPE svg PUBLIC "-//W3C//DTD SVG 1.1//EN" "http://www.w3.org/Graphics/SVG/1.1/DTD/svg11.dtd">
<svg version="1.1" id="Layer_1" xmlns="http://www.w3.org/2000/svg" xmlns:xlink="http://www.w3.org/1999/xlink" x="0px" y="0px"
	 width="393px" height="400px" viewBox="0 0 393 400" style="enable-background:new 0 0 393 400;" xml:space="preserve">
<style type="text/css">
<![CDATA[
	.st0{fill:#4D97CB;}
	.st1{fill:#1A405F;}
	.st2{fill:#F8F1E5;}
	.st3{fill:#98BCBF;}
	.st4{fill:#337BAE;}
]]>
</style>
<g>
	<g>
		<ellipse class="st4" cx="125" cy="249.793" rx="2.102" ry="15.206"/>
		
			<ellipse transform="matrix(0.866 -0.5 0.5 0.866 -121.2924 92.4127)" class="st4" cx="111.79" cy="272.53" rx="15.206" ry="2.102"/>
		
			<ellipse transform="matrix(-0.866 -0.5 0.5 -0.866 121.6345 577.654)" class="st4" cx="138.212" cy="272.53" rx="15.206" ry="2.102"/>
		<circle class="st4" cx="125.001" cy="264.999" r="4.204"/>
	</g>
	<path class="st4" d="M125,268.854c-0.537,0-1.051-0.104-1.525-0.289l-2.033,41.488l1.877,0.421c0,0,1.506,0,3.365,0l1.875-0.421
		l-2.031-41.488C126.053,268.749,125.539,268.854,125,268.854z"/>
	<g>
		<ellipse class="st4" cx="339" cy="203.794" rx="2.102" ry="15.206"/>
		
			<ellipse transform="matrix(0.866 -0.5 0.5 0.866 -69.6188 193.2539)" class="st4" cx="325.79" cy="226.531" rx="15.206" ry="2.102"/>
		
			<ellipse transform="matrix(-0.866 -0.5 0.5 -0.866 543.9619 598.8236)" class="st4" cx="352.212" cy="226.531" rx="15.206" ry="2.102"/>
		<circle class="st4" cx="339.001" cy="219" r="4.204"/>
	</g>
	<path class="st4" d="M339,222.854c-0.537,0-1.051-0.104-1.525-0.289l-2.033,41.488l1.877,0.421c0,0,1.506,0,3.365,0l1.875-0.421
		l-2.031-41.488C340.053,222.75,339.539,222.854,339,222.854z"/>
</g>
<path class="st1" d="M298.933,286.013c-38.853,28.393-53.796,20.921-94.143,7.473c-85.177-25.403-130.006,73.222-192.768,106.097
	V400H393V245h-8.779C352.148,247.324,325.538,268.274,298.933,286.013z"/>
<path class="st3" d="M185.345,386.663l-8.147-8.538h3.33c2.052,0,3.112-2.462,1.703-3.953l-8.071-8.548h3.243
	c2.038,0,3.109-2.438,1.718-3.938l-10.156-10.938c-0.927-0.997-2.509-0.999-3.436,0l-10.157,10.938
	c-1.387,1.495-0.329,3.938,1.718,3.938h3.243l-8.071,8.548c-1.41,1.492-0.349,3.953,1.703,3.953h3.329l-8.146,8.538
	c-1.42,1.486-0.366,3.962,1.695,3.962h11.716c0,3.202-1.092,4.811-3.319,6.593c-1.151,0.92-0.497,2.782,0.976,2.782h14.063
	c1.473,0,2.126-1.862,0.976-2.782c-1.93-1.544-3.319-3.092-3.319-6.592v-0.001h11.716
	C185.704,390.625,186.768,388.153,185.345,386.663L185.345,386.663z"/>
<path class="st3" d="M358.106,341.643L353,336.291h2.087c1.286,0,1.95-1.543,1.067-2.477l-5.058-5.356h2.032
	c1.277,0,1.948-1.528,1.077-2.469l-6.365-6.854c-0.581-0.625-1.573-0.625-2.152,0l-6.367,6.854
	c-0.868,0.938-0.205,2.469,1.077,2.469h2.032l-5.058,5.356c-0.883,0.935-0.219,2.477,1.067,2.477h2.086l-5.105,5.352
	c-0.89,0.931-0.229,2.482,1.062,2.482h7.343c0,2.007-0.685,3.015-2.08,4.132c-0.722,0.576-0.312,1.743,0.611,1.743h8.812
	c0.923,0,1.333-1.167,0.611-1.743c-1.209-0.968-2.08-1.938-2.08-4.131v-0.001h7.343
	C358.332,344.125,358.997,342.576,358.106,341.643L358.106,341.643z"/>
<g>
	<rect x="251.537" y="379.312" class="st4" width="19.808" height="20.688"/>
	<path class="st0" d="M294.829,373.842l-9.582-7.898v-15.876c0-0.756-0.619-1.375-1.376-1.375h-6.419
		c-0.757,0-1.376,0.619-1.376,1.375v8.321l-10.259-8.447c-2.028-1.673-4.964-1.673-6.992,0l-29.013,23.9
		c-0.585,0.481-0.665,1.353-0.184,1.937l2.923,3.555c0.482,0.584,1.354,0.664,1.938,0.183l4.905-4.04v5.347v1.204v15.223
		c0,1.524,1.227,2.751,2.752,2.751h13.297c0.756,0,1.375-0.619,1.375-1.375v-12.839c0-0.756,0.619-1.376,1.376-1.376h8.253
		c0.757,0,1.376,0.62,1.376,1.376v12.839c0,0.756,0.619,1.375,1.375,1.375h13.298c1.524,0,2.751-1.227,2.751-2.751v-15.223v-1.204
		v-5.356l4.917,4.05c0.585,0.481,1.456,0.401,1.938-0.183l2.923-3.555C295.506,375.183,295.414,374.323,294.829,373.842z"/>
</g>
<path class="st2" d="M155.587,139.905c0-2.892-2.344-5.236-5.236-5.236l0,0c-0.115,0-0.23,0.005-0.344,0.012
	c0.008-0.113,0.012-0.229,0.012-0.345c-0.002-2.892-2.348-5.234-5.238-5.233c-2.893,0.001-5.236,2.347-5.234,5.238
	c0,0.448,0.057,0.894,0.172,1.326c-2.342-1.699-5.615-1.179-7.314,1.161c-1.699,2.341-1.18,5.615,1.162,7.313
	c0.605,0.44,1.299,0.745,2.031,0.895c1.021,2.706,4.043,4.072,6.748,3.052c0.738-0.278,1.404-0.721,1.947-1.292
	c2.309,1.742,5.594,1.284,7.336-1.024c0.229-0.302,0.422-0.627,0.58-0.971C154.241,144.029,155.587,142.081,155.587,139.905z"/>
<title>Layer 1</title>
<path class="st2" d="M287.105,338.711c0-1.431-1.159-2.591-2.59-2.591l0,0c-0.058,0-0.114,0.003-0.17,0.006
	c0.004-0.056,0.005-0.112,0.005-0.17c0-1.431-1.161-2.59-2.591-2.589c-1.431,0-2.591,1.16-2.59,2.591
	c0,0.222,0.028,0.442,0.085,0.656c-1.158-0.841-2.777-0.583-3.618,0.574c-0.841,1.158-0.583,2.778,0.575,3.618
	c0.3,0.218,0.643,0.368,1.005,0.442c0.505,1.339,2,2.015,3.338,1.51c0.365-0.138,0.695-0.356,0.964-0.639
	c1.142,0.861,2.767,0.635,3.629-0.507c0.113-0.149,0.209-0.311,0.287-0.48C286.44,340.751,287.105,339.787,287.105,338.711z"/>
<path class="st3" d="M228.996,326.371l-3.985-4.176h1.629c1.004,0,1.522-1.204,0.833-1.934l-3.947-4.182h1.586
	c0.997,0,1.521-1.192,0.84-1.926l-4.968-5.351c-0.453-0.488-1.228-0.488-1.68,0l-4.97,5.351c-0.679,0.73-0.16,1.926,0.841,1.926
	h1.585l-3.947,4.182c-0.688,0.729-0.17,1.934,0.834,1.934h1.628l-3.984,4.176c-0.695,0.728-0.179,1.938,0.829,1.938h5.731
	c0,1.567-0.535,2.353-1.624,3.226c-0.564,0.449-0.243,1.36,0.478,1.36h6.878c0.721,0,1.041-0.911,0.478-1.36
	c-0.943-0.756-1.624-1.513-1.624-3.225v-0.001h5.731C229.173,328.31,229.692,327.101,228.996,326.371L228.996,326.371z"/>
</svg>
