<svg xmlns="http://www.w3.org/2000/svg" width="291.543px" height="129.684px" viewBox="0 18 291.543 129.684" xml:space="preserve">
<style type="text/css">
<![CDATA[
	.st0{fill:#11C411;}
]]>
</style>
<path id="path4090" class="st0" d="M35.262,147.683c0.212-1.948,0.448-3.9,0.625-5.874c1.052-11.705,1.386-23.068,1.084-33.79
	c-0.35-12.553-1.587-24.245-3.25-34.665c-1.664-10.419-3.738-19.545-5.666-27.123c-1.929-7.578-3.677-13.612-4.75-17.833
	c-1.073-4.22-1.479-6.637-0.792-6.958c0.687-0.32,2.395,1.485,4.75,5.25c2.355,3.765,5.375,9.502,8.458,16.999
	c3.082,7.497,6.197,16.775,8.749,27.54c2.553,10.766,4.513,23.014,5.292,36.248c0.661,11.282,0.514,23.259-0.584,35.54
	c-0.14,1.568-0.29,3.114-0.458,4.666H35.262L35.262,147.683z"/>
<path id="path4088" class="st0" d="M63.673,147.683c2.67-8.238,5.431-16.085,7.969-23.438c2.735-7.923,5.207-15.312,7.219-22.094
	c1.174-3.962,2.199-7.704,3.031-11.188s1.461-6.705,1.938-9.656c0.467-2.915,0.771-5.564,0.969-7.875s0.283-4.275,0.344-5.906
	s0.119-2.925,0.219-3.812s0.257-1.376,0.531-1.438s0.661,0.312,1.094,1.125s0.922,2.081,1.375,3.75
	c0.453,1.67,0.852,3.746,1.125,6.219s0.395,5.318,0.312,8.469c-0.078,3.184-0.34,6.689-0.844,10.438
	c-0.504,3.749-1.232,7.763-2.156,11.938c-1.574,7.137-3.682,14.854-6.156,22.969c-2.007,6.58-4.275,13.46-6.531,20.5H63.673z"/>
<path id="path4086" class="st0" d="M107.36,147.683c0.058-1.475,0.136-2.932,0.188-4.425c0.006-0.147-0.005-0.303,0-0.45
	c0.423-12.603,0.624-24.627,0.862-35.625c0.239-10.997,0.541-20.964,0.976-29.324c0.434-8.36,0.994-15.119,1.688-19.8
	c0.692-4.681,1.497-7.275,2.324-7.275c0.828,0,1.62,2.579,2.363,7.237c0.742,4.659,1.447,11.389,2.1,19.726
	c0.652,8.336,1.245,18.292,1.612,29.362c0.368,11.069,0.501,23.271,0.075,36.112c-0.005,0.15,0.005,0.299,0,0.449
	c-0.045,1.353-0.129,2.674-0.188,4.013H107.36z"/>
<path id="path4038" class="st0" d="M138.767,147.683c0.253-6.309,0.791-12.361,1.621-17.905c1.005-6.716,2.418-12.693,3.987-17.57
	s3.269-8.661,4.682-11.165c1.414-2.505,2.515-3.737,3.036-3.524s0.418,1.854-0.052,4.604c-0.469,2.752-1.27,6.622-2.058,11.448
	s-1.546,10.602-2.084,17.082c-0.438,5.261-0.714,11.01-0.9,17.03H138.767L138.767,147.683z"/>
<path id="path4082" class="st0" d="M243.642,44.933c-0.31-0.005-0.812,0.384-1.469,1.188c-0.751,0.918-1.705,2.379-2.75,4.344
	s-2.174,4.438-3.25,7.438c-1.075,2.999-2.089,6.53-2.875,10.5c-0.719,3.641-1.233,7.649-1.5,11.969
	c-0.267,4.318-0.271,8.948,0.031,13.781c0.452,7.135,1.493,14.72,3.125,22.562c1.633,7.843,3.849,15.937,6.375,24.125
	c0.516,1.669,1.037,3.302,1.562,4.938c0.206,0.644,0.418,1.267,0.625,1.906h10.438c-0.525-1.642-1.04-3.243-1.562-4.906
	c-0.505-1.618-0.997-3.236-1.5-4.875c-2.467-8.038-4.693-15.858-6.469-23.312c-1.774-7.454-3.088-14.545-3.875-21.219
	c-0.534-4.507-0.852-8.823-0.938-12.844c-0.085-4.021,0.06-7.755,0.344-11.188c0.614-7.47,1.946-13.45,2.906-17.594
	c0.48-2.072,0.849-3.699,1.031-4.844s0.166-1.798-0.125-1.938C243.73,44.947,243.687,44.934,243.642,44.933L243.642,44.933z"/>
<path id="path4080" class="st0" d="M193.088,45.644c-0.113-0.022-0.266,0.021-0.374,0.188c-0.109,0.167-0.161,0.488-0.188,0.712
	c-0.057,0.395-0.062,0.907,0,1.497c0.12,1.167,0.471,2.735,0.974,4.606c1.001,3.718,2.688,8.828,4.718,15.053
	c4.007,12.283,9.446,29.154,13.668,49.054c2.05,9.673,3.764,20.075,4.942,30.93h12.095c-1.283-11.859-3.443-23.157-6.066-33.514
	c-2.594-10.254-5.642-19.597-8.762-27.859s-6.301-15.438-9.212-21.344c-2.96-6.009-5.604-10.666-7.639-13.93
	c-1.032-1.66-1.879-2.922-2.546-3.819c-0.341-0.464-0.628-0.795-0.861-1.049c-0.152-0.233-0.332-0.267-0.449-0.337
	C193.27,45.761,193.201,45.667,193.088,45.644z"/>
<path id="path4078" class="st0" d="M171.11,65.464c-0.636,0.214-0.414,2.796,0.406,7.281c0.821,4.485,2.23,10.896,3.875,18.812
	s3.517,17.317,4.938,27.812c1.188,8.771,2.056,18.31,2.188,28.312h9.906c-0.272-10.621-1.48-20.654-3.156-29.75
	c-1.992-10.815-4.602-20.341-7.156-28.188s-5.049-13.993-7-18.156C173.16,67.426,171.746,65.25,171.11,65.464z"/>
<path id="path4076" class="st0" d="M271.371,68.21c-0.739,0-1.433,2.077-2.109,5.761c-0.677,3.683-1.351,8.985-2.01,15.572
	s-1.285,14.441-1.775,23.209c-0.489,8.768-0.828,18.454-0.636,28.668c0.006,0.34,0.025,0.667,0.033,1.005
	c0.035,1.763,0.098,3.521,0.167,5.258h10.718c-0.057-1.815-0.125-3.641-0.168-5.492c-0.007-0.33-0.027-0.641-0.033-0.972
	c-0.192-9.958-0.182-19.514-0.234-28.232c-0.053-8.718-0.158-16.599-0.469-23.242c-0.311-6.643-0.802-12.021-1.407-15.74
	C272.843,70.286,272.11,68.21,271.371,68.21z"/>
<path id="path2886" class="st0" d="M25.186,146.019c-0.366-1.933-0.717-3.869-1.031-5.847c-0.218-1.389-0.401-2.803-0.589-4.212
	c-1.156-8.655-1.625-17.085-1.268-24.94c0.357-7.854,1.524-15.136,3.367-21.632c1.666-6.021,3.889-11.36,6.286-15.863
	c2.396-4.504,4.979-8.166,7.311-11.095c5.485-5.409,8.541-8.993,8.066-9.768c-0.491-0.761-4.516,1.402-11.34,5.998
	c-3.036,2.652-6.4,6.284-9.605,10.959c-3.205,4.675-6.224,10.419-8.561,17.059c-2.446,7.067-4.122,15.06-4.794,23.629
	s-0.355,17.705,0.914,26.938c0.207,1.504,0.449,3.005,0.697,4.479c0.337,2.021,0.715,3.992,1.112,5.96L25.186,146.019
	L25.186,146.019z"/>
<path id="path2888" class="st0" d="M35.262,147.683c0.212-1.948,0.448-3.9,0.625-5.874c1.052-11.705,1.386-23.068,1.084-33.79
	c-0.35-12.553-1.587-24.245-3.25-34.665c-1.664-10.419-3.738-19.545-5.666-27.123c-1.929-7.578-3.677-13.612-4.75-17.833
	c-1.073-4.22-1.479-6.637-0.792-6.958c0.687-0.32,2.395,1.485,4.75,5.25c2.355,3.765,5.375,9.502,8.458,16.999
	c3.082,7.497,6.197,16.775,8.749,27.54c2.553,10.766,4.513,23.014,5.292,36.248c0.661,11.282,0.514,23.259-0.584,35.54
	c-0.14,1.568-0.29,3.114-0.458,4.666H35.262L35.262,147.683z"/>
<path id="path2890" class="st0" d="M63.673,147.683c2.67-8.238,5.431-16.085,7.969-23.438c2.735-7.923,5.207-15.312,7.219-22.094
	c1.174-3.962,2.199-7.704,3.031-11.188s1.461-6.705,1.938-9.656c0.467-2.915,0.771-5.564,0.969-7.875s0.283-4.275,0.344-5.906
	s0.119-2.925,0.219-3.812s0.257-1.376,0.531-1.438s0.661,0.312,1.094,1.125s0.922,2.081,1.375,3.75
	c0.453,1.67,0.852,3.746,1.125,6.219s0.395,5.318,0.312,8.469c-0.078,3.184-0.34,6.689-0.844,10.438
	c-0.504,3.749-1.232,7.763-2.156,11.938c-1.574,7.137-3.682,14.854-6.156,22.969c-2.007,6.58-4.275,13.46-6.531,20.5H63.673z"/>
<path id="path2892" class="st0" d="M107.36,147.683c0.058-1.475,0.136-2.932,0.188-4.425c0.006-0.147-0.005-0.303,0-0.45
	c0.423-12.603,0.624-24.627,0.862-35.625c0.239-10.997,0.541-20.964,0.976-29.324c0.434-8.36,0.994-15.119,1.688-19.8
	c0.692-4.681,1.497-7.275,2.324-7.275c0.828,0,1.62,2.579,2.363,7.237c0.742,4.659,1.447,11.389,2.1,19.726
	c0.652,8.336,1.245,18.292,1.612,29.362c0.368,11.069,0.501,23.271,0.075,36.112c-0.005,0.15,0.005,0.299,0,0.449
	c-0.045,1.353-0.129,2.674-0.188,4.013H107.36z"/>
<path id="path2894" class="st0" d="M138.767,147.683c0.253-6.309,0.791-12.361,1.621-17.905c1.005-6.716,2.418-12.693,3.987-17.57
	s3.269-8.661,4.682-11.165c1.414-2.505,2.515-3.737,3.036-3.524s0.418,1.854-0.052,4.604c-0.469,2.752-1.27,6.622-2.058,11.448
	s-1.546,10.602-2.084,17.082c-0.438,5.261-0.714,11.01-0.9,17.03H138.767L138.767,147.683z"/>
<path id="path2896" class="st0" d="M243.642,44.933c-0.31-0.005-0.812,0.384-1.469,1.188c-0.751,0.918-1.705,2.379-2.75,4.344
	s-2.174,4.438-3.25,7.438c-1.075,2.999-2.089,6.53-2.875,10.5c-0.719,3.641-1.233,7.649-1.5,11.969
	c-0.267,4.318-0.271,8.948,0.031,13.781c0.452,7.135,1.493,14.72,3.125,22.562c1.633,7.843,3.849,15.937,6.375,24.125
	c0.516,1.669,1.037,3.302,1.562,4.938c0.206,0.644,0.418,1.267,0.625,1.906h10.438c-0.525-1.642-1.04-3.243-1.562-4.906
	c-0.505-1.618-0.997-3.236-1.5-4.875c-2.467-8.038-4.693-15.858-6.469-23.312c-1.774-7.454-3.088-14.545-3.875-21.219
	c-0.534-4.507-0.852-8.823-0.938-12.844c-0.085-4.021,0.06-7.755,0.344-11.188c0.614-7.47,1.946-13.45,2.906-17.594
	c0.48-2.072,0.849-3.699,1.031-4.844s0.166-1.798-0.125-1.938C243.73,44.947,243.687,44.934,243.642,44.933L243.642,44.933z"/>
<path id="path2898" class="st0" d="M193.088,45.644c-0.113-0.022-0.266,0.021-0.374,0.188c-0.109,0.167-0.161,0.488-0.188,0.712
	c-0.057,0.395-0.062,0.907,0,1.497c0.12,1.167,0.471,2.735,0.974,4.606c1.001,3.718,2.688,8.828,4.718,15.053
	c4.007,12.283,9.446,29.154,13.668,49.054c2.05,9.673,3.764,20.075,4.942,30.93h12.095c-1.283-11.859-3.443-23.157-6.066-33.514
	c-2.594-10.254-5.642-19.597-8.762-27.859s-6.301-15.438-9.212-21.344c-2.96-6.009-5.604-10.666-7.639-13.93
	c-1.032-1.66-1.879-2.922-2.546-3.819c-0.341-0.464-0.628-0.795-0.861-1.049c-0.152-0.233-0.332-0.267-0.449-0.337
	C193.27,45.761,193.201,45.667,193.088,45.644z"/>
<path id="path2900" class="st0" d="M171.11,65.464c-0.636,0.214-0.414,2.796,0.406,7.281c0.821,4.485,2.23,10.896,3.875,18.812
	s3.517,17.317,4.938,27.812c1.188,8.771,2.056,18.31,2.188,28.312h9.906c-0.272-10.621-1.48-20.654-3.156-29.75
	c-1.992-10.815-4.602-20.341-7.156-28.188s-5.049-13.993-7-18.156C173.16,67.426,171.746,65.25,171.11,65.464z"/>
<path id="path2902" class="st0" d="M271.371,68.21c-0.739,0-1.433,2.077-2.109,5.761c-0.677,3.683-1.351,8.985-2.01,15.572
	s-1.285,14.441-1.775,23.209c-0.489,8.768-0.828,18.454-0.636,28.668c0.006,0.34,0.025,0.667,0.033,1.005
	c0.035,1.763,0.098,3.521,0.167,5.258h10.718c-0.057-1.815-0.125-3.641-0.168-5.492c-0.007-0.33-0.027-0.641-0.033-0.972
	c-0.192-9.958-0.182-19.514-0.234-28.232c-0.053-8.718-0.158-16.599-0.469-23.242c-0.311-6.643-0.802-12.021-1.407-15.74
	C272.843,70.286,272.11,68.21,271.371,68.21z"/>
<path id="path2906" class="st0" d="M17.474,144.804c-0.551-1.944-1.084-3.894-1.578-5.89c-0.344-1.402-0.649-2.835-0.96-4.262
	c-1.911-8.764-3.015-17.381-3.13-25.509c-0.115-8.127,0.739-15.765,2.424-22.677c1.514-6.403,3.714-12.172,6.17-17.103
	c2.456-4.932,5.182-9.02,7.669-12.321c5.948-6.245,9.225-10.312,8.627-11.05c-0.617-0.722-5.103,2.002-12.646,7.574
	c-3.316,3.106-6.944,7.26-10.318,12.467c-3.375,5.207-6.463,11.491-8.708,18.613c-2.341,7.576-3.734,16.007-3.933,24.909
	c-0.199,8.901,0.778,18.264,2.857,27.607c0.339,1.522,0.718,3.037,1.103,4.522c0.523,2.038,1.09,4.02,1.679,5.996L17.474,144.804
	L17.474,144.804z"/>
<path id="path2908" class="st0" d="M44.201,147.683c0.217-2.002,0.459-4.006,0.642-6.033c1.08-12.021,1.423-23.689,1.112-34.701
	c-0.359-12.891-1.629-24.898-3.337-35.599c-1.709-10.701-3.839-20.073-5.819-27.854c-1.98-7.782-3.775-13.979-4.877-18.313
	c-1.103-4.335-1.519-6.816-0.813-7.146s2.459,1.524,4.877,5.391c2.419,3.867,5.521,9.759,8.687,17.458
	c3.165,7.699,6.364,17.227,8.985,28.282s4.634,23.634,5.434,37.226c0.679,11.586,0.528,23.885-0.599,36.497
	c-0.145,1.612-0.299,3.198-0.471,4.793H44.201z"/>
<path id="path2910" class="st0" d="M73.378,147.683c2.742-8.461,5.576-16.52,8.184-24.069c2.809-8.137,5.347-15.726,7.413-22.689
	c1.205-4.069,2.259-7.912,3.113-11.489c0.854-3.577,1.5-6.886,1.989-9.917c0.479-2.994,0.791-5.714,0.995-8.087
	s0.29-4.391,0.353-6.065s0.122-3.004,0.225-3.915c0.103-0.912,0.264-1.413,0.546-1.477s0.679,0.32,1.123,1.155
	s0.947,2.137,1.412,3.851c0.466,1.715,0.874,3.848,1.155,6.387s0.405,5.462,0.321,8.697c-0.08,3.27-0.35,6.869-0.866,10.719
	c-0.518,3.85-1.267,7.972-2.215,12.26c-1.617,7.329-3.781,15.255-6.322,23.588c-2.061,6.757-4.391,13.822-6.707,21.053H73.378z"/>
<path id="path2912" class="st0" d="M118.243,147.683c0.06-1.515,0.139-3.012,0.192-4.545c0.006-0.151-0.005-0.311,0-0.462
	c0.435-12.942,0.641-25.291,0.886-36.585s0.556-21.529,1.001-30.115s1.021-15.526,1.733-20.334c0.711-4.807,1.537-7.471,2.388-7.471
	c0.85,0,1.663,2.647,2.426,7.433c0.763,4.784,1.487,11.695,2.156,20.257c0.67,8.561,1.279,18.785,1.656,30.153
	c0.378,11.368,0.515,23.898,0.077,37.086c-0.005,0.154,0.005,0.308,0,0.462c-0.047,1.389-0.133,2.745-0.192,4.121H118.243
	L118.243,147.683z"/>
<path id="path2914" class="st0" d="M150.496,147.683c0.259-6.479,0.812-12.695,1.664-18.389c1.032-6.896,2.483-13.035,4.095-18.044
	s3.356-8.894,4.809-11.466c1.451-2.572,2.582-3.838,3.117-3.62c0.536,0.219,0.429,1.903-0.053,4.729
	c-0.481,2.825-1.305,6.801-2.113,11.757c-0.81,4.956-1.587,10.888-2.14,17.542c-0.449,5.403-0.733,11.307-0.925,17.49H150.496
	L150.496,147.683z"/>
<path id="path2916" class="st0" d="M258.198,42.164c-0.318-0.006-0.834,0.394-1.509,1.219c-0.771,0.943-1.751,2.443-2.824,4.461
	s-2.232,4.559-3.337,7.639c-1.105,3.079-2.146,6.706-2.953,10.782c-0.738,3.739-1.267,7.856-1.54,12.292
	c-0.274,4.436-0.279,9.189,0.032,14.152c0.464,7.327,1.532,15.116,3.209,23.171c1.676,8.055,3.952,16.366,6.547,24.775
	c0.528,1.715,1.064,3.391,1.604,5.07c0.211,0.661,0.429,1.302,0.642,1.958h10.719c-0.54-1.686-1.067-3.33-1.604-5.039
	c-0.519-1.661-1.023-3.323-1.54-5.006c-2.534-8.255-4.82-16.286-6.644-23.941c-1.822-7.655-3.171-14.937-3.979-21.79
	c-0.549-4.628-0.875-9.061-0.963-13.19c-0.087-4.129,0.062-7.964,0.354-11.489c0.631-7.67,1.999-13.812,2.984-18.067
	c0.493-2.128,0.872-3.799,1.06-4.975c0.187-1.176,0.17-1.847-0.129-1.99C258.289,42.177,258.243,42.164,258.198,42.164
	L258.198,42.164z"/>
<path id="path2918" class="st0" d="M206.281,42.894c-0.116-0.023-0.272,0.021-0.385,0.192c-0.112,0.171-0.165,0.501-0.192,0.73
	c-0.058,0.405-0.062,0.932,0,1.538c0.124,1.198,0.483,2.809,1,4.729c1.027,3.819,2.761,9.066,4.846,15.459
	c4.114,12.614,9.7,29.94,14.036,50.376c2.104,9.934,3.864,20.616,5.075,31.764h12.421c-1.317-12.179-3.536-23.781-6.229-34.417
	c-2.664-10.531-5.794-20.125-8.998-28.61s-6.471-15.854-9.46-21.919c-3.041-6.172-5.756-10.954-7.845-14.306
	c-1.06-1.705-1.93-3.001-2.615-3.923c-0.35-0.476-0.645-0.815-0.884-1.076c-0.156-0.24-0.341-0.273-0.462-0.346
	C206.468,43.013,206.397,42.917,206.281,42.894z"/>
<path id="path2920" class="st0" d="M183.712,63.248c-0.653,0.22-0.426,2.871,0.417,7.478s2.29,11.19,3.979,19.32
	c1.688,8.129,3.611,17.783,5.07,28.562c1.22,9.007,2.111,18.804,2.246,29.076h10.174c-0.28-10.907-1.521-21.211-3.241-30.552
	c-2.046-11.106-4.726-20.89-7.35-28.947c-2.624-8.059-5.186-14.37-7.188-18.646C185.816,65.262,184.364,63.028,183.712,63.248z"/>
<path id="path2922" class="st0" d="M286.675,66.068c-0.76,0-1.472,2.134-2.166,5.915c-0.695,3.782-1.388,9.229-2.064,15.993
	s-1.32,14.831-1.822,23.835c-0.503,9.004-0.852,18.951-0.654,29.44c0.007,0.349,0.027,0.685,0.035,1.032
	c0.036,1.81,0.1,3.616,0.172,5.399h11.006c-0.059-1.864-0.129-3.739-0.172-5.641c-0.008-0.339-0.027-0.657-0.035-0.997
	c-0.197-10.227-0.186-20.041-0.24-28.994c-0.054-8.953-0.162-17.047-0.481-23.869c-0.319-6.821-0.823-12.346-1.444-16.164
	C288.187,68.199,287.435,66.068,286.675,66.068z"/>
<path id="path2926" class="st0" d="M34.819,147.683c0.022-1.741,0.031-3.483,0-5.256c-0.024-1.244-0.084-2.505-0.139-3.763
	c-0.333-7.723-1.251-15.144-2.821-21.937c-1.57-6.792-3.779-12.961-6.473-18.341c-2.459-4.993-5.312-9.305-8.188-12.863
	c-2.876-3.558-5.787-6.354-8.354-8.548c-5.804-3.872-9.129-6.527-8.824-7.275c0.322-0.738,4.294,0.528,11.176,3.486
	c3.159,1.846,6.769,4.494,10.401,8.077s7.267,8.126,10.429,13.555c3.328,5.786,6.109,12.495,8.077,19.862s3.135,15.38,3.458,23.624
	c0.053,1.343,0.073,2.688,0.083,4.012c0.018,1.812-0.01,3.59-0.056,5.366H34.819L34.819,147.683z"/>
<path id="path2928" class="st0" d="M59.668,147.683c0.188-1.726,0.396-3.453,0.553-5.2c0.931-10.361,1.227-20.42,0.959-29.911
	c-0.31-11.112-1.404-21.463-2.877-30.687c-1.472-9.223-3.309-17.302-5.016-24.01s-3.254-12.049-4.204-15.785
	s-1.31-5.876-0.701-6.159c0.608-0.284,2.12,1.313,4.204,4.646c2.085,3.333,4.759,8.412,7.487,15.048
	c2.729,6.637,5.486,14.85,7.745,24.379c2.26,9.53,3.995,20.372,4.685,32.088c0.585,9.986,0.455,20.588-0.517,31.46
	c-0.124,1.39-0.257,2.757-0.406,4.131H59.668z"/>
<path id="path2930" class="st0" d="M84.817,147.683c2.364-7.293,4.807-14.239,7.054-20.747c2.422-7.014,4.609-13.555,6.391-19.558
	c1.039-3.508,1.947-6.82,2.684-9.903c0.735-3.084,1.293-5.936,1.715-8.548c0.413-2.581,0.682-4.926,0.857-6.972
	c0.176-2.045,0.251-3.785,0.305-5.229s0.104-2.589,0.193-3.374c0.088-0.786,0.227-1.218,0.47-1.272
	c0.244-0.055,0.586,0.275,0.969,0.995c0.383,0.721,0.816,1.842,1.217,3.319c0.401,1.479,0.754,3.316,0.996,5.506
	c0.242,2.188,0.35,4.708,0.276,7.496c-0.068,2.818-0.301,5.921-0.747,9.239c-0.445,3.318-1.091,6.872-1.908,10.567
	c-1.394,6.318-3.26,13.15-5.45,20.332c-1.775,5.825-3.784,11.916-5.781,18.147H84.817z"/>
<path id="path2932" class="st0" d="M123.49,147.683c0.052-1.306,0.12-2.596,0.166-3.917c0.005-0.131-0.004-0.268,0-0.398
	c0.374-11.156,0.552-21.801,0.764-31.535c0.211-9.735,0.479-18.559,0.863-25.959c0.384-7.4,0.88-13.384,1.493-17.527
	s1.325-6.439,2.059-6.439c0.732,0,1.434,2.282,2.091,6.406c0.658,4.124,1.282,10.081,1.859,17.461s1.102,16.192,1.427,25.992
	c0.326,9.799,0.444,20.6,0.066,31.967c-0.004,0.133,0.005,0.266,0,0.398c-0.04,1.197-0.114,2.366-0.166,3.552H123.49L123.49,147.683
	z"/>
<path id="path2934" class="st0" d="M151.292,147.683c0.224-5.585,0.7-10.942,1.435-15.85c0.89-5.945,2.141-11.237,3.529-15.555
	s2.894-7.666,4.145-9.883c1.252-2.218,2.226-3.309,2.688-3.12s0.37,1.641-0.046,4.076c-0.415,2.436-1.124,5.862-1.821,10.134
	c-0.697,4.272-1.368,9.385-1.845,15.121c-0.387,4.658-0.632,9.747-0.797,15.076H151.292L151.292,147.683z"/>
<path id="path2936" class="st0" d="M244.129,56.727c-0.274-0.004-0.719,0.34-1.301,1.051c-0.664,0.813-1.509,2.106-2.434,3.846
	c-0.926,1.739-1.925,3.929-2.877,6.584c-0.953,2.654-1.85,5.78-2.545,9.295c-0.638,3.223-1.092,6.771-1.328,10.595
	s-0.241,7.922,0.027,12.199c0.4,6.315,1.321,13.03,2.767,19.973c1.444,6.942,3.406,14.107,5.644,21.355
	c0.455,1.479,0.917,2.923,1.383,4.371c0.182,0.57,0.37,1.122,0.553,1.688h9.24c-0.466-1.453-0.921-2.871-1.384-4.343
	c-0.447-1.433-0.882-2.865-1.327-4.315c-2.185-7.116-4.155-14.038-5.727-20.637s-2.733-12.875-3.431-18.783
	c-0.473-3.989-0.754-7.811-0.829-11.37c-0.076-3.559,0.053-6.864,0.304-9.903c0.544-6.611,1.724-11.906,2.573-15.574
	c0.424-1.834,0.751-3.274,0.912-4.287c0.162-1.014,0.147-1.592-0.11-1.716C244.207,56.74,244.168,56.728,244.129,56.727
	L244.129,56.727z"/>
<path id="path2938" class="st0" d="M199.378,57.357c-0.101-0.021-0.235,0.018-0.332,0.166c-0.097,0.147-0.142,0.432-0.166,0.63
	c-0.049,0.35-0.054,0.803,0,1.325c0.107,1.033,0.417,2.421,0.862,4.077c0.886,3.292,2.38,7.815,4.177,13.325
	c3.546,10.873,8.361,25.808,12.099,43.423c1.814,8.562,3.331,17.771,4.375,27.38H231.1c-1.136-10.498-3.049-20.499-5.37-29.667
	c-2.296-9.077-4.994-17.348-7.757-24.661c-2.762-7.314-5.577-13.666-8.153-18.895c-2.621-5.319-4.961-9.441-6.763-12.33
	c-0.913-1.47-1.663-2.587-2.254-3.382c-0.302-0.41-0.556-0.703-0.763-0.928c-0.134-0.207-0.293-0.235-0.397-0.298
	C199.538,57.459,199.478,57.376,199.378,57.357z"/>
<path id="path2940" class="st0" d="M179.923,74.902c-0.562,0.189-0.367,2.475,0.359,6.445s1.975,9.646,3.431,16.653
	c1.455,7.007,3.113,15.329,4.37,24.62c1.052,7.764,1.82,16.208,1.937,25.062h8.77c-0.241-9.401-1.311-18.283-2.794-26.335
	c-1.764-9.574-4.073-18.007-6.335-24.952c-2.262-6.946-4.47-12.387-6.196-16.072S180.485,74.712,179.923,74.902z"/>
<path id="path2942" class="st0" d="M268.675,77.332c-0.654,0-1.269,1.84-1.867,5.1c-0.6,3.26-1.195,7.955-1.779,13.785
	c-0.583,5.831-1.138,12.784-1.571,20.545c-0.433,7.762-0.733,16.336-0.562,25.378c0.005,0.3,0.022,0.59,0.029,0.889
	c0.031,1.561,0.087,3.117,0.148,4.655h9.486c-0.05-1.607-0.11-3.224-0.148-4.862c-0.006-0.292-0.023-0.567-0.029-0.86
	c-0.17-8.814-0.161-17.273-0.207-24.991c-0.047-7.718-0.141-14.694-0.415-20.575c-0.275-5.88-0.71-10.642-1.245-13.934
	C269.978,79.168,269.33,77.332,268.675,77.332z"/>
<path id="path2944" class="st0" d="M277.38,84.002c-0.582,0.181-0.537,2.153-0.139,5.561s1.152,8.256,1.937,14.246
	s1.576,13.136,2.213,21.107c0.561,7.022,0.983,14.71,1.3,22.767h8.854c-0.365-8.355-1.05-16.361-2.048-23.652
	c-1.116-8.152-2.599-15.429-4.204-21.438c-1.606-6.01-3.328-10.754-4.759-13.942C279.103,85.462,277.961,83.823,277.38,84.002z"/>
<path id="path2948" class="st0" d="M173.875,147.683c-0.188-1.726-0.396-3.453-0.553-5.2c-0.931-10.361-1.227-20.42-0.959-29.911
	c0.31-11.112,1.404-21.463,2.877-30.687c1.472-9.223,3.309-17.302,5.016-24.01s3.254-12.049,4.204-15.785s1.31-5.876,0.701-6.159
	c-0.608-0.284-2.12,1.313-4.204,4.646c-2.085,3.333-4.759,8.412-7.487,15.048c-2.729,6.637-5.486,14.85-7.745,24.379
	c-2.26,9.53-3.995,20.372-4.685,32.088c-0.585,9.986-0.455,20.588,0.517,31.46c0.124,1.39,0.257,2.757,0.405,4.131H173.875z"/>
<path id="path2956" class="st0" d="M138.414,56.727c0.274-0.004,0.719,0.34,1.301,1.051c0.664,0.813,1.509,2.106,2.434,3.846
	c0.926,1.739,1.925,3.929,2.877,6.584c0.953,2.654,1.85,5.78,2.545,9.295c0.638,3.223,1.092,6.771,1.328,10.595
	s0.241,7.922-0.027,12.199c-0.4,6.315-1.321,13.03-2.767,19.973c-1.444,6.942-3.406,14.107-5.644,21.355
	c-0.455,1.479-0.917,2.923-1.383,4.371c-0.182,0.57-0.37,1.122-0.553,1.688h-9.24c0.466-1.453,0.921-2.871,1.384-4.343
	c0.447-1.433,0.882-2.865,1.327-4.315c2.185-7.116,4.155-14.038,5.727-20.637s2.733-12.875,3.431-18.783
	c0.473-3.989,0.754-7.811,0.829-11.37c0.076-3.559-0.053-6.864-0.304-9.903c-0.544-6.611-1.724-11.906-2.573-15.574
	c-0.425-1.834-0.751-3.274-0.912-4.287c-0.162-1.014-0.147-1.592,0.11-1.716C138.336,56.74,138.375,56.728,138.414,56.727
	L138.414,56.727z"/>
<path id="path2958" class="st0" d="M268.165,57.357c0.101-0.021,0.235,0.018,0.332,0.166c0.097,0.147,0.142,0.432,0.166,0.63
	c0.049,0.35,0.054,0.803,0,1.325c-0.107,1.033-0.417,2.421-0.862,4.077c-0.886,3.292-2.38,7.815-4.177,13.325
	c-3.546,10.873-8.361,25.808-12.099,43.423c-1.814,8.562-3.331,17.771-4.375,27.38h-10.707c1.136-10.498,3.049-20.499,5.37-29.667
	c2.296-9.077,4.994-17.348,7.757-24.661c2.762-7.314,5.577-13.666,8.153-18.895c2.621-5.319,4.961-9.441,6.763-12.33
	c0.913-1.47,1.663-2.587,2.254-3.382c0.302-0.41,0.556-0.703,0.763-0.928c0.134-0.207,0.293-0.235,0.397-0.298
	C268.005,57.459,268.065,57.376,268.165,57.357z"/>
<path id="path2962" class="st0" d="M92.868,77.332c0.654,0,1.269,1.84,1.867,5.1c0.6,3.26,1.195,7.955,1.779,13.785
	c0.583,5.831,1.138,12.784,1.571,20.545c0.433,7.762,0.733,16.336,0.562,25.378c-0.005,0.3-0.022,0.59-0.029,0.889
	c-0.031,1.561-0.087,3.117-0.148,4.655h-9.486c0.05-1.607,0.11-3.224,0.148-4.862c0.006-0.292,0.023-0.567,0.029-0.86
	c0.17-8.814,0.161-17.273,0.207-24.991c0.047-7.718,0.141-14.694,0.415-20.575c0.275-5.88,0.71-10.642,1.245-13.934
	C91.565,79.168,92.213,77.332,92.868,77.332z"/>
<path id="path2964" class="st0" d="M158.163,84.002c0.582,0.181,0.537,2.153,0.139,5.561s-1.152,8.256-1.937,14.246
	s-1.576,13.136-2.213,21.107c-0.561,7.022-0.983,14.71-1.3,22.767H144c0.364-8.355,1.049-16.361,2.047-23.652
	c1.116-8.152,2.6-15.429,4.205-21.438s3.327-10.754,4.758-13.942C156.44,85.462,157.582,83.823,158.163,84.002z"/>
<g id="g3354">
</g>
<title>Layer 1</title>
</svg>
