<svg xmlns="http://www.w3.org/2000/svg" viewBox="0 0 250 250">
<style type="text/css">
<![CDATA[
	.st0{fill:#AC867C;}
	.st1{opacity:0.5;fill:#F8F1E5;}
	.st2{opacity:0.45;fill:#F8F1E5;}
	.st3{opacity:0.55;fill:#F8F1E5;}
	.st4{opacity:0.2;fill:#F8F1E5;}
	.st5{opacity:0.65;fill:#F8F1E5;}
	.st6{opacity:0.75;fill:#F8F1E5;}
	.st7{fill:#F8F1E5;}
	.st8{opacity:0.85;fill:#F8F1E5;}
	.st9{fill:#F8F1E5;fill-opacity:0.25;}
	.st10{opacity:0.7;fill:#F8F1E5;}
	.st11{opacity:0.4;fill:#F8F1E5;}
	.st12{opacity:0.9;fill:#F8F1E5;}
	.st13{opacity:0.6;fill:#F8F1E5;}
	.st14{opacity:0.3;fill:#F8F1E5;}
]]>
</style>
<filter id="dropshadow" height="130%">
  <feGaussianBlur in="SourceAlpha" stdDeviation="3"/>
  <feOffset dx="2" dy="2" result="offsetblur"/>
  <feComponentTransfer>
    <feFuncA type="linear" slope="0.5"/>
  </feComponentTransfer>
  <feMerge> 
    <feMergeNode/>
    <feMergeNode in="SourceGraphic"/>
  </feMerge>
</filter>
<g>
	<rect y="200" class="st11" width="50" height="50"/>
	<rect class="st3" width="50" height="50"/>
	<rect x="50" class="st6" width="50" height="50"/>
	<rect x="200" class="st7" width="50" height="50"/>
	<rect x="150" class="st3" width="50" height="50"/>
	<rect x="100" class="st5" width="50" height="50"/>
	<rect y="100" class="st3" width="50" height="50"/>
	<rect x="50" y="100" class="st5" width="50" height="50"/>
	<rect x="200" y="100" class="st3" width="50" height="50"/>
	<rect x="150" y="100" class="st7" width="50" height="50"/>
	<rect x="100" y="100" class="st1" width="50" height="50"/>
	<rect y="150" class="st4" width="50" height="50"/>
	<rect x="50" y="150" class="st11" width="50" height="50"/>
	<rect x="200" y="150" class="st12" width="50" height="50"/>
	<rect x="150" y="150" class="st7" width="50" height="50"/>
	<rect x="100" y="150" class="st14" width="50" height="50"/>
	<rect x="50" y="200" class="st10" width="50" height="50"/>
	<rect x="200" y="200" class="st2" width="50" height="50"/>
	<rect x="150" y="200" class="st8" width="50" height="50"/>
	<rect x="100" y="200" class="st9" width="50" height="50"/>
	<rect y="50" class="st6" width="50" height="50"/>
	<rect x="50" y="50" class="st7" width="50" height="50"/>
	<rect x="200" y="50" class="st13" width="50" height="50"/>
	<rect x="150" y="50" class="st10" width="50" height="50"/>
	<rect x="100" y="50" class="st3" width="50" height="50"/>
</g>
<g style="filter:url(#dropshadow)">
	<polygon class="st0" points="105.156,210.134 25,26.55 146.313,186.208 	"/>
	<circle class="st0" cx="126.587" cy="199.646" r="23.803"/>
	<polygon class="st0" points="106.091,187.76 225,26.55 147.391,211.439 	"/>
</g>
</svg>
