<svg id="Layer_1" xmlns="http://www.w3.org/2000/svg" width="180" height="72.512">
  <style>
    .st0{fill:#463e3b}.st2{fill:#e8f0f9}.st4{fill:#bcd9ea}.st5{fill:#f1f10e}.st6{fill:#5edda6}.st7{fill:#c1c10b}.st8{fill:#2f2e33}.st9{opacity:.2}.st11{fill:#fff}.st12{fill:#65ffc8}.st13{opacity:.35;fill:#5edda6;enable-background:new}
  </style>
  <g class="st9">
    <path class="st5" d="M30.558 50.5h20.275v5.321H30.558z"/>
    <path class="st7" d="M30.522 54.54h20.274v1.183H30.522z"/>
    <path class="st8" d="M30.059 50h21.273v6.327H30.059V50zm20.274 1H31.057v4.328h19.276V51z"/>
    <path class="st5" d="M19.471 45.179h20.274V50.5H19.471z"/>
    <path class="st7" d="M19.438 49.221h20.274v1.183H19.438z"/>
    <path class="st8" d="M18.971 44.683h21.274v6.327H18.971v-6.327zm20.276.999H19.97v4.328h19.276v-4.328z"/>
  </g>
  <g class="st9">
    <path class="st5" d="M139.92 20.771h20.275v5.321H139.92z"/>
    <path class="st7" d="M139.884 24.81h20.275v1.182h-20.275z"/>
    <path class="st8" d="M139.421 20.271h21.273v6.327h-21.273v-6.327zm20.275.999h-19.277v4.329h19.277V21.27z"/>
    <path class="st5" d="M119.608 20.771h20.275v5.321h-20.275z"/>
    <path class="st7" d="M119.572 24.81h20.274v1.182h-20.274z"/>
    <path class="st8" d="M119.109 20.271h21.273v6.327h-21.273v-6.327zm20.275.999h-19.276v4.329h19.276V21.27z"/>
    <path class="st5" d="M129.521 15.449h20.274v5.321h-20.274z"/>
    <path class="st7" d="M129.488 19.492h20.274v1.182h-20.274z"/>
    <path class="st8" d="M129.021 14.953h21.274v6.327h-21.274v-6.327zm20.276.999h-19.276v4.329h19.276v-4.329z"/>
  </g>
  <g class="st9">
    <path class="st5" d="M26.253 14.271h20.275v5.321H26.253z"/>
    <path class="st7" d="M26.216 18.31h20.275v1.182H26.216z"/>
    <path class="st8" d="M25.754 13.771h21.274v6.327H25.754v-6.327zm20.275.999H26.752v4.329h19.276V14.77z"/>
    <path class="st5" d="M5.941 14.271h20.275v5.321H5.941z"/>
    <path class="st7" d="M5.905 18.31H26.18v1.182H5.905z"/>
    <path class="st8" d="M5.442 13.771h21.274v6.327H5.442v-6.327zm20.275.999H6.441v4.329h19.276V14.77z"/>
    <path class="st5" d="M15.854 8.949h20.275v5.321H15.854z"/>
    <path class="st7" d="M15.821 12.992h20.275v1.182H15.821z"/>
    <path class="st8" d="M15.355 8.453h21.274v6.327H15.355V8.453zm20.275.999H16.354v4.329H35.63V9.452z"/>
  </g>
  <path class="st6" d="M149.164 50.031h2.457a4.51 4.51 0 0 1 4.51 4.509 4.509 4.509 0 0 1-2.064 3.8L149 61.601l.164-11.57z"/>
  <path class="st0" d="M148.826 62.174l.17-12.461h2.771a4.827 4.827 0 0 1 2.612 8.868l-5.553 3.593zm.811-11.827l-.146 10.655 4.563-2.941a4.192 4.192 0 0 0-2.274-7.714h-2.143z"/>
  <path class="st11" d="M149.586 51.614h1.641a3.005 3.005 0 0 1 3.004 3.006 3.003 3.003 0 0 1-1.377 2.533l-3.372 2.172.104-7.711z"/>
  <path class="st0" d="M149.143 59.904l.117-8.606h1.95a3.32 3.32 0 0 1 1.799 6.114l-3.866 2.492zm.756-7.974l-.092 6.803 2.875-1.854a2.688 2.688 0 0 0-1.456-4.949h-1.327z"/>
  <path class="st12" d="M147.265 69.03c5.858-4.592 4.274-22.482 4.274-22.482h-20.107l-7.282 14.25 1.583 8.444 21.532-.212"/>
  <path class="st6" d="M149.754 46.389h-.748s1.584 17.891-4.274 22.482l-19.315.189v.022l21.532-.212c4.829-3.8 4.601-16.608 4.372-20.997a1.583 1.583 0 0 0-1.567-1.484z"/>
  <path class="st0" d="M147.461 68.963l-.39-.497c4.702-3.687 4.452-16.618 4.263-20.497a1.49 1.49 0 0 0-1.492-1.422h-18.41v-.633h18.41c1.135 0 2.068.891 2.122 2.023.247 5.067.304 17.258-4.503 21.026z"/>
  <path class="st12" d="M52.903 67.446H22.058l-9.278-9.274.449-.45 9.088 9.091h30.586z"/>
  <path fill="#4d97cb" d="M.316 68.713h179.367v3.482H.316z"/>
  <path fill="#4d97cb" d="M178.074 68.413v2.865H1.466v-2.865H.085v3.482h179.37v-3.482z"/>
  <path class="st0" d="M180 72.512H0v-4.115h180v4.115zM.633 71.879h178.734v-2.85H.633v2.85z"/>
  <circle class="st2" cx="8.717" cy="38.134" r="8.052"/>
  <path class="st4" d="M8.717 30.082a8.003 8.003 0 0 0-3.017.583 8.055 8.055 0 0 1 5.066 15.25 8.056 8.056 0 0 0-2.061-15.833h.012z"/>
  <path class="st11" d="M2.878 37.975a8.052 8.052 0 0 1 7.105-7.995 8.052 8.052 0 1 0 0 15.993 8.05 8.05 0 0 1-7.105-7.998z"/>
  <path class="st0" d="M8.717 46.506a8.37 8.37 0 1 1 8.382-8.369 8.378 8.378 0 0 1-8.382 8.369zm0-16.108a7.736 7.736 0 1 0 7.749 7.74 7.746 7.746 0 0 0-7.749-7.74z"/>
  <path class="st0" d="M5.789 33.774h5.858c.605 0 1.096.49 1.096 1.096v2.929a4.028 4.028 0 0 1-8.056 0V34.87c0-.605.49-1.096 1.096-1.096h.006z"/>
  <path class="st12" d="M8.401 40.148h.633v13.423h-.633z"/>
  <path class="st5" d="M9.994 53.159h1.121v.158H9.994z"/>
  <path transform="rotate(115.773 10.367 53.985)" class="st5" d="M10.288 53.424h.158v1.121h-.158z"/>
  <path transform="rotate(160.613 9.621 54.729)" class="st5" d="M9.543 54.168h.159v1.121h-.159z"/>
  <path class="st5" d="M11.02 58.346h1.121v.158H11.02z"/>
  <path transform="rotate(115.773 11.767 57.682)" class="st5" d="M11.687 57.121h.158v1.121h-.158z"/>
  <path transform="rotate(161.227 12.516 56.93)" class="st5" d="M12.438 56.37h.158v1.121h-.158z"/>
  <path class="st2" d="M46.193.316h85.161a3.6 3.6 0 0 1 3.6 3.601V64.28h-92.36V3.917A3.599 3.599 0 0 1 46.193.316z"/>
  <path class="st4" d="M45.303 60.731h86.762v.87H45.303z"/>
  <path class="st11" d="M131.354.316H46.193a3.6 3.6 0 0 0-3.6 3.601v1.9a3.6 3.6 0 0 1 3.6-3.601h85.161a3.6 3.6 0 0 1 3.6 3.601v-1.9a3.601 3.601 0 0 0-3.6-3.601z"/>
  <path class="st0" d="M135.21 64.596H42.226V3.917A3.918 3.918 0 0 1 46.142 0h85.161a3.92 3.92 0 0 1 3.907 3.917v60.679zm-92.357-.633h91.724V3.917a3.287 3.287 0 0 0-3.273-3.284H46.142a3.286 3.286 0 0 0-3.283 3.284l-.006 60.046z"/>
  <path class="st11" d="M45.392 6.016h86.446v54.781H45.392z"/>
  <path opacity=".1" fill="#463e3b" d="M45.708 6.016h86.129v1.583H45.708z"/>
  <path class="st0" d="M132.043 61.114H45.392V5.7h86.651v55.414zm-86.024-.634h85.391V6.333H46.025l-.006 54.147z"/>
  <path class="st2" d="M29.787 64.28h117.636v1.793a2.957 2.957 0 0 1-2.958 2.957H33.505a3.718 3.718 0 0 1-3.718-3.718V64.28z"/>
  <path class="st4" d="M30.126 64.28h117.633v1.9H30.126z"/>
  <path class="st0" d="M143.848 69.346H33.584a4.005 4.005 0 0 1-4.002-4.002v-1.381h118.269v1.381a4.006 4.006 0 0 1-4.003 4.002zm-113.63-4.75v.748a3.373 3.373 0 0 0 3.366 3.369h110.264a3.373 3.373 0 0 0 3.369-3.369v-.748H30.218z"/>
  <circle cx="87.902" cy="3.245" r=".519" fill="#ff4e00"/>
  <path class="st0" d="M87.902 3.923a.678.678 0 1 1 0-1.356.678.678 0 0 1 0 1.356zm0-1.038a.36.36 0 1 0 0 .722.36.36 0 0 0 0-.722zM95.264 66.604H82.408a8.543 8.543 0 0 1-4.588-1.32l-.95-.605.345-.531.95.605a7.905 7.905 0 0 0 4.243 1.219h12.855a7.734 7.734 0 0 0 5.017-1.799l.415.479a8.271 8.271 0 0 1-5.431 1.952z"/>
  <path class="st13" d="M141.211 44.185a8.04 8.04 0 0 1-1.955-2.004 3.36 3.36 0 0 1-.475-1.374 2.687 2.687 0 0 1 .234-1.479c.115-.237.271-.451.463-.633.181-.164.373-.314.576-.45.373-.263.744-.521.832-.836.09-.312-.051-.652-.316-1.016a9.56 9.56 0 0 1-.766-1.203 8.05 8.05 0 0 1-.634-5.599 7.08 7.08 0 0 1 1.213-2.565 5.393 5.393 0 0 1 2.188-1.726 5.88 5.88 0 0 0-1.09.839c-.32.322-.604.679-.846 1.064a7.279 7.279 0 0 0-.994 2.502 8.004 8.004 0 0 0 1.442 6.342c.151.21.273.44.363.684.101.283.101.591 0 .875a1.582 1.582 0 0 1-.494.674 5.637 5.637 0 0 1-.592.424c-.371.2-.686.492-.912.85a2.312 2.312 0 0 0-.256 1.219c.018.441.131.873.332 1.267.384.806 1.069 1.47 1.687 2.145zM143.74 42.209c.633-.723.729-1.678.607-2.533-.119-.855-.512-1.72-.842-2.605a9.077 9.077 0 0 1-.398-1.397 5.928 5.928 0 0 1-.082-1.463c.054-.968.36-1.905.889-2.717a8.137 8.137 0 0 0-.396 2.723c.04.905.237 1.796.579 2.635.317.867.693 1.773.738 2.779.027.496-.047.993-.215 1.461-.165.457-.474.85-.88 1.117zM146.59 34.926c.634-.722.729-1.678.608-2.533s-.513-1.719-.843-2.606a9.033 9.033 0 0 1-.398-1.396 5.977 5.977 0 0 1-.082-1.463 5.556 5.556 0 0 1 .889-2.717c-.285.878-.42 1.8-.395 2.723.04.905.236 1.796.579 2.635.316.868.693 1.773.737 2.78.027.496-.046.992-.215 1.459-.165.458-.474.85-.88 1.118z"/>
  <path class="st0" d="M55.898 39.174v-3.735l8.437-11.572h4.806v11.415h2.22v3.892h-2.22v3.396h-4.519v-3.396h-8.724zm9.09-10.135l-4.545 6.243h4.545v-6.243zM73.399 33.14c0-2.873.583-5.15 1.75-6.831 1.167-1.68 3.03-2.521 5.59-2.521 2.542 0 4.401.84 5.577 2.521 1.176 1.681 1.763 3.958 1.763 6.831 0 2.891-.587 5.181-1.763 6.87-1.175 1.689-3.034 2.534-5.577 2.534-2.56 0-4.423-.845-5.59-2.534-1.167-1.689-1.75-3.979-1.75-6.87zm10.24 0c0-1.654-.196-2.921-.588-3.801-.392-.879-1.162-1.319-2.312-1.319-1.167 0-1.951.444-2.351 1.332s-.601 2.151-.601 3.788c0 1.655.2 2.93.601 3.827.4.897 1.184 1.345 2.351 1.345 1.149 0 1.92-.448 2.312-1.345.392-.897.588-2.173.588-3.827zM90.273 39.174v-3.735l8.437-11.572h4.807v11.415h2.221v3.892h-2.221v3.396h-4.519v-3.396h-8.725zm9.09-10.135l-4.545 6.243h4.545v-6.243zM112.058 38.103v4.467h-4.623v-4.467h4.623zM118.223 38.103v4.467H113.6v-4.467h4.623zM124.387 38.103v4.467h-4.623v-4.467h4.623z"/>
</svg>
