<svg xmlns="http://www.w3.org/2000/svg" width="250px" height="200px" viewBox="0 0 250 200" xml:space="preserve">
<style type="text/css">
<![CDATA[
	.st0{fill:#56A0D3;}
	.st1{fill:#95BDE2;}
	.st2{fill:#00467F;}
]]>
</style>
<g>
	<g>
		<polygon class="st0" points="185.454,58.926 192.616,20.661 156.305,33.528 162.764,58.926 		"/>
		<polygon class="st1" points="156.305,33.528 150,8.774 132.802,25.728 140.048,39.304 		"/>
		<polygon class="st2" points="150.555,58.926 162.764,58.926 156.305,33.463 140.048,39.213 		"/>
	</g>
	<g>
		<polygon class="st0" points="132.067,174.971 159.772,200.149 166.992,161.317 144.121,154.214 		"/>
		<polygon class="st1" points="185.712,143.229 170.351,143.229 166.992,161.317 192.249,169.169 		"/>
		<polygon class="st2" points="150.458,143.229 144.121,154.214 166.992,161.317 170.351,143.229 		"/>
	</g>
	<g>
		<polygon class="st0" points="60.256,67.59 25.073,80.057 52.495,105.042 70.661,87.135 		"/>
		<polygon class="st1" points="60.914,130.498 67.695,118.85 52.495,105.042 34.858,122.421 		"/>
		<polygon class="st2" points="78.035,100.839 70.661,87.012 52.495,104.881 67.695,118.733 		"/>
	</g>
	<g>
		<polygon class="st0" points="190.908,132.297 225.253,120.139 197.831,95.154 180.311,112.417 		"/>
		<polygon class="st1" points="191.991,70.484 184.643,83.17 197.831,95.154 215.48,77.774 		"/>
		<polygon class="st2" points="174.264,101.084 180.311,112.417 197.831,95.154 184.643,83.17 		"/>
	</g>
	<g>
		<polygon class="st0" points="83.579,39.02 109.08,46.923 120.502,27.198 90.812,0.149 		"/>
		<polygon class="st1" points="83.579,39.02 58.322,31.175 65.362,58.926 79.981,58.926 		"/>
		<polygon class="st2" points="79.969,58.958 102.099,58.945 109.08,46.923 83.579,39.02 		"/>
	</g>
	<g>
		<polygon class="st0" points="64.962,143.229 58.142,179.844 94.485,166.938 88.465,143.229 		"/>
		<polygon class="st1" points="111.529,160.931 94.485,166.938 100.79,191.705 118.607,174.133 		"/>
		<polygon class="st2" points="102.183,143.229 88.465,143.229 94.485,166.938 111.529,160.931 		"/>
	</g>
</g>
</svg>
