<svg xmlns="http://www.w3.org/2000/svg" width="236.184px" height="140.972px" viewBox="0 -10.028 236.184 140.972" xml:space="preserve">
<style type="text/css">
<![CDATA[
	.st0{fill:#7A003C;}
	.st1{fill:#7A003C;stroke:#7A003C;stroke-width:0.3;}
	.st2{fill:#FFFFFF;}
]]>
</style>
<path class="st2" d="M203.758,130.745c-18.123-5.607-29.107-23.808-30.067-34.789c-0.01-0.15-0.012-0.193-0.012-42.921v-0.921
	v-0.923v-0.934v-0.312h0.312h0.933h0.922h0.921h27.823h0.132h27.823h0.921h0.922h0.934h0.312v0.312v0.934v0.923v0.921v42.65
	c-0.961,11.113-11.937,29.455-30.047,35.06l-0.881,0.198L203.758,130.745z"/>
<path class="st1" d="M46.96,41.493c-0.461-0.451-1.235-0.437-1.747-0.426c-0.068,0.001-0.133,0.003-0.188,0.003
	c-0.776,0-1.514-0.056-2.002-0.731c-0.589-0.795-0.58-3.294-0.577-4.361l0.001-0.242V8.003c0-0.23-0.009-0.51-0.018-0.808
	c-0.033-1.19-0.091-3.188,0.42-3.875c0.318-0.452,1.168-0.418,1.851-0.391c0.157,0.006,0.308,0.013,0.445,0.013
	c1.677,0,1.858-1.083,1.858-1.548c0-0.41-0.119-0.729-0.355-0.944c-0.396-0.363-0.976-0.312-1.44-0.271
	C45.074,0.189,44.949,0.2,44.846,0.2h-6.674c-0.691,0-1.551,0-2.017,1.185L24.213,32.173C22.291,26.764,13.678,2.524,13.682,2.536
	c-0.053-0.165-0.1-0.327-0.145-0.483C13.275,1.142,13.006,0.2,11.723,0.2H4.768c-0.104,0-0.229-0.012-0.362-0.021
	C3.939,0.138,3.359,0.087,2.963,0.45C2.729,0.667,2.608,0.985,2.608,1.396c0,0.465,0.182,1.548,1.858,1.548
	c1.354,0,2.207,0.073,2.557,0.446c0.373,0.4,0.383,1.305,0.265,3.062c0,0-1.859,29.812-1.859,29.815
	c-0.189,3.569-0.402,4.805-3.299,4.805c-1.724,0-1.979,0.815-1.979,1.303c0,0.562,0.238,1.233,1.379,1.233
	c0.875,0,1.777-0.057,2.649-0.111c0.882-0.057,1.793-0.114,2.688-0.114c0.887,0,1.795,0.058,2.672,0.113
	c0.891,0.056,1.812,0.112,2.725,0.112c0.521,0,1.739,0,1.739-1.233c0-0.334-0.114-0.624-0.331-0.84
	c-0.478-0.474-1.294-0.468-1.835-0.463h-0.112c-1.195,0-2.053-0.292-2.62-0.893c-1.122-1.188-1.084-3.514-0.919-6.429L9.856,7.151
	c1.905,5.521,11.484,33.293,11.476,33.263l0.014,0.055c0.135,0.552,0.387,1.578,1.293,1.578c0.768,0,1.041-0.797,1.224-1.324
	c0.024-0.069,0.047-0.135,0.067-0.19l12.92-34.117v29.321l0.002,0.365c0.01,1.173,0.027,3.356-0.77,4.114
	c-0.566,0.536-1.731,0.855-2.53,0.855c-0.056,0-0.12-0.002-0.188-0.003c-0.513-0.011-1.285-0.025-1.746,0.426
	c-0.229,0.224-0.345,0.52-0.345,0.881c0,0.562,0.271,1.233,1.56,1.233c1.17,0,2.375-0.057,3.541-0.111
	c1.182-0.057,2.402-0.114,3.606-0.114c0.953,0,1.925,0.058,2.865,0.113c0.949,0.056,1.93,0.112,2.9,0.112
	c1.289,0,1.56-0.672,1.56-1.233C47.304,42.013,47.188,41.717,46.96,41.493z"/>
<path class="st1" d="M70.051,20.859c-1.026,0-1.718-1.223-2.594-2.771c-1.243-2.199-2.791-4.938-5.691-4.938
	c-2.182,0-4.636,1.387-6.102,2.76c-2.768,2.666-4.421,6.796-4.421,11.045c0,6.738,4.36,14.014,11.406,14.014
	c2.759,0,5.167-1.021,6.968-2.949c0.024-0.027,0.067-0.082,0.114-0.139c0.375-0.457,0.721-0.836,1.142-0.836
	c0.475,0,0.86,0.438,0.86,0.979c0,0.388-0.21,1.101-2.026,2.826c-2.608,2.338-5.877,3.57-9.459,3.57
	c-7.883,0-14.541-7.357-14.541-16.066c0-9.379,7.701-17.303,16.815-17.303c2.354,0,5.871,0.75,8.034,2.396
	c0.833,0.639,0.758,1.848,0.698,2.819c-0.014,0.218-0.027,0.424-0.027,0.597c0,0.069,0.009,0.206,0.019,0.364
	c0.078,1.275,0.11,2.689-0.478,3.314C70.576,20.751,70.328,20.859,70.051,20.859z"/>
<path class="st1" d="M118.479,41.493c-0.461-0.451-1.233-0.437-1.746-0.426c-0.067,0.001-0.133,0.003-0.188,0.003
	c-0.777,0-1.516-0.056-2.002-0.731c-0.59-0.795-0.581-3.294-0.578-4.361l0.001-0.242V8.003c0-0.23-0.009-0.51-0.017-0.808
	c-0.034-1.19-0.093-3.188,0.42-3.875c0.317-0.452,1.167-0.418,1.85-0.391c0.158,0.006,0.307,0.013,0.445,0.013
	c1.678,0,1.858-1.083,1.858-1.548c0-0.41-0.119-0.729-0.354-0.944c-0.396-0.363-0.978-0.312-1.441-0.271
	c-0.133,0.011-0.259,0.021-0.36,0.021h-6.676c-0.689,0-1.55,0-2.015,1.185L95.731,32.173C93.81,26.764,85.196,2.524,85.2,2.536
	c-0.053-0.165-0.1-0.327-0.145-0.483C84.795,1.142,84.524,0.2,83.242,0.2h-6.957c-0.104,0-0.229-0.012-0.361-0.021
	c-0.465-0.041-1.045-0.092-1.441,0.271c-0.234,0.217-0.354,0.534-0.354,0.944c0,0.465,0.182,1.548,1.858,1.548
	c1.354,0,2.207,0.073,2.557,0.446c0.374,0.4,0.382,1.305,0.264,3.062c0,0-1.859,29.812-1.859,29.815
	c-0.188,3.569-0.4,4.804-3.299,4.804c-1.722,0-1.979,0.816-1.979,1.304c0,0.562,0.239,1.233,1.379,1.233
	c0.876,0,1.777-0.057,2.648-0.111c0.883-0.057,1.794-0.114,2.688-0.114c0.887,0,1.794,0.058,2.672,0.113
	c0.892,0.056,1.812,0.112,2.726,0.112c0.521,0,1.737,0,1.737-1.233c0-0.334-0.113-0.624-0.331-0.84
	c-0.476-0.474-1.294-0.468-1.835-0.464h-0.11c-1.197,0-2.055-0.292-2.621-0.892c-1.121-1.188-1.084-3.514-0.918-6.429L81.377,7.15
	c1.903,5.522,11.482,33.293,11.474,33.263l0.014,0.055c0.137,0.552,0.388,1.578,1.294,1.578c0.768,0,1.042-0.797,1.224-1.324
	c0.023-0.069,0.047-0.135,0.068-0.19l12.92-34.117v29.321l0.002,0.365c0.01,1.173,0.025,3.356-0.771,4.114
	c-0.564,0.536-1.73,0.855-2.53,0.855c-0.055,0-0.118-0.002-0.188-0.003c-0.512-0.011-1.285-0.025-1.747,0.426
	c-0.228,0.224-0.343,0.52-0.343,0.881c0,0.562,0.27,1.233,1.559,1.233c1.17,0,2.375-0.057,3.54-0.111
	c1.182-0.057,2.403-0.114,3.608-0.114c0.952,0,1.924,0.058,2.864,0.113c0.948,0.056,1.931,0.112,2.9,0.112
	c1.289,0,1.559-0.672,1.559-1.233C118.822,42.013,118.707,41.717,118.479,41.493z"/>
<path class="st1" d="M132.875,25.782c2.131-1.107,2.131-1.107,2.131-3.554v-3.084c0-3.664-0.246-5.889-3.658-5.889
	c-3.291,0-5.302,1.63-6.939,5.627c-0.003,0.005-0.137,0.324-0.137,0.324c-0.388,0.938-0.789,1.907-1.83,2.417
	c-0.646,0.361-2.022,0.954-2.879,0.954c-0.83,0-1.233-0.412-1.233-1.262c0-1.977,1.488-4.081,2.764-5.281
	c3.078-3.064,7.549-4.974,11.657-4.974c2.751,0,4.793,0.664,6.067,1.972c1.447,1.338,1.418,3.05,1.391,4.704l-0.008,0.705v16.543
	v0.122c-0.001,1.126-0.005,3.765,0.95,4.721c0.232,0.231,0.51,0.346,0.844,0.346c0.807,0,1.36-0.59,1.807-1.064
	c0.346-0.368,0.645-0.688,1.039-0.688c0.477,0,0.863,0.438,0.863,0.979c0,0.921-1.036,1.896-1.594,2.421l-0.058,0.054
	c-1.304,1.01-2.993,2.138-4.777,2.138c-2.296,0-3.214-2.277-3.82-3.784c-0.177-0.436-0.416-1.031-0.553-1.128
	c0.009,0.005,0.036,0.021,0.078,0.021c0.06,0,0.096-0.017,0.096-0.018c-0.113,0.053-0.498,0.396-0.836,0.7
	c-1.677,1.502-5.163,4.627-9.519,4.627c-3.068,0-6.328-2.082-6.328-5.94c0-5.035,5.51-7.998,9.156-9.959l0.413-0.224
	C127.969,28.306,132.876,25.782,132.875,25.782z M128.686,30.446c-2.471,1.395-4.757,3.111-4.757,6.224
	c0,2.744,2.143,3.717,3.979,3.717c1.997,0,4.098-0.997,5.614-2.666c1.424-1.633,1.484-2.705,1.484-4.976v-4.206
	c0-0.049,0.004-0.113,0.009-0.203c0.059-1.064-0.056-1.312-0.105-1.368c0.01,0.012,0.042,0.028,0.07,0.028c0.009,0,0.015,0,0.015,0
	c-0.057,0.008-0.212,0.086-0.296,0.129c-0.097,0.048-0.188,0.094-0.274,0.126l0.06-0.027
	C134.482,27.223,128.684,30.448,128.686,30.446z"/>
<path class="st1" d="M146.937,34.628l0.012-0.101c0.063-0.59,0.195-1.817,1.228-1.817c1.124,0,1.383,1.354,1.682,2.919
	c0.541,2.829,1.282,6.704,6.634,6.704c3.549,0,7.32-2.267,7.32-6.464c0-3.878-3.002-5.312-5.815-6.351
	c0.004,0.001-0.572-0.202-0.572-0.202c-3.972-1.403-9.413-3.327-9.413-9.042c0-2.654,1.219-5.027,3.524-6.859
	c2.04-1.59,4.572-2.361,7.748-2.361c1.648,0,5.074,0.46,6.689,1.182c1.12,0.59,1.036,1.867,0.97,2.894
	c-0.016,0.233-0.029,0.455-0.029,0.652c0,0.047,0.011,0.18,0.021,0.318c0.104,1.251,0.165,2.635-0.395,3.242
	c-0.182,0.196-0.414,0.3-0.676,0.3c-0.796,0-1.122-0.837-1.538-1.896c-0.778-1.986-1.845-4.707-6.187-4.707
	c-2.215,0-5.418,1.701-5.418,4.778c0,3.479,3.087,4.646,6.661,5.995c4.295,1.622,9.162,3.462,9.162,9.949
	c0,7.36-7.272,10.671-12.437,10.671c-2.163,0-6.001-0.867-8.268-2.158c-1.124-0.545-1.112-1.568-1.101-2.561l0.003-0.332
	C146.745,39.365,146.934,34.658,146.937,34.628z"/>
<path class="st1" d="M186.236,39.406c0-0.431-0.368-0.912-0.861-0.912c-0.319,0-0.599,0.246-1.104,0.691
	c-0.801,0.706-2.012,1.772-3.45,1.772c-0.772,0-1.385-0.236-1.869-0.723c-1.443-1.442-1.442-4.759-1.441-6.952v-0.147V15.314
	c0-0.688,0.119-0.945,0.219-1.042c0.159-0.15,0.545-0.133,1.034-0.108c0.2,0.01,0.427,0.021,0.667,0.021h3.542
	c0.257,0,0.486,0.012,0.688,0.022c0.562,0.026,1.008,0.051,1.333-0.258c0.315-0.302,0.358-0.796,0.358-1.284
	c0-0.518,0-1.382-0.988-1.382c0,0-6.262,0-6.229,0.002c-0.506-0.041-0.625-0.084-0.625-0.988V5.307c0-1.044-0.503-1.263-0.925-1.263
	c-0.618,0-0.905,0.64-1.018,0.887c-1.412,3.281-3.147,4.961-5.891,6.937c-0.044,0.039-0.093,0.077-0.144,0.119
	c-0.32,0.264-0.76,0.622-0.76,1.229c0,0.264,0.099,0.493,0.285,0.666c0.437,0.4,1.212,0.374,1.906,0.316
	c0.078-0.007,0.158-0.014,0.188-0.014c0.146,0,0.282-0.003,0.401-0.005c0.264-0.006,0.592-0.014,0.649,0.043
	c0.025,0.025,0.109,0.158,0.109,0.812v18.104l-0.007,0.999c-0.027,2.724-0.059,5.812,1.479,7.979
	c1.069,1.452,2.896,2.319,4.885,2.319c2.213,0,4.399-0.974,6.161-2.742C185.216,41.379,186.236,40.345,186.236,39.406z"/>
<path class="st1" d="M212.697,35.937c-0.393,0-0.723,0.328-1.322,0.924c-1.281,1.272-3.666,3.642-8.037,3.642
	c-7.779,0-11.851-7.172-11.851-14.258c0-0.855,0.093-1.347,0.288-1.543c0.225-0.223,0.758-0.22,1.563-0.217l0.321,0.001h19.162
	c0.355,0,1.18-0.157,1.18-1.621c0-2.398-0.965-5.471-2.295-7.309c-2.11-2.861-5.554-4.502-9.445-4.502
	c-4.407,0-8.444,1.66-11.675,4.799c-3.207,3.104-4.637,6.808-4.637,12.006c0,9.293,6.497,16.574,14.793,16.574
	c4.147,0,7.318-1.25,10.281-4.051l0.045-0.043c1.766-1.676,2.553-2.731,2.553-3.422C213.622,36.367,213.217,35.937,212.697,35.937z
	 M193.507,17.64c1.817-2.811,4.76-4.487,7.869-4.487c1.566,0,3.739,0.352,5.183,2.018c0.938,1.108,1.545,2.621,1.545,3.848
	c0,1.299-0.624,2.035-2.027,2.39c-1.778,0.473-5.292,0.543-7.229,0.543h-5.123c-0.096,0-0.2,0.004-0.312,0.008
	c-0.432,0.016-1.082,0.037-1.318-0.191c-0.044-0.042-0.102-0.119-0.102-0.304C191.992,20.497,192.913,18.44,193.507,17.64z"/>
<path class="st1" d="M232.01,11.398c-3.374,0-5.641,3.088-6.858,4.747c-0.173,0.236-0.359,0.49-0.508,0.67
	c-0.011-0.145-0.014-0.354,0-0.662c0.003-0.077,0.006-0.14,0.006-0.188v-3.443l0.001-0.1c0.004-0.336,0.011-0.794-0.297-1.104
	c-0.119-0.121-0.335-0.264-0.69-0.264c-0.602,0-0.983,0.479-1.265,0.827c-0.064,0.081-0.126,0.157-0.206,0.249
	c-0.993,1.309-3.646,3.045-5.055,3.5c-0.076,0.029-0.163,0.057-0.255,0.086c-0.551,0.18-1.474,0.479-1.474,1.498
	c0,0.596,0.463,0.979,1.178,0.979h0.822c0.736,0,1.312,0.152,1.522,0.423c0.538,0.597,0.528,3.137,0.525,3.972l-0.001,0.229v13.17
	c0,0.396,0.01,0.776,0.019,1.145c0.066,2.646-0.012,3.93-2.488,4.184c-0.097,0.011-0.208,0.017-0.323,0.021
	c-0.639,0.031-1.823,0.092-1.823,1.386c0,0.706,0.487,1.126,1.305,1.126c0.984,0,1.998-0.052,2.979-0.103
	c0.992-0.053,2.018-0.104,3.022-0.104c0.92,0,1.857,0.049,2.851,0.102c1.009,0.053,2.051,0.105,3.091,0.105
	c0.728,0,1.179-0.459,1.179-1.197c0-1.178-1.213-1.266-1.864-1.312c-0.102-0.008-0.197-0.014-0.282-0.023
	c-2.478-0.254-2.556-1.537-2.488-4.183c0.009-0.368,0.019-0.749,0.019-1.145V24.92v-0.329c-0.002-2.597-0.004-4.312,1.376-6.484
	c0.676-0.938,1.695-2.354,2.887-2.354c0.604,0,0.955,0.409,1.475,1.076c0.552,0.711,1.24,1.594,2.572,1.594
	c1.811,0,3.076-1.328,3.076-3.23C236.034,13.028,234.304,11.398,232.01,11.398z"/>
<path class="st1" d="M20.833,57.687l0.001-0.213c0.002-0.887,0.006-2.966-0.354-3.635c-0.327-0.669-0.995-0.721-1.833-0.721h-0.061
	c-0.294,0.002-0.785,0.006-1.101-0.308c-0.114-0.112-0.25-0.315-0.25-0.637c0-0.262,0.091-0.491,0.263-0.662
	c0.21-0.211,0.53-0.322,0.928-0.322c0.566,0,1.135,0.045,1.685,0.088c0.533,0.041,1.085,0.084,1.62,0.084
	c0.459,0,0.913-0.041,1.396-0.084c0.479-0.043,0.975-0.088,1.471-0.088c1.074,0,1.191,0.66,1.191,0.943
	c0,0.653-0.537,0.984-1.597,0.984c-1.376,0-1.442,0.682-1.475,2.36c-0.004,0.217-0.008,0.44-0.017,0.67
	c0.001-0.016,0.001,12.741,0.001,12.741c0,2.534,0,4.722-2.148,6.802c-1.605,1.538-3.957,2.284-7.192,2.284
	c-1.747,0-4.991-0.257-7.096-1.974c-2.333-1.781-2.331-4.25-2.328-6.864v-0.248V56.052l0.001-0.486
	c0.006-1.088,0.01-1.807-0.29-2.107c-0.232-0.234-0.751-0.339-1.679-0.339c-0.889,0-1.338-0.318-1.338-0.943
	c0-0.301,0.087-0.54,0.26-0.713c0.184-0.184,0.439-0.271,0.783-0.271c0.711,0,1.408,0.044,2.083,0.087
	c0.663,0.042,1.349,0.086,2.036,0.086c0.687,0,1.393-0.044,2.074-0.087c0.69-0.042,1.405-0.086,2.115-0.086
	c0.645,0,1.044,0.377,1.044,0.984c0,0.625-0.463,0.943-1.375,0.943c-0.926,0-1.442,0.104-1.677,0.339
	c-0.3,0.301-0.296,1.021-0.29,2.107l0.001,0.486v11.53l-0.001,0.404c-0.004,1.743-0.012,4.38,0.719,5.688
	c1.236,2.267,4.584,2.442,5.58,2.442c1.41,0,4.02-0.27,5.636-2.069c1.216-1.391,1.215-3.062,1.214-5v-0.157V57.687z"/>
<path class="st1" d="M45.056,75.841c-0.058-0.004-0.111-0.008-0.159-0.014c-1.274-0.132-1.326-0.687-1.287-2.268
	c0.007-0.216,0.012-0.438,0.012-0.671v-6.466l0.001-0.328c0.004-1.901,0.008-3.866-1.174-5.561
	c-1.101-1.563-2.673-2.354-4.674-2.354c-2.504,0-4.296,1.697-5.365,2.712c-0.078,0.075-0.163,0.154-0.246,0.231V59.25v-0.067
	c0.003-0.239,0.006-0.564-0.226-0.8c-0.092-0.093-0.258-0.203-0.522-0.203c-0.435,0-0.696,0.329-0.871,0.547
	c-0.035,0.045-0.068,0.088-0.121,0.148c-0.543,0.719-2.058,1.721-2.853,1.979c-0.041,0.016-0.09,0.031-0.142,0.047
	c-0.341,0.111-0.978,0.318-0.978,1.039c0,0.445,0.346,0.745,0.859,0.745h0.479c0.444,0,0.683,0.099,0.754,0.188
	c0.121,0.136,0.266,0.628,0.26,2.2v0.135v7.685c0,0.232,0.006,0.455,0.011,0.67c0.039,1.58-0.013,2.133-1.286,2.265
	c-0.053,0.006-0.114,0.009-0.181,0.012c-0.366,0.018-1.226,0.061-1.226,0.975c0,0.381,0.244,0.824,0.934,0.824
	c0.581,0,1.175-0.043,1.749-0.086c0.571-0.041,1.161-0.086,1.733-0.086c0.521,0,1.062,0.041,1.633,0.083
	c0.59,0.044,1.201,0.089,1.815,0.089c0.523,0,0.861-0.34,0.861-0.865c0-0.844-0.875-0.904-1.248-0.932
	c-0.057-0.004-0.111-0.008-0.158-0.014c-1.276-0.132-1.329-0.685-1.29-2.265c0.005-0.215,0.012-0.438,0.012-0.67v-6.867
	c0-1.608,0.098-2.377,1.073-3.502c0.902-1.041,2.082-1.614,3.324-1.614c1.336,0,2.493,0.61,3.099,1.639
	c0.603,1.005,0.603,2.574,0.603,3.835v6.507c0,0.232,0.005,0.455,0.011,0.67c0.039,1.582-0.012,2.138-1.289,2.269
	c-0.052,0.006-0.112,0.009-0.18,0.012c-0.367,0.018-1.227,0.061-1.227,0.975c0,0.381,0.243,0.824,0.934,0.824
	c0.582,0,1.177-0.043,1.752-0.086c0.57-0.041,1.16-0.086,1.733-0.086c0.521,0,1.062,0.041,1.632,0.083
	c0.59,0.044,1.201,0.089,1.813,0.089c0.523,0,0.861-0.34,0.861-0.865C46.303,75.929,45.429,75.867,45.056,75.841z"/>
<path class="st1" d="M50.446,53.083c0-1.38,0.911-2.461,2.073-2.461c1.229,0,1.963,1.21,1.963,2.379
	c0,1.473-0.817,2.461-2.037,2.461C51.287,55.462,50.446,54.462,50.446,53.083z M54.145,72.894c0,0.232-0.006,0.455-0.012,0.67
	c-0.039,1.58,0.013,2.134,1.288,2.265c0.048,0.006,0.102,0.01,0.159,0.014c0.373,0.026,1.246,0.088,1.246,0.932
	c0,0.525-0.339,0.865-0.86,0.865c-0.614,0-1.225-0.045-1.815-0.089c-0.569-0.042-1.107-0.083-1.631-0.083
	c-0.573,0-1.163,0.045-1.732,0.086c-0.575,0.043-1.169,0.086-1.749,0.086c-0.689,0-0.936-0.443-0.936-0.824
	c0-0.914,0.859-0.957,1.227-0.975c0.065-0.003,0.129-0.006,0.181-0.012c1.274-0.131,1.325-0.685,1.286-2.265
	c-0.005-0.215-0.01-0.438-0.01-0.67v-7.685v-0.135c0.006-1.572-0.14-2.064-0.262-2.2c-0.07-0.09-0.308-0.188-0.753-0.188h-0.479
	c-0.515,0-0.859-0.3-0.859-0.745c0-0.721,0.636-0.928,0.978-1.039c0.053-0.016,0.102-0.031,0.143-0.047
	c0.793-0.258,2.308-1.26,2.851-1.979c0.054-0.062,0.088-0.104,0.122-0.148c0.175-0.218,0.438-0.547,0.871-0.547
	c0.267,0,0.432,0.11,0.523,0.203c0.229,0.234,0.228,0.561,0.225,0.8v0.067L54.145,72.894L54.145,72.894z"/>
<path class="st1" d="M76.435,58.851c-0.188-0.178-0.417-0.167-0.585-0.158c-0.038,0.001-0.078,0.005-0.116,0.005h-5.404
	c-0.24,0-0.973,0-0.973,0.778c0,0.861,1.063,0.861,1.413,0.861c0.239,0,1.019,0.049,1.019,0.688c0,0.32-0.209,0.918-0.349,1.312
	c-0.041,0.116-0.08,0.227-0.11,0.322c0.01-0.024-2.843,6.922-3.925,9.561c-0.946-2.59-3.385-9.248-3.385-9.25l-0.051-0.133
	c-0.166-0.441-0.512-1.359-0.512-1.771c0-0.576,0.592-0.729,0.941-0.729c0.026,0,0.071,0.002,0.118,0.004
	c0.319,0.018,0.803,0.044,1.107-0.246c0.146-0.139,0.225-0.325,0.225-0.539c0-0.263-0.077-0.473-0.229-0.625
	c-0.242-0.24-0.576-0.238-0.82-0.235l-0.068,0.002h-6.644l-0.069-0.003c-0.202-0.002-0.479-0.005-0.689,0.203
	c-0.141,0.139-0.21,0.332-0.21,0.578c0,0.571,0.376,0.861,1.094,0.86c1.17,0.062,1.33,0.511,1.807,1.839c0,0,0.095,0.266,0.097,0.27
	c0,0,5.328,14.33,5.336,14.347l0.214,0.514c0.111,0.412,0.391,0.678,0.726,0.678c0.51,0,0.769-0.618,0.939-1.028
	c0.02-0.045,0.042-0.101,0.045-0.106l0.016-0.025l0.013-0.029c0,0,5.268-12.689,5.268-12.69c0.076-0.186,0.15-0.378,0.229-0.58
	c0.552-1.408,1.177-3.005,2.451-3.187c0.028-0.004,0.066-0.008,0.105-0.012c0.321-0.035,1.176-0.125,1.176-0.927
	C76.631,59.308,76.631,59.037,76.435,58.851z"/>
<path class="st1" d="M92.539,72.698c-0.302,0-0.523,0.223-0.894,0.592c-0.727,0.727-2.078,2.077-4.544,2.077
	c-4.402,0-6.708-4.106-6.708-8.161c0-0.599,0.082-0.744,0.118-0.779c0.078-0.078,0.438-0.076,0.784-0.075l0.186,0.001h11.131
	c0.201,0,0.859-0.08,0.859-1.108c0-1.431-0.573-3.263-1.366-4.36c-1.259-1.714-3.311-2.698-5.628-2.698
	c-2.606,0-4.995,0.986-6.903,2.849c-1.914,1.846-2.769,4.041-2.769,7.116c0,5.515,3.861,9.832,8.789,9.832
	c2.461,0,4.34-0.733,6.121-2.408c1.354-1.294,1.536-1.803,1.536-2.126C93.253,73.026,92.939,72.698,92.539,72.698z M81.541,62.295
	c1.022-1.589,2.676-2.536,4.423-2.536c0.873,0,2.081,0.193,2.875,1.113c0.521,0.617,0.855,1.455,0.855,2.132
	c0,0.682-0.302,1.036-1.048,1.224c-1.013,0.271-3.037,0.312-4.152,0.312h-2.977c-0.058,0-0.12,0.002-0.185,0.005
	c-0.14,0.004-0.562,0.018-0.64-0.062c0-0.002-0.006-0.016-0.006-0.053C80.689,63.907,81.211,62.743,81.541,62.295z"/>
<path class="st1" d="M105.672,58.415c-2.024,0-3.367,1.799-4.099,2.797v-1.969l0.001-0.066c0.002-0.236,0.006-0.559-0.227-0.793
	c-0.093-0.093-0.258-0.203-0.522-0.203c-0.435,0-0.696,0.329-0.87,0.547c-0.036,0.045-0.07,0.088-0.123,0.148
	c-0.543,0.719-2.058,1.721-2.852,1.979c-0.042,0.016-0.09,0.031-0.142,0.047c-0.342,0.111-0.979,0.318-0.979,1.039
	c0,0.445,0.347,0.745,0.86,0.745H97.2c0.444,0,0.683,0.1,0.753,0.188c0.123,0.136,0.268,0.628,0.261,2.2l-0.001,0.135v7.685
	c0,0.232,0.006,0.455,0.012,0.67c0.039,1.58-0.013,2.134-1.287,2.265c-0.052,0.006-0.113,0.009-0.18,0.012
	c-0.367,0.018-1.228,0.061-1.228,0.975c0,0.381,0.245,0.824,0.935,0.824c0.582,0,1.176-0.043,1.75-0.086
	c0.57-0.041,1.16-0.086,1.733-0.086c0.521,0,1.062,0.041,1.632,0.083c0.59,0.044,1.2,0.089,1.813,0.089
	c0.523,0,0.86-0.34,0.86-0.865c0-0.844-0.874-0.904-1.246-0.932c-0.058-0.004-0.112-0.008-0.159-0.014
	c-1.274-0.131-1.326-0.685-1.287-2.265c0.006-0.215,0.012-0.438,0.012-0.67v-6.458v-0.188c-0.002-1.521-0.004-2.439,0.767-3.651
	c0.371-0.517,0.932-1.298,1.532-1.298c0.271,0,0.439,0.202,0.718,0.559c0.326,0.42,0.772,0.996,1.634,0.996
	c1.155,0,1.962-0.846,1.962-2.056C108.186,59.438,107.105,58.415,105.672,58.415z"/>
<path class="st1" d="M109.715,72.075l0.007-0.058c0.039-0.364,0.131-1.215,0.888-1.215c0.795,0,0.966,0.893,1.146,1.838
	c0.319,1.676,0.717,3.762,3.673,3.762c1.979,0,4.083-1.257,4.083-3.586c0-1.936-1.251-2.785-3.27-3.53
	c0.005,0.002-0.318-0.113-0.318-0.113c-2.356-0.834-5.584-1.978-5.584-5.43c0-1.602,0.725-3.028,2.098-4.129
	c1.224-0.967,2.731-1.435,4.615-1.435c0.974,0,3.006,0.281,3.973,0.726c0.763,0.397,0.707,1.239,0.666,1.854
	c-0.009,0.133-0.018,0.259-0.018,0.367c0.001,0.022,0.008,0.104,0.014,0.172c0.062,0.764,0.1,1.613-0.274,2.02
	c-0.14,0.148-0.324,0.231-0.525,0.231c-0.584,0-0.816-0.591-1.062-1.218c-0.437-1.107-1.031-2.625-3.437-2.625
	c-1.217,0-2.977,0.928-2.977,2.604c0,1.904,1.746,2.562,3.768,3.325c2.555,0.964,5.451,2.058,5.451,5.954
	c0,3.998-3.774,6.387-7.424,6.387c-1.278,0-3.543-0.516-4.877-1.281c-0.742-0.358-0.734-1.042-0.728-1.645l0.001-0.191
	C109.604,74.844,109.713,72.105,109.715,72.075z"/>
<g>
	<path class="st1" d="M129.662,55.462c1.219,0,2.037-0.988,2.037-2.461c0-1.169-0.734-2.379-1.964-2.379
		c-1.162,0-2.073,1.082-2.073,2.461S128.504,55.462,129.662,55.462z"/>
	<path class="st1" d="M132.796,75.841c-0.059-0.004-0.111-0.008-0.159-0.014c-1.274-0.132-1.326-0.685-1.287-2.265
		c0.006-0.215,0.012-0.438,0.012-0.67V59.251v-0.067c0.002-0.239,0.007-0.564-0.226-0.8c-0.092-0.093-0.258-0.203-0.523-0.203
		c-0.433,0-0.695,0.329-0.869,0.547c-0.035,0.045-0.07,0.088-0.122,0.148c-0.543,0.719-2.059,1.721-2.853,1.979
		c-0.041,0.016-0.09,0.031-0.142,0.047c-0.342,0.111-0.978,0.318-0.978,1.039c0,0.445,0.347,0.745,0.859,0.745h0.479
		c0.445,0,0.683,0.099,0.754,0.188c0.121,0.136,0.267,0.628,0.261,2.2l-0.001,0.135v7.685c0,0.232,0.005,0.455,0.011,0.67
		c0.039,1.58-0.012,2.134-1.286,2.265c-0.053,0.006-0.114,0.009-0.181,0.012c-0.367,0.018-1.227,0.061-1.227,0.975
		c0,0.381,0.245,0.824,0.935,0.824c0.581,0,1.175-0.043,1.749-0.086c0.569-0.041,1.16-0.086,1.732-0.086
		c0.522,0,1.062,0.041,1.633,0.083c0.591,0.044,1.2,0.089,1.813,0.089c0.523,0,0.861-0.34,0.861-0.865
		C134.043,75.929,133.169,75.867,132.796,75.841z"/>
</g>
<path class="st1" d="M145.067,74.866c0-0.335-0.276-0.707-0.676-0.707c-0.253,0-0.442,0.168-0.759,0.446
	c-0.445,0.396-1.118,0.99-1.887,0.99c-0.399,0-0.713-0.121-0.96-0.367c-0.789-0.79-0.789-2.682-0.788-3.934V71.21V60.82
	c0-0.397,0.069-0.479,0.072-0.48c0.055-0.036,0.305-0.023,0.471-0.016c0.118,0.006,0.253,0.013,0.396,0.013h2.059
	c0.145,0,0.274,0.006,0.391,0.012c0.354,0.02,0.66,0.034,0.903-0.197c0.231-0.221,0.265-0.551,0.265-0.876c0-0.269,0-0.98-0.75-0.98
	c0,0-3.638,0-3.604,0.002c-0.113-0.009-0.155-0.027-0.167-0.033c-0.013-0.021-0.035-0.098-0.035-0.365V55
	c0-0.82-0.498-0.908-0.712-0.908c-0.474,0-0.681,0.463-0.751,0.621c-0.803,1.869-1.792,2.828-3.369,3.967
	c-0.024,0.021-0.052,0.043-0.08,0.066c-0.201,0.166-0.505,0.416-0.505,0.852c0,0.201,0.079,0.385,0.224,0.519
	c0.306,0.28,0.801,0.266,1.24,0.229c0.036-0.003,0.081-0.007,0.095-0.007c0.087,0,0.167-0.002,0.237-0.004
	c0.082-0.002,0.177-0.004,0.24,0c0.011,0.051,0.021,0.143,0.021,0.324v10.554l-0.004,0.581c-0.016,1.614-0.034,3.442,0.888,4.756
	c0.653,0.898,1.767,1.434,2.977,1.434c1.33,0,2.641-0.587,3.693-1.651C144.45,76.118,145.067,75.481,145.067,74.866z"/>
<path class="st1" d="M164.468,58.696h-5.839c-0.517,0-0.935,0.423-0.935,0.939c0,0.701,0.887,0.701,1.265,0.701
	c1.013,0,1.524,0.354,1.524,1.053c0,0.38-0.279,1.066-0.448,1.479l-0.033,0.082c-0.002,0.007-2.688,6.978-3.718,9.652
	c-1.023-2.729-3.724-9.928-3.724-9.928l-0.031-0.082c-0.171-0.455-0.383-1.021-0.383-1.448c0-0.785,1.305-0.808,1.452-0.808
	c0.863,0,1.301-0.236,1.301-0.701c0-0.617-0.47-0.939-0.934-0.939h-7.088c-0.658,0-1.117,0.388-1.117,0.939
	c0,0.701,0.911,0.701,1.301,0.701c0.908,0,1.286,0.865,1.759,2.186l0.163,0.447c0,0,4.849,12.762,4.844,12.75
	c0.048,0.141,0.104,0.282,0.162,0.433c0.153,0.395,0.328,0.84,0.328,1.189c0,0.284-0.099,0.542-0.214,0.84
	c-0.03,0.079-0.062,0.161-0.088,0.235l-1.249,3.231c-0.038,0.101-0.073,0.201-0.107,0.301c-0.177,0.506-0.312,0.843-0.59,0.915
	c-0.362,0.088-0.818,0.079-1.221,0.073l-0.298-0.004c-1.595,0-1.595,1.414-1.595,2.02c0,0.521,0.146,0.935,0.438,1.226
	c0.509,0.508,1.313,0.507,1.961,0.506h0.077c1.601,0,1.796-0.44,2.173-1.836c0,0,0.031-0.113,0.02-0.074
	c0,0,7.378-19.391,7.377-19.389c0.313-0.816,1.27-3.298,1.972-4.285c0.317-0.451,0.994-0.733,1.294-0.768
	c0.049-0.008,0.111-0.015,0.177-0.021c0.372-0.035,0.994-0.095,0.994-0.637C165.438,59.09,165.048,58.696,164.468,58.696z"/>
<path class="st0" d="M233.863,51.088h-0.933h-28.143h-0.134h-28.143h-0.932h-0.438v0.437v0.933c0,12.975,0,43.161,0.006,43.262
	c0.929,10.616,11.588,28.222,29.186,33.666l0.274,0.086l0.129,0.04l0.129-0.04l0.275-0.086
	c17.578-5.438,28.229-23.094,29.157-33.785V52.456v-0.933v-0.437L233.863,51.088L233.863,51.088z"/>
<path class="st0" d="M204.655,68.581h28.275v27.018c-0.812,9.29-10.483,26.998-28.192,32.479
	c-17.709-5.48-27.412-23.188-28.226-32.479V68.581h28.275H204.655z"/>
<path class="st2" d="M201.164,80.456c0,0,2.864,0.188,3.091-2.271c0,0,0.227,1.847,0.79,1.854c0.642-0.008,0.641-1.928,0.641-1.928
	c0.987,2.629,3.466,2.795,3.466,2.795c-2.084-1.432-1.964-5.273-1.945-5.562c0.12-1.926,1.784-1.748,1.911-2.883
	c0.175-1.583-1.73-1.244-1.73-1.244s0.807,0.008,0.955,0.396c0.343,0.9-1.208,1.01-1.208,1.01c-1.892,0.49-2.541-0.631-3.226-0.757
	c-0.687-0.126-0.812,0.323-0.955,0.485c-0.146,0.162-3.062,0.333-3.669,0.975c-0.696,0.734-0.621,1.602-0.145,2.147
	c0,0,0.269-1.027,1.372-1.067c1.069-0.037,2.938,1.396,3.35,2.233c-0.468,0.021-4.641,0.285-5.181-0.112
	c-0.343-0.253-0.73-0.77-0.714-1.111c0,0-0.224,1.07,0.28,1.414c0.506,0.342,0.653,0.283,0.961,0.301
	c0.289,0.018,4.316-0.104,4.75-0.107c-0.1,0.304-0.005,1.085-0.891,1.158l-3.317,0.001c0,0-0.1,0.835,1.198,0.472
	c0.27-0.075,1.142-0.311,1.404,0.158C202.527,79.124,203.12,80.165,201.164,80.456z"/>
<path class="st2" d="M203.316,109.433c-1.187,0.771-3.188,0.125-3.188,0.125s0.05,0.554-1.748,1.311
	c-2.695,1.134-5.527,3.988-1.827,8.146c0,0-1.536-4.732,0.843-5.839c0,0,2.063,2.015,5.043-1.985
	C203.044,110.379,203.316,109.433,203.316,109.433z"/>
<path class="st2" d="M196.622,92.743c-0.094,1.233-0.271,1.283-1.4,1.837c0,0-0.436-0.416-0.657-0.844
	c-0.695-1.338,0.469-3.311,0.469-3.311c-1.268,1.563-3.104,1.038-3.104,1.038c0.135-1.336,1.921-2.548,1.921-2.548
	c-1.646,0.305-2.941-0.603-2.941-0.603c0.46-0.862,2.191-1.962,2.191-1.962c-1.675-0.107-2.848-1.154-2.848-1.154
	c0.502-0.712,2.381-1.646,2.381-1.646c-0.897-0.537-1.78-2.098-1.78-2.098c1.275-0.688,2.752-0.535,2.752-0.535
	c-2.371-1.732,0.191-6.459,0.191-6.459c-0.362,7.135,5.137,5.276,4.707,8.909c-0.354,2.987-3.603,0.795-3.603,0.795
	c-0.563,4.16,1.816,4.554,1.816,4.554s-0.115,1.004-0.152,2.058C196.519,92.062,196.666,92.149,196.622,92.743z"/>
<path class="st2" d="M189.382,103.118c7.566-0.188,8.922-5.926,8.922-5.926c-0.721-1.062-0.848-1.617-0.848-1.617
	s-0.117-0.314-0.119-0.312c-0.508,0.547-2.412,1.258-2.412,1.258s-1.096-0.955-1.371-1.349c-0.737-1.056-0.853-1.83-0.853-1.83
	c-1.283,0.032-2.458-1.086-2.458-1.086c-0.072-1.178,0.411-2.161,0.411-2.161c-0.913-0.418-1.854-1.354-1.854-1.354
	c0.612-1.298,1.014-1.72,1.014-1.72c-1.459-1.129-1.512-1.82-1.512-1.82c0.361-0.979,1.691-1.942,1.691-1.942
	c-0.571-0.766-1.11-2.26-1.11-2.26c1.051-1.056,2.065-1.371,2.065-1.371c-0.161-0.596-0.125-1.166-0.082-1.795
	c0,0-8.683-4.522-9.644-7.454c0,0-0.403,2.598-0.24,4.276c0.145,1.49,2.456,3.929,8.047,7.668c-3.432-0.525-8.129-2.367-9.151-4.207
	c0,0-0.02,2.666,0.575,4.245c0.48,1.281,2.91,2.197,8.385,4.886c-2.701,1.485-7.491-0.162-8.863-1.545c0,0,0.759,2.324,1.657,3.754
	c0.565,0.901,2.836,2.414,8.109,1.633c-1.958,2.436-5.714,4.271-8.261,3.117c0,0,0.263,2.313,1.81,2.989
	c1.144,0.5,3.556,0.816,7.4-2.161c-2.318,5.741-7.979,3.987-7.979,3.987s1.337,2.287,2.827,3.08c1.32,0.703,4.045,0.142,8.467-4.666
	C194.007,97.435,193.73,101.688,189.382,103.118z"/>
<path class="st2" d="M199.134,98.759c0,0,1.488,2.082,1.953,3.464c0,0-2.947,2.541-2.418,5.329c0,0-0.987-2.021-0.314-3.56
	c0.063-0.146,0.379-0.993,0.379-0.993s-2.549,1.215-4.229,0.303c0,0,1.811,0.213,3.816-2.959
	C199.386,98.657,199.134,98.759,199.134,98.759z"/>
<path class="st2" d="M189.346,107.335c-0.343,0.02-1.677-0.469-2.019,0.541c-0.396,1.167,0.965,1.69,1.748,1.009
	c0.847-0.739,2.145-0.721,2.449-0.198c0.141,0.237,0.312,0.752-0.829,1.622c-0.354,0.271-2.271,1.46-0.937,2.723
	c0.456,0.432,1.702,0.26,2.019-1.479c0.234-1.285,0.638-1.946,1.113-2.162c0.238-0.107,1.018-0.337,1.428,0.009
	c0.113,0.096,0.381,0.299,0.381,0.299c0.691,0.456,1.556-0.084,1.374-0.842c-0.207-0.857-0.887-0.652-1.373-0.415
	c-0.366,0.18-0.832,0.029-0.832,0.029c-0.324-0.162-0.433-0.534,0.108-0.793c2.308-1.102,2.758-2.371,2.758-2.371
	c-1.105,0.135-2.028-0.203-2.028-0.203s-2.073,2.775-3.655,2.04c-0.517-0.24-0.715-1.075-0.72-1.466
	c-0.014-0.829-0.932-1.258-1.438-0.666c-0.478,0.559,0.073,1.146,0.567,1.338c0.289,0.112,0.739,0.495,0.559,0.788
	C189.841,107.43,189.584,107.321,189.346,107.335z"/>
<path class="st2" d="M188.544,104.29c0,0-0.42,0.191-0.48,0.576c0,0-0.815-0.601-1.381,0.35
	C186.683,105.216,186.838,103.689,188.544,104.29z"/>
<path class="st2" d="M186.549,108.161c0,0-0.192,0.42,0.181,1.045c0,0-1.033,0.385-0.349,1.707
	C186.381,110.913,184.879,109.471,186.549,108.161z"/>
<path class="st2" d="M188.65,112.769c0,0-0.03,0.462,0.537,0.915c0,0-0.831,0.725,0.275,1.72
	C189.463,115.403,187.55,114.583,188.65,112.769z"/>
<path class="st2" d="M196.773,109.657c0.276,0.112,0.515,0.387,0.405,1.133c0,0,1.019-1.055-0.379-1.861
	c-0.047-0.027-0.097-0.054-0.149-0.08c0,0,0.155,0.437-0.078,0.747C196.572,109.596,196.658,109.61,196.773,109.657z"/>
<path class="st2" d="M213.183,109.589c-0.275,0.114-0.514,0.387-0.405,1.133c0,0-1.02-1.054,0.379-1.861
	c0.047-0.026,0.098-0.054,0.148-0.079c0,0-0.155,0.436,0.078,0.746C213.383,109.527,213.297,109.542,213.183,109.589z"/>
<path class="st2" d="M205.048,82.198c0.725-0.217,1.063-0.739,1.063-0.739c0.491,0.639,1.967,0.994,2.683,1.044
	c1.728,4.536,5.468,7.288,2.002,13.441c-3.615,6.417-6.23,7.293-1.186,11.689c0,0-3.227,0.898-3.972-1.894
	c0,0,0.157,3.074-0.594,3.886c-0.751-0.812-0.603-3.844-0.603-3.844c-0.744,2.793-3.972,1.895-3.972,1.895
	c5.046-4.397,2.431-5.273-1.185-11.689c-3.466-6.153,0.308-8.924,2.034-13.461c0.791-0.073,2.122-0.414,2.713-1.055
	C204.035,81.472,204.318,81.995,205.048,82.198z"/>
<path class="st2" d="M206.775,109.433c1.188,0.771,3.188,0.125,3.188,0.125s-0.05,0.554,1.748,1.311
	c2.695,1.134,5.526,3.988,1.827,8.146c0,0,1.536-4.732-0.845-5.839c0,0-2.062,2.015-5.042-1.985
	C207.048,110.379,206.775,109.433,206.775,109.433z"/>
<path class="st2" d="M213.471,92.743c0.092,1.233,0.271,1.283,1.399,1.837c0,0,0.436-0.416,0.656-0.844
	c0.696-1.338-0.467-3.311-0.467-3.311c1.267,1.563,3.104,1.038,3.104,1.038c-0.136-1.336-1.921-2.548-1.921-2.548
	c1.646,0.305,2.941-0.603,2.941-0.603c-0.46-0.862-2.191-1.962-2.191-1.962c1.675-0.107,2.848-1.154,2.848-1.154
	c-0.503-0.712-2.382-1.646-2.382-1.646c0.897-0.537,1.78-2.098,1.78-2.098c-1.273-0.688-2.752-0.535-2.752-0.535
	c2.371-1.732-0.19-6.459-0.19-6.459c0.363,7.135-5.136,5.276-4.707,8.909c0.353,2.987,3.602,0.795,3.602,0.795
	c0.564,4.16-1.815,4.554-1.815,4.554s0.115,1.004,0.151,2.058C213.573,92.062,213.426,92.149,213.471,92.743z"/>
<path class="st2" d="M220.71,103.118c-7.566-0.188-8.923-5.926-8.923-5.926c0.722-1.062,0.849-1.617,0.849-1.617
	s0.117-0.314,0.119-0.312c0.508,0.547,2.411,1.258,2.411,1.258s1.097-0.955,1.372-1.349c0.736-1.056,0.853-1.83,0.853-1.83
	c1.283,0.032,2.458-1.086,2.458-1.086c0.072-1.178-0.412-2.161-0.412-2.161c0.914-0.418,1.855-1.354,1.855-1.354
	c-0.612-1.298-1.014-1.72-1.014-1.72c1.458-1.129,1.512-1.82,1.512-1.82c-0.361-0.979-1.691-1.942-1.691-1.942
	c0.57-0.766,1.11-2.26,1.11-2.26c-1.051-1.056-2.065-1.371-2.065-1.371c0.161-0.596,0.125-1.166,0.083-1.795
	c0,0,8.683-4.522,9.643-7.454c0,0,0.402,2.598,0.239,4.276c-0.144,1.49-2.456,3.929-8.047,7.668
	c3.433-0.525,8.129-2.367,9.152-4.207c0,0,0.018,2.666-0.575,4.245c-0.48,1.281-2.911,2.197-8.385,4.886
	c2.701,1.485,7.491-0.162,8.863-1.545c0,0-0.76,2.324-1.657,3.754c-0.566,0.901-2.836,2.414-8.11,1.633
	c1.959,2.436,5.714,4.271,8.261,3.117c0,0-0.262,2.313-1.809,2.989c-1.144,0.5-3.556,0.816-7.4-2.161
	c2.318,5.741,7.979,3.987,7.979,3.987s-1.337,2.287-2.827,3.08c-1.321,0.703-4.045,0.142-8.467-4.666
	C216.085,97.435,216.361,101.688,220.71,103.118z"/>
<path class="st2" d="M210.958,98.759c0,0-1.488,2.082-1.953,3.464c0,0,2.947,2.541,2.418,5.329c0,0,0.988-2.021,0.313-3.56
	c-0.062-0.146-0.379-0.993-0.379-0.993s2.55,1.215,4.23,0.303c0,0-1.812,0.213-3.817-2.959
	C210.705,98.657,210.958,98.759,210.958,98.759z"/>
<path class="st2" d="M220.747,107.335c0.342,0.02,1.676-0.469,2.018,0.541c0.396,1.167-0.965,1.69-1.748,1.009
	c-0.847-0.739-2.145-0.721-2.45-0.198c-0.14,0.237-0.312,0.752,0.829,1.622c0.354,0.271,2.271,1.46,0.938,2.723
	c-0.456,0.432-1.702,0.26-2.02-1.479c-0.233-1.285-0.637-1.946-1.112-2.162c-0.238-0.107-1.018-0.337-1.429,0.009
	c-0.111,0.096-0.38,0.299-0.38,0.299c-0.691,0.456-1.556-0.084-1.374-0.842c0.207-0.857,0.886-0.652,1.373-0.415
	c0.366,0.18,0.832,0.029,0.832,0.029c0.323-0.162,0.433-0.534-0.107-0.793c-2.308-1.102-2.76-2.371-2.76-2.371
	c1.106,0.135,2.029-0.203,2.029-0.203s2.072,2.775,3.655,2.04c0.517-0.24,0.715-1.075,0.721-1.466
	c0.012-0.829,0.93-1.258,1.437-0.666c0.478,0.559-0.073,1.146-0.568,1.338c-0.287,0.112-0.738,0.495-0.56,0.788
	C220.251,107.43,220.508,107.321,220.747,107.335z"/>
<path class="st2" d="M221.547,104.29c0,0,0.421,0.191,0.48,0.576c0,0,0.817-0.601,1.382,0.35
	C223.409,105.216,223.254,103.689,221.547,104.29z"/>
<path class="st2" d="M223.543,108.161c0,0,0.19,0.42-0.182,1.045c0,0,1.033,0.385,0.35,1.707
	C223.711,110.913,225.213,109.471,223.543,108.161z"/>
<path class="st2" d="M221.441,112.769c0,0,0.031,0.462-0.537,0.915c0,0,0.831,0.725-0.274,1.72
	C220.629,115.403,222.542,114.583,221.441,112.769z"/>
<path class="st2" d="M205.042,111.808c0.227-0.114,0.46-0.156,0.744-0.441c0,0,1.939,4.582,6.311,4.105c0,0-0.252,0.979-1.984,1.086
	c0,0,2.964,1.373,1.263,2.758c-1.116,0.908-1.996-1.639-1.996-1.639s-0.132,2.336-2.146,2.354c0,0,2.993-1.751-0.133-5.854
	c0.301,2.879-0.701,5.558-2.053,5.558l0,0c-1.353,0-2.354-2.679-2.053-5.558c-3.126,4.104-0.134,5.854-0.134,5.854
	c-2.015-0.02-2.146-2.354-2.146-2.354s-0.88,2.547-1.996,1.639c-1.7-1.385,1.262-2.758,1.262-2.758
	c-1.731-0.107-1.983-1.086-1.983-1.086c4.371,0.477,6.311-4.105,6.311-4.105C204.59,111.651,204.815,111.693,205.042,111.808z"/>
<path class="st0" d="M204.634,73.692l-0.034-0.131l-0.14-0.524l-0.033-0.127l-0.121,0.049l-2.343,0.91l0,0l1.258-0.069
	c-0.028,0.064-0.075,0.173-0.075,0.246c0,0.29,0.236,0.526,0.525,0.526c0.291,0,0.525-0.236,0.525-0.526
	c0-0.108-0.034-0.212-0.095-0.298l0.397-0.041L204.634,73.692z"/>
<path class="st0" d="M211.083,90.126c-0.409-0.82-0.871-1.074-1.294-1.212c-0.052-0.128-0.114-0.25-0.195-0.364
	c-0.545-0.779-1.43-0.884-2.064-0.641c-0.226,0.086-0.364,0.154-0.472,0.221l0.142-0.195c0.009-0.012,0.018-0.022,0.027-0.038
	c0.104-0.136,0.198-0.275,0.336-0.638c0.242-0.635,0.139-1.52-0.642-2.064c-0.114-0.079-0.236-0.145-0.363-0.193
	c-0.134-0.413-0.385-0.882-1.212-1.295l-0.229-0.114l-0.229,0.114c-0.819,0.409-1.074,0.872-1.212,1.294
	c-0.128,0.051-0.249,0.115-0.365,0.194c-0.777,0.546-0.883,1.431-0.641,2.064c0.138,0.361,0.232,0.502,0.336,0.638
	c0.011,0.016,0.021,0.026,0.028,0.038l0.153,0.214c-0.108-0.07-0.254-0.146-0.502-0.238c-0.635-0.243-1.52-0.14-2.063,0.641
	c-0.08,0.114-0.146,0.236-0.195,0.363c-0.412,0.133-0.881,0.385-1.295,1.213l-0.113,0.228l0.113,0.229
	c0.41,0.818,0.873,1.074,1.295,1.212c0.05,0.128,0.115,0.25,0.195,0.364c0.545,0.778,1.43,0.883,2.063,0.641
	c0.361-0.137,0.502-0.232,0.639-0.336c0.015-0.01,0.025-0.021,0.036-0.027c0,0,0.124-0.09,0.24-0.174v2.1l-0.249-0.204l-0.317,0.44
	c-0.009,0.012-0.019,0.024-0.028,0.039c-0.104,0.135-0.198,0.276-0.336,0.637c-0.242,0.636-0.138,1.521,0.642,2.064
	c0.114,0.08,0.236,0.145,0.363,0.195c0.134,0.413,0.385,0.881,1.213,1.295l0.229,0.112l0.229-0.112
	c0.819-0.41,1.073-0.873,1.211-1.295c0.128-0.051,0.25-0.115,0.364-0.195c0.779-0.545,0.884-1.43,0.642-2.064
	c-0.138-0.359-0.232-0.502-0.336-0.637c-0.011-0.015-0.02-0.027-0.027-0.039c0,0-0.314-0.436-0.316-0.434l-0.25,0.201v-2.091
	l0.222,0.16c0.014,0.008,0.024,0.019,0.038,0.027c0.136,0.104,0.277,0.199,0.638,0.336c0.636,0.242,1.521,0.139,2.064-0.641
	c0.08-0.114,0.146-0.236,0.194-0.363c0.414-0.134,0.881-0.385,1.295-1.213l0.113-0.229L211.083,90.126z"/>
<path class="st2" d="M209.846,90.31c-0.005-0.007-0.458-0.633-1.104-0.476c0.084-0.188,0.111-0.438-0.062-0.688
	c-0.262-0.374-0.652-0.34-0.822-0.27l-0.103,0.043l0.069,0.088c0.001,0.002,0.078,0.102,0.092,0.244
	c0.012,0.136-0.001,0.338-0.251,0.526c-0.124,0.096-0.458,0.109-0.579,0.106h-1.484c0-0.414,0-2.231,0-2.232
	c-0.002-0.117,0.012-0.451,0.106-0.576c0.188-0.25,0.393-0.263,0.527-0.25c0.143,0.012,0.242,0.09,0.243,0.092l0.088,0.069
	l0.043-0.104c0.07-0.17,0.104-0.56-0.269-0.821c-0.251-0.176-0.502-0.146-0.689-0.062c0.157-0.646-0.468-1.101-0.476-1.105
	c0,0-0.021-0.016-0.022-0.016h-0.026H205.1l-0.021,0.016c-0.009,0.006-0.634,0.459-0.478,1.105
	c-0.187-0.084-0.438-0.113-0.688,0.062c-0.374,0.263-0.339,0.651-0.271,0.821l0.044,0.103l0.088-0.067
	c0.001-0.002,0.103-0.08,0.242-0.092c0.137-0.013,0.34,0,0.529,0.25c0.091,0.121,0.104,0.432,0.104,0.556l-0.002,0.006v0.013v2.235
	c-0.335,0-1.553,0-1.555,0c-0.118,0.003-0.453-0.012-0.577-0.106c-0.249-0.188-0.262-0.392-0.25-0.526
	c0.014-0.144,0.091-0.242,0.091-0.242l0.071-0.09l-0.104-0.043c-0.17-0.07-0.562-0.104-0.821,0.27
	c-0.176,0.25-0.146,0.502-0.062,0.688c-0.646-0.157-1.101,0.469-1.104,0.476c0,0-0.015,0.022-0.015,0.023v0.026v0.027l0.015,0.021
	c0.005,0.008,0.459,0.633,1.104,0.476c-0.084,0.188-0.112,0.438,0.062,0.689c0.261,0.374,0.651,0.339,0.821,0.269l0.103-0.043
	l-0.069-0.088c0-0.002-0.077-0.103-0.091-0.243c-0.012-0.136,0.001-0.339,0.25-0.528c0.12-0.092,0.432-0.105,0.557-0.104
	l0.006,0.002h0.014h1.557v4.038c0,0,0,0.014,0.002,0.02l0,0c0.003,0.124-0.013,0.437-0.104,0.556
	c-0.189,0.25-0.393,0.264-0.528,0.252c-0.142-0.015-0.242-0.092-0.243-0.092l-0.088-0.071l-0.044,0.104
	c-0.068,0.17-0.104,0.562,0.271,0.821c0.251,0.176,0.502,0.146,0.688,0.062c-0.155,0.646,0.47,1.102,0.478,1.104
	c0,0,0.021,0.016,0.021,0.016h0.027h0.027l0.021-0.016c0.008-0.004,0.633-0.458,0.476-1.104c0.188,0.084,0.438,0.113,0.689-0.062
	c0.373-0.261,0.339-0.651,0.269-0.821l-0.043-0.104l-0.088,0.069c-0.001,0-0.102,0.078-0.243,0.093
	c-0.136,0.012-0.339-0.002-0.527-0.252c-0.095-0.123-0.108-0.458-0.106-0.578c0,0,0-3.447,0-4.034h1.489c0,0,0.014,0,0.019-0.002
	h0.001c0.124-0.002,0.436,0.013,0.556,0.104c0.25,0.189,0.263,0.394,0.251,0.528c-0.013,0.142-0.091,0.241-0.092,0.243l-0.07,0.088
	l0.104,0.043c0.171,0.07,0.562,0.105,0.822-0.269c0.175-0.251,0.146-0.502,0.062-0.689c0.646,0.157,1.1-0.468,1.104-0.476
	c0,0,0.017-0.021,0.017-0.023V90.36v-0.025L209.846,90.31z"/>
<rect x="176.494" y="52.464" class="st2" width="56.448" height="16.104"/>
<path class="st0" d="M185.853,66.063h0.689c-0.209-0.147-0.598-0.332-0.623-1.014c-0.038-1.016,0.199-1.809,0.199-1.809l2.455,0.207
	l-0.487-0.781l2.552-2.414l-0.697-0.218l0.441-1.729l-1.591,0.342l-0.282-0.795l-1.115,1.265l0.295-2.982l-0.91,0.753l-1.07-2.089
	l0,0l-1.071,2.089l-0.91-0.753l0.295,2.982l-1.116-1.265l-0.28,0.795l-1.59-0.342l0.44,1.729l-0.699,0.218l2.554,2.414l-0.487,0.781
	l2.455-0.207c0,0,0.265,0.795,0.199,1.809c-0.045,0.686-0.414,0.865-0.623,1.014H185.853z"/>
<path class="st0" d="M223.445,66.063h-0.688c0.209-0.147,0.596-0.332,0.622-1.014c0.039-1.016-0.199-1.809-0.199-1.809l-2.455,0.207
	l0.487-0.781l-2.552-2.414l0.697-0.218l-0.44-1.729l1.59,0.342l0.282-0.795l1.114,1.265l-0.295-2.982l0.911,0.753l1.071-2.089l0,0
	l1.07,2.089l0.91-0.753l-0.295,2.982l1.115-1.265l0.282,0.795l1.591-0.342l-0.441,1.729l0.697,0.218l-2.552,2.414l0.487,0.781
	l-2.455-0.207c0,0-0.267,0.795-0.199,1.809c0.045,0.686,0.414,0.865,0.622,1.014H223.445z"/>
<path class="st0" d="M204.841,56.993h9.877v9.343h-8.093c0,0-0.611-1.327-1.796-1.315c-1.162,0.011-1.774,1.315-1.774,1.315h-8.093
	v-9.343H204.841"/>
<path class="st0" d="M204.841,64.069c1.121-1.182,4.205,0.675,5.241,0.798c0.506,0.061,2.98,0.032,2.98,0.032v-9.328l-1.204-0.004
	c0,0-1.76,0.08-2.666-0.289c-0.905-0.368-3.257-1.2-4.353,0.435c-1.098-1.635-3.448-0.803-4.354-0.435
	c-0.905,0.369-2.666,0.289-2.666,0.289l-1.204,0.004v9.328c0,0,2.476,0.027,2.982-0.032
	C200.636,64.743,203.718,62.888,204.841,64.069z"/>
<g>
	<path class="st2" d="M204.158,56.169c-0.652-0.974-2.188-0.607-3.361-0.13c-1.075,0.438-2.91,0.353-2.973,0.349l-0.388,0.002v7.694
		c1.063,0.004,1.86-0.009,2.064-0.032c0.201-0.024,0.72-0.225,1.137-0.385c1.054-0.406,2.459-0.947,3.603-0.764v-6.61
		C204.203,56.237,204.158,56.169,204.158,56.169z"/>
	<path class="st2" d="M212.087,56.389c-0.065-0.001-0.13-0.001-0.19-0.007v0.006c-0.197,0.008-1.971,0.076-3.013-0.349
		c-1.174-0.479-2.709-0.844-3.366,0.138l-0.088,0.122l-0.004,6.589c1.111-0.188,2.454,0.33,3.556,0.756l0.062,0.023
		c0.417,0.16,0.936,0.359,1.137,0.385c0.204,0.023,1,0.036,2.064,0.032V56.39L212.087,56.389z"/>
</g>
</svg>
