<svg
  xmlns="http://www.w3.org/2000/svg"
  aria-label="James Knight PhD"
  role="img"
  height="52.38"
  viewBox="0 0 461.812 52.38"
>
  <title>James Knight</title>
  <desc>PhD</desc>
  <style>
    .title{fill:#1a405f}
    .name{fill:#f8f1e5}
  </style>
  <path class="name" d="M18.36 6.18v21.9c0 3.04-.28 5.5-.84 7.38-.561 1.88-1.551 3.3-2.97 4.26-1.42.96-3.411 1.44-5.97 1.44-2.721 0-5.58-.26-8.58-.78l.9-6.9c1.12.04 2.4.021 3.84-.06 1.44-.08 2.26-.24 2.46-.48.24-.399.36-1.359.36-2.88V6.18h10.8zM40.14 40.38l-.96-3.78c-1.84 3-4.4 4.5-7.68 4.5-2.68 0-4.87-.75-6.57-2.25-1.701-1.5-2.55-3.609-2.55-6.33 0-1.68.489-3.15 1.47-4.41.98-1.26 2.33-2.15 4.05-2.67 2.24-.64 5.7-1 10.38-1.08 0-2.64-.12-4.04-.36-4.2-.201-.16-.84-.24-1.92-.24-.68 0-1.62.04-2.82.12-1.92.081-4.521.3-7.8.66a83.998 83.998 0 0 1-.72-6.96c2.12-.439 4.34-.81 6.66-1.11 2.319-.3 4.399-.45 6.24-.45 3.2 0 5.6.531 7.2 1.59 1.599 1.06 2.64 2.451 3.12 4.17.48 1.72.699 3.9.66 6.54l-.06 8.82.18 7.08h-8.52zm-1.86-6.6v-4.44h-.48c-2.96 0-4.601.16-4.92.48-.201.201-.351.5-.45.9-.1.4-.15.78-.15 1.14 0 .96.219 1.62.66 1.98.439.36 1.119.54 2.04.54 1.04 0 2.139-.2 3.3-.6zM97.26 25.86v14.52H87V23.64c0-1.479-.141-2.359-.42-2.64-.32-.32-1-.48-2.04-.48l-.72.06a10.68 10.68 0 0 0-3.54.84c.039.84.06 2.32.06 4.44v14.52H70.08v-17.1c0-1.239-.141-2-.42-2.28-.321-.32-1-.48-2.04-.48l-.72.06c-1.121.04-2.28.3-3.48.78v19.02H53.16v-27.6h8.34l1.08 4.5c1.32-1.76 2.84-3.05 4.56-3.87 1.719-.819 3.459-1.23 5.22-1.23 1.479 0 2.889.221 4.23.66 1.339.44 2.27 1.061 2.79 1.86.24.36.439 1.02.6 1.98 1.28-1.56 2.74-2.7 4.38-3.42 1.64-.72 3.279-1.08 4.92-1.08 1.479 0 2.889.221 4.23.66 1.34.44 2.27 1.061 2.79 1.86.639.96.96 4.68.96 11.16zM124.319 32.88c.36 0 1.02-.04 1.98-.12l.9 6.18c-3.081 1.44-7.08 2.16-12 2.16-4.601 0-8.13-1.16-10.59-3.48-2.46-2.32-3.69-5.82-3.69-10.5 0-2.4.31-4.72.93-6.96.62-2.239 1.329-3.799 2.13-4.68.84-.879 2.4-1.64 4.68-2.28 2.28-.639 4.539-.96 6.78-.96 3.6 0 6.3.641 8.1 1.92 1.8 1.281 2.979 3.051 3.54 5.31.56 2.26.84 5.291.84 9.09-2.721.16-5.38.24-7.98.24h-8.52c0 1.281.27 2.241.81 2.88.54.641 1.31 1.05 2.31 1.23 1 .18 2.4.27 4.2.27 1 0 2.86-.099 5.58-.3zm-12.84-11.94c-.12.92-.201 1.96-.24 3.12h3.12c1.88 0 3.24-.02 4.08-.06 0-1.92-.27-3.279-.81-4.08-.54-.8-1.47-1.2-2.79-1.2-1.08 0-2.02.221-2.82.66-.239.12-.419.64-.54 1.56zM150.449 38.7c-2.26 1.56-5.47 2.34-9.63 2.34-2.92 0-6.28-.42-10.08-1.26.08-.8.27-1.95.57-3.45s.549-2.649.75-3.45c1.44.24 3.04.43 4.8.57 1.76.141 3.26.21 4.5.21 1.08 0 1.74-.06 1.98-.18.04-.04.09-.15.15-.33s.09-.37.09-.57c0-.8-.5-1.34-1.5-1.62-.321-.08-1.541-.42-3.66-1.02-2.121-.6-3.85-1.689-5.19-3.27-1.34-1.58-2.01-3.549-2.01-5.91 0-1.239.279-2.619.84-4.14.56-1.52 1.16-2.48 1.8-2.88.48-.319 1.64-.649 3.48-.99 1.839-.339 3.54-.51 5.1-.51 3.32 0 6.66.24 10.02.72 0 .72-.1 1.93-.3 3.63-.201 1.701-.381 2.771-.54 3.21-3.4-.439-6.141-.66-8.22-.66-1.08 0-1.78.06-2.1.18-.081.041-.161.15-.24.33-.081.18-.12.411-.12.69 0 .561.18.96.54 1.2.36.28 1.299.621 2.82 1.02 1.8.52 3.35 1.06 4.65 1.62 1.299.561 2.439 1.401 3.42 2.52.979 1.121 1.47 2.561 1.47 4.32 0 3.561-1.131 6.12-3.39 7.68zM198.718 40.38h-11.82l-6.66-12.78c-.12-.2-.43-.76-.93-1.68-.5-.92-1.05-1.8-1.65-2.64v17.1h-10.8V6.18h10.8v15.54c.68-.759 1.27-1.59 1.77-2.49.5-.9.79-1.43.87-1.59l6.42-11.46h11.4l-6.84 11.46c-.12.161-.38.581-.78 1.26-.4.681-.831 1.311-1.29 1.89-.46.58-.951 1.11-1.47 1.59.72.681 1.31 1.35 1.77 2.01.459.66.99 1.53 1.59 2.61l7.62 13.38zM228.327 17.82c.181 1.761.271 4.44.271 8.04v14.52h-10.26V23.52c0-1.28-.101-2.08-.301-2.4-.32-.399-1.06-.6-2.22-.6-.561 0-.98.021-1.26.06-1.12.04-2.28.3-3.48.78v19.02h-10.26v-27.6h8.34l1.141 4.62c2.88-3.48 6.319-5.22 10.319-5.22 1.44 0 2.79.201 4.05.6 1.261.4 2.21.981 2.851 1.74.358.44.629 1.54.809 3.3zM233.516 12.78h10.261v27.6h-10.261v-27.6zm1.651-4.8c-.98-.92-1.47-2.02-1.47-3.3 0-1.279.489-2.379 1.47-3.3.979-.92 2.149-1.38 3.51-1.38 1.359 0 2.521.46 3.48 1.38.96.92 1.439 2.021 1.439 3.3 0 1.281-.479 2.38-1.439 3.3-.96.92-2.121 1.38-3.48 1.38-1.361 0-2.531-.46-3.51-1.38zM269.156 12.69c2.04.261 4.419.61 7.14 1.05v23.88c0 5.719-1.9 10.16-5.7 13.32-.479.399-1.56.74-3.239 1.02-1.681.279-3.581.42-5.7.42-4.601 0-8.241-.6-10.92-1.8-.041-.88.029-2.04.21-3.48.18-1.44.369-2.58.569-3.42 2.881.44 5.7.66 8.46.66 1.4 0 2.59-.07 3.57-.21.979-.141 1.59-.351 1.83-.63.319-.321.56-1.521.72-3.6.04-.56.061-1.38.061-2.46v-1.5c-1.001 1.48-2.28 2.541-3.84 3.18-1.561.64-2.961.96-4.2.96-3.36 0-5.9-1.1-7.62-3.3-1.721-2.199-2.58-5.419-2.58-9.66 0-2.8.39-5.43 1.17-7.89s1.85-4.17 3.21-5.13c.88-.6 2.311-1.05 4.29-1.35 1.98-.3 4.209-.45 6.69-.45 1.878 0 3.839.13 5.879.39zm-3.12 19.17V19.32c-.44-.08-1.101-.159-1.98-.24-.4-.04-1-.06-1.8-.06-1.24 0-2.021.12-2.34.36-.44.321-.79 1.21-1.05 2.67a26.07 26.07 0 0 0-.391 4.59c0 2.201.25 3.741.75 4.62.5.88 1.43 1.32 2.79 1.32 1.48 0 2.82-.24 4.021-.72zM308.666 17.82c.181 1.761.271 4.44.271 8.04v14.52h-10.26v-14.4-2.37c0-1.419-.101-2.29-.301-2.61-.12-.16-.41-.279-.87-.36-.46-.08-.989-.12-1.59-.12l-1.02.06c-1.12.04-2.28.3-3.48.78v19.02h-10.26v-36l10.26-.42v7.02c0 2.88-.1 4.8-.3 5.76l.061.06c2.719-3.08 5.979-4.62 9.779-4.62 1.44 0 2.79.201 4.05.6 1.261.4 2.21.981 2.851 1.74.358.44.629 1.54.809 3.3zM326.395 29.04c0 .72.02 1.47.061 2.25.039.78.159 1.27.359 1.47.279.28 1.261.42 2.94.42l2.04-.06c.36 1.92.54 4.14.54 6.66-.761.28-1.87.54-3.33.78-1.461.24-2.85.36-4.17.36-2.76 0-4.89-.609-6.39-1.83-1.5-1.22-2.25-3.11-2.25-5.67V18.66h-4.5V13.2l4.5-.42 2.699-6.6 7.5-.42v7.02h6.36v5.88h-6.36v10.38z"/>
  <path class="title" d="M347.184 30.51c1.299 1.26 1.95 2.991 1.95 5.19 0 2.121-.721 4.331-2.16 6.63a36.592 36.592 0 0 1-5.16 6.45l-4.08-3.48c1.479-2.08 2.76-4.08 3.84-6-2.399-.68-4.14-1.399-5.22-2.16-.12-.6-.18-1.16-.18-1.68 0-1.959.569-3.59 1.71-4.89 1.14-1.299 2.729-1.95 4.77-1.95 1.72 0 3.229.63 4.53 1.89zM385.133 6.9c2.24.6 4.03 1.75 5.37 3.45 1.34 1.7 2.011 4.13 2.011 7.29 0 1.401-.21 2.831-.631 4.29-.42 1.461-.939 2.73-1.56 3.81s-1.17 1.78-1.65 2.1c-.561.4-1.8.71-3.72.93-1.92.22-4.18.33-6.78.33-.92 0-2.34-.04-4.26-.12v11.4h-10.8V6.18c4.2-.12 8.8-.18 13.8-.18 3.241 0 5.98.3 8.22.9zm-3.119 11.4c0-2.04-.431-3.48-1.29-4.32-.861-.84-2.351-1.26-4.471-1.26-.72 0-1.5.06-2.34.18v9.12c.399.04 1.18.06 2.34.06 3.08 0 4.801-.22 5.16-.66.4-.52.601-1.56.601-3.12zM423.322 17.82c.181 1.761.271 4.44.271 8.04v14.52h-10.26v-14.4-2.37c0-1.419-.101-2.29-.301-2.61-.12-.16-.41-.279-.87-.36-.46-.08-.989-.12-1.59-.12l-1.02.06c-1.12.04-2.28.3-3.48.78v19.02h-10.26v-36l10.26-.42v7.02c0 2.88-.1 4.8-.3 5.76l.061.06c2.719-3.08 5.979-4.62 9.779-4.62 1.44 0 2.79.201 4.05.6 1.261.4 2.21.981 2.851 1.74.359.44.629 1.54.809 3.3zM452.362 7.5c2.979.88 5.3 2.541 6.96 4.98 1.659 2.44 2.49 5.94 2.49 10.5 0 4.88-.881 8.59-2.641 11.13-1.761 2.541-4.12 4.221-7.08 5.04-2.96.82-6.7 1.23-11.22 1.23h-12V6.18h12c4.68 0 8.51.441 11.491 1.32zm-2.431 21c.2-2 .301-3.84.301-5.52 0-2.12-.15-3.81-.45-5.07-.3-1.26-.831-2.27-1.59-3.03-1.2-1.32-3.261-1.98-6.181-1.98-.52 0-1.3.041-2.34.12v19.92c.68.081 1.74.12 3.181.12 1.479 0 2.789-.069 3.93-.21 1.14-.14 1.85-.35 2.13-.63.479-.48.819-1.72 1.019-3.72z"/>
</svg>
