<svg xmlns="http://www.w3.org/2000/svg" width="250px" height="200px" viewBox="0 0 250 200" xml:space="preserve">
<style type="text/css">
<![CDATA[
	.st0{fill:#0033A0;}
]]>
</style>
<path class="st0" d="M91.667,154.846v-21.779H25.001c0-26.027,21.514-46.479,46.747-52.323c25.763-5.843,48.872,6.375,50.996,27.624
	C124.603,126.428,111.588,145.02,91.667,154.846 M25.001,88.712V66.667h61.886c-5.312,0-10.89,0.532-16.468,1.595
	C53.686,70.652,38.016,78.354,25.001,88.712 M91.667,66.667V0h66.667v66.666H225v66.667h-66.666V200H91.667
	c43.03-14.873,71.979-53.385,65.872-88.445C152.49,82.869,124.868,67.199,91.667,66.667L91.667,66.667z"/>
</svg>
