<svg xmlns="http://www.w3.org/2000/svg" height="150px" viewBox="0 0 250 250">
<style type="text/css">
<![CDATA[
	.st0{fill:#F8F1E5;}
]]>
</style>
<g>
	<path class="st0" d="M47.08,181.514c-0.258-0.279-0.549-0.485-0.876-0.612c-0.327-0.129-0.653-0.193-0.979-0.193h-4.482v6.793
		h4.691c0.677,0,1.261-0.29,1.751-0.875c0.49-0.583,0.735-1.436,0.735-2.558c0-0.582-0.076-1.084-0.227-1.504
		C47.541,182.145,47.336,181.793,47.08,181.514z"/>
	<path class="st0" d="M78.205,186.556c-0.583,0-1.126,0.116-1.628,0.351c-0.502,0.233-0.934,0.56-1.296,0.98
		c-0.361,0.42-0.647,0.927-0.858,1.522c-0.209,0.595-0.314,1.243-0.314,1.943c0,1.447,0.385,2.607,1.155,3.483
		c0.771,0.877,1.751,1.312,2.941,1.312c0.583,0,1.121-0.115,1.61-0.349c0.49-0.233,0.916-0.562,1.279-0.98
		c0.361-0.42,0.647-0.928,0.857-1.524c0.21-0.595,0.315-1.242,0.315-1.942c0-1.445-0.385-2.608-1.155-3.484
		C80.341,186.993,79.373,186.556,78.205,186.556z"/>
	<path class="st0" d="M125,0C55.964,0,0,55.964,0,125c0,69.035,55.964,125,125,125c69.035,0,125-55.965,125-125
		C250,55.964,194.035,0,125,0z M53.153,187.221c-0.384,1.004-0.921,1.903-1.61,2.696c-0.688,0.794-1.522,1.423-2.503,1.89
		c-0.98,0.47-2.066,0.702-3.256,0.702h-5.042v8.018H35v-24.86h10.609c1.19,0,2.281,0.245,3.274,0.735
		c0.991,0.49,1.843,1.132,2.555,1.926c0.712,0.795,1.272,1.694,1.68,2.696c0.409,1.003,0.613,2.02,0.613,3.045
		C53.731,185.167,53.54,186.218,53.153,187.221z M68.017,186.94c-1.354,0.024-2.58,0.245-3.677,0.665
		c-1.097,0.422-1.891,1.051-2.381,1.892v11.029h-5.602v-18.382h5.147v3.711c0.63-1.238,1.441-2.206,2.434-2.905
		c0.991-0.701,2.048-1.062,3.169-1.088c0.256,0,0.442,0,0.56,0c0.117,0,0.233,0.014,0.35,0.037V186.94z M87.396,194.977
		c-0.432,1.155-1.067,2.17-1.909,3.046c-0.84,0.875-1.873,1.57-3.099,2.084c-1.226,0.513-2.62,0.77-4.184,0.77
		c-1.564,0-2.958-0.257-4.184-0.77c-1.226-0.514-2.258-1.209-3.099-2.084c-0.841-0.876-1.477-1.891-1.909-3.046
		c-0.432-1.154-0.647-2.363-0.647-3.624s0.215-2.469,0.647-3.624c0.432-1.154,1.068-2.171,1.909-3.045
		c0.84-0.877,1.873-1.577,3.099-2.103c1.225-0.523,2.621-0.788,4.184-0.788c1.564,0,2.953,0.265,4.167,0.788
		c1.213,0.525,2.241,1.226,3.081,2.103c0.84,0.874,1.482,1.891,1.926,3.045c0.443,1.155,0.666,2.363,0.666,3.624
		S87.829,193.822,87.396,194.977z M112.414,200.526h-5.743v-10.189h-9.908v10.189h-5.742v-24.86h5.742v9.628h9.909v-9.628h5.741
		V200.526z M122.322,200.526h-5.602v-18.382h5.602V200.526z M122.322,180.043h-5.602v-5.077h5.602V180.043z M135.434,200.456
		c-0.99,0.28-1.988,0.42-2.993,0.42c-0.699,0-1.358-0.088-1.978-0.263s-1.161-0.455-1.628-0.84
		c-0.468-0.386-0.835-0.893-1.103-1.522c-0.269-0.631-0.403-1.389-0.403-2.277v-9.593h-2.346v-4.236h2.346v-5.849h5.603v5.849h3.746
		v4.236h-3.746v7.667c0,0.609,0.152,1.046,0.455,1.313c0.303,0.27,0.688,0.402,1.154,0.402c0.421,0,0.852-0.068,1.297-0.209
		c0.442-0.142,0.827-0.292,1.154-0.457l1.086,4.447C137.307,199.874,136.427,200.176,135.434,200.456z M138.331,156.317
		l-0.354,0.842l-0.062-0.035c-2.371,4.174-6.85,6.996-11.994,6.996c-5.444,0-10.138-3.161-12.382-7.74l-0.039,0.022L67.041,50
		l58.819,77.41L182.959,50l-44.064,104.975C138.729,155.436,138.541,155.882,138.331,156.317z M152.993,199.265
		c-1.354,1.074-3.187,1.611-5.497,1.611c-1.564,0-3.105-0.251-4.621-0.753c-1.518-0.501-2.803-1.23-3.852-2.188l1.994-3.432
		c1.121,0.77,2.212,1.366,3.274,1.785c1.062,0.421,2.083,0.631,3.063,0.631c0.723,0,1.283-0.13,1.682-0.385
		c0.396-0.257,0.594-0.632,0.594-1.122s-0.252-0.881-0.753-1.172s-1.383-0.601-2.642-0.928c-1.238-0.351-2.283-0.688-3.135-1.017
		c-0.852-0.325-1.547-0.687-2.084-1.084c-0.535-0.396-0.921-0.853-1.155-1.366c-0.233-0.512-0.35-1.121-0.35-1.819
		c0-0.934,0.187-1.786,0.562-2.558c0.373-0.77,0.887-1.422,1.541-1.961c0.652-0.536,1.429-0.956,2.328-1.26
		c0.896-0.305,1.872-0.456,2.922-0.456c1.379,0,2.667,0.189,3.871,0.56c1.199,0.375,2.361,1.052,3.482,2.031l-2.172,3.361
		c-1.049-0.723-1.982-1.247-2.8-1.574c-0.818-0.328-1.61-0.49-2.382-0.49c-0.607,0-1.121,0.122-1.539,0.367
		c-0.421,0.245-0.632,0.636-0.632,1.173c0,0.514,0.228,0.899,0.685,1.154c0.455,0.257,1.301,0.539,2.536,0.841
		c1.31,0.352,2.411,0.701,3.311,1.05c0.897,0.352,1.626,0.743,2.188,1.175c0.559,0.434,0.968,0.928,1.226,1.488
		c0.256,0.561,0.384,1.226,0.384,1.994C155.023,196.744,154.347,198.19,152.993,199.265z M168.469,193.419h-10.784v-5.044h10.784
		V193.419z M180.429,199.31c-0.015,0.036-0.028,0.074-0.046,0.108l-0.09,0.212l-0.019-0.012c-0.425,0.747-1.219,1.257-2.14,1.257
		c-0.974,0-1.807-0.568-2.209-1.39l-0.014,0.009l-8.314-19.042l10.527,13.854l10.219-13.854L180.429,199.31z M195.299,200.526
		h-5.602v-18.382h5.602V200.526z M195.299,180.043h-5.602v-5.077h5.602V180.043z M199.524,200.526v-3.361h0.001l9.383-11.135h-8.893
		v-3.886h14.74v3.361l-9.314,11.133H215v3.888H199.524z"/>
</g>
</svg>
